<?xml version="1.0" encoding="UTF-8" standalone="no"?>
<!DOCTYPE svg PUBLIC "-//W3C//DTD SVG 1.1//EN"
 "http://www.w3.org/Graphics/SVG/1.1/DTD/svg11.dtd">
<!-- Generated by graphviz version 2.28.0 (20121217.1915)
 -->
<!-- Title: _anonymous_0 Pages: 1 -->
<svg width="1258pt" height="1174pt"
 viewBox="0.00 0.00 1258.00 1174.00" xmlns="http://www.w3.org/2000/svg" xmlns:xlink="http://www.w3.org/1999/xlink">
<g id="graph1" class="graph" transform="scale(1 1) rotate(0) translate(4 1170)">
<title>_anonymous_0</title>
<polygon fill="white" stroke="white" points="-4,5 -4,-1170 1255,-1170 1255,5 -4,5"/>
<!-- 9b92ym -->
<g id="node2" class="node"><title>9b92ym</title>
<polygon fill="none" stroke="black" points="142.228,-865 17.7722,-865 17.7722,-829 142.228,-829 142.228,-865"/>
<text text-anchor="middle" x="80" y="-841.4" font-family="Times,serif" font-size="14.00">centrifuge_9b92ym</text>
</g>
<!-- 892zia -->
<g id="node50" class="node"><title>892zia</title>
<polygon fill="none" stroke="black" points="119.901,-790 40.0994,-790 40.0994,-754 119.901,-754 119.901,-790"/>
<text text-anchor="middle" x="80" y="-766.4" font-family="Times,serif" font-size="14.00">add_892zia</text>
</g>
<!-- 9b92ym&#45;&#45;892zia -->
<g id="edge102" class="edge"><title>9b92ym&#45;&#45;892zia</title>
<path fill="none" stroke="black" d="M80,-828.7C80,-817.063 80,-801.787 80,-790.176"/>
</g>
<!-- chsxnm -->
<g id="node68" class="node"><title>chsxnm</title>
<polygon fill="none" stroke="black" points="189.967,-829 189.967,-865 620.033,-865 620.033,-829 189.967,-829"/>
<text text-anchor="middle" x="405" y="-841.4" font-family="Times,serif" font-size="14.00">[u&#39;1 minutes, Remark: Brief&#39;, u&#39;1 minutes, Remark: Brief, Remark: Pulse&#39;]</text>
</g>
<!-- 9b92ym&#45;&#45;chsxnm -->
<g id="edge38" class="edge"><title>9b92ym&#45;&#45;chsxnm</title>
<path fill="none" stroke="black" d="M142.279,-847C156.655,-847 172.749,-847 189.703,-847"/>
<text text-anchor="middle" x="165.983" y="-852.8" font-family="Times,serif" font-size="14.00">tube</text>
</g>
<!-- ya985z -->
<g id="node4" class="node"><title>ya985z</title>
<polygon fill="none" stroke="black" points="135.137,-189 24.8631,-189 24.8631,-153 135.137,-153 135.137,-189"/>
<text text-anchor="middle" x="80" y="-165.4" font-family="Times,serif" font-size="14.00">incubate_ya985z</text>
</g>
<!-- bavsb0 -->
<g id="node6" class="node"><title>bavsb0</title>
<polygon fill="none" stroke="black" points="135.062,-113 24.9377,-113 24.9377,-77 135.062,-77 135.062,-113"/>
<text text-anchor="middle" x="80" y="-89.4" font-family="Times,serif" font-size="14.00">incubate_bavsb0</text>
</g>
<!-- ya985z&#45;&#45;bavsb0 -->
<g id="edge118" class="edge"><title>ya985z&#45;&#45;bavsb0</title>
<path fill="none" stroke="black" d="M80,-152.837C80,-140.882 80,-125.004 80,-113.07"/>
</g>
<!-- 0jv9xj -->
<g id="node71" class="node"><title>0jv9xj</title>
<polygon fill="none" stroke="black" points="301.388,-153 301.388,-189 524.612,-189 524.612,-153 301.388,-153"/>
<text text-anchor="middle" x="413" y="-165.4" font-family="Times,serif" font-size="14.00">[u&#39;42 degrees Celsius&#39;, u&#39;50 minutes&#39;]</text>
</g>
<!-- ya985z&#45;&#45;0jv9xj -->
<g id="edge41" class="edge"><title>ya985z&#45;&#45;0jv9xj</title>
<path fill="none" stroke="black" d="M135.362,-171C180.395,-171 245.391,-171 301.175,-171"/>
<text text-anchor="middle" x="218.194" y="-176.8" font-family="Times,serif" font-size="14.00">sample</text>
</g>
<!-- adrmwt -->
<g id="node10" class="node"><title>adrmwt</title>
<polygon fill="none" stroke="black" points="136.39,-37 23.6104,-37 23.6104,-1 136.39,-1 136.39,-37"/>
<text text-anchor="middle" x="80" y="-13.4" font-family="Times,serif" font-size="14.00">incubate_adrmwt</text>
</g>
<!-- bavsb0&#45;&#45;adrmwt -->
<g id="edge120" class="edge"><title>bavsb0&#45;&#45;adrmwt</title>
<path fill="none" stroke="black" d="M80,-76.8369C80,-64.882 80,-49.0045 80,-37.07"/>
</g>
<!-- 0yu61a -->
<g id="node74" class="node"><title>0yu61a</title>
<polygon fill="none" stroke="black" points="298.388,-77 298.388,-113 521.612,-113 521.612,-77 298.388,-77"/>
<text text-anchor="middle" x="410" y="-89.4" font-family="Times,serif" font-size="14.00">[u&#39;70 degrees Celsius&#39;, u&#39;15 minutes&#39;]</text>
</g>
<!-- bavsb0&#45;&#45;0yu61a -->
<g id="edge44" class="edge"><title>bavsb0&#45;&#45;0yu61a</title>
<path fill="none" stroke="black" d="M135.235,-95C179.546,-95 243.186,-95 298.062,-95"/>
<text text-anchor="middle" x="216.694" y="-100.8" font-family="Times,serif" font-size="14.00">sample</text>
</g>
<!-- j4json -->
<g id="node8" class="node"><title>j4json</title>
<polygon fill="none" stroke="black" points="131.987,-565 28.0125,-565 28.0125,-529 131.987,-529 131.987,-565"/>
<text text-anchor="middle" x="80" y="-541.4" font-family="Times,serif" font-size="14.00">incubate_j4json</text>
</g>
<!-- muwzdb -->
<g id="node58" class="node"><title>muwzdb</title>
<polygon fill="none" stroke="black" points="125.57,-490 34.4299,-490 34.4299,-454 125.57,-454 125.57,-490"/>
<text text-anchor="middle" x="80" y="-466.4" font-family="Times,serif" font-size="14.00">add_muwzdb</text>
</g>
<!-- j4json&#45;&#45;muwzdb -->
<g id="edge110" class="edge"><title>j4json&#45;&#45;muwzdb</title>
<path fill="none" stroke="black" d="M80,-528.7C80,-517.063 80,-501.787 80,-490.176"/>
</g>
<!-- t3hy4v -->
<g id="node77" class="node"><title>t3hy4v</title>
<polygon fill="none" stroke="black" points="384.555,-529 384.555,-565 439.445,-565 439.445,-529 384.555,-529"/>
<text text-anchor="middle" x="412" y="-541.4" font-family="Times,serif" font-size="14.00">t3hy4v</text>
</g>
<!-- j4json&#45;&#45;t3hy4v -->
<g id="edge47" class="edge"><title>j4json&#45;&#45;t3hy4v</title>
<path fill="none" stroke="black" d="M132.24,-547C203.64,-547 329.142,-547 384.474,-547"/>
<text text-anchor="middle" x="258.278" y="-552.8" font-family="Times,serif" font-size="14.00">samples</text>
</g>
<!-- s3opdu -->
<g id="node80" class="node"><title>s3opdu</title>
<polygon fill="none" stroke="black" points="258.57,-1 258.57,-37 563.43,-37 563.43,-1 258.57,-1"/>
<text text-anchor="middle" x="411" y="-13.4" font-family="Times,serif" font-size="14.00">[u&#39;0 degrees Celsius, Remark: On ice&#39;, u&#39;2 minutes&#39;]</text>
</g>
<!-- adrmwt&#45;&#45;s3opdu -->
<g id="edge50" class="edge"><title>adrmwt&#45;&#45;s3opdu</title>
<path fill="none" stroke="black" d="M136.525,-19C170.315,-19 215.014,-19 258.508,-19"/>
<text text-anchor="middle" x="197.285" y="-24.8" font-family="Times,serif" font-size="14.00">sample</text>
</g>
<!-- oy38e9 -->
<g id="node12" class="node"><title>oy38e9</title>
<polygon fill="none" stroke="black" points="123.152,-1017 36.8483,-1017 36.8483,-981 123.152,-981 123.152,-1017"/>
<text text-anchor="middle" x="80" y="-993.4" font-family="Times,serif" font-size="14.00">heat_oy38e9</text>
</g>
<!-- f4hds3 -->
<g id="node14" class="node"><title>f4hds3</title>
<polygon fill="none" stroke="black" points="122.495,-941 37.5051,-941 37.5051,-905 122.495,-905 122.495,-941"/>
<text text-anchor="middle" x="80" y="-917.4" font-family="Times,serif" font-size="14.00">chill_f4hds3</text>
</g>
<!-- oy38e9&#45;&#45;f4hds3 -->
<g id="edge98" class="edge"><title>oy38e9&#45;&#45;f4hds3</title>
<path fill="none" stroke="black" d="M80,-980.837C80,-968.882 80,-953.004 80,-941.07"/>
</g>
<!-- hhcw6v -->
<g id="node83" class="node"><title>hhcw6v</title>
<polygon fill="none" stroke="black" points="233.522,-981 233.522,-1017 590.478,-1017 590.478,-981 233.522,-981"/>
<text text-anchor="middle" x="412" y="-993.4" font-family="Times,serif" font-size="14.00">[u&#39;65 degrees Celsius, Remark: in a heat block&#39;, u&#39;5 minutes&#39;]</text>
</g>
<!-- oy38e9&#45;&#45;hhcw6v -->
<g id="edge53" class="edge"><title>oy38e9&#45;&#45;hhcw6v</title>
<path fill="none" stroke="black" d="M123.403,-999C152.229,-999 192.198,-999 233.215,-999"/>
<text text-anchor="middle" x="178.261" y="-1004.8" font-family="Times,serif" font-size="14.00">sample</text>
</g>
<!-- f4hds3&#45;&#45;9b92ym -->
<g id="edge100" class="edge"><title>f4hds3&#45;&#45;9b92ym</title>
<path fill="none" stroke="black" d="M80,-904.837C80,-892.882 80,-877.004 80,-865.07"/>
</g>
<!-- agvpl5 -->
<g id="node86" class="node"><title>agvpl5</title>
<polygon fill="none" stroke="black" points="204.834,-905 204.834,-941 597.166,-941 597.166,-905 204.834,-905"/>
<text text-anchor="middle" x="401" y="-917.4" font-family="Times,serif" font-size="14.00">[u&#39;0 degrees Celsius, Remark: On ice&#39;, u&#39;1 minutes, Remark: Brief&#39;]</text>
</g>
<!-- f4hds3&#45;&#45;agvpl5 -->
<g id="edge56" class="edge"><title>f4hds3&#45;&#45;agvpl5</title>
<path fill="none" stroke="black" d="M122.633,-923C149.998,-923 177.364,-923 204.729,-923"/>
</g>
<!-- kbzqcb -->
<g id="node16" class="node"><title>kbzqcb</title>
<polygon fill="none" stroke="black" points="140.13,-641 19.8703,-641 19.8703,-605 140.13,-605 140.13,-641"/>
<text text-anchor="middle" x="80" y="-617.4" font-family="Times,serif" font-size="14.00">centrifuge_kbzqcb</text>
</g>
<!-- kbzqcb&#45;&#45;j4json -->
<g id="edge108" class="edge"><title>kbzqcb&#45;&#45;j4json</title>
<path fill="none" stroke="black" d="M80,-604.837C80,-592.882 80,-577.004 80,-565.07"/>
</g>
<!-- hgktiq -->
<g id="node89" class="node"><title>hgktiq</title>
<polygon fill="none" stroke="black" points="186.967,-605 186.967,-641 617.033,-641 617.033,-605 186.967,-605"/>
<text text-anchor="middle" x="402" y="-617.4" font-family="Times,serif" font-size="14.00">[u&#39;1 minutes, Remark: Brief&#39;, u&#39;1 minutes, Remark: Brief, Remark: Pulse&#39;]</text>
</g>
<!-- kbzqcb&#45;&#45;hgktiq -->
<g id="edge59" class="edge"><title>kbzqcb&#45;&#45;hgktiq</title>
<path fill="none" stroke="black" d="M140.188,-623C154.295,-623 170.13,-623 186.847,-623"/>
<text text-anchor="middle" x="163.483" y="-628.8" font-family="Times,serif" font-size="14.00">tube</text>
</g>
<!-- thfavi -->
<g id="node18" class="node"><title>thfavi</title>
<polygon fill="none" stroke="black" points="136.301,-341 23.6993,-341 23.6993,-305 136.301,-305 136.301,-341"/>
<text text-anchor="middle" x="80" y="-317.4" font-family="Times,serif" font-size="14.00">centrifuge_thfavi</text>
</g>
<!-- thfavi&#45;&#45;ya985z -->
<g id="edge116" class="edge"><title>thfavi&#45;&#45;ya985z</title>
<path fill="none" stroke="black" d="M80,-304.793C80,-275.859 80,-217.805 80,-189.006"/>
</g>
<!-- hrt6cx -->
<g id="node92" class="node"><title>hrt6cx</title>
<polygon fill="none" stroke="black" points="193.967,-305 193.967,-341 624.033,-341 624.033,-305 193.967,-305"/>
<text text-anchor="middle" x="409" y="-317.4" font-family="Times,serif" font-size="14.00">[u&#39;1 minutes, Remark: Brief&#39;, u&#39;1 minutes, Remark: Brief, Remark: Pulse&#39;]</text>
</g>
<!-- thfavi&#45;&#45;hrt6cx -->
<g id="edge62" class="edge"><title>thfavi&#45;&#45;hrt6cx</title>
<path fill="none" stroke="black" d="M136.183,-323C153.16,-323 172.907,-323 193.869,-323"/>
<text text-anchor="middle" x="164.983" y="-328.8" font-family="Times,serif" font-size="14.00">sample</text>
</g>
<!-- 8v7w7q -->
<g id="node20" class="node"><title>8v7w7q</title>
<polygon fill="none" stroke="black" points="760.151,-37 645.849,-37 645.849,-1 760.151,-1 760.151,-37"/>
<text text-anchor="middle" x="703" y="-13.4" font-family="Times,serif" font-size="14.00">incubate_8v7w7q</text>
</g>
<!-- eb3c8q -->
<g id="node95" class="node"><title>eb3c8q</title>
<polygon fill="none" stroke="black" points="808.57,-1 808.57,-37 1113.43,-37 1113.43,-1 808.57,-1"/>
<text text-anchor="middle" x="961" y="-13.4" font-family="Times,serif" font-size="14.00">[u&#39;0 degrees Celsius, Remark: On ice&#39;, u&#39;2 minutes&#39;]</text>
</g>
<!-- 8v7w7q&#45;&#45;eb3c8q -->
<g id="edge65" class="edge"><title>8v7w7q&#45;&#45;eb3c8q</title>
<path fill="none" stroke="black" d="M760.259,-19C774.956,-19 791.474,-19 808.561,-19"/>
<text text-anchor="middle" x="784.285" y="-24.8" font-family="Times,serif" font-size="14.00">tubes</text>
</g>
<!-- d6m0hh -->
<g id="node22" class="node"><title>d6m0hh</title>
<polygon fill="none" stroke="black" points="765.228,-641 640.772,-641 640.772,-605 765.228,-605 765.228,-641"/>
<text text-anchor="middle" x="703" y="-617.4" font-family="Times,serif" font-size="14.00">centrifuge_d6m0hh</text>
</g>
<!-- wht5z6 -->
<g id="node38" class="node"><title>wht5z6</title>
<polygon fill="none" stroke="black" points="758.228,-565 647.772,-565 647.772,-529 758.228,-529 758.228,-565"/>
<text text-anchor="middle" x="703" y="-541.4" font-family="Times,serif" font-size="14.00">incubate_wht5z6</text>
</g>
<!-- d6m0hh&#45;&#45;wht5z6 -->
<g id="edge136" class="edge"><title>d6m0hh&#45;&#45;wht5z6</title>
<path fill="none" stroke="black" d="M703,-604.837C703,-592.882 703,-577.004 703,-565.07"/>
</g>
<!-- ptp9h2 -->
<g id="node98" class="node"><title>ptp9h2</title>
<polygon fill="none" stroke="black" points="806.967,-605 806.967,-641 1237.03,-641 1237.03,-605 806.967,-605"/>
<text text-anchor="middle" x="1022" y="-617.4" font-family="Times,serif" font-size="14.00">[u&#39;1 minutes, Remark: Brief&#39;, u&#39;1 minutes, Remark: Brief, Remark: Pulse&#39;]</text>
</g>
<!-- d6m0hh&#45;&#45;ptp9h2 -->
<g id="edge68" class="edge"><title>d6m0hh&#45;&#45;ptp9h2</title>
<path fill="none" stroke="black" d="M765.264,-623C777.956,-623 791.977,-623 806.725,-623"/>
<text text-anchor="middle" x="785.983" y="-628.8" font-family="Times,serif" font-size="14.00">tube</text>
</g>
<!-- ff6p45 -->
<g id="node24" class="node"><title>ff6p45</title>
<polygon fill="none" stroke="black" points="745.221,-941 660.779,-941 660.779,-905 745.221,-905 745.221,-941"/>
<text text-anchor="middle" x="703" y="-917.4" font-family="Times,serif" font-size="14.00">chill_ff6p45</text>
</g>
<!-- k0xofh -->
<g id="node26" class="node"><title>k0xofh</title>
<polygon fill="none" stroke="black" points="762.555,-865 643.445,-865 643.445,-829 762.555,-829 762.555,-865"/>
<text text-anchor="middle" x="703" y="-841.4" font-family="Times,serif" font-size="14.00">centrifuge_k0xofh</text>
</g>
<!-- ff6p45&#45;&#45;k0xofh -->
<g id="edge128" class="edge"><title>ff6p45&#45;&#45;k0xofh</title>
<path fill="none" stroke="black" d="M703,-904.837C703,-892.882 703,-877.004 703,-865.07"/>
</g>
<!-- uki1sl -->
<g id="node101" class="node"><title>uki1sl</title>
<polygon fill="none" stroke="black" points="780.834,-905 780.834,-941 1173.17,-941 1173.17,-905 780.834,-905"/>
<text text-anchor="middle" x="977" y="-917.4" font-family="Times,serif" font-size="14.00">[u&#39;0 degrees Celsius, Remark: On ice&#39;, u&#39;1 minutes, Remark: Brief&#39;]</text>
</g>
<!-- ff6p45&#45;&#45;uki1sl -->
<g id="edge71" class="edge"><title>ff6p45&#45;&#45;uki1sl</title>
<path fill="none" stroke="black" d="M745.277,-923C757.045,-923 768.812,-923 780.579,-923"/>
</g>
<!-- 4tr1s6 -->
<g id="node51" class="node"><title>4tr1s6</title>
<polygon fill="none" stroke="black" points="742.161,-790 663.839,-790 663.839,-754 742.161,-754 742.161,-790"/>
<text text-anchor="middle" x="703" y="-766.4" font-family="Times,serif" font-size="14.00">add_4tr1s6</text>
</g>
<!-- k0xofh&#45;&#45;4tr1s6 -->
<g id="edge130" class="edge"><title>k0xofh&#45;&#45;4tr1s6</title>
<path fill="none" stroke="black" d="M703,-828.7C703,-817.063 703,-801.787 703,-790.176"/>
</g>
<!-- q3p337 -->
<g id="node104" class="node"><title>q3p337</title>
<polygon fill="none" stroke="black" points="819.967,-829 819.967,-865 1250.03,-865 1250.03,-829 819.967,-829"/>
<text text-anchor="middle" x="1035" y="-841.4" font-family="Times,serif" font-size="14.00">[u&#39;1 minutes, Remark: Brief&#39;, u&#39;1 minutes, Remark: Brief, Remark: Pulse&#39;]</text>
</g>
<!-- k0xofh&#45;&#45;q3p337 -->
<g id="edge74" class="edge"><title>k0xofh&#45;&#45;q3p337</title>
<path fill="none" stroke="black" d="M762.355,-847C779.421,-847 799.095,-847 819.899,-847"/>
<text text-anchor="middle" x="790.983" y="-852.8" font-family="Times,serif" font-size="14.00">sample</text>
</g>
<!-- i7w4wg -->
<g id="node28" class="node"><title>i7w4wg</title>
<polygon fill="none" stroke="black" points="760.151,-113 645.849,-113 645.849,-77 760.151,-77 760.151,-113"/>
<text text-anchor="middle" x="703" y="-89.4" font-family="Times,serif" font-size="14.00">incubate_i7w4wg</text>
</g>
<!-- i7w4wg&#45;&#45;8v7w7q -->
<g id="edge150" class="edge"><title>i7w4wg&#45;&#45;8v7w7q</title>
<path fill="none" stroke="black" d="M703,-76.8369C703,-64.882 703,-49.0045 703,-37.07"/>
</g>
<!-- 8ciuxp -->
<g id="node107" class="node"><title>8ciuxp</title>
<polygon fill="none" stroke="black" points="808.388,-77 808.388,-113 1031.61,-113 1031.61,-77 808.388,-77"/>
<text text-anchor="middle" x="920" y="-89.4" font-family="Times,serif" font-size="14.00">[u&#39;70 degrees Celsius&#39;, u&#39;15 minutes&#39;]</text>
</g>
<!-- i7w4wg&#45;&#45;8ciuxp -->
<g id="edge77" class="edge"><title>i7w4wg&#45;&#45;8ciuxp</title>
<path fill="none" stroke="black" d="M760.298,-95C775.115,-95 791.585,-95 808.159,-95"/>
<text text-anchor="middle" x="784.194" y="-100.8" font-family="Times,serif" font-size="14.00">tubes</text>
</g>
<!-- lk1yt0 -->
<g id="node30" class="node"><title>lk1yt0</title>
<polygon fill="none" stroke="black" points="756.15,-189 649.85,-189 649.85,-153 756.15,-153 756.15,-189"/>
<text text-anchor="middle" x="703" y="-165.4" font-family="Times,serif" font-size="14.00">incubate_lk1yt0</text>
</g>
<!-- lk1yt0&#45;&#45;i7w4wg -->
<g id="edge148" class="edge"><title>lk1yt0&#45;&#45;i7w4wg</title>
<path fill="none" stroke="black" d="M703,-152.837C703,-140.882 703,-125.004 703,-113.07"/>
</g>
<!-- 5z8r8b -->
<g id="node110" class="node"><title>5z8r8b</title>
<polygon fill="none" stroke="black" points="791.388,-153 791.388,-189 1014.61,-189 1014.61,-153 791.388,-153"/>
<text text-anchor="middle" x="903" y="-165.4" font-family="Times,serif" font-size="14.00">[u&#39;42 degrees Celsius&#39;, u&#39;50 minutes&#39;]</text>
</g>
<!-- lk1yt0&#45;&#45;5z8r8b -->
<g id="edge80" class="edge"><title>lk1yt0&#45;&#45;5z8r8b</title>
<path fill="none" stroke="black" d="M756.125,-171C767.791,-171 779.457,-171 791.123,-171"/>
</g>
<!-- nwv41j -->
<g id="node32" class="node"><title>nwv41j</title>
<polygon fill="none" stroke="black" points="763.31,-341 642.69,-341 642.69,-305 763.31,-305 763.31,-341"/>
<text text-anchor="middle" x="703" y="-317.4" font-family="Times,serif" font-size="14.00">centrifuge_nwv41j</text>
</g>
<!-- 5bohex -->
<g id="node34" class="node"><title>5bohex</title>
<polygon fill="none" stroke="black" points="758.228,-265 647.772,-265 647.772,-229 758.228,-229 758.228,-265"/>
<text text-anchor="middle" x="703" y="-241.4" font-family="Times,serif" font-size="14.00">incubate_5bohex</text>
</g>
<!-- nwv41j&#45;&#45;5bohex -->
<g id="edge144" class="edge"><title>nwv41j&#45;&#45;5bohex</title>
<path fill="none" stroke="black" d="M703,-304.837C703,-292.882 703,-277.004 703,-265.07"/>
</g>
<!-- dezhsn -->
<g id="node113" class="node"><title>dezhsn</title>
<polygon fill="none" stroke="black" points="804.967,-305 804.967,-341 1235.03,-341 1235.03,-305 804.967,-305"/>
<text text-anchor="middle" x="1020" y="-317.4" font-family="Times,serif" font-size="14.00">[u&#39;1 minutes, Remark: Brief&#39;, u&#39;1 minutes, Remark: Brief, Remark: Pulse&#39;]</text>
</g>
<!-- nwv41j&#45;&#45;dezhsn -->
<g id="edge83" class="edge"><title>nwv41j&#45;&#45;dezhsn</title>
<path fill="none" stroke="black" d="M763.371,-323C776.036,-323 790.078,-323 804.879,-323"/>
<text text-anchor="middle" x="783.983" y="-328.8" font-family="Times,serif" font-size="14.00">tube</text>
</g>
<!-- 5bohex&#45;&#45;lk1yt0 -->
<g id="edge146" class="edge"><title>5bohex&#45;&#45;lk1yt0</title>
<path fill="none" stroke="black" d="M703,-228.837C703,-216.882 703,-201.004 703,-189.07"/>
</g>
<!-- lg6398 -->
<g id="node116" class="node"><title>lg6398</title>
<polygon fill="none" stroke="black" points="821.388,-229 821.388,-265 1044.61,-265 1044.61,-229 821.388,-229"/>
<text text-anchor="middle" x="933" y="-241.4" font-family="Times,serif" font-size="14.00">[u&#39;25 degrees Celsius&#39;, u&#39;10 minutes&#39;]</text>
</g>
<!-- 5bohex&#45;&#45;lg6398 -->
<g id="edge86" class="edge"><title>5bohex&#45;&#45;lg6398</title>
<path fill="none" stroke="black" d="M758.383,-247C777.391,-247 799.403,-247 821.258,-247"/>
<text text-anchor="middle" x="789.694" y="-252.8" font-family="Times,serif" font-size="14.00">samples</text>
</g>
<!-- wfc3i7 -->
<g id="node36" class="node"><title>wfc3i7</title>
<polygon fill="none" stroke="black" points="745.395,-1017 660.605,-1017 660.605,-981 745.395,-981 745.395,-1017"/>
<text text-anchor="middle" x="703" y="-993.4" font-family="Times,serif" font-size="14.00">heat_wfc3i7</text>
</g>
<!-- wfc3i7&#45;&#45;ff6p45 -->
<g id="edge126" class="edge"><title>wfc3i7&#45;&#45;ff6p45</title>
<path fill="none" stroke="black" d="M703,-980.837C703,-968.882 703,-953.004 703,-941.07"/>
</g>
<!-- 3qfeux -->
<g id="node119" class="node"><title>3qfeux</title>
<polygon fill="none" stroke="black" points="803.522,-981 803.522,-1017 1160.48,-1017 1160.48,-981 803.522,-981"/>
<text text-anchor="middle" x="982" y="-993.4" font-family="Times,serif" font-size="14.00">[u&#39;65 degrees Celsius, Remark: in a heat block&#39;, u&#39;5 minutes&#39;]</text>
</g>
<!-- wfc3i7&#45;&#45;3qfeux -->
<g id="edge89" class="edge"><title>wfc3i7&#45;&#45;3qfeux</title>
<path fill="none" stroke="black" d="M745.374,-999C761.838,-999 781.884,-999 803.27,-999"/>
<text text-anchor="middle" x="774.261" y="-1004.8" font-family="Times,serif" font-size="14.00">sample</text>
</g>
<!-- sgum0w -->
<g id="node59" class="node"><title>sgum0w</title>
<polygon fill="none" stroke="black" points="747.998,-490 658.002,-490 658.002,-454 747.998,-454 747.998,-490"/>
<text text-anchor="middle" x="703" y="-466.4" font-family="Times,serif" font-size="14.00">add_sgum0w</text>
</g>
<!-- wht5z6&#45;&#45;sgum0w -->
<g id="edge138" class="edge"><title>wht5z6&#45;&#45;sgum0w</title>
<path fill="none" stroke="black" d="M703,-528.7C703,-517.063 703,-501.787 703,-490.176"/>
</g>
<!-- jkdly9 -->
<g id="node122" class="node"><title>jkdly9</title>
<polygon fill="none" stroke="black" points="820.888,-529 820.888,-565 1037.11,-565 1037.11,-529 820.888,-529"/>
<text text-anchor="middle" x="929" y="-541.4" font-family="Times,serif" font-size="14.00">[u&#39;25 degrees Celsius&#39;, u&#39;2 minutes&#39;]</text>
</g>
<!-- wht5z6&#45;&#45;jkdly9 -->
<g id="edge92" class="edge"><title>wht5z6&#45;&#45;jkdly9</title>
<path fill="none" stroke="black" d="M758.286,-547C777.234,-547 799.142,-547 820.813,-547"/>
<text text-anchor="middle" x="789.444" y="-552.8" font-family="Times,serif" font-size="14.00">samples</text>
</g>
<!-- ahd90y -->
<g id="node40" class="node"><title>ahd90y</title>
<polygon fill="none" stroke="black" points="160.55,-1166 -0.54992,-1166 -0.54992,-1130 160.55,-1130 160.55,-1166"/>
<text text-anchor="middle" x="80" y="-1142.4" font-family="Times,serif" font-size="14.00">call_for_protocol_ahd90y</text>
</g>
<!-- kttj4d -->
<g id="node44" class="node"><title>kttj4d</title>
<polygon fill="none" stroke="black" points="131.408,-1092 28.5924,-1092 28.5924,-1056 131.408,-1056 131.408,-1092"/>
<text text-anchor="middle" x="80" y="-1068.4" font-family="Times,serif" font-size="14.00">combine_kttj4d</text>
</g>
<!-- ahd90y&#45;&#45;kttj4d -->
<g id="edge94" class="edge"><title>ahd90y&#45;&#45;kttj4d</title>
<path fill="none" stroke="black" d="M80,-1129.94C80,-1118.63 80,-1103.83 80,-1092.44"/>
</g>
<!-- t61jdx -->
<g id="node41" class="node"><title>t61jdx</title>
<polygon fill="none" stroke="black" points="780.474,-1166 625.526,-1166 625.526,-1130 780.474,-1130 780.474,-1166"/>
<text text-anchor="middle" x="703" y="-1142.4" font-family="Times,serif" font-size="14.00">call_for_protocol_t61jdx</text>
</g>
<!-- 85jao2 -->
<g id="node45" class="node"><title>85jao2</title>
<polygon fill="none" stroke="black" points="757.482,-1092 648.518,-1092 648.518,-1056 757.482,-1056 757.482,-1092"/>
<text text-anchor="middle" x="703" y="-1068.4" font-family="Times,serif" font-size="14.00">combine_85jao2</text>
</g>
<!-- t61jdx&#45;&#45;85jao2 -->
<g id="edge122" class="edge"><title>t61jdx&#45;&#45;85jao2</title>
<path fill="none" stroke="black" d="M703,-1129.94C703,-1118.63 703,-1103.83 703,-1092.44"/>
</g>
<!-- kttj4d&#45;&#45;oy38e9 -->
<g id="edge96" class="edge"><title>kttj4d&#45;&#45;oy38e9</title>
<path fill="none" stroke="black" d="M80,-1055.7C80,-1044.06 80,-1028.79 80,-1017.18"/>
</g>
<!-- 85jao2&#45;&#45;wfc3i7 -->
<g id="edge124" class="edge"><title>85jao2&#45;&#45;wfc3i7</title>
<path fill="none" stroke="black" d="M703,-1055.7C703,-1044.06 703,-1028.79 703,-1017.18"/>
</g>
<!-- pbud57 -->
<g id="node53" class="node"><title>pbud57</title>
<polygon fill="none" stroke="black" points="123.085,-716 36.9148,-716 36.9148,-680 123.085,-680 123.085,-716"/>
<text text-anchor="middle" x="80" y="-692.4" font-family="Times,serif" font-size="14.00">mix_pbud57</text>
</g>
<!-- 892zia&#45;&#45;pbud57 -->
<g id="edge104" class="edge"><title>892zia&#45;&#45;pbud57</title>
<path fill="none" stroke="black" d="M80,-753.937C80,-742.626 80,-727.828 80,-716.441"/>
</g>
<!-- 0gdlq5 -->
<g id="node54" class="node"><title>0gdlq5</title>
<polygon fill="none" stroke="black" points="744.254,-716 661.746,-716 661.746,-680 744.254,-680 744.254,-716"/>
<text text-anchor="middle" x="703" y="-692.4" font-family="Times,serif" font-size="14.00">mix_0gdlq5</text>
</g>
<!-- 4tr1s6&#45;&#45;0gdlq5 -->
<g id="edge132" class="edge"><title>4tr1s6&#45;&#45;0gdlq5</title>
<path fill="none" stroke="black" d="M703,-753.937C703,-742.626 703,-727.828 703,-716.441"/>
</g>
<!-- pbud57&#45;&#45;kbzqcb -->
<g id="edge106" class="edge"><title>pbud57&#45;&#45;kbzqcb</title>
<path fill="none" stroke="black" d="M80,-679.7C80,-668.063 80,-652.787 80,-641.176"/>
</g>
<!-- 0gdlq5&#45;&#45;d6m0hh -->
<g id="edge134" class="edge"><title>0gdlq5&#45;&#45;d6m0hh</title>
<path fill="none" stroke="black" d="M703,-679.7C703,-668.063 703,-652.787 703,-641.176"/>
</g>
<!-- aoymzg -->
<g id="node61" class="node"><title>aoymzg</title>
<polygon fill="none" stroke="black" points="124.322,-416 35.6777,-416 35.6777,-380 124.322,-380 124.322,-416"/>
<text text-anchor="middle" x="80" y="-392.4" font-family="Times,serif" font-size="14.00">mix_aoymzg</text>
</g>
<!-- muwzdb&#45;&#45;aoymzg -->
<g id="edge112" class="edge"><title>muwzdb&#45;&#45;aoymzg</title>
<path fill="none" stroke="black" d="M80,-453.937C80,-442.626 80,-427.828 80,-416.441"/>
</g>
<!-- l4ppoq -->
<g id="node62" class="node"><title>l4ppoq</title>
<polygon fill="none" stroke="black" points="744.254,-416 661.746,-416 661.746,-380 744.254,-380 744.254,-416"/>
<text text-anchor="middle" x="703" y="-392.4" font-family="Times,serif" font-size="14.00">mix_l4ppoq</text>
</g>
<!-- sgum0w&#45;&#45;l4ppoq -->
<g id="edge140" class="edge"><title>sgum0w&#45;&#45;l4ppoq</title>
<path fill="none" stroke="black" d="M703,-453.937C703,-442.626 703,-427.828 703,-416.441"/>
</g>
<!-- aoymzg&#45;&#45;thfavi -->
<g id="edge114" class="edge"><title>aoymzg&#45;&#45;thfavi</title>
<path fill="none" stroke="black" d="M80,-379.7C80,-368.063 80,-352.787 80,-341.176"/>
</g>
<!-- l4ppoq&#45;&#45;nwv41j -->
<g id="edge142" class="edge"><title>l4ppoq&#45;&#45;nwv41j</title>
<path fill="none" stroke="black" d="M703,-379.7C703,-368.063 703,-352.787 703,-341.176"/>
</g>
</g>
</svg>
