<?xml version="1.0" encoding="UTF-8" standalone="no"?>
<!DOCTYPE svg PUBLIC "-//W3C//DTD SVG 1.1//EN"
 "http://www.w3.org/Graphics/SVG/1.1/DTD/svg11.dtd">
<!-- Generated by graphviz version 2.28.0 (20121217.1915)
 -->
<!-- Title: _anonymous_0 Pages: 1 -->
<svg width="138pt" height="332pt"
 viewBox="0.00 0.00 138.00 332.00" xmlns="http://www.w3.org/2000/svg" xmlns:xlink="http://www.w3.org/1999/xlink">
<g id="graph1" class="graph" transform="scale(1 1) rotate(0) translate(4 328)">
<title>_anonymous_0</title>
<polygon fill="white" stroke="white" points="-4,5 -4,-328 135,-328 135,5 -4,5"/>
<!-- TimeStampedModel -->
<g id="node1" class="node"><title>TimeStampedModel</title>
<polygon fill="none" stroke="black" points="130.105,-180 -0.105089,-180 -0.105089,-144 130.105,-144 130.105,-180"/>
<text text-anchor="middle" x="65" y="-156.4" font-family="Times,serif" font-size="14.00">TimeStampedModel</text>
</g>
<!-- Model -->
<g id="node3" class="node"><title>Model</title>
<polygon fill="none" stroke="black" points="92,-252 38,-252 38,-216 92,-216 92,-252"/>
<text text-anchor="middle" x="65" y="-228.4" font-family="Times,serif" font-size="14.00">Model</text>
</g>
<!-- TimeStampedModel&#45;&#45;Model -->
<g id="edge2" class="edge"><title>TimeStampedModel&#45;&#45;Model</title>
<path fill="none" stroke="black" d="M65,-180.303C65,-191.154 65,-205.083 65,-215.896"/>
</g>
<!-- object -->
<g id="node5" class="node"><title>object</title>
<polygon fill="none" stroke="black" points="92,-324 38,-324 38,-288 92,-288 92,-324"/>
<text text-anchor="middle" x="65" y="-300.4" font-family="Times,serif" font-size="14.00">object</text>
</g>
<!-- Model&#45;&#45;object -->
<g id="edge4" class="edge"><title>Model&#45;&#45;object</title>
<path fill="none" stroke="black" d="M65,-252.303C65,-263.154 65,-277.083 65,-287.896"/>
</g>
<!-- Protocol -->
<g id="node6" class="node"><title>Protocol</title>
<polygon fill="none" stroke="black" points="96.943,-108 33.057,-108 33.057,-72 96.943,-72 96.943,-108"/>
<text text-anchor="middle" x="65" y="-84.4" font-family="Times,serif" font-size="14.00">Protocol</text>
</g>
<!-- Protocol&#45;&#45;TimeStampedModel -->
<g id="edge6" class="edge"><title>Protocol&#45;&#45;TimeStampedModel</title>
<path fill="none" stroke="black" d="M65,-108.303C65,-119.154 65,-133.083 65,-143.896"/>
</g>
<!-- ProtocolPlot -->
<g id="node8" class="node"><title>ProtocolPlot</title>
<polygon fill="none" stroke="black" points="108.007,-36 21.9932,-36 21.9932,-0 108.007,-0 108.007,-36"/>
<text text-anchor="middle" x="65" y="-12.4" font-family="Times,serif" font-size="14.00">ProtocolPlot</text>
</g>
<!-- ProtocolPlot&#45;&#45;Protocol -->
<g id="edge8" class="edge"><title>ProtocolPlot&#45;&#45;Protocol</title>
<path fill="none" stroke="black" d="M65,-36.3034C65,-47.1537 65,-61.0833 65,-71.8957"/>
</g>
</g>
</svg>
