<?xml version="1.0" encoding="UTF-8" standalone="no"?>
<!DOCTYPE svg PUBLIC "-//W3C//DTD SVG 1.1//EN"
 "http://www.w3.org/Graphics/SVG/1.1/DTD/svg11.dtd">
<!-- Generated by graphviz version 2.28.0 (20121217.1915)
 -->
<!-- Title: _anonymous_0 Pages: 1 -->
<svg width="629pt" height="1160pt"
 viewBox="0.00 0.00 629.00 1160.00" xmlns="http://www.w3.org/2000/svg" xmlns:xlink="http://www.w3.org/1999/xlink">
<g id="graph1" class="graph" transform="scale(1 1) rotate(0) translate(4 1156)">
<title>_anonymous_0</title>
<polygon fill="white" stroke="white" points="-4,5 -4,-1156 626,-1156 626,5 -4,5"/>
<!-- 9b92ym -->
<g id="node2" class="node"><title>9b92ym</title>
<polygon fill="none" stroke="black" points="92.0599,-798 19.9401,-798 19.9401,-762 92.0599,-762 92.0599,-798"/>
<text text-anchor="middle" x="56" y="-774.4" font-family="Times,serif" font-size="14.00">centrifuge</text>
</g>
<!-- 892zia -->
<g id="node20" class="node"><title>892zia</title>
<polygon fill="none" stroke="black" points="83,-706 29,-706 29,-670 83,-670 83,-706"/>
<text text-anchor="middle" x="56" y="-682.4" font-family="Times,serif" font-size="14.00">add</text>
</g>
<!-- 9b92ym&#45;&#45;892zia -->
<g id="edge31" class="edge"><title>9b92ym&#45;&#45;892zia</title>
<path fill="none" stroke="black" d="M56,-761.647C56,-748.823 56,-731.108 56,-716.381"/>
<polygon fill="black" stroke="black" points="59.5001,-716.3 56,-706.3 52.5001,-716.3 59.5001,-716.3"/>
</g>
<!-- ya985z -->
<g id="node4" class="node"><title>ya985z</title>
<polygon fill="none" stroke="black" points="87.5647,-180 24.4353,-180 24.4353,-144 87.5647,-144 87.5647,-180"/>
<text text-anchor="middle" x="56" y="-156.4" font-family="Times,serif" font-size="14.00">incubate</text>
</g>
<!-- bavsb0 -->
<g id="node6" class="node"><title>bavsb0</title>
<polygon fill="none" stroke="black" points="87.5647,-108 24.4353,-108 24.4353,-72 87.5647,-72 87.5647,-108"/>
<text text-anchor="middle" x="56" y="-84.4" font-family="Times,serif" font-size="14.00">incubate</text>
</g>
<!-- ya985z&#45;&#45;bavsb0 -->
<g id="edge47" class="edge"><title>ya985z&#45;&#45;bavsb0</title>
<path fill="none" stroke="black" d="M56,-143.697C56,-135.983 56,-126.712 56,-118.112"/>
<polygon fill="black" stroke="black" points="59.5001,-118.104 56,-108.104 52.5001,-118.104 59.5001,-118.104"/>
</g>
<!-- adrmwt -->
<g id="node10" class="node"><title>adrmwt</title>
<polygon fill="none" stroke="black" points="87.5647,-36 24.4353,-36 24.4353,-0 87.5647,-0 87.5647,-36"/>
<text text-anchor="middle" x="56" y="-12.4" font-family="Times,serif" font-size="14.00">incubate</text>
</g>
<!-- bavsb0&#45;&#45;adrmwt -->
<g id="edge49" class="edge"><title>bavsb0&#45;&#45;adrmwt</title>
<path fill="none" stroke="black" d="M56,-71.6966C56,-63.9827 56,-54.7125 56,-46.1124"/>
<polygon fill="black" stroke="black" points="59.5001,-46.1043 56,-36.1043 52.5001,-46.1044 59.5001,-46.1043"/>
</g>
<!-- j4json -->
<g id="node8" class="node"><title>j4json</title>
<polygon fill="none" stroke="black" points="87.5647,-470 24.4353,-470 24.4353,-434 87.5647,-434 87.5647,-470"/>
<text text-anchor="middle" x="56" y="-446.4" font-family="Times,serif" font-size="14.00">incubate</text>
</g>
<!-- muwzdb -->
<g id="node24" class="node"><title>muwzdb</title>
<polygon fill="none" stroke="black" points="83,-397 29,-397 29,-361 83,-361 83,-397"/>
<text text-anchor="middle" x="56" y="-373.4" font-family="Times,serif" font-size="14.00">add</text>
</g>
<!-- j4json&#45;&#45;muwzdb -->
<g id="edge39" class="edge"><title>j4json&#45;&#45;muwzdb</title>
<path fill="none" stroke="black" d="M56,-433.813C56,-425.789 56,-416.047 56,-407.069"/>
<polygon fill="black" stroke="black" points="59.5001,-407.029 56,-397.029 52.5001,-407.029 59.5001,-407.029"/>
</g>
<!-- oy38e9 -->
<g id="node12" class="node"><title>oy38e9</title>
<polygon fill="none" stroke="black" points="83,-942 29,-942 29,-906 83,-906 83,-942"/>
<text text-anchor="middle" x="56" y="-918.4" font-family="Times,serif" font-size="14.00">heat</text>
</g>
<!-- f4hds3 -->
<g id="node14" class="node"><title>f4hds3</title>
<polygon fill="none" stroke="black" points="83,-870 29,-870 29,-834 83,-834 83,-870"/>
<text text-anchor="middle" x="56" y="-846.4" font-family="Times,serif" font-size="14.00">chill</text>
</g>
<!-- oy38e9&#45;&#45;f4hds3 -->
<g id="edge27" class="edge"><title>oy38e9&#45;&#45;f4hds3</title>
<path fill="none" stroke="black" d="M56,-905.697C56,-897.983 56,-888.712 56,-880.112"/>
<polygon fill="black" stroke="black" points="59.5001,-880.104 56,-870.104 52.5001,-880.104 59.5001,-880.104"/>
</g>
<!-- f4hds3&#45;&#45;9b92ym -->
<g id="edge29" class="edge"><title>f4hds3&#45;&#45;9b92ym</title>
<path fill="none" stroke="black" d="M56,-833.697C56,-825.983 56,-816.712 56,-808.112"/>
<polygon fill="black" stroke="black" points="59.5001,-808.104 56,-798.104 52.5001,-808.104 59.5001,-808.104"/>
</g>
<!-- kbzqcb -->
<g id="node16" class="node"><title>kbzqcb</title>
<polygon fill="none" stroke="black" points="92.0599,-542 19.9401,-542 19.9401,-506 92.0599,-506 92.0599,-542"/>
<text text-anchor="middle" x="56" y="-518.4" font-family="Times,serif" font-size="14.00">centrifuge</text>
</g>
<!-- kbzqcb&#45;&#45;j4json -->
<g id="edge37" class="edge"><title>kbzqcb&#45;&#45;j4json</title>
<path fill="none" stroke="black" d="M56,-505.697C56,-497.983 56,-488.712 56,-480.112"/>
<polygon fill="black" stroke="black" points="59.5001,-480.104 56,-470.104 52.5001,-480.104 59.5001,-480.104"/>
</g>
<!-- thfavi -->
<g id="node18" class="node"><title>thfavi</title>
<polygon fill="none" stroke="black" points="92.0599,-252 19.9401,-252 19.9401,-216 92.0599,-216 92.0599,-252"/>
<text text-anchor="middle" x="56" y="-228.4" font-family="Times,serif" font-size="14.00">centrifuge</text>
</g>
<!-- thfavi&#45;&#45;ya985z -->
<g id="edge45" class="edge"><title>thfavi&#45;&#45;ya985z</title>
<path fill="none" stroke="black" d="M56,-215.697C56,-207.983 56,-198.712 56,-190.112"/>
<polygon fill="black" stroke="black" points="59.5001,-190.104 56,-180.104 52.5001,-190.104 59.5001,-190.104"/>
</g>
<!-- d5fd4e -->
<g id="node21" class="node"><title>d5fd4e</title>
<polygon fill="none" stroke="black" points="101.057,-650.8 101.057,-725.2 440.943,-725.2 440.943,-650.8 101.057,-650.8"/>
<text text-anchor="middle" x="271" y="-707.2" font-family="Times,serif" font-size="14.00">Buffer, First strand cDNA synthesis (Invitrogen) 5 X, 4 ul</text>
<polyline fill="none" stroke="black" points="101.057,-700.4 440.943,-700.4 "/>
<text text-anchor="middle" x="271" y="-682.4" font-family="Times,serif" font-size="14.00">Reducing agent, Dithiothreitol (DTT) 100 mM, 2 ul</text>
<polyline fill="none" stroke="black" points="101.057,-675.6 440.943,-675.6 "/>
<text text-anchor="middle" x="271" y="-657.6" font-family="Times,serif" font-size="14.00">Water, nuclease&#45;free, sterile , 1 ul</text>
</g>
<!-- 892zia&#45;&#45;d5fd4e -->
<g id="edge12" class="edge"><title>892zia&#45;&#45;d5fd4e</title>
<path fill="none" stroke="black" d="M83.2949,-688C85.7695,-688 88.2442,-688 90.7188,-688"/>
<polygon fill="black" stroke="black" points="90.8923,-691.5 100.892,-688 90.8922,-684.5 90.8923,-691.5"/>
</g>
<!-- pbud57 -->
<g id="node40" class="node"><title>pbud57</title>
<polygon fill="none" stroke="black" points="83,-614 29,-614 29,-578 83,-578 83,-614"/>
<text text-anchor="middle" x="56" y="-590.4" font-family="Times,serif" font-size="14.00">mix</text>
</g>
<!-- 892zia&#45;&#45;pbud57 -->
<g id="edge33" class="edge"><title>892zia&#45;&#45;pbud57</title>
<path fill="none" stroke="black" d="M56,-669.647C56,-656.823 56,-639.108 56,-624.381"/>
<polygon fill="black" stroke="black" points="59.5001,-624.3 56,-614.3 52.5001,-624.3 59.5001,-624.3"/>
</g>
<!-- w3v4gn -->
<g id="node25" class="node"><title>w3v4gn</title>
<polygon fill="none" stroke="black" points="100.779,-361 100.779,-397 601.221,-397 601.221,-361 100.779,-361"/>
<text text-anchor="middle" x="351" y="-373.5" font-family="Times,serif" font-size="14.00">Enzyme, SuperScript II reverse transcriptase (Invitrogen) 200 Units/ul, 1 ul, 200 Units</text>
</g>
<!-- muwzdb&#45;&#45;w3v4gn -->
<g id="edge15" class="edge"><title>muwzdb&#45;&#45;w3v4gn</title>
<path fill="none" stroke="black" d="M83.0801,-379C85.5452,-379 88.0104,-379 90.4755,-379"/>
<polygon fill="black" stroke="black" points="90.61,-382.5 100.61,-379 90.61,-375.5 90.61,-382.5"/>
</g>
<!-- aoymzg -->
<g id="node45" class="node"><title>aoymzg</title>
<polygon fill="none" stroke="black" points="83,-324 29,-324 29,-288 83,-288 83,-324"/>
<text text-anchor="middle" x="56" y="-300.4" font-family="Times,serif" font-size="14.00">mix</text>
</g>
<!-- muwzdb&#45;&#45;aoymzg -->
<g id="edge41" class="edge"><title>muwzdb&#45;&#45;aoymzg</title>
<path fill="none" stroke="black" d="M56,-360.813C56,-352.789 56,-343.047 56,-334.069"/>
<polygon fill="black" stroke="black" points="59.5001,-334.029 56,-324.029 52.5001,-334.029 59.5001,-334.029"/>
</g>
<!-- kttj4d -->
<g id="node28" class="node"><title>kttj4d</title>
<polygon fill="none" stroke="black" points="88.1554,-1046 23.8446,-1046 23.8446,-1010 88.1554,-1010 88.1554,-1046"/>
<text text-anchor="middle" x="56" y="-1022.4" font-family="Times,serif" font-size="14.00">combine</text>
</g>
<!-- kttj4d&#45;&#45;oy38e9 -->
<g id="edge25" class="edge"><title>kttj4d&#45;&#45;oy38e9</title>
<path fill="none" stroke="black" d="M56,-1009.7C56,-993.923 56,-970.364 56,-952.094"/>
<polygon fill="black" stroke="black" points="59.5001,-952.047 56,-942.047 52.5001,-952.047 59.5001,-952.047"/>
</g>
<!-- 0tisce -->
<g id="node29" class="node"><title>0tisce</title>
<polygon fill="none" stroke="black" points="106.071,-978.4 106.071,-1077.6 621.929,-1077.6 621.929,-978.4 106.071,-978.4"/>
<text text-anchor="middle" x="364" y="-1059.6" font-family="Times,serif" font-size="14.00">Nucleic Acid, Primer, Oligo(dT)12&#45;18 primers (Invitrogen) 50&#45;500 ng/ul, 1&#45;10 ul, 500 ng</text>
<polyline fill="none" stroke="black" points="106.071,-1052.8 621.929,-1052.8 "/>
<text text-anchor="middle" x="364" y="-1034.8" font-family="Times,serif" font-size="14.00">Nucleic Acid, dNTPs (Invitrogen) 10 mM, 1 ul</text>
<polyline fill="none" stroke="black" points="106.071,-1028 621.929,-1028 "/>
<text text-anchor="middle" x="364" y="-1010" font-family="Times,serif" font-size="14.00">Nucleic Acid, RNA, poly(A)+ 100&#45;1000 ng/ul, 1&#45;10 ul, 100&#45;1000 ng</text>
<polyline fill="none" stroke="black" points="106.071,-1003.2 621.929,-1003.2 "/>
<text text-anchor="middle" x="364" y="-985.2" font-family="Times,serif" font-size="14.00">Water, nuclease&#45;free, sterile , 0&#45;9 ul</text>
</g>
<!-- kttj4d&#45;&#45;0tisce -->
<g id="edge18" class="edge"><title>kttj4d&#45;&#45;0tisce</title>
<path fill="none" stroke="black" d="M88.1836,-1028C90.6835,-1028 93.1834,-1028 95.6834,-1028"/>
<polygon fill="black" stroke="black" points="95.9609,-1031.5 105.961,-1028 95.9608,-1024.5 95.9609,-1031.5"/>
</g>
<!-- ahd90y -->
<g id="node32" class="node"><title>ahd90y</title>
<polygon fill="none" stroke="black" points="112.39,-1151 -0.389557,-1151 -0.389557,-1115 112.39,-1115 112.39,-1151"/>
<text text-anchor="middle" x="56" y="-1127.4" font-family="Times,serif" font-size="14.00">call_for_protocol</text>
</g>
<!-- ahd90y&#45;&#45;kttj4d -->
<g id="edge23" class="edge"><title>ahd90y&#45;&#45;kttj4d</title>
<path fill="none" stroke="black" d="M56,-1114.99C56,-1099.04 56,-1074.91 56,-1056.27"/>
<polygon fill="black" stroke="black" points="59.5001,-1056.03 56,-1046.03 52.5001,-1056.03 59.5001,-1056.03"/>
</g>
<!-- f7zg5q -->
<g id="node33" class="node"><title>f7zg5q</title>
<polygon fill="none" stroke="black" points="130.9,-1115 130.9,-1151 451.1,-1151 451.1,-1115 130.9,-1115"/>
<text text-anchor="middle" x="291" y="-1127.5" font-family="Times,serif" font-size="14.00">Nucleic Acid, RNA, poly(A)+ 100 ng/ul, 100&#45;1000 ng</text>
</g>
<!-- ahd90y&#45;&#45;f7zg5q -->
<g id="edge21" class="edge"><title>ahd90y&#45;&#45;f7zg5q</title>
<path fill="none" stroke="black" d="M112.455,-1133C115.1,-1133 117.744,-1133 120.388,-1133"/>
<polygon fill="black" stroke="black" points="120.589,-1136.5 130.589,-1133 120.589,-1129.5 120.589,-1136.5"/>
</g>
<!-- pbud57&#45;&#45;kbzqcb -->
<g id="edge35" class="edge"><title>pbud57&#45;&#45;kbzqcb</title>
<path fill="none" stroke="black" d="M56,-577.697C56,-569.983 56,-560.712 56,-552.112"/>
<polygon fill="black" stroke="black" points="59.5001,-552.104 56,-542.104 52.5001,-552.104 59.5001,-552.104"/>
</g>
<!-- aoymzg&#45;&#45;thfavi -->
<g id="edge43" class="edge"><title>aoymzg&#45;&#45;thfavi</title>
<path fill="none" stroke="black" d="M56,-287.697C56,-279.983 56,-270.712 56,-262.112"/>
<polygon fill="black" stroke="black" points="59.5001,-262.104 56,-252.104 52.5001,-262.104 59.5001,-262.104"/>
</g>
</g>
</svg>
