<?xml version="1.0" encoding="UTF-8" standalone="no"?>
<!DOCTYPE svg PUBLIC "-//W3C//DTD SVG 1.1//EN"
 "http://www.w3.org/Graphics/SVG/1.1/DTD/svg11.dtd">
<!-- Generated by graphviz version 2.28.0 (20121217.1915)
 -->
<!-- Title: _anonymous_0 Pages: 1 -->
<svg width="294pt" height="1060pt"
 viewBox="0.00 0.00 294.00 1060.00" xmlns="http://www.w3.org/2000/svg" xmlns:xlink="http://www.w3.org/1999/xlink">
<g id="graph1" class="graph" transform="scale(1 1) rotate(0) translate(4 1056)">
<title>_anonymous_0</title>
<polygon fill="white" stroke="white" points="-4,5 -4,-1056 291,-1056 291,5 -4,5"/>
<!-- ahd90y -->
<g id="node2" class="node"><title>ahd90y</title>
<polygon fill="none" stroke="black" points="112.39,-1051 -0.389557,-1051 -0.389557,-1015 112.39,-1015 112.39,-1051"/>
<text text-anchor="middle" x="56" y="-1027.4" font-family="Times,serif" font-size="14.00">call_for_protocol</text>
</g>
<!-- f7zg5q -->
<g id="node3" class="node"><title>f7zg5q</title>
<polygon fill="none" stroke="black" points="130.279,-1015 130.279,-1051 277.721,-1051 277.721,-1015 130.279,-1015"/>
<text text-anchor="middle" x="204" y="-1027.4" font-family="Times,serif" font-size="14.00">100 ng/ul, 100&#45;1000 ng</text>
</g>
<!-- ahd90y&#45;&#45;f7zg5q -->
<g id="edge3" class="edge"><title>ahd90y&#45;&#45;f7zg5q</title>
<path fill="none" stroke="black" d="M112.367,-1033C114.977,-1033 117.587,-1033 120.197,-1033"/>
<polygon fill="black" stroke="black" points="120.264,-1036.5 130.264,-1033 120.264,-1029.5 120.264,-1036.5"/>
</g>
<!-- kttj4d -->
<g id="node14" class="node"><title>kttj4d</title>
<polygon fill="none" stroke="black" points="88.1554,-977 23.8446,-977 23.8446,-941 88.1554,-941 88.1554,-977"/>
<text text-anchor="middle" x="56" y="-953.4" font-family="Times,serif" font-size="14.00">combine</text>
</g>
<!-- ahd90y&#45;&#45;kttj4d -->
<g id="edge14" class="edge"><title>ahd90y&#45;&#45;kttj4d</title>
<path fill="none" stroke="black" d="M56,-1014.94C56,-1006.81 56,-996.876 56,-987.705"/>
<polygon fill="black" stroke="black" points="59.5001,-987.441 56,-977.441 52.5001,-987.441 59.5001,-987.441"/>
</g>
<!-- 892zia -->
<g id="node6" class="node"><title>892zia</title>
<polygon fill="none" stroke="black" points="83,-687 29,-687 29,-651 83,-651 83,-687"/>
<text text-anchor="middle" x="56" y="-663.4" font-family="Times,serif" font-size="14.00">add</text>
</g>
<!-- d5fd4e -->
<g id="node7" class="node"><title>d5fd4e</title>
<polygon fill="none" stroke="black" points="101.5,-651 101.5,-687 166.5,-687 166.5,-651 101.5,-651"/>
<text text-anchor="middle" x="134" y="-663.4" font-family="Times,serif" font-size="14.00">5 X, 4 ul</text>
</g>
<!-- 892zia&#45;&#45;d5fd4e -->
<g id="edge6" class="edge"><title>892zia&#45;&#45;d5fd4e</title>
<path fill="none" stroke="black" d="M83.1172,-669C85.8791,-669 88.6411,-669 91.403,-669"/>
<polygon fill="black" stroke="black" points="91.4032,-672.5 101.403,-669 91.4032,-665.5 91.4032,-672.5"/>
</g>
<!-- pbud57 -->
<g id="node25" class="node"><title>pbud57</title>
<polygon fill="none" stroke="black" points="83,-614 29,-614 29,-578 83,-578 83,-614"/>
<text text-anchor="middle" x="56" y="-590.4" font-family="Times,serif" font-size="14.00">mix</text>
</g>
<!-- 892zia&#45;&#45;pbud57 -->
<g id="edge24" class="edge"><title>892zia&#45;&#45;pbud57</title>
<path fill="none" stroke="black" d="M56,-650.813C56,-642.789 56,-633.047 56,-624.069"/>
<polygon fill="black" stroke="black" points="59.5001,-624.029 56,-614.029 52.5001,-624.029 59.5001,-624.029"/>
</g>
<!-- muwzdb -->
<g id="node10" class="node"><title>muwzdb</title>
<polygon fill="none" stroke="black" points="83,-397 29,-397 29,-361 83,-361 83,-397"/>
<text text-anchor="middle" x="56" y="-373.4" font-family="Times,serif" font-size="14.00">add</text>
</g>
<!-- w3v4gn -->
<g id="node11" class="node"><title>w3v4gn</title>
<polygon fill="none" stroke="black" points="101.078,-361 101.078,-397 276.922,-397 276.922,-361 101.078,-361"/>
<text text-anchor="middle" x="189" y="-373.4" font-family="Times,serif" font-size="14.00">200 Units/ul, 1 ul, 200 Units</text>
</g>
<!-- muwzdb&#45;&#45;w3v4gn -->
<g id="edge9" class="edge"><title>muwzdb&#45;&#45;w3v4gn</title>
<path fill="none" stroke="black" d="M83.0156,-379C85.6118,-379 88.2079,-379 90.804,-379"/>
<polygon fill="black" stroke="black" points="90.8177,-382.5 100.818,-379 90.8177,-375.5 90.8177,-382.5"/>
</g>
<!-- aoymzg -->
<g id="node32" class="node"><title>aoymzg</title>
<polygon fill="none" stroke="black" points="83,-324 29,-324 29,-288 83,-288 83,-324"/>
<text text-anchor="middle" x="56" y="-300.4" font-family="Times,serif" font-size="14.00">mix</text>
</g>
<!-- muwzdb&#45;&#45;aoymzg -->
<g id="edge32" class="edge"><title>muwzdb&#45;&#45;aoymzg</title>
<path fill="none" stroke="black" d="M56,-360.813C56,-352.789 56,-343.047 56,-334.069"/>
<polygon fill="black" stroke="black" points="59.5001,-334.029 56,-324.029 52.5001,-334.029 59.5001,-334.029"/>
</g>
<!-- 0tisce -->
<g id="node15" class="node"><title>0tisce</title>
<polygon fill="none" stroke="black" points="105.753,-941 105.753,-977 286.247,-977 286.247,-941 105.753,-941"/>
<text text-anchor="middle" x="196" y="-953.4" font-family="Times,serif" font-size="14.00">50&#45;500 ng/ul, 1&#45;10 ul, 500 ng</text>
</g>
<!-- kttj4d&#45;&#45;0tisce -->
<g id="edge12" class="edge"><title>kttj4d&#45;&#45;0tisce</title>
<path fill="none" stroke="black" d="M88.2656,-959C90.6021,-959 92.9387,-959 95.2752,-959"/>
<polygon fill="black" stroke="black" points="95.52,-962.5 105.52,-959 95.5199,-955.5 95.52,-962.5"/>
</g>
<!-- oy38e9 -->
<g id="node18" class="node"><title>oy38e9</title>
<polygon fill="none" stroke="black" points="83,-904 29,-904 29,-868 83,-868 83,-904"/>
<text text-anchor="middle" x="56" y="-880.4" font-family="Times,serif" font-size="14.00">heat</text>
</g>
<!-- kttj4d&#45;&#45;oy38e9 -->
<g id="edge16" class="edge"><title>kttj4d&#45;&#45;oy38e9</title>
<path fill="none" stroke="black" d="M56,-940.813C56,-932.789 56,-923.047 56,-914.069"/>
<polygon fill="black" stroke="black" points="59.5001,-914.029 56,-904.029 52.5001,-914.029 59.5001,-914.029"/>
</g>
<!-- f4hds3 -->
<g id="node20" class="node"><title>f4hds3</title>
<polygon fill="none" stroke="black" points="83,-832 29,-832 29,-796 83,-796 83,-832"/>
<text text-anchor="middle" x="56" y="-808.4" font-family="Times,serif" font-size="14.00">chill</text>
</g>
<!-- oy38e9&#45;&#45;f4hds3 -->
<g id="edge18" class="edge"><title>oy38e9&#45;&#45;f4hds3</title>
<path fill="none" stroke="black" d="M56,-867.697C56,-859.983 56,-850.712 56,-842.112"/>
<polygon fill="black" stroke="black" points="59.5001,-842.104 56,-832.104 52.5001,-842.104 59.5001,-842.104"/>
</g>
<!-- 9b92ym -->
<g id="node22" class="node"><title>9b92ym</title>
<polygon fill="none" stroke="black" points="92.0599,-760 19.9401,-760 19.9401,-724 92.0599,-724 92.0599,-760"/>
<text text-anchor="middle" x="56" y="-736.4" font-family="Times,serif" font-size="14.00">centrifuge</text>
</g>
<!-- f4hds3&#45;&#45;9b92ym -->
<g id="edge20" class="edge"><title>f4hds3&#45;&#45;9b92ym</title>
<path fill="none" stroke="black" d="M56,-795.697C56,-787.983 56,-778.712 56,-770.112"/>
<polygon fill="black" stroke="black" points="59.5001,-770.104 56,-760.104 52.5001,-770.104 59.5001,-770.104"/>
</g>
<!-- 9b92ym&#45;&#45;892zia -->
<g id="edge22" class="edge"><title>9b92ym&#45;&#45;892zia</title>
<path fill="none" stroke="black" d="M56,-723.813C56,-715.789 56,-706.047 56,-697.069"/>
<polygon fill="black" stroke="black" points="59.5001,-697.029 56,-687.029 52.5001,-697.029 59.5001,-697.029"/>
</g>
<!-- kbzqcb -->
<g id="node27" class="node"><title>kbzqcb</title>
<polygon fill="none" stroke="black" points="92.0599,-542 19.9401,-542 19.9401,-506 92.0599,-506 92.0599,-542"/>
<text text-anchor="middle" x="56" y="-518.4" font-family="Times,serif" font-size="14.00">centrifuge</text>
</g>
<!-- pbud57&#45;&#45;kbzqcb -->
<g id="edge26" class="edge"><title>pbud57&#45;&#45;kbzqcb</title>
<path fill="none" stroke="black" d="M56,-577.697C56,-569.983 56,-560.712 56,-552.112"/>
<polygon fill="black" stroke="black" points="59.5001,-552.104 56,-542.104 52.5001,-552.104 59.5001,-552.104"/>
</g>
<!-- j4json -->
<g id="node29" class="node"><title>j4json</title>
<polygon fill="none" stroke="black" points="87.5647,-470 24.4353,-470 24.4353,-434 87.5647,-434 87.5647,-470"/>
<text text-anchor="middle" x="56" y="-446.4" font-family="Times,serif" font-size="14.00">incubate</text>
</g>
<!-- kbzqcb&#45;&#45;j4json -->
<g id="edge28" class="edge"><title>kbzqcb&#45;&#45;j4json</title>
<path fill="none" stroke="black" d="M56,-505.697C56,-497.983 56,-488.712 56,-480.112"/>
<polygon fill="black" stroke="black" points="59.5001,-480.104 56,-470.104 52.5001,-480.104 59.5001,-480.104"/>
</g>
<!-- j4json&#45;&#45;muwzdb -->
<g id="edge30" class="edge"><title>j4json&#45;&#45;muwzdb</title>
<path fill="none" stroke="black" d="M56,-433.813C56,-425.789 56,-416.047 56,-407.069"/>
<polygon fill="black" stroke="black" points="59.5001,-407.029 56,-397.029 52.5001,-407.029 59.5001,-407.029"/>
</g>
<!-- thfavi -->
<g id="node34" class="node"><title>thfavi</title>
<polygon fill="none" stroke="black" points="92.0599,-252 19.9401,-252 19.9401,-216 92.0599,-216 92.0599,-252"/>
<text text-anchor="middle" x="56" y="-228.4" font-family="Times,serif" font-size="14.00">centrifuge</text>
</g>
<!-- aoymzg&#45;&#45;thfavi -->
<g id="edge34" class="edge"><title>aoymzg&#45;&#45;thfavi</title>
<path fill="none" stroke="black" d="M56,-287.697C56,-279.983 56,-270.712 56,-262.112"/>
<polygon fill="black" stroke="black" points="59.5001,-262.104 56,-252.104 52.5001,-262.104 59.5001,-262.104"/>
</g>
<!-- ya985z -->
<g id="node36" class="node"><title>ya985z</title>
<polygon fill="none" stroke="black" points="87.5647,-180 24.4353,-180 24.4353,-144 87.5647,-144 87.5647,-180"/>
<text text-anchor="middle" x="56" y="-156.4" font-family="Times,serif" font-size="14.00">incubate</text>
</g>
<!-- thfavi&#45;&#45;ya985z -->
<g id="edge36" class="edge"><title>thfavi&#45;&#45;ya985z</title>
<path fill="none" stroke="black" d="M56,-215.697C56,-207.983 56,-198.712 56,-190.112"/>
<polygon fill="black" stroke="black" points="59.5001,-190.104 56,-180.104 52.5001,-190.104 59.5001,-190.104"/>
</g>
<!-- bavsb0 -->
<g id="node38" class="node"><title>bavsb0</title>
<polygon fill="none" stroke="black" points="87.5647,-108 24.4353,-108 24.4353,-72 87.5647,-72 87.5647,-108"/>
<text text-anchor="middle" x="56" y="-84.4" font-family="Times,serif" font-size="14.00">incubate</text>
</g>
<!-- ya985z&#45;&#45;bavsb0 -->
<g id="edge38" class="edge"><title>ya985z&#45;&#45;bavsb0</title>
<path fill="none" stroke="black" d="M56,-143.697C56,-135.983 56,-126.712 56,-118.112"/>
<polygon fill="black" stroke="black" points="59.5001,-118.104 56,-108.104 52.5001,-118.104 59.5001,-118.104"/>
</g>
<!-- adrmwt -->
<g id="node40" class="node"><title>adrmwt</title>
<polygon fill="none" stroke="black" points="87.5647,-36 24.4353,-36 24.4353,-0 87.5647,-0 87.5647,-36"/>
<text text-anchor="middle" x="56" y="-12.4" font-family="Times,serif" font-size="14.00">incubate</text>
</g>
<!-- bavsb0&#45;&#45;adrmwt -->
<g id="edge40" class="edge"><title>bavsb0&#45;&#45;adrmwt</title>
<path fill="none" stroke="black" d="M56,-71.6966C56,-63.9827 56,-54.7125 56,-46.1124"/>
<polygon fill="black" stroke="black" points="59.5001,-46.1043 56,-36.1043 52.5001,-46.1044 59.5001,-46.1043"/>
</g>
</g>
</svg>
