<?xml version="1.0" encoding="UTF-8" standalone="no"?>
<!DOCTYPE svg PUBLIC "-//W3C//DTD SVG 1.1//EN"
 "http://www.w3.org/Graphics/SVG/1.1/DTD/svg11.dtd">
<!-- Generated by graphviz version 2.28.0 (20121217.1915)
 -->
<!-- Title: _anonymous_0 Pages: 1 -->
<svg width="588pt" height="1098pt"
 viewBox="0.00 0.00 588.00 1098.00" xmlns="http://www.w3.org/2000/svg" xmlns:xlink="http://www.w3.org/1999/xlink">
<g id="graph1" class="graph" transform="scale(1 1) rotate(0) translate(4 1094)">
<title>_anonymous_0</title>
<polygon fill="white" stroke="white" points="-4,5 -4,-1094 585,-1094 585,5 -4,5"/>
<!-- 9b92ym -->
<g id="node2" class="node"><title>9b92ym</title>
<polygon fill="none" stroke="black" points="92.0599,-789 19.9401,-789 19.9401,-753 92.0599,-753 92.0599,-789"/>
<text text-anchor="middle" x="56" y="-765.4" font-family="Times,serif" font-size="14.00">centrifuge</text>
</g>
<!-- aalxe1 -->
<g id="node3" class="node"><title>aalxe1</title>
<polygon fill="none" stroke="black" points="133.967,-753 133.967,-789 564.033,-789 564.033,-753 133.967,-753"/>
<text text-anchor="middle" x="349" y="-765.4" font-family="Times,serif" font-size="14.00">[u&#39;1 minutes, Remark: Brief&#39;, u&#39;1 minutes, Remark: Brief, Remark: Pulse&#39;]</text>
</g>
<!-- 9b92ym&#45;&#45;aalxe1 -->
<g id="edge3" class="edge"><title>9b92ym&#45;&#45;aalxe1</title>
<path fill="none" stroke="black" d="M92.2214,-771C101.399,-771 111.947,-771 123.419,-771"/>
<polygon fill="black" stroke="black" points="123.727,-774.5 133.727,-771 123.727,-767.5 123.727,-774.5"/>
<text text-anchor="middle" x="112.983" y="-776.8" font-family="Times,serif" font-size="14.00">tube</text>
</g>
<!-- 892zia -->
<g id="node38" class="node"><title>892zia</title>
<polygon fill="none" stroke="black" points="83,-714 29,-714 29,-678 83,-678 83,-714"/>
<text text-anchor="middle" x="56" y="-690.4" font-family="Times,serif" font-size="14.00">add</text>
</g>
<!-- 9b92ym&#45;&#45;892zia -->
<g id="edge41" class="edge"><title>9b92ym&#45;&#45;892zia</title>
<path fill="none" stroke="black" d="M56,-752.7C56,-744.245 56,-733.869 56,-724.373"/>
<polygon fill="black" stroke="black" points="59.5001,-724.176 56,-714.176 52.5001,-724.176 59.5001,-724.176"/>
</g>
<!-- ya985z -->
<g id="node6" class="node"><title>ya985z</title>
<polygon fill="none" stroke="black" points="87.5647,-189 24.4353,-189 24.4353,-153 87.5647,-153 87.5647,-189"/>
<text text-anchor="middle" x="56" y="-165.4" font-family="Times,serif" font-size="14.00">incubate</text>
</g>
<!-- f6w14p -->
<g id="node7" class="node"><title>f6w14p</title>
<polygon fill="none" stroke="black" points="145.388,-153 145.388,-189 368.612,-189 368.612,-153 145.388,-153"/>
<text text-anchor="middle" x="257" y="-165.4" font-family="Times,serif" font-size="14.00">[u&#39;42 degrees Celsius&#39;, u&#39;50 minutes&#39;]</text>
</g>
<!-- ya985z&#45;&#45;f6w14p -->
<g id="edge6" class="edge"><title>ya985z&#45;&#45;f6w14p</title>
<path fill="none" stroke="black" d="M87.4062,-171C100.789,-171 117.341,-171 134.811,-171"/>
<polygon fill="black" stroke="black" points="135.186,-174.5 145.186,-171 135.186,-167.5 135.186,-174.5"/>
<text text-anchor="middle" x="116.194" y="-176.8" font-family="Times,serif" font-size="14.00">sample</text>
</g>
<!-- bavsb0 -->
<g id="node10" class="node"><title>bavsb0</title>
<polygon fill="none" stroke="black" points="87.5647,-113 24.4353,-113 24.4353,-77 87.5647,-77 87.5647,-113"/>
<text text-anchor="middle" x="56" y="-89.4" font-family="Times,serif" font-size="14.00">incubate</text>
</g>
<!-- ya985z&#45;&#45;bavsb0 -->
<g id="edge57" class="edge"><title>ya985z&#45;&#45;bavsb0</title>
<path fill="none" stroke="black" d="M56,-152.837C56,-144.058 56,-133.163 56,-123.267"/>
<polygon fill="black" stroke="black" points="59.5001,-123.07 56,-113.07 52.5001,-123.07 59.5001,-123.07"/>
</g>
<!-- 8ornpw -->
<g id="node11" class="node"><title>8ornpw</title>
<polygon fill="none" stroke="black" points="145.388,-77 145.388,-113 368.612,-113 368.612,-77 145.388,-77"/>
<text text-anchor="middle" x="257" y="-89.4" font-family="Times,serif" font-size="14.00">[u&#39;70 degrees Celsius&#39;, u&#39;15 minutes&#39;]</text>
</g>
<!-- bavsb0&#45;&#45;8ornpw -->
<g id="edge9" class="edge"><title>bavsb0&#45;&#45;8ornpw</title>
<path fill="none" stroke="black" d="M87.4062,-95C100.789,-95 117.341,-95 134.811,-95"/>
<polygon fill="black" stroke="black" points="135.186,-98.5001 145.186,-95 135.186,-91.5001 135.186,-98.5001"/>
<text text-anchor="middle" x="116.194" y="-100.8" font-family="Times,serif" font-size="14.00">sample</text>
</g>
<!-- adrmwt -->
<g id="node18" class="node"><title>adrmwt</title>
<polygon fill="none" stroke="black" points="87.5647,-37 24.4353,-37 24.4353,-1 87.5647,-1 87.5647,-37"/>
<text text-anchor="middle" x="56" y="-13.4" font-family="Times,serif" font-size="14.00">incubate</text>
</g>
<!-- bavsb0&#45;&#45;adrmwt -->
<g id="edge59" class="edge"><title>bavsb0&#45;&#45;adrmwt</title>
<path fill="none" stroke="black" d="M56,-76.8369C56,-68.0575 56,-57.1626 56,-47.2675"/>
<polygon fill="black" stroke="black" points="59.5001,-47.07 56,-37.07 52.5001,-47.07 59.5001,-47.07"/>
</g>
<!-- j4json -->
<g id="node14" class="node"><title>j4json</title>
<polygon fill="none" stroke="black" points="87.5647,-489 24.4353,-489 24.4353,-453 87.5647,-453 87.5647,-489"/>
<text text-anchor="middle" x="56" y="-465.4" font-family="Times,serif" font-size="14.00">incubate</text>
</g>
<!-- ryomna -->
<g id="node15" class="node"><title>ryomna</title>
<polygon fill="none" stroke="black" points="149.888,-453 149.888,-489 366.112,-489 366.112,-453 149.888,-453"/>
<text text-anchor="middle" x="258" y="-465.4" font-family="Times,serif" font-size="14.00">[u&#39;42 degrees Celsius&#39;, u&#39;2 minutes&#39;]</text>
</g>
<!-- j4json&#45;&#45;ryomna -->
<g id="edge12" class="edge"><title>j4json&#45;&#45;ryomna</title>
<path fill="none" stroke="black" d="M87.5625,-471C102.114,-471 120.393,-471 139.535,-471"/>
<polygon fill="black" stroke="black" points="139.608,-474.5 149.608,-471 139.608,-467.5 139.608,-474.5"/>
<text text-anchor="middle" x="118.444" y="-476.8" font-family="Times,serif" font-size="14.00">samples</text>
</g>
<!-- muwzdb -->
<g id="node40" class="node"><title>muwzdb</title>
<polygon fill="none" stroke="black" points="83,-414 29,-414 29,-378 83,-378 83,-414"/>
<text text-anchor="middle" x="56" y="-390.4" font-family="Times,serif" font-size="14.00">add</text>
</g>
<!-- j4json&#45;&#45;muwzdb -->
<g id="edge49" class="edge"><title>j4json&#45;&#45;muwzdb</title>
<path fill="none" stroke="black" d="M56,-452.7C56,-444.245 56,-433.869 56,-424.373"/>
<polygon fill="black" stroke="black" points="59.5001,-424.176 56,-414.176 52.5001,-424.176 59.5001,-424.176"/>
</g>
<!-- 0xg22n -->
<g id="node19" class="node"><title>0xg22n</title>
<polygon fill="none" stroke="black" points="145.57,-1 145.57,-37 450.43,-37 450.43,-1 145.57,-1"/>
<text text-anchor="middle" x="298" y="-13.4" font-family="Times,serif" font-size="14.00">[u&#39;0 degrees Celsius, Remark: On ice&#39;, u&#39;2 minutes&#39;]</text>
</g>
<!-- adrmwt&#45;&#45;0xg22n -->
<g id="edge15" class="edge"><title>adrmwt&#45;&#45;0xg22n</title>
<path fill="none" stroke="black" d="M87.6373,-19C100.934,-19 117.483,-19 135.42,-19"/>
<polygon fill="black" stroke="black" points="135.516,-22.5001 145.516,-19 135.516,-15.5001 135.516,-22.5001"/>
<text text-anchor="middle" x="116.285" y="-24.8" font-family="Times,serif" font-size="14.00">sample</text>
</g>
<!-- oy38e9 -->
<g id="node22" class="node"><title>oy38e9</title>
<polygon fill="none" stroke="black" points="83,-941 29,-941 29,-905 83,-905 83,-941"/>
<text text-anchor="middle" x="56" y="-917.4" font-family="Times,serif" font-size="14.00">heat</text>
</g>
<!-- 6isu3s -->
<g id="node23" class="node"><title>6isu3s</title>
<polygon fill="none" stroke="black" points="140.522,-905 140.522,-941 497.478,-941 497.478,-905 140.522,-905"/>
<text text-anchor="middle" x="319" y="-917.4" font-family="Times,serif" font-size="14.00">[u&#39;65 degrees Celsius, Remark: in a heat block&#39;, u&#39;5 minutes&#39;]</text>
</g>
<!-- oy38e9&#45;&#45;6isu3s -->
<g id="edge18" class="edge"><title>oy38e9&#45;&#45;6isu3s</title>
<path fill="none" stroke="black" d="M83.155,-923C95.8343,-923 112.126,-923 130.215,-923"/>
<polygon fill="black" stroke="black" points="130.437,-926.5 140.437,-923 130.437,-919.5 130.437,-926.5"/>
<text text-anchor="middle" x="111.761" y="-928.8" font-family="Times,serif" font-size="14.00">sample</text>
</g>
<!-- f4hds3 -->
<g id="node26" class="node"><title>f4hds3</title>
<polygon fill="none" stroke="black" points="83,-865 29,-865 29,-829 83,-829 83,-865"/>
<text text-anchor="middle" x="56" y="-841.4" font-family="Times,serif" font-size="14.00">chill</text>
</g>
<!-- oy38e9&#45;&#45;f4hds3 -->
<g id="edge37" class="edge"><title>oy38e9&#45;&#45;f4hds3</title>
<path fill="none" stroke="black" d="M56,-904.837C56,-896.058 56,-885.163 56,-875.267"/>
<polygon fill="black" stroke="black" points="59.5001,-875.07 56,-865.07 52.5001,-875.07 59.5001,-875.07"/>
</g>
<!-- f4hds3&#45;&#45;9b92ym -->
<g id="edge39" class="edge"><title>f4hds3&#45;&#45;9b92ym</title>
<path fill="none" stroke="black" d="M56,-828.837C56,-820.058 56,-809.163 56,-799.267"/>
<polygon fill="black" stroke="black" points="59.5001,-799.07 56,-789.07 52.5001,-799.07 59.5001,-799.07"/>
</g>
<!-- 7h4cf3 -->
<g id="node27" class="node"><title>7h4cf3</title>
<polygon fill="none" stroke="black" points="118.834,-829 118.834,-865 511.166,-865 511.166,-829 118.834,-829"/>
<text text-anchor="middle" x="315" y="-841.4" font-family="Times,serif" font-size="14.00">[u&#39;0 degrees Celsius, Remark: On ice&#39;, u&#39;1 minutes, Remark: Brief&#39;]</text>
</g>
<!-- f4hds3&#45;&#45;7h4cf3 -->
<g id="edge21" class="edge"><title>f4hds3&#45;&#45;7h4cf3</title>
<path fill="none" stroke="black" d="M83.0635,-847C91.4369,-847 99.8104,-847 108.184,-847"/>
<polygon fill="black" stroke="black" points="108.398,-850.5 118.398,-847 108.398,-843.5 108.398,-850.5"/>
</g>
<!-- kbzqcb -->
<g id="node30" class="node"><title>kbzqcb</title>
<polygon fill="none" stroke="black" points="92.0599,-565 19.9401,-565 19.9401,-529 92.0599,-529 92.0599,-565"/>
<text text-anchor="middle" x="56" y="-541.4" font-family="Times,serif" font-size="14.00">centrifuge</text>
</g>
<!-- kbzqcb&#45;&#45;j4json -->
<g id="edge47" class="edge"><title>kbzqcb&#45;&#45;j4json</title>
<path fill="none" stroke="black" d="M56,-528.837C56,-520.058 56,-509.163 56,-499.267"/>
<polygon fill="black" stroke="black" points="59.5001,-499.07 56,-489.07 52.5001,-499.07 59.5001,-499.07"/>
</g>
<!-- n6qqdo -->
<g id="node31" class="node"><title>n6qqdo</title>
<polygon fill="none" stroke="black" points="133.967,-529 133.967,-565 564.033,-565 564.033,-529 133.967,-529"/>
<text text-anchor="middle" x="349" y="-541.4" font-family="Times,serif" font-size="14.00">[u&#39;1 minutes, Remark: Brief&#39;, u&#39;1 minutes, Remark: Brief, Remark: Pulse&#39;]</text>
</g>
<!-- kbzqcb&#45;&#45;n6qqdo -->
<g id="edge24" class="edge"><title>kbzqcb&#45;&#45;n6qqdo</title>
<path fill="none" stroke="black" d="M92.2214,-547C101.399,-547 111.947,-547 123.419,-547"/>
<polygon fill="black" stroke="black" points="123.727,-550.5 133.727,-547 123.727,-543.5 123.727,-550.5"/>
<text text-anchor="middle" x="112.983" y="-552.8" font-family="Times,serif" font-size="14.00">tube</text>
</g>
<!-- thfavi -->
<g id="node34" class="node"><title>thfavi</title>
<polygon fill="none" stroke="black" points="92.0599,-265 19.9401,-265 19.9401,-229 92.0599,-229 92.0599,-265"/>
<text text-anchor="middle" x="56" y="-241.4" font-family="Times,serif" font-size="14.00">centrifuge</text>
</g>
<!-- thfavi&#45;&#45;ya985z -->
<g id="edge55" class="edge"><title>thfavi&#45;&#45;ya985z</title>
<path fill="none" stroke="black" d="M56,-228.837C56,-220.058 56,-209.163 56,-199.267"/>
<polygon fill="black" stroke="black" points="59.5001,-199.07 56,-189.07 52.5001,-199.07 59.5001,-199.07"/>
</g>
<!-- rlom23 -->
<g id="node35" class="node"><title>rlom23</title>
<polygon fill="none" stroke="black" points="149.967,-229 149.967,-265 580.033,-265 580.033,-229 149.967,-229"/>
<text text-anchor="middle" x="365" y="-241.4" font-family="Times,serif" font-size="14.00">[u&#39;1 minutes, Remark: Brief&#39;, u&#39;1 minutes, Remark: Brief, Remark: Pulse&#39;]</text>
</g>
<!-- thfavi&#45;&#45;rlom23 -->
<g id="edge27" class="edge"><title>thfavi&#45;&#45;rlom23</title>
<path fill="none" stroke="black" d="M92.3549,-247C105.681,-247 121.916,-247 139.756,-247"/>
<polygon fill="black" stroke="black" points="139.824,-250.5 149.823,-247 139.823,-243.5 139.824,-250.5"/>
<text text-anchor="middle" x="120.983" y="-252.8" font-family="Times,serif" font-size="14.00">sample</text>
</g>
<!-- pbud57 -->
<g id="node50" class="node"><title>pbud57</title>
<polygon fill="none" stroke="black" points="83,-640 29,-640 29,-604 83,-604 83,-640"/>
<text text-anchor="middle" x="56" y="-616.4" font-family="Times,serif" font-size="14.00">mix</text>
</g>
<!-- 892zia&#45;&#45;pbud57 -->
<g id="edge43" class="edge"><title>892zia&#45;&#45;pbud57</title>
<path fill="none" stroke="black" d="M56,-677.937C56,-669.807 56,-659.876 56,-650.705"/>
<polygon fill="black" stroke="black" points="59.5001,-650.441 56,-640.441 52.5001,-650.441 59.5001,-650.441"/>
</g>
<!-- aoymzg -->
<g id="node55" class="node"><title>aoymzg</title>
<polygon fill="none" stroke="black" points="83,-340 29,-340 29,-304 83,-304 83,-340"/>
<text text-anchor="middle" x="56" y="-316.4" font-family="Times,serif" font-size="14.00">mix</text>
</g>
<!-- muwzdb&#45;&#45;aoymzg -->
<g id="edge51" class="edge"><title>muwzdb&#45;&#45;aoymzg</title>
<path fill="none" stroke="black" d="M56,-377.937C56,-369.807 56,-359.876 56,-350.705"/>
<polygon fill="black" stroke="black" points="59.5001,-350.441 56,-340.441 52.5001,-350.441 59.5001,-350.441"/>
</g>
<!-- kttj4d -->
<g id="node42" class="node"><title>kttj4d</title>
<polygon fill="none" stroke="black" points="88.1554,-1016 23.8446,-1016 23.8446,-980 88.1554,-980 88.1554,-1016"/>
<text text-anchor="middle" x="56" y="-992.4" font-family="Times,serif" font-size="14.00">combine</text>
</g>
<!-- kttj4d&#45;&#45;oy38e9 -->
<g id="edge35" class="edge"><title>kttj4d&#45;&#45;oy38e9</title>
<path fill="none" stroke="black" d="M56,-979.7C56,-971.245 56,-960.869 56,-951.373"/>
<polygon fill="black" stroke="black" points="59.5001,-951.176 56,-941.176 52.5001,-951.176 59.5001,-951.176"/>
</g>
<!-- ahd90y -->
<g id="node44" class="node"><title>ahd90y</title>
<polygon fill="none" stroke="black" points="112.39,-1090 -0.389557,-1090 -0.389557,-1054 112.39,-1054 112.39,-1090"/>
<text text-anchor="middle" x="56" y="-1066.4" font-family="Times,serif" font-size="14.00">call_for_protocol</text>
</g>
<!-- ahd90y&#45;&#45;kttj4d -->
<g id="edge33" class="edge"><title>ahd90y&#45;&#45;kttj4d</title>
<path fill="none" stroke="black" d="M56,-1053.94C56,-1045.81 56,-1035.88 56,-1026.7"/>
<polygon fill="black" stroke="black" points="59.5001,-1026.44 56,-1016.44 52.5001,-1026.44 59.5001,-1026.44"/>
</g>
<!-- pbud57&#45;&#45;kbzqcb -->
<g id="edge45" class="edge"><title>pbud57&#45;&#45;kbzqcb</title>
<path fill="none" stroke="black" d="M56,-603.7C56,-595.245 56,-584.869 56,-575.373"/>
<polygon fill="black" stroke="black" points="59.5001,-575.176 56,-565.176 52.5001,-575.176 59.5001,-575.176"/>
</g>
<!-- aoymzg&#45;&#45;thfavi -->
<g id="edge53" class="edge"><title>aoymzg&#45;&#45;thfavi</title>
<path fill="none" stroke="black" d="M56,-303.7C56,-295.245 56,-284.869 56,-275.373"/>
<polygon fill="black" stroke="black" points="59.5001,-275.176 56,-265.176 52.5001,-275.176 59.5001,-275.176"/>
</g>
</g>
</svg>
