<?xml version="1.0" encoding="UTF-8" standalone="no"?>
<!DOCTYPE svg PUBLIC "-//W3C//DTD SVG 1.1//EN"
 "http://www.w3.org/Graphics/SVG/1.1/DTD/svg11.dtd">
<!-- Generated by graphviz version 2.28.0 (20121217.1915)
 -->
<!-- Title: _anonymous_0 Pages: 1 -->
<svg width="647pt" height="1206pt"
 viewBox="0.00 0.00 647.00 1206.00" xmlns="http://www.w3.org/2000/svg" xmlns:xlink="http://www.w3.org/1999/xlink">
<g id="graph1" class="graph" transform="scale(1 1) rotate(0) translate(4 1202)">
<title>_anonymous_0</title>
<polygon fill="white" stroke="white" points="-4,5 -4,-1202 644,-1202 644,5 -4,5"/>
<!-- 892zia -->
<g id="node2" class="node"><title>892zia</title>
<polygon fill="none" stroke="black" points="83,-736 29,-736 29,-700 83,-700 83,-736"/>
<text text-anchor="middle" x="56" y="-712.4" font-family="Times,serif" font-size="14.00">add</text>
</g>
<!-- d5fd4e -->
<g id="node3" class="node"><title>d5fd4e</title>
<polygon fill="none" stroke="black" points="118.057,-680.8 118.057,-755.2 457.943,-755.2 457.943,-680.8 118.057,-680.8"/>
<text text-anchor="middle" x="288" y="-737.2" font-family="Times,serif" font-size="14.00">Buffer, First strand cDNA synthesis (Invitrogen) 5 X, 4 ul</text>
<polyline fill="none" stroke="black" points="118.057,-730.4 457.943,-730.4 "/>
<text text-anchor="middle" x="288" y="-712.4" font-family="Times,serif" font-size="14.00">Reducing agent, Dithiothreitol (DTT) 100 mM, 2 ul</text>
<polyline fill="none" stroke="black" points="118.057,-705.6 457.943,-705.6 "/>
<text text-anchor="middle" x="288" y="-687.6" font-family="Times,serif" font-size="14.00">Water, nuclease&#45;free, sterile , 1 ul</text>
</g>
<!-- 892zia&#45;&#45;d5fd4e -->
<g id="edge3" class="edge"><title>892zia&#45;&#45;d5fd4e</title>
<path fill="none" stroke="black" d="M83.1875,-718C91.4349,-718 99.6823,-718 107.93,-718"/>
<polygon fill="black" stroke="black" points="107.99,-721.5 117.99,-718 107.99,-714.5 107.99,-721.5"/>
</g>
<!-- pbud57 -->
<g id="node76" class="node"><title>pbud57</title>
<polygon fill="none" stroke="black" points="83,-642 29,-642 29,-606 83,-606 83,-642"/>
<text text-anchor="middle" x="56" y="-618.4" font-family="Times,serif" font-size="14.00">mix</text>
</g>
<!-- 892zia&#45;&#45;pbud57 -->
<g id="edge78" class="edge"><title>892zia&#45;&#45;pbud57</title>
<path fill="none" stroke="black" d="M56,-699.696C56,-686.46 56,-667.947 56,-652.663"/>
<polygon fill="black" stroke="black" points="59.5001,-652.227 56,-642.227 52.5001,-652.227 59.5001,-652.227"/>
</g>
<!-- muwzdb -->
<g id="node6" class="node"><title>muwzdb</title>
<polygon fill="none" stroke="black" points="83,-415 29,-415 29,-379 83,-379 83,-415"/>
<text text-anchor="middle" x="56" y="-391.4" font-family="Times,serif" font-size="14.00">add</text>
</g>
<!-- w3v4gn -->
<g id="node7" class="node"><title>w3v4gn</title>
<polygon fill="none" stroke="black" points="118.779,-379 118.779,-415 619.221,-415 619.221,-379 118.779,-379"/>
<text text-anchor="middle" x="369" y="-391.5" font-family="Times,serif" font-size="14.00">Enzyme, SuperScript II reverse transcriptase (Invitrogen) 200 Units/ul, 1 ul, 200 Units</text>
</g>
<!-- muwzdb&#45;&#45;w3v4gn -->
<g id="edge6" class="edge"><title>muwzdb&#45;&#45;w3v4gn</title>
<path fill="none" stroke="black" d="M83.2041,-397C91.6039,-397 100.004,-397 108.404,-397"/>
<polygon fill="black" stroke="black" points="108.65,-400.5 118.649,-397 108.649,-393.5 108.65,-400.5"/>
</g>
<!-- aoymzg -->
<g id="node81" class="node"><title>aoymzg</title>
<polygon fill="none" stroke="black" points="83,-340 29,-340 29,-304 83,-304 83,-340"/>
<text text-anchor="middle" x="56" y="-316.4" font-family="Times,serif" font-size="14.00">mix</text>
</g>
<!-- muwzdb&#45;&#45;aoymzg -->
<g id="edge86" class="edge"><title>muwzdb&#45;&#45;aoymzg</title>
<path fill="none" stroke="black" d="M56,-378.7C56,-370.245 56,-359.869 56,-350.373"/>
<polygon fill="black" stroke="black" points="59.5001,-350.176 56,-340.176 52.5001,-350.176 59.5001,-350.176"/>
</g>
<!-- kttj4d -->
<g id="node10" class="node"><title>kttj4d</title>
<polygon fill="none" stroke="black" points="88.1554,-1090 23.8446,-1090 23.8446,-1054 88.1554,-1054 88.1554,-1090"/>
<text text-anchor="middle" x="56" y="-1066.4" font-family="Times,serif" font-size="14.00">combine</text>
</g>
<!-- 0tisce -->
<g id="node11" class="node"><title>0tisce</title>
<polygon fill="none" stroke="black" points="124.071,-1022.4 124.071,-1121.6 639.929,-1121.6 639.929,-1022.4 124.071,-1022.4"/>
<text text-anchor="middle" x="382" y="-1103.6" font-family="Times,serif" font-size="14.00">Nucleic Acid, Primer, Oligo(dT)12&#45;18 primers (Invitrogen) 50&#45;500 ng/ul, 1&#45;10 ul, 500 ng</text>
<polyline fill="none" stroke="black" points="124.071,-1096.8 639.929,-1096.8 "/>
<text text-anchor="middle" x="382" y="-1078.8" font-family="Times,serif" font-size="14.00">Nucleic Acid, dNTPs (Invitrogen) 10 mM, 1 ul</text>
<polyline fill="none" stroke="black" points="124.071,-1072 639.929,-1072 "/>
<text text-anchor="middle" x="382" y="-1054" font-family="Times,serif" font-size="14.00">Nucleic Acid, RNA, poly(A)+ 100&#45;1000 ng/ul, 1&#45;10 ul, 100&#45;1000 ng</text>
<polyline fill="none" stroke="black" points="124.071,-1047.2 639.929,-1047.2 "/>
<text text-anchor="middle" x="382" y="-1029.2" font-family="Times,serif" font-size="14.00">Water, nuclease&#45;free, sterile , 0&#45;9 ul</text>
</g>
<!-- kttj4d&#45;&#45;0tisce -->
<g id="edge9" class="edge"><title>kttj4d&#45;&#45;0tisce</title>
<path fill="none" stroke="black" d="M88.1543,-1072C96.7481,-1072 105.342,-1072 113.936,-1072"/>
<polygon fill="black" stroke="black" points="114.024,-1075.5 124.024,-1072 114.024,-1068.5 114.024,-1075.5"/>
</g>
<!-- oy38e9 -->
<g id="node38" class="node"><title>oy38e9</title>
<polygon fill="none" stroke="black" points="83,-983 29,-983 29,-947 83,-947 83,-983"/>
<text text-anchor="middle" x="56" y="-959.4" font-family="Times,serif" font-size="14.00">heat</text>
</g>
<!-- kttj4d&#45;&#45;oy38e9 -->
<g id="edge70" class="edge"><title>kttj4d&#45;&#45;oy38e9</title>
<path fill="none" stroke="black" d="M56,-1053.66C56,-1037.22 56,-1012.28 56,-993.194"/>
<polygon fill="black" stroke="black" points="59.5001,-993.016 56,-983.016 52.5001,-993.016 59.5001,-993.016"/>
</g>
<!-- ahd90y -->
<g id="node14" class="node"><title>ahd90y</title>
<polygon fill="none" stroke="black" points="112.39,-1197 -0.389557,-1197 -0.389557,-1161 112.39,-1161 112.39,-1197"/>
<text text-anchor="middle" x="56" y="-1173.4" font-family="Times,serif" font-size="14.00">call_for_protocol</text>
</g>
<!-- ahd90y&#45;&#45;kttj4d -->
<g id="edge68" class="edge"><title>ahd90y&#45;&#45;kttj4d</title>
<path fill="none" stroke="black" d="M56,-1160.66C56,-1144.22 56,-1119.28 56,-1100.19"/>
<polygon fill="black" stroke="black" points="59.5001,-1100.02 56,-1090.02 52.5001,-1100.02 59.5001,-1100.02"/>
</g>
<!-- f7zg5q -->
<g id="node15" class="node"><title>f7zg5q</title>
<polygon fill="none" stroke="black" points="147.9,-1161 147.9,-1197 468.1,-1197 468.1,-1161 147.9,-1161"/>
<text text-anchor="middle" x="308" y="-1173.5" font-family="Times,serif" font-size="14.00">Nucleic Acid, RNA, poly(A)+ 100 ng/ul, 100&#45;1000 ng</text>
</g>
<!-- ahd90y&#45;&#45;f7zg5q -->
<g id="edge12" class="edge"><title>ahd90y&#45;&#45;f7zg5q</title>
<path fill="none" stroke="black" d="M112.602,-1179C120.922,-1179 129.243,-1179 137.563,-1179"/>
<polygon fill="black" stroke="black" points="137.712,-1182.5 147.712,-1179 137.712,-1175.5 137.712,-1182.5"/>
</g>
<!-- 9b92ym -->
<g id="node18" class="node"><title>9b92ym</title>
<polygon fill="none" stroke="black" points="92.0599,-831 19.9401,-831 19.9401,-795 92.0599,-795 92.0599,-831"/>
<text text-anchor="middle" x="56" y="-807.4" font-family="Times,serif" font-size="14.00">centrifuge</text>
</g>
<!-- 9b92ym&#45;&#45;892zia -->
<g id="edge76" class="edge"><title>9b92ym&#45;&#45;892zia</title>
<path fill="none" stroke="black" d="M56,-794.942C56,-781.394 56,-762.18 56,-746.469"/>
<polygon fill="black" stroke="black" points="59.5001,-746.264 56,-736.264 52.5001,-746.264 59.5001,-746.264"/>
</g>
<!-- f5ytmn -->
<g id="node19" class="node"><title>f5ytmn</title>
<polygon fill="none" stroke="black" points="133.967,-795 133.967,-831 564.033,-831 564.033,-795 133.967,-795"/>
<text text-anchor="middle" x="349" y="-807.4" font-family="Times,serif" font-size="14.00">[u&#39;1 minutes, Remark: Brief&#39;, u&#39;1 minutes, Remark: Brief, Remark: Pulse&#39;]</text>
</g>
<!-- 9b92ym&#45;&#45;f5ytmn -->
<g id="edge15" class="edge"><title>9b92ym&#45;&#45;f5ytmn</title>
<path fill="none" stroke="black" d="M92.2214,-813C101.399,-813 111.947,-813 123.419,-813"/>
<polygon fill="black" stroke="black" points="123.727,-816.5 133.727,-813 123.727,-809.5 123.727,-816.5"/>
<text text-anchor="middle" x="112.983" y="-818.8" font-family="Times,serif" font-size="14.00">tube</text>
</g>
<!-- ya985z -->
<g id="node22" class="node"><title>ya985z</title>
<polygon fill="none" stroke="black" points="87.5647,-189 24.4353,-189 24.4353,-153 87.5647,-153 87.5647,-189"/>
<text text-anchor="middle" x="56" y="-165.4" font-family="Times,serif" font-size="14.00">incubate</text>
</g>
<!-- o53zx2 -->
<g id="node23" class="node"><title>o53zx2</title>
<polygon fill="none" stroke="black" points="145.388,-153 145.388,-189 368.612,-189 368.612,-153 145.388,-153"/>
<text text-anchor="middle" x="257" y="-165.4" font-family="Times,serif" font-size="14.00">[u&#39;42 degrees Celsius&#39;, u&#39;50 minutes&#39;]</text>
</g>
<!-- ya985z&#45;&#45;o53zx2 -->
<g id="edge18" class="edge"><title>ya985z&#45;&#45;o53zx2</title>
<path fill="none" stroke="black" d="M87.4062,-171C100.789,-171 117.341,-171 134.811,-171"/>
<polygon fill="black" stroke="black" points="135.186,-174.5 145.186,-171 135.186,-167.5 135.186,-174.5"/>
<text text-anchor="middle" x="116.194" y="-176.8" font-family="Times,serif" font-size="14.00">sample</text>
</g>
<!-- bavsb0 -->
<g id="node26" class="node"><title>bavsb0</title>
<polygon fill="none" stroke="black" points="87.5647,-113 24.4353,-113 24.4353,-77 87.5647,-77 87.5647,-113"/>
<text text-anchor="middle" x="56" y="-89.4" font-family="Times,serif" font-size="14.00">incubate</text>
</g>
<!-- ya985z&#45;&#45;bavsb0 -->
<g id="edge92" class="edge"><title>ya985z&#45;&#45;bavsb0</title>
<path fill="none" stroke="black" d="M56,-152.837C56,-144.058 56,-133.163 56,-123.267"/>
<polygon fill="black" stroke="black" points="59.5001,-123.07 56,-113.07 52.5001,-123.07 59.5001,-123.07"/>
</g>
<!-- 9alaf1 -->
<g id="node27" class="node"><title>9alaf1</title>
<polygon fill="none" stroke="black" points="145.388,-77 145.388,-113 368.612,-113 368.612,-77 145.388,-77"/>
<text text-anchor="middle" x="257" y="-89.4" font-family="Times,serif" font-size="14.00">[u&#39;70 degrees Celsius&#39;, u&#39;15 minutes&#39;]</text>
</g>
<!-- bavsb0&#45;&#45;9alaf1 -->
<g id="edge21" class="edge"><title>bavsb0&#45;&#45;9alaf1</title>
<path fill="none" stroke="black" d="M87.4062,-95C100.789,-95 117.341,-95 134.811,-95"/>
<polygon fill="black" stroke="black" points="135.186,-98.5001 145.186,-95 135.186,-91.5001 135.186,-98.5001"/>
<text text-anchor="middle" x="116.194" y="-100.8" font-family="Times,serif" font-size="14.00">sample</text>
</g>
<!-- adrmwt -->
<g id="node34" class="node"><title>adrmwt</title>
<polygon fill="none" stroke="black" points="87.5647,-37 24.4353,-37 24.4353,-1 87.5647,-1 87.5647,-37"/>
<text text-anchor="middle" x="56" y="-13.4" font-family="Times,serif" font-size="14.00">incubate</text>
</g>
<!-- bavsb0&#45;&#45;adrmwt -->
<g id="edge94" class="edge"><title>bavsb0&#45;&#45;adrmwt</title>
<path fill="none" stroke="black" d="M56,-76.8369C56,-68.0575 56,-57.1626 56,-47.2675"/>
<polygon fill="black" stroke="black" points="59.5001,-47.07 56,-37.07 52.5001,-47.07 59.5001,-47.07"/>
</g>
<!-- j4json -->
<g id="node30" class="node"><title>j4json</title>
<polygon fill="none" stroke="black" points="87.5647,-491 24.4353,-491 24.4353,-455 87.5647,-455 87.5647,-491"/>
<text text-anchor="middle" x="56" y="-467.4" font-family="Times,serif" font-size="14.00">incubate</text>
</g>
<!-- j4json&#45;&#45;muwzdb -->
<g id="edge84" class="edge"><title>j4json&#45;&#45;muwzdb</title>
<path fill="none" stroke="black" d="M56,-454.837C56,-446.058 56,-435.163 56,-425.267"/>
<polygon fill="black" stroke="black" points="59.5001,-425.07 56,-415.07 52.5001,-425.07 59.5001,-425.07"/>
</g>
<!-- czbv3l -->
<g id="node31" class="node"><title>czbv3l</title>
<polygon fill="none" stroke="black" points="149.888,-455 149.888,-491 366.112,-491 366.112,-455 149.888,-455"/>
<text text-anchor="middle" x="258" y="-467.4" font-family="Times,serif" font-size="14.00">[u&#39;42 degrees Celsius&#39;, u&#39;2 minutes&#39;]</text>
</g>
<!-- j4json&#45;&#45;czbv3l -->
<g id="edge24" class="edge"><title>j4json&#45;&#45;czbv3l</title>
<path fill="none" stroke="black" d="M87.5625,-473C102.114,-473 120.393,-473 139.535,-473"/>
<polygon fill="black" stroke="black" points="139.608,-476.5 149.608,-473 139.608,-469.5 139.608,-476.5"/>
<text text-anchor="middle" x="118.444" y="-478.8" font-family="Times,serif" font-size="14.00">samples</text>
</g>
<!-- dwb9e2 -->
<g id="node35" class="node"><title>dwb9e2</title>
<polygon fill="none" stroke="black" points="145.57,-1 145.57,-37 450.43,-37 450.43,-1 145.57,-1"/>
<text text-anchor="middle" x="298" y="-13.4" font-family="Times,serif" font-size="14.00">[u&#39;0 degrees Celsius, Remark: On ice&#39;, u&#39;2 minutes&#39;]</text>
</g>
<!-- adrmwt&#45;&#45;dwb9e2 -->
<g id="edge27" class="edge"><title>adrmwt&#45;&#45;dwb9e2</title>
<path fill="none" stroke="black" d="M87.6373,-19C100.934,-19 117.483,-19 135.42,-19"/>
<polygon fill="black" stroke="black" points="135.516,-22.5001 145.516,-19 135.516,-15.5001 135.516,-22.5001"/>
<text text-anchor="middle" x="116.285" y="-24.8" font-family="Times,serif" font-size="14.00">sample</text>
</g>
<!-- cgqp7t -->
<g id="node39" class="node"><title>cgqp7t</title>
<polygon fill="none" stroke="black" points="140.522,-947 140.522,-983 497.478,-983 497.478,-947 140.522,-947"/>
<text text-anchor="middle" x="319" y="-959.4" font-family="Times,serif" font-size="14.00">[u&#39;65 degrees Celsius, Remark: in a heat block&#39;, u&#39;5 minutes&#39;]</text>
</g>
<!-- oy38e9&#45;&#45;cgqp7t -->
<g id="edge30" class="edge"><title>oy38e9&#45;&#45;cgqp7t</title>
<path fill="none" stroke="black" d="M83.155,-965C95.8343,-965 112.126,-965 130.215,-965"/>
<polygon fill="black" stroke="black" points="130.437,-968.5 140.437,-965 130.437,-961.5 130.437,-968.5"/>
<text text-anchor="middle" x="111.761" y="-970.8" font-family="Times,serif" font-size="14.00">sample</text>
</g>
<!-- f4hds3 -->
<g id="node42" class="node"><title>f4hds3</title>
<polygon fill="none" stroke="black" points="83,-907 29,-907 29,-871 83,-871 83,-907"/>
<text text-anchor="middle" x="56" y="-883.4" font-family="Times,serif" font-size="14.00">chill</text>
</g>
<!-- oy38e9&#45;&#45;f4hds3 -->
<g id="edge72" class="edge"><title>oy38e9&#45;&#45;f4hds3</title>
<path fill="none" stroke="black" d="M56,-946.837C56,-938.058 56,-927.163 56,-917.267"/>
<polygon fill="black" stroke="black" points="59.5001,-917.07 56,-907.07 52.5001,-917.07 59.5001,-917.07"/>
</g>
<!-- f4hds3&#45;&#45;9b92ym -->
<g id="edge74" class="edge"><title>f4hds3&#45;&#45;9b92ym</title>
<path fill="none" stroke="black" d="M56,-870.837C56,-862.058 56,-851.163 56,-841.267"/>
<polygon fill="black" stroke="black" points="59.5001,-841.07 56,-831.07 52.5001,-841.07 59.5001,-841.07"/>
</g>
<!-- e4f591 -->
<g id="node43" class="node"><title>e4f591</title>
<polygon fill="none" stroke="black" points="118.834,-871 118.834,-907 511.166,-907 511.166,-871 118.834,-871"/>
<text text-anchor="middle" x="315" y="-883.4" font-family="Times,serif" font-size="14.00">[u&#39;0 degrees Celsius, Remark: On ice&#39;, u&#39;1 minutes, Remark: Brief&#39;]</text>
</g>
<!-- f4hds3&#45;&#45;e4f591 -->
<g id="edge33" class="edge"><title>f4hds3&#45;&#45;e4f591</title>
<path fill="none" stroke="black" d="M83.0635,-889C91.4369,-889 99.8104,-889 108.184,-889"/>
<polygon fill="black" stroke="black" points="108.398,-892.5 118.398,-889 108.398,-885.5 108.398,-892.5"/>
</g>
<!-- kbzqcb -->
<g id="node46" class="node"><title>kbzqcb</title>
<polygon fill="none" stroke="black" points="92.0599,-567 19.9401,-567 19.9401,-531 92.0599,-531 92.0599,-567"/>
<text text-anchor="middle" x="56" y="-543.4" font-family="Times,serif" font-size="14.00">centrifuge</text>
</g>
<!-- kbzqcb&#45;&#45;j4json -->
<g id="edge82" class="edge"><title>kbzqcb&#45;&#45;j4json</title>
<path fill="none" stroke="black" d="M56,-530.837C56,-522.058 56,-511.163 56,-501.267"/>
<polygon fill="black" stroke="black" points="59.5001,-501.07 56,-491.07 52.5001,-501.07 59.5001,-501.07"/>
</g>
<!-- 4tlloj -->
<g id="node47" class="node"><title>4tlloj</title>
<polygon fill="none" stroke="black" points="133.967,-531 133.967,-567 564.033,-567 564.033,-531 133.967,-531"/>
<text text-anchor="middle" x="349" y="-543.4" font-family="Times,serif" font-size="14.00">[u&#39;1 minutes, Remark: Brief&#39;, u&#39;1 minutes, Remark: Brief, Remark: Pulse&#39;]</text>
</g>
<!-- kbzqcb&#45;&#45;4tlloj -->
<g id="edge36" class="edge"><title>kbzqcb&#45;&#45;4tlloj</title>
<path fill="none" stroke="black" d="M92.2214,-549C101.399,-549 111.947,-549 123.419,-549"/>
<polygon fill="black" stroke="black" points="123.727,-552.5 133.727,-549 123.727,-545.5 123.727,-552.5"/>
<text text-anchor="middle" x="112.983" y="-554.8" font-family="Times,serif" font-size="14.00">tube</text>
</g>
<!-- thfavi -->
<g id="node50" class="node"><title>thfavi</title>
<polygon fill="none" stroke="black" points="92.0599,-265 19.9401,-265 19.9401,-229 92.0599,-229 92.0599,-265"/>
<text text-anchor="middle" x="56" y="-241.4" font-family="Times,serif" font-size="14.00">centrifuge</text>
</g>
<!-- thfavi&#45;&#45;ya985z -->
<g id="edge90" class="edge"><title>thfavi&#45;&#45;ya985z</title>
<path fill="none" stroke="black" d="M56,-228.837C56,-220.058 56,-209.163 56,-199.267"/>
<polygon fill="black" stroke="black" points="59.5001,-199.07 56,-189.07 52.5001,-199.07 59.5001,-199.07"/>
</g>
<!-- e5gzy4 -->
<g id="node51" class="node"><title>e5gzy4</title>
<polygon fill="none" stroke="black" points="149.967,-229 149.967,-265 580.033,-265 580.033,-229 149.967,-229"/>
<text text-anchor="middle" x="365" y="-241.4" font-family="Times,serif" font-size="14.00">[u&#39;1 minutes, Remark: Brief&#39;, u&#39;1 minutes, Remark: Brief, Remark: Pulse&#39;]</text>
</g>
<!-- thfavi&#45;&#45;e5gzy4 -->
<g id="edge39" class="edge"><title>thfavi&#45;&#45;e5gzy4</title>
<path fill="none" stroke="black" d="M92.3549,-247C105.681,-247 121.916,-247 139.756,-247"/>
<polygon fill="black" stroke="black" points="139.824,-250.5 149.823,-247 139.823,-243.5 139.824,-250.5"/>
<text text-anchor="middle" x="120.983" y="-252.8" font-family="Times,serif" font-size="14.00">sample</text>
</g>
<!-- pbud57&#45;&#45;kbzqcb -->
<g id="edge80" class="edge"><title>pbud57&#45;&#45;kbzqcb</title>
<path fill="none" stroke="black" d="M56,-605.7C56,-597.245 56,-586.869 56,-577.373"/>
<polygon fill="black" stroke="black" points="59.5001,-577.176 56,-567.176 52.5001,-577.176 59.5001,-577.176"/>
</g>
<!-- aoymzg&#45;&#45;thfavi -->
<g id="edge88" class="edge"><title>aoymzg&#45;&#45;thfavi</title>
<path fill="none" stroke="black" d="M56,-303.7C56,-295.245 56,-284.869 56,-275.373"/>
<polygon fill="black" stroke="black" points="59.5001,-275.176 56,-265.176 52.5001,-275.176 59.5001,-275.176"/>
</g>
</g>
</svg>
