<?xml version="1.0" encoding="UTF-8" standalone="no"?>
<!DOCTYPE svg PUBLIC "-//W3C//DTD SVG 1.1//EN"
 "http://www.w3.org/Graphics/SVG/1.1/DTD/svg11.dtd">
<!-- Generated by graphviz version 2.28.0 (20121217.1915)
 -->
<!-- Title: _anonymous_0 Pages: 1 -->
<svg width="1272pt" height="1226pt"
 viewBox="0.00 0.00 1272.00 1226.00" xmlns="http://www.w3.org/2000/svg" xmlns:xlink="http://www.w3.org/1999/xlink">
<g id="graph1" class="graph" transform="scale(1 1) rotate(0) translate(4 1222)">
<title>_anonymous_0</title>
<polygon fill="white" stroke="white" points="-4,5 -4,-1222 1269,-1222 1269,5 -4,5"/>
<!-- 3title_A -->
<g id="node2" class="node"><title>3title_A</title>
<polygon fill="none" stroke="#b82f03" points="13,-1182 13,-1209 593,-1209 593,-1182 13,-1182"/>
<text text-anchor="start" x="157.5" y="-1186.5" font-family="Times,serif" font-size="20.00">First strand cDNA synthesis, oligodt</text>
<polygon fill="none" stroke="#b82f03" points="13,-1151 13,-1177 426,-1177 426,-1151 13,-1151"/>
<text text-anchor="start" x="167.5" y="-1155" font-family="Times,serif" font-size="20.00">Parent: None</text>
<polygon fill="none" stroke="#b82f03" points="431,-1151 431,-1177 593,-1177 593,-1151 431,-1151"/>
<text text-anchor="start" x="450.5" y="-1155" font-family="Times,serif" font-size="20.00">Children: None</text>
<polygon fill="none" stroke="#b82f03" points="13,-1120 13,-1146 426,-1146 426,-1120 13,-1120"/>
<text text-anchor="start" x="120" y="-1124" font-family="Times,serif" font-size="20.00">link to author: Link Here</text>
<polygon fill="none" stroke="#b82f03" points="431,-1120 431,-1146 593,-1146 593,-1120 431,-1120"/>
<text text-anchor="start" x="434" y="-1124" font-family="Times,serif" font-size="20.00">Pubmed: 20069539</text>
<polygon fill="none" stroke="#b82f03" points="13,-1089 13,-1115 426,-1115 426,-1089 13,-1089"/>
<text text-anchor="start" x="16.5" y="-1093" font-family="Times,serif" font-size="20.00">Date Created: 2012&#45;12&#45;03 23:46:12.364000+00:00</text>
<polygon fill="none" stroke="#b82f03" points="431,-1089 431,-1115 593,-1115 593,-1089 431,-1089"/>
<text text-anchor="start" x="451.5" y="-1093" font-family="Times,serif" font-size="20.00">Duration: 5880</text>
</g>
<!-- 19title_B -->
<g id="node3" class="node"><title>19title_B</title>
<polygon fill="none" stroke="#015666" points="637,-1182 637,-1209 1251,-1209 1251,-1182 637,-1182"/>
<text text-anchor="start" x="751" y="-1186.5" font-family="Times,serif" font-size="20.00">bionetbook First strand cDNA synthesis, oligodt</text>
<polygon fill="none" stroke="#015666" points="637,-1151 637,-1177 1050,-1177 1050,-1151 637,-1151"/>
<text text-anchor="start" x="667" y="-1155" font-family="Times,serif" font-size="20.00">Parent: First strand cDNA synthesis, oligodt</text>
<polygon fill="none" stroke="#015666" points="1055,-1151 1055,-1177 1251,-1177 1251,-1151 1055,-1151"/>
<text text-anchor="start" x="1091.5" y="-1155" font-family="Times,serif" font-size="20.00">Children: None</text>
<polygon fill="none" stroke="#015666" points="637,-1120 637,-1146 1050,-1146 1050,-1120 637,-1120"/>
<text text-anchor="start" x="744" y="-1124" font-family="Times,serif" font-size="20.00">link to author: Link Here</text>
<polygon fill="none" stroke="#015666" points="1055,-1120 1055,-1146 1251,-1146 1251,-1120 1055,-1120"/>
<text text-anchor="start" x="1075" y="-1124" font-family="Times,serif" font-size="20.00">Pubmed: 20069539</text>
<polygon fill="none" stroke="#015666" points="637,-1089 637,-1115 1050,-1115 1050,-1089 637,-1089"/>
<text text-anchor="start" x="640.5" y="-1093" font-family="Times,serif" font-size="20.00">Date Created: 2012&#45;12&#45;03 23:46:12.364000+00:00</text>
<polygon fill="none" stroke="#015666" points="1055,-1089 1055,-1115 1251,-1115 1251,-1089 1055,-1089"/>
<text text-anchor="start" x="1092.5" y="-1093" font-family="Times,serif" font-size="20.00">Duration: 5880</text>
</g>
<!-- 3title_A&#45;&#45;19title_B -->
<g id="edge3" class="edge"><title>3title_A&#45;&#45;19title_B</title>
<path fill="none" stroke="white" d="M606.286,-1149C612.112,-1149 617.939,-1149 623.765,-1149"/>
</g>
<!-- 3&#45;ahd90y -->
<g id="node5" class="node"><title>3&#45;ahd90y</title>
<polyline fill="none" stroke="black" points="368.129,-1044 237.871,-1044 "/>
<path fill="none" stroke="black" d="M237.871,-1044C231.871,-1044 225.871,-1038 225.871,-1032"/>
<polyline fill="none" stroke="black" points="225.871,-1032 225.871,-1020 "/>
<path fill="none" stroke="black" d="M225.871,-1020C225.871,-1014 231.871,-1008 237.871,-1008"/>
<polyline fill="none" stroke="black" points="237.871,-1008 368.129,-1008 "/>
<path fill="none" stroke="black" d="M368.129,-1008C374.129,-1008 380.129,-1014 380.129,-1020"/>
<polyline fill="none" stroke="black" points="380.129,-1020 380.129,-1032 "/>
<path fill="none" stroke="black" d="M380.129,-1032C380.129,-1038 374.129,-1044 368.129,-1044"/>
<text text-anchor="middle" x="303" y="-1018" font-family="Times,serif" font-size="20.00">call_for_protocol</text>
</g>
<!-- 3title_A&#45;&#45;3&#45;ahd90y -->
<g id="edge5" class="edge"><title>3title_A&#45;&#45;3&#45;ahd90y</title>
<path fill="none" stroke="white" d="M303,-1079.72C303,-1066.64 303,-1054.05 303,-1044.46"/>
</g>
<!-- 19&#45;ahd90y -->
<g id="node7" class="node"><title>19&#45;ahd90y</title>
<polyline fill="none" stroke="black" points="1009.13,-1044 878.871,-1044 "/>
<path fill="none" stroke="black" d="M878.871,-1044C872.871,-1044 866.871,-1038 866.871,-1032"/>
<polyline fill="none" stroke="black" points="866.871,-1032 866.871,-1020 "/>
<path fill="none" stroke="black" d="M866.871,-1020C866.871,-1014 872.871,-1008 878.871,-1008"/>
<polyline fill="none" stroke="black" points="878.871,-1008 1009.13,-1008 "/>
<path fill="none" stroke="black" d="M1009.13,-1008C1015.13,-1008 1021.13,-1014 1021.13,-1020"/>
<polyline fill="none" stroke="black" points="1021.13,-1020 1021.13,-1032 "/>
<path fill="none" stroke="black" d="M1021.13,-1032C1021.13,-1038 1015.13,-1044 1009.13,-1044"/>
<text text-anchor="middle" x="944" y="-1018" font-family="Times,serif" font-size="20.00">call_for_protocol</text>
</g>
<!-- 19title_B&#45;&#45;19&#45;ahd90y -->
<g id="edge7" class="edge"><title>19title_B&#45;&#45;19&#45;ahd90y</title>
<path fill="none" stroke="white" d="M944,-1079.72C944,-1066.64 944,-1054.05 944,-1044.46"/>
</g>
<!-- 3&#45;kttj4d -->
<g id="node9" class="node"><title>3&#45;kttj4d</title>
<polyline fill="none" stroke="black" points="333.151,-972 272.849,-972 "/>
<path fill="none" stroke="black" d="M272.849,-972C266.849,-972 260.849,-966 260.849,-960"/>
<polyline fill="none" stroke="black" points="260.849,-960 260.849,-948 "/>
<path fill="none" stroke="black" d="M260.849,-948C260.849,-942 266.849,-936 272.849,-936"/>
<polyline fill="none" stroke="black" points="272.849,-936 333.151,-936 "/>
<path fill="none" stroke="black" d="M333.151,-936C339.151,-936 345.151,-942 345.151,-948"/>
<polyline fill="none" stroke="black" points="345.151,-948 345.151,-960 "/>
<path fill="none" stroke="black" d="M345.151,-960C345.151,-966 339.151,-972 333.151,-972"/>
<text text-anchor="middle" x="303" y="-946" font-family="Times,serif" font-size="20.00">combine</text>
</g>
<!-- 3&#45;ahd90y&#45;&#45;3&#45;kttj4d -->
<g id="edge9" class="edge"><title>3&#45;ahd90y&#45;&#45;3&#45;kttj4d</title>
<path fill="none" stroke="#b82f03" stroke-width="9" d="M303,-1007.7C303,-996.846 303,-982.917 303,-972.104"/>
</g>
<!-- 19&#45;kttj4d -->
<g id="node11" class="node"><title>19&#45;kttj4d</title>
<polyline fill="none" stroke="black" points="974.151,-972 913.849,-972 "/>
<path fill="none" stroke="black" d="M913.849,-972C907.849,-972 901.849,-966 901.849,-960"/>
<polyline fill="none" stroke="black" points="901.849,-960 901.849,-948 "/>
<path fill="none" stroke="black" d="M901.849,-948C901.849,-942 907.849,-936 913.849,-936"/>
<polyline fill="none" stroke="black" points="913.849,-936 974.151,-936 "/>
<path fill="none" stroke="black" d="M974.151,-936C980.151,-936 986.151,-942 986.151,-948"/>
<polyline fill="none" stroke="black" points="986.151,-948 986.151,-960 "/>
<path fill="none" stroke="black" d="M986.151,-960C986.151,-966 980.151,-972 974.151,-972"/>
<text text-anchor="middle" x="944" y="-946" font-family="Times,serif" font-size="20.00">combine</text>
</g>
<!-- 19&#45;ahd90y&#45;&#45;19&#45;kttj4d -->
<g id="edge11" class="edge"><title>19&#45;ahd90y&#45;&#45;19&#45;kttj4d</title>
<path fill="none" stroke="#015666" stroke-width="9" d="M944,-1007.7C944,-996.846 944,-982.917 944,-972.104"/>
</g>
<!-- 3&#45;oy38e9 -->
<g id="node13" class="node"><title>3&#45;oy38e9</title>
<polyline fill="none" stroke="black" points="318,-900 288,-900 "/>
<path fill="none" stroke="black" d="M288,-900C282,-900 276,-894 276,-888"/>
<polyline fill="none" stroke="black" points="276,-888 276,-876 "/>
<path fill="none" stroke="black" d="M276,-876C276,-870 282,-864 288,-864"/>
<polyline fill="none" stroke="black" points="288,-864 318,-864 "/>
<path fill="none" stroke="black" d="M318,-864C324,-864 330,-870 330,-876"/>
<polyline fill="none" stroke="black" points="330,-876 330,-888 "/>
<path fill="none" stroke="black" d="M330,-888C330,-894 324,-900 318,-900"/>
<text text-anchor="middle" x="303" y="-874" font-family="Times,serif" font-size="20.00">heat</text>
</g>
<!-- 3&#45;kttj4d&#45;&#45;3&#45;oy38e9 -->
<g id="edge13" class="edge"><title>3&#45;kttj4d&#45;&#45;3&#45;oy38e9</title>
<path fill="none" stroke="#b82f03" stroke-width="9" d="M303,-935.697C303,-924.846 303,-910.917 303,-900.104"/>
</g>
<!-- 19&#45;oy38e9 -->
<g id="node39" class="node"><title>19&#45;oy38e9</title>
<polyline fill="none" stroke="black" points="959,-900 929,-900 "/>
<path fill="none" stroke="black" d="M929,-900C923,-900 917,-894 917,-888"/>
<polyline fill="none" stroke="black" points="917,-888 917,-876 "/>
<path fill="none" stroke="black" d="M917,-876C917,-870 923,-864 929,-864"/>
<polyline fill="none" stroke="black" points="929,-864 959,-864 "/>
<path fill="none" stroke="black" d="M959,-864C965,-864 971,-870 971,-876"/>
<polyline fill="none" stroke="black" points="971,-876 971,-888 "/>
<path fill="none" stroke="black" d="M971,-888C971,-894 965,-900 959,-900"/>
<text text-anchor="middle" x="944" y="-874" font-family="Times,serif" font-size="20.00">heat</text>
</g>
<!-- 19&#45;kttj4d&#45;&#45;19&#45;oy38e9 -->
<g id="edge39" class="edge"><title>19&#45;kttj4d&#45;&#45;19&#45;oy38e9</title>
<path fill="none" stroke="#015666" stroke-width="9" d="M944,-935.697C944,-924.846 944,-910.917 944,-900.104"/>
</g>
<!-- 3&#45;f4hds3 -->
<g id="node15" class="node"><title>3&#45;f4hds3</title>
<polyline fill="none" stroke="black" points="318,-828 288,-828 "/>
<path fill="none" stroke="black" d="M288,-828C282,-828 276,-822 276,-816"/>
<polyline fill="none" stroke="black" points="276,-816 276,-804 "/>
<path fill="none" stroke="black" d="M276,-804C276,-798 282,-792 288,-792"/>
<polyline fill="none" stroke="black" points="288,-792 318,-792 "/>
<path fill="none" stroke="black" d="M318,-792C324,-792 330,-798 330,-804"/>
<polyline fill="none" stroke="black" points="330,-804 330,-816 "/>
<path fill="none" stroke="black" d="M330,-816C330,-822 324,-828 318,-828"/>
<text text-anchor="middle" x="303" y="-802" font-family="Times,serif" font-size="20.00">chill</text>
</g>
<!-- 3&#45;oy38e9&#45;&#45;3&#45;f4hds3 -->
<g id="edge15" class="edge"><title>3&#45;oy38e9&#45;&#45;3&#45;f4hds3</title>
<path fill="none" stroke="#b82f03" stroke-width="9" d="M303,-863.697C303,-852.846 303,-838.917 303,-828.104"/>
</g>
<!-- 3&#45;9b92ym -->
<g id="node17" class="node"><title>3&#45;9b92ym</title>
<polyline fill="none" stroke="black" points="339.298,-756 266.702,-756 "/>
<path fill="none" stroke="black" d="M266.702,-756C260.702,-756 254.702,-750 254.702,-744"/>
<polyline fill="none" stroke="black" points="254.702,-744 254.702,-732 "/>
<path fill="none" stroke="black" d="M254.702,-732C254.702,-726 260.702,-720 266.702,-720"/>
<polyline fill="none" stroke="black" points="266.702,-720 339.298,-720 "/>
<path fill="none" stroke="black" d="M339.298,-720C345.298,-720 351.298,-726 351.298,-732"/>
<polyline fill="none" stroke="black" points="351.298,-732 351.298,-744 "/>
<path fill="none" stroke="black" d="M351.298,-744C351.298,-750 345.298,-756 339.298,-756"/>
<text text-anchor="middle" x="303" y="-730" font-family="Times,serif" font-size="20.00">centrifuge</text>
</g>
<!-- 3&#45;f4hds3&#45;&#45;3&#45;9b92ym -->
<g id="edge17" class="edge"><title>3&#45;f4hds3&#45;&#45;3&#45;9b92ym</title>
<path fill="none" stroke="#b82f03" stroke-width="9" d="M303,-791.697C303,-780.846 303,-766.917 303,-756.104"/>
</g>
<!-- 3&#45;892zia -->
<g id="node19" class="node"><title>3&#45;892zia</title>
<polyline fill="none" stroke="black" points="318,-684 288,-684 "/>
<path fill="none" stroke="black" d="M288,-684C282,-684 276,-678 276,-672"/>
<polyline fill="none" stroke="black" points="276,-672 276,-660 "/>
<path fill="none" stroke="black" d="M276,-660C276,-654 282,-648 288,-648"/>
<polyline fill="none" stroke="black" points="288,-648 318,-648 "/>
<path fill="none" stroke="black" d="M318,-648C324,-648 330,-654 330,-660"/>
<polyline fill="none" stroke="black" points="330,-660 330,-672 "/>
<path fill="none" stroke="black" d="M330,-672C330,-678 324,-684 318,-684"/>
<text text-anchor="middle" x="303" y="-658" font-family="Times,serif" font-size="20.00">add</text>
</g>
<!-- 3&#45;9b92ym&#45;&#45;3&#45;892zia -->
<g id="edge19" class="edge"><title>3&#45;9b92ym&#45;&#45;3&#45;892zia</title>
<path fill="none" stroke="#b82f03" stroke-width="9" d="M303,-719.697C303,-708.846 303,-694.917 303,-684.104"/>
</g>
<!-- 3&#45;pbud57 -->
<g id="node21" class="node"><title>3&#45;pbud57</title>
<polyline fill="none" stroke="black" points="318,-612 288,-612 "/>
<path fill="none" stroke="black" d="M288,-612C282,-612 276,-606 276,-600"/>
<polyline fill="none" stroke="black" points="276,-600 276,-588 "/>
<path fill="none" stroke="black" d="M276,-588C276,-582 282,-576 288,-576"/>
<polyline fill="none" stroke="black" points="288,-576 318,-576 "/>
<path fill="none" stroke="black" d="M318,-576C324,-576 330,-582 330,-588"/>
<polyline fill="none" stroke="black" points="330,-588 330,-600 "/>
<path fill="none" stroke="black" d="M330,-600C330,-606 324,-612 318,-612"/>
<text text-anchor="middle" x="303" y="-586" font-family="Times,serif" font-size="20.00">mix</text>
</g>
<!-- 3&#45;892zia&#45;&#45;3&#45;pbud57 -->
<g id="edge21" class="edge"><title>3&#45;892zia&#45;&#45;3&#45;pbud57</title>
<path fill="none" stroke="#b82f03" stroke-width="9" d="M303,-647.697C303,-636.846 303,-622.917 303,-612.104"/>
</g>
<!-- 3&#45;kbzqcb -->
<g id="node23" class="node"><title>3&#45;kbzqcb</title>
<polyline fill="none" stroke="black" points="339.298,-540 266.702,-540 "/>
<path fill="none" stroke="black" d="M266.702,-540C260.702,-540 254.702,-534 254.702,-528"/>
<polyline fill="none" stroke="black" points="254.702,-528 254.702,-516 "/>
<path fill="none" stroke="black" d="M254.702,-516C254.702,-510 260.702,-504 266.702,-504"/>
<polyline fill="none" stroke="black" points="266.702,-504 339.298,-504 "/>
<path fill="none" stroke="black" d="M339.298,-504C345.298,-504 351.298,-510 351.298,-516"/>
<polyline fill="none" stroke="black" points="351.298,-516 351.298,-528 "/>
<path fill="none" stroke="black" d="M351.298,-528C351.298,-534 345.298,-540 339.298,-540"/>
<text text-anchor="middle" x="303" y="-514" font-family="Times,serif" font-size="20.00">centrifuge</text>
</g>
<!-- 3&#45;pbud57&#45;&#45;3&#45;kbzqcb -->
<g id="edge23" class="edge"><title>3&#45;pbud57&#45;&#45;3&#45;kbzqcb</title>
<path fill="none" stroke="#b82f03" stroke-width="9" d="M303,-575.697C303,-564.846 303,-550.917 303,-540.104"/>
</g>
<!-- 3&#45;j4json -->
<g id="node25" class="node"><title>3&#45;j4json</title>
<polyline fill="none" stroke="black" points="332.31,-468 273.69,-468 "/>
<path fill="none" stroke="black" d="M273.69,-468C267.69,-468 261.69,-462 261.69,-456"/>
<polyline fill="none" stroke="black" points="261.69,-456 261.69,-444 "/>
<path fill="none" stroke="black" d="M261.69,-444C261.69,-438 267.69,-432 273.69,-432"/>
<polyline fill="none" stroke="black" points="273.69,-432 332.31,-432 "/>
<path fill="none" stroke="black" d="M332.31,-432C338.31,-432 344.31,-438 344.31,-444"/>
<polyline fill="none" stroke="black" points="344.31,-444 344.31,-456 "/>
<path fill="none" stroke="black" d="M344.31,-456C344.31,-462 338.31,-468 332.31,-468"/>
<text text-anchor="middle" x="303" y="-442" font-family="Times,serif" font-size="20.00">incubate</text>
</g>
<!-- 3&#45;kbzqcb&#45;&#45;3&#45;j4json -->
<g id="edge25" class="edge"><title>3&#45;kbzqcb&#45;&#45;3&#45;j4json</title>
<path fill="none" stroke="#b82f03" stroke-width="9" d="M303,-503.697C303,-492.846 303,-478.917 303,-468.104"/>
</g>
<!-- 3&#45;muwzdb -->
<g id="node27" class="node"><title>3&#45;muwzdb</title>
<polyline fill="none" stroke="black" points="318,-396 288,-396 "/>
<path fill="none" stroke="black" d="M288,-396C282,-396 276,-390 276,-384"/>
<polyline fill="none" stroke="black" points="276,-384 276,-372 "/>
<path fill="none" stroke="black" d="M276,-372C276,-366 282,-360 288,-360"/>
<polyline fill="none" stroke="black" points="288,-360 318,-360 "/>
<path fill="none" stroke="black" d="M318,-360C324,-360 330,-366 330,-372"/>
<polyline fill="none" stroke="black" points="330,-372 330,-384 "/>
<path fill="none" stroke="black" d="M330,-384C330,-390 324,-396 318,-396"/>
<text text-anchor="middle" x="303" y="-370" font-family="Times,serif" font-size="20.00">add</text>
</g>
<!-- 3&#45;j4json&#45;&#45;3&#45;muwzdb -->
<g id="edge27" class="edge"><title>3&#45;j4json&#45;&#45;3&#45;muwzdb</title>
<path fill="none" stroke="#b82f03" stroke-width="9" d="M303,-431.697C303,-420.846 303,-406.917 303,-396.104"/>
</g>
<!-- 3&#45;aoymzg -->
<g id="node29" class="node"><title>3&#45;aoymzg</title>
<polyline fill="none" stroke="black" points="318,-324 288,-324 "/>
<path fill="none" stroke="black" d="M288,-324C282,-324 276,-318 276,-312"/>
<polyline fill="none" stroke="black" points="276,-312 276,-300 "/>
<path fill="none" stroke="black" d="M276,-300C276,-294 282,-288 288,-288"/>
<polyline fill="none" stroke="black" points="288,-288 318,-288 "/>
<path fill="none" stroke="black" d="M318,-288C324,-288 330,-294 330,-300"/>
<polyline fill="none" stroke="black" points="330,-300 330,-312 "/>
<path fill="none" stroke="black" d="M330,-312C330,-318 324,-324 318,-324"/>
<text text-anchor="middle" x="303" y="-298" font-family="Times,serif" font-size="20.00">mix</text>
</g>
<!-- 3&#45;muwzdb&#45;&#45;3&#45;aoymzg -->
<g id="edge29" class="edge"><title>3&#45;muwzdb&#45;&#45;3&#45;aoymzg</title>
<path fill="none" stroke="#b82f03" stroke-width="9" d="M303,-359.697C303,-348.846 303,-334.917 303,-324.104"/>
</g>
<!-- 3&#45;thfavi -->
<g id="node31" class="node"><title>3&#45;thfavi</title>
<polyline fill="none" stroke="black" points="339.298,-252 266.702,-252 "/>
<path fill="none" stroke="black" d="M266.702,-252C260.702,-252 254.702,-246 254.702,-240"/>
<polyline fill="none" stroke="black" points="254.702,-240 254.702,-228 "/>
<path fill="none" stroke="black" d="M254.702,-228C254.702,-222 260.702,-216 266.702,-216"/>
<polyline fill="none" stroke="black" points="266.702,-216 339.298,-216 "/>
<path fill="none" stroke="black" d="M339.298,-216C345.298,-216 351.298,-222 351.298,-228"/>
<polyline fill="none" stroke="black" points="351.298,-228 351.298,-240 "/>
<path fill="none" stroke="black" d="M351.298,-240C351.298,-246 345.298,-252 339.298,-252"/>
<text text-anchor="middle" x="303" y="-226" font-family="Times,serif" font-size="20.00">centrifuge</text>
</g>
<!-- 3&#45;aoymzg&#45;&#45;3&#45;thfavi -->
<g id="edge31" class="edge"><title>3&#45;aoymzg&#45;&#45;3&#45;thfavi</title>
<path fill="none" stroke="#b82f03" stroke-width="9" d="M303,-287.697C303,-276.846 303,-262.917 303,-252.104"/>
</g>
<!-- 3&#45;ya985z -->
<g id="node33" class="node"><title>3&#45;ya985z</title>
<polyline fill="none" stroke="black" points="332.31,-180 273.69,-180 "/>
<path fill="none" stroke="black" d="M273.69,-180C267.69,-180 261.69,-174 261.69,-168"/>
<polyline fill="none" stroke="black" points="261.69,-168 261.69,-156 "/>
<path fill="none" stroke="black" d="M261.69,-156C261.69,-150 267.69,-144 273.69,-144"/>
<polyline fill="none" stroke="black" points="273.69,-144 332.31,-144 "/>
<path fill="none" stroke="black" d="M332.31,-144C338.31,-144 344.31,-150 344.31,-156"/>
<polyline fill="none" stroke="black" points="344.31,-156 344.31,-168 "/>
<path fill="none" stroke="black" d="M344.31,-168C344.31,-174 338.31,-180 332.31,-180"/>
<text text-anchor="middle" x="303" y="-154" font-family="Times,serif" font-size="20.00">incubate</text>
</g>
<!-- 3&#45;thfavi&#45;&#45;3&#45;ya985z -->
<g id="edge33" class="edge"><title>3&#45;thfavi&#45;&#45;3&#45;ya985z</title>
<path fill="none" stroke="#b82f03" stroke-width="9" d="M303,-215.697C303,-204.846 303,-190.917 303,-180.104"/>
</g>
<!-- 3&#45;bavsb0 -->
<g id="node35" class="node"><title>3&#45;bavsb0</title>
<polyline fill="none" stroke="black" points="332.31,-108 273.69,-108 "/>
<path fill="none" stroke="black" d="M273.69,-108C267.69,-108 261.69,-102 261.69,-96"/>
<polyline fill="none" stroke="black" points="261.69,-96 261.69,-84 "/>
<path fill="none" stroke="black" d="M261.69,-84C261.69,-78 267.69,-72 273.69,-72"/>
<polyline fill="none" stroke="black" points="273.69,-72 332.31,-72 "/>
<path fill="none" stroke="black" d="M332.31,-72C338.31,-72 344.31,-78 344.31,-84"/>
<polyline fill="none" stroke="black" points="344.31,-84 344.31,-96 "/>
<path fill="none" stroke="black" d="M344.31,-96C344.31,-102 338.31,-108 332.31,-108"/>
<text text-anchor="middle" x="303" y="-82" font-family="Times,serif" font-size="20.00">incubate</text>
</g>
<!-- 3&#45;ya985z&#45;&#45;3&#45;bavsb0 -->
<g id="edge35" class="edge"><title>3&#45;ya985z&#45;&#45;3&#45;bavsb0</title>
<path fill="none" stroke="#b82f03" stroke-width="9" d="M303,-143.697C303,-132.846 303,-118.917 303,-108.104"/>
</g>
<!-- 3&#45;adrmwt -->
<g id="node37" class="node"><title>3&#45;adrmwt</title>
<polyline fill="none" stroke="black" points="332.31,-36 273.69,-36 "/>
<path fill="none" stroke="black" d="M273.69,-36C267.69,-36 261.69,-30 261.69,-24"/>
<polyline fill="none" stroke="black" points="261.69,-24 261.69,-12 "/>
<path fill="none" stroke="black" d="M261.69,-12C261.69,-6 267.69,-0 273.69,-0"/>
<polyline fill="none" stroke="black" points="273.69,-0 332.31,-0 "/>
<path fill="none" stroke="black" d="M332.31,-0C338.31,-0 344.31,-6 344.31,-12"/>
<polyline fill="none" stroke="black" points="344.31,-12 344.31,-24 "/>
<path fill="none" stroke="black" d="M344.31,-24C344.31,-30 338.31,-36 332.31,-36"/>
<text text-anchor="middle" x="303" y="-10" font-family="Times,serif" font-size="20.00">incubate</text>
</g>
<!-- 3&#45;bavsb0&#45;&#45;3&#45;adrmwt -->
<g id="edge37" class="edge"><title>3&#45;bavsb0&#45;&#45;3&#45;adrmwt</title>
<path fill="none" stroke="#b82f03" stroke-width="9" d="M303,-71.6966C303,-60.8463 303,-46.9167 303,-36.1043"/>
</g>
<!-- 19&#45;f4hds3 -->
<g id="node41" class="node"><title>19&#45;f4hds3</title>
<polyline fill="none" stroke="black" points="959,-828 929,-828 "/>
<path fill="none" stroke="black" d="M929,-828C923,-828 917,-822 917,-816"/>
<polyline fill="none" stroke="black" points="917,-816 917,-804 "/>
<path fill="none" stroke="black" d="M917,-804C917,-798 923,-792 929,-792"/>
<polyline fill="none" stroke="black" points="929,-792 959,-792 "/>
<path fill="none" stroke="black" d="M959,-792C965,-792 971,-798 971,-804"/>
<polyline fill="none" stroke="black" points="971,-804 971,-816 "/>
<path fill="none" stroke="black" d="M971,-816C971,-822 965,-828 959,-828"/>
<text text-anchor="middle" x="944" y="-802" font-family="Times,serif" font-size="20.00">chill</text>
</g>
<!-- 19&#45;oy38e9&#45;&#45;19&#45;f4hds3 -->
<g id="edge41" class="edge"><title>19&#45;oy38e9&#45;&#45;19&#45;f4hds3</title>
<path fill="none" stroke="#015666" stroke-width="9" d="M944,-863.697C944,-852.846 944,-838.917 944,-828.104"/>
</g>
<!-- 19&#45;9b92ym -->
<g id="node43" class="node"><title>19&#45;9b92ym</title>
<polyline fill="none" stroke="black" points="980.298,-756 907.702,-756 "/>
<path fill="none" stroke="black" d="M907.702,-756C901.702,-756 895.702,-750 895.702,-744"/>
<polyline fill="none" stroke="black" points="895.702,-744 895.702,-732 "/>
<path fill="none" stroke="black" d="M895.702,-732C895.702,-726 901.702,-720 907.702,-720"/>
<polyline fill="none" stroke="black" points="907.702,-720 980.298,-720 "/>
<path fill="none" stroke="black" d="M980.298,-720C986.298,-720 992.298,-726 992.298,-732"/>
<polyline fill="none" stroke="black" points="992.298,-732 992.298,-744 "/>
<path fill="none" stroke="black" d="M992.298,-744C992.298,-750 986.298,-756 980.298,-756"/>
<text text-anchor="middle" x="944" y="-730" font-family="Times,serif" font-size="20.00">centrifuge</text>
</g>
<!-- 19&#45;f4hds3&#45;&#45;19&#45;9b92ym -->
<g id="edge43" class="edge"><title>19&#45;f4hds3&#45;&#45;19&#45;9b92ym</title>
<path fill="none" stroke="#015666" stroke-width="9" d="M944,-791.697C944,-780.846 944,-766.917 944,-756.104"/>
</g>
<!-- 19&#45;892zia -->
<g id="node45" class="node"><title>19&#45;892zia</title>
<polyline fill="none" stroke="black" points="959,-684 929,-684 "/>
<path fill="none" stroke="black" d="M929,-684C923,-684 917,-678 917,-672"/>
<polyline fill="none" stroke="black" points="917,-672 917,-660 "/>
<path fill="none" stroke="black" d="M917,-660C917,-654 923,-648 929,-648"/>
<polyline fill="none" stroke="black" points="929,-648 959,-648 "/>
<path fill="none" stroke="black" d="M959,-648C965,-648 971,-654 971,-660"/>
<polyline fill="none" stroke="black" points="971,-660 971,-672 "/>
<path fill="none" stroke="black" d="M971,-672C971,-678 965,-684 959,-684"/>
<text text-anchor="middle" x="944" y="-658" font-family="Times,serif" font-size="20.00">add</text>
</g>
<!-- 19&#45;9b92ym&#45;&#45;19&#45;892zia -->
<g id="edge45" class="edge"><title>19&#45;9b92ym&#45;&#45;19&#45;892zia</title>
<path fill="none" stroke="#015666" stroke-width="9" d="M944,-719.697C944,-708.846 944,-694.917 944,-684.104"/>
</g>
<!-- 19&#45;pbud57 -->
<g id="node47" class="node"><title>19&#45;pbud57</title>
<polyline fill="none" stroke="black" points="959,-612 929,-612 "/>
<path fill="none" stroke="black" d="M929,-612C923,-612 917,-606 917,-600"/>
<polyline fill="none" stroke="black" points="917,-600 917,-588 "/>
<path fill="none" stroke="black" d="M917,-588C917,-582 923,-576 929,-576"/>
<polyline fill="none" stroke="black" points="929,-576 959,-576 "/>
<path fill="none" stroke="black" d="M959,-576C965,-576 971,-582 971,-588"/>
<polyline fill="none" stroke="black" points="971,-588 971,-600 "/>
<path fill="none" stroke="black" d="M971,-600C971,-606 965,-612 959,-612"/>
<text text-anchor="middle" x="944" y="-586" font-family="Times,serif" font-size="20.00">mix</text>
</g>
<!-- 19&#45;892zia&#45;&#45;19&#45;pbud57 -->
<g id="edge47" class="edge"><title>19&#45;892zia&#45;&#45;19&#45;pbud57</title>
<path fill="none" stroke="#015666" stroke-width="9" d="M944,-647.697C944,-636.846 944,-622.917 944,-612.104"/>
</g>
<!-- 19&#45;kbzqcb -->
<g id="node49" class="node"><title>19&#45;kbzqcb</title>
<polyline fill="none" stroke="black" points="980.298,-540 907.702,-540 "/>
<path fill="none" stroke="black" d="M907.702,-540C901.702,-540 895.702,-534 895.702,-528"/>
<polyline fill="none" stroke="black" points="895.702,-528 895.702,-516 "/>
<path fill="none" stroke="black" d="M895.702,-516C895.702,-510 901.702,-504 907.702,-504"/>
<polyline fill="none" stroke="black" points="907.702,-504 980.298,-504 "/>
<path fill="none" stroke="black" d="M980.298,-504C986.298,-504 992.298,-510 992.298,-516"/>
<polyline fill="none" stroke="black" points="992.298,-516 992.298,-528 "/>
<path fill="none" stroke="black" d="M992.298,-528C992.298,-534 986.298,-540 980.298,-540"/>
<text text-anchor="middle" x="944" y="-514" font-family="Times,serif" font-size="20.00">centrifuge</text>
</g>
<!-- 19&#45;pbud57&#45;&#45;19&#45;kbzqcb -->
<g id="edge49" class="edge"><title>19&#45;pbud57&#45;&#45;19&#45;kbzqcb</title>
<path fill="none" stroke="#015666" stroke-width="9" d="M944,-575.697C944,-564.846 944,-550.917 944,-540.104"/>
</g>
<!-- 19&#45;j4json -->
<g id="node51" class="node"><title>19&#45;j4json</title>
<polyline fill="none" stroke="black" points="973.31,-468 914.69,-468 "/>
<path fill="none" stroke="black" d="M914.69,-468C908.69,-468 902.69,-462 902.69,-456"/>
<polyline fill="none" stroke="black" points="902.69,-456 902.69,-444 "/>
<path fill="none" stroke="black" d="M902.69,-444C902.69,-438 908.69,-432 914.69,-432"/>
<polyline fill="none" stroke="black" points="914.69,-432 973.31,-432 "/>
<path fill="none" stroke="black" d="M973.31,-432C979.31,-432 985.31,-438 985.31,-444"/>
<polyline fill="none" stroke="black" points="985.31,-444 985.31,-456 "/>
<path fill="none" stroke="black" d="M985.31,-456C985.31,-462 979.31,-468 973.31,-468"/>
<text text-anchor="middle" x="944" y="-442" font-family="Times,serif" font-size="20.00">incubate</text>
</g>
<!-- 19&#45;kbzqcb&#45;&#45;19&#45;j4json -->
<g id="edge51" class="edge"><title>19&#45;kbzqcb&#45;&#45;19&#45;j4json</title>
<path fill="none" stroke="#015666" stroke-width="9" d="M944,-503.697C944,-492.846 944,-478.917 944,-468.104"/>
</g>
<!-- 19&#45;muwzdb -->
<g id="node53" class="node"><title>19&#45;muwzdb</title>
<polyline fill="none" stroke="black" points="959,-396 929,-396 "/>
<path fill="none" stroke="black" d="M929,-396C923,-396 917,-390 917,-384"/>
<polyline fill="none" stroke="black" points="917,-384 917,-372 "/>
<path fill="none" stroke="black" d="M917,-372C917,-366 923,-360 929,-360"/>
<polyline fill="none" stroke="black" points="929,-360 959,-360 "/>
<path fill="none" stroke="black" d="M959,-360C965,-360 971,-366 971,-372"/>
<polyline fill="none" stroke="black" points="971,-372 971,-384 "/>
<path fill="none" stroke="black" d="M971,-384C971,-390 965,-396 959,-396"/>
<text text-anchor="middle" x="944" y="-370" font-family="Times,serif" font-size="20.00">add</text>
</g>
<!-- 19&#45;j4json&#45;&#45;19&#45;muwzdb -->
<g id="edge53" class="edge"><title>19&#45;j4json&#45;&#45;19&#45;muwzdb</title>
<path fill="none" stroke="#015666" stroke-width="9" d="M944,-431.697C944,-420.846 944,-406.917 944,-396.104"/>
</g>
<!-- 19&#45;aoymzg -->
<g id="node55" class="node"><title>19&#45;aoymzg</title>
<polyline fill="none" stroke="black" points="959,-324 929,-324 "/>
<path fill="none" stroke="black" d="M929,-324C923,-324 917,-318 917,-312"/>
<polyline fill="none" stroke="black" points="917,-312 917,-300 "/>
<path fill="none" stroke="black" d="M917,-300C917,-294 923,-288 929,-288"/>
<polyline fill="none" stroke="black" points="929,-288 959,-288 "/>
<path fill="none" stroke="black" d="M959,-288C965,-288 971,-294 971,-300"/>
<polyline fill="none" stroke="black" points="971,-300 971,-312 "/>
<path fill="none" stroke="black" d="M971,-312C971,-318 965,-324 959,-324"/>
<text text-anchor="middle" x="944" y="-298" font-family="Times,serif" font-size="20.00">mix</text>
</g>
<!-- 19&#45;muwzdb&#45;&#45;19&#45;aoymzg -->
<g id="edge55" class="edge"><title>19&#45;muwzdb&#45;&#45;19&#45;aoymzg</title>
<path fill="none" stroke="#015666" stroke-width="9" d="M944,-359.697C944,-348.846 944,-334.917 944,-324.104"/>
</g>
<!-- 19&#45;thfavi -->
<g id="node57" class="node"><title>19&#45;thfavi</title>
<polyline fill="none" stroke="black" points="980.298,-252 907.702,-252 "/>
<path fill="none" stroke="black" d="M907.702,-252C901.702,-252 895.702,-246 895.702,-240"/>
<polyline fill="none" stroke="black" points="895.702,-240 895.702,-228 "/>
<path fill="none" stroke="black" d="M895.702,-228C895.702,-222 901.702,-216 907.702,-216"/>
<polyline fill="none" stroke="black" points="907.702,-216 980.298,-216 "/>
<path fill="none" stroke="black" d="M980.298,-216C986.298,-216 992.298,-222 992.298,-228"/>
<polyline fill="none" stroke="black" points="992.298,-228 992.298,-240 "/>
<path fill="none" stroke="black" d="M992.298,-240C992.298,-246 986.298,-252 980.298,-252"/>
<text text-anchor="middle" x="944" y="-226" font-family="Times,serif" font-size="20.00">centrifuge</text>
</g>
<!-- 19&#45;aoymzg&#45;&#45;19&#45;thfavi -->
<g id="edge57" class="edge"><title>19&#45;aoymzg&#45;&#45;19&#45;thfavi</title>
<path fill="none" stroke="#015666" stroke-width="9" d="M944,-287.697C944,-276.846 944,-262.917 944,-252.104"/>
</g>
<!-- 19&#45;ya985z -->
<g id="node59" class="node"><title>19&#45;ya985z</title>
<polyline fill="none" stroke="black" points="973.31,-180 914.69,-180 "/>
<path fill="none" stroke="black" d="M914.69,-180C908.69,-180 902.69,-174 902.69,-168"/>
<polyline fill="none" stroke="black" points="902.69,-168 902.69,-156 "/>
<path fill="none" stroke="black" d="M902.69,-156C902.69,-150 908.69,-144 914.69,-144"/>
<polyline fill="none" stroke="black" points="914.69,-144 973.31,-144 "/>
<path fill="none" stroke="black" d="M973.31,-144C979.31,-144 985.31,-150 985.31,-156"/>
<polyline fill="none" stroke="black" points="985.31,-156 985.31,-168 "/>
<path fill="none" stroke="black" d="M985.31,-168C985.31,-174 979.31,-180 973.31,-180"/>
<text text-anchor="middle" x="944" y="-154" font-family="Times,serif" font-size="20.00">incubate</text>
</g>
<!-- 19&#45;thfavi&#45;&#45;19&#45;ya985z -->
<g id="edge59" class="edge"><title>19&#45;thfavi&#45;&#45;19&#45;ya985z</title>
<path fill="none" stroke="#015666" stroke-width="9" d="M944,-215.697C944,-204.846 944,-190.917 944,-180.104"/>
</g>
<!-- 19&#45;bavsb0 -->
<g id="node61" class="node"><title>19&#45;bavsb0</title>
<polyline fill="none" stroke="black" points="973.31,-108 914.69,-108 "/>
<path fill="none" stroke="black" d="M914.69,-108C908.69,-108 902.69,-102 902.69,-96"/>
<polyline fill="none" stroke="black" points="902.69,-96 902.69,-84 "/>
<path fill="none" stroke="black" d="M902.69,-84C902.69,-78 908.69,-72 914.69,-72"/>
<polyline fill="none" stroke="black" points="914.69,-72 973.31,-72 "/>
<path fill="none" stroke="black" d="M973.31,-72C979.31,-72 985.31,-78 985.31,-84"/>
<polyline fill="none" stroke="black" points="985.31,-84 985.31,-96 "/>
<path fill="none" stroke="black" d="M985.31,-96C985.31,-102 979.31,-108 973.31,-108"/>
<text text-anchor="middle" x="944" y="-82" font-family="Times,serif" font-size="20.00">incubate</text>
</g>
<!-- 19&#45;ya985z&#45;&#45;19&#45;bavsb0 -->
<g id="edge61" class="edge"><title>19&#45;ya985z&#45;&#45;19&#45;bavsb0</title>
<path fill="none" stroke="#015666" stroke-width="9" d="M944,-143.697C944,-132.846 944,-118.917 944,-108.104"/>
</g>
<!-- 19&#45;adrmwt -->
<g id="node63" class="node"><title>19&#45;adrmwt</title>
<polyline fill="none" stroke="black" points="973.31,-36 914.69,-36 "/>
<path fill="none" stroke="black" d="M914.69,-36C908.69,-36 902.69,-30 902.69,-24"/>
<polyline fill="none" stroke="black" points="902.69,-24 902.69,-12 "/>
<path fill="none" stroke="black" d="M902.69,-12C902.69,-6 908.69,-0 914.69,-0"/>
<polyline fill="none" stroke="black" points="914.69,-0 973.31,-0 "/>
<path fill="none" stroke="black" d="M973.31,-0C979.31,-0 985.31,-6 985.31,-12"/>
<polyline fill="none" stroke="black" points="985.31,-12 985.31,-24 "/>
<path fill="none" stroke="black" d="M985.31,-24C985.31,-30 979.31,-36 973.31,-36"/>
<text text-anchor="middle" x="944" y="-10" font-family="Times,serif" font-size="20.00">incubate</text>
</g>
<!-- 19&#45;bavsb0&#45;&#45;19&#45;adrmwt -->
<g id="edge63" class="edge"><title>19&#45;bavsb0&#45;&#45;19&#45;adrmwt</title>
<path fill="none" stroke="#015666" stroke-width="9" d="M944,-71.6966C944,-60.8463 944,-46.9167 944,-36.1043"/>
</g>
</g>
</svg>
