<?xml version="1.0" encoding="UTF-8" standalone="no"?>
<!DOCTYPE svg PUBLIC "-//W3C//DTD SVG 1.1//EN"
 "http://www.w3.org/Graphics/SVG/1.1/DTD/svg11.dtd">
<!-- Generated by graphviz version 2.28.0 (20121217.1915)
 -->
<!-- Title: _anonymous_0 Pages: 1 -->
<svg width="120pt" height="1124pt"
 viewBox="0.00 0.00 120.00 1124.00" xmlns="http://www.w3.org/2000/svg" xmlns:xlink="http://www.w3.org/1999/xlink">
<g id="graph1" class="graph" transform="scale(1 1) rotate(0) translate(4 1120)">
<title>_anonymous_0</title>
<polygon fill="white" stroke="white" points="-4,5 -4,-1120 117,-1120 117,5 -4,5"/>
<!-- t61jdx -->
<g id="node1" class="node"><title>t61jdx</title>
<polygon fill="none" stroke="black" points="112.39,-1116 -0.389557,-1116 -0.389557,-1080 112.39,-1080 112.39,-1116"/>
<text text-anchor="middle" x="56" y="-1092.4" font-family="Times,serif" font-size="14.00">call_for_protocol</text>
</g>
<!-- 85jao2 -->
<g id="node2" class="node"><title>85jao2</title>
<polygon fill="none" stroke="black" points="88.1554,-1044 23.8446,-1044 23.8446,-1008 88.1554,-1008 88.1554,-1044"/>
<text text-anchor="middle" x="56" y="-1020.4" font-family="Times,serif" font-size="14.00">combine</text>
</g>
<!-- t61jdx&#45;&#45;85jao2 -->
<g id="edge2" class="edge"><title>t61jdx&#45;&#45;85jao2</title>
<path fill="none" stroke="white" d="M56,-1079.7C56,-1071.98 56,-1062.71 56,-1054.11"/>
<polygon fill="white" stroke="white" points="59.5001,-1054.1 56,-1044.1 52.5001,-1054.1 59.5001,-1054.1"/>
</g>
<!-- wfc3i7 -->
<g id="node4" class="node"><title>wfc3i7</title>
<polygon fill="none" stroke="black" points="83,-972 29,-972 29,-936 83,-936 83,-972"/>
<text text-anchor="middle" x="56" y="-948.4" font-family="Times,serif" font-size="14.00">heat</text>
</g>
<!-- 85jao2&#45;&#45;wfc3i7 -->
<g id="edge4" class="edge"><title>85jao2&#45;&#45;wfc3i7</title>
<path fill="none" stroke="white" d="M56,-1007.7C56,-999.983 56,-990.712 56,-982.112"/>
<polygon fill="white" stroke="white" points="59.5001,-982.104 56,-972.104 52.5001,-982.104 59.5001,-982.104"/>
</g>
<!-- ff6p45 -->
<g id="node6" class="node"><title>ff6p45</title>
<polygon fill="none" stroke="black" points="83,-900 29,-900 29,-864 83,-864 83,-900"/>
<text text-anchor="middle" x="56" y="-876.4" font-family="Times,serif" font-size="14.00">chill</text>
</g>
<!-- wfc3i7&#45;&#45;ff6p45 -->
<g id="edge6" class="edge"><title>wfc3i7&#45;&#45;ff6p45</title>
<path fill="none" stroke="white" d="M56,-935.697C56,-927.983 56,-918.712 56,-910.112"/>
<polygon fill="white" stroke="white" points="59.5001,-910.104 56,-900.104 52.5001,-910.104 59.5001,-910.104"/>
</g>
<!-- k0xofh -->
<g id="node8" class="node"><title>k0xofh</title>
<polygon fill="none" stroke="black" points="92.0599,-828 19.9401,-828 19.9401,-792 92.0599,-792 92.0599,-828"/>
<text text-anchor="middle" x="56" y="-804.4" font-family="Times,serif" font-size="14.00">centrifuge</text>
</g>
<!-- ff6p45&#45;&#45;k0xofh -->
<g id="edge8" class="edge"><title>ff6p45&#45;&#45;k0xofh</title>
<path fill="none" stroke="white" d="M56,-863.697C56,-855.983 56,-846.712 56,-838.112"/>
<polygon fill="white" stroke="white" points="59.5001,-838.104 56,-828.104 52.5001,-838.104 59.5001,-838.104"/>
</g>
<!-- 4tr1s6 -->
<g id="node10" class="node"><title>4tr1s6</title>
<polygon fill="none" stroke="black" points="83,-756 29,-756 29,-720 83,-720 83,-756"/>
<text text-anchor="middle" x="56" y="-732.4" font-family="Times,serif" font-size="14.00">add</text>
</g>
<!-- k0xofh&#45;&#45;4tr1s6 -->
<g id="edge10" class="edge"><title>k0xofh&#45;&#45;4tr1s6</title>
<path fill="none" stroke="white" d="M56,-791.697C56,-783.983 56,-774.712 56,-766.112"/>
<polygon fill="white" stroke="white" points="59.5001,-766.104 56,-756.104 52.5001,-766.104 59.5001,-766.104"/>
</g>
<!-- 0gdlq5 -->
<g id="node12" class="node"><title>0gdlq5</title>
<polygon fill="none" stroke="black" points="83,-684 29,-684 29,-648 83,-648 83,-684"/>
<text text-anchor="middle" x="56" y="-660.4" font-family="Times,serif" font-size="14.00">mix</text>
</g>
<!-- 4tr1s6&#45;&#45;0gdlq5 -->
<g id="edge12" class="edge"><title>4tr1s6&#45;&#45;0gdlq5</title>
<path fill="none" stroke="white" d="M56,-719.697C56,-711.983 56,-702.712 56,-694.112"/>
<polygon fill="white" stroke="white" points="59.5001,-694.104 56,-684.104 52.5001,-694.104 59.5001,-694.104"/>
</g>
<!-- d6m0hh -->
<g id="node14" class="node"><title>d6m0hh</title>
<polygon fill="none" stroke="black" points="92.0599,-612 19.9401,-612 19.9401,-576 92.0599,-576 92.0599,-612"/>
<text text-anchor="middle" x="56" y="-588.4" font-family="Times,serif" font-size="14.00">centrifuge</text>
</g>
<!-- 0gdlq5&#45;&#45;d6m0hh -->
<g id="edge14" class="edge"><title>0gdlq5&#45;&#45;d6m0hh</title>
<path fill="none" stroke="white" d="M56,-647.697C56,-639.983 56,-630.712 56,-622.112"/>
<polygon fill="white" stroke="white" points="59.5001,-622.104 56,-612.104 52.5001,-622.104 59.5001,-622.104"/>
</g>
<!-- wht5z6 -->
<g id="node16" class="node"><title>wht5z6</title>
<polygon fill="none" stroke="black" points="87.5647,-540 24.4353,-540 24.4353,-504 87.5647,-504 87.5647,-540"/>
<text text-anchor="middle" x="56" y="-516.4" font-family="Times,serif" font-size="14.00">incubate</text>
</g>
<!-- d6m0hh&#45;&#45;wht5z6 -->
<g id="edge16" class="edge"><title>d6m0hh&#45;&#45;wht5z6</title>
<path fill="none" stroke="white" d="M56,-575.697C56,-567.983 56,-558.712 56,-550.112"/>
<polygon fill="white" stroke="white" points="59.5001,-550.104 56,-540.104 52.5001,-550.104 59.5001,-550.104"/>
</g>
<!-- sgum0w -->
<g id="node18" class="node"><title>sgum0w</title>
<polygon fill="none" stroke="black" points="83,-468 29,-468 29,-432 83,-432 83,-468"/>
<text text-anchor="middle" x="56" y="-444.4" font-family="Times,serif" font-size="14.00">add</text>
</g>
<!-- wht5z6&#45;&#45;sgum0w -->
<g id="edge18" class="edge"><title>wht5z6&#45;&#45;sgum0w</title>
<path fill="none" stroke="white" d="M56,-503.697C56,-495.983 56,-486.712 56,-478.112"/>
<polygon fill="white" stroke="white" points="59.5001,-478.104 56,-468.104 52.5001,-478.104 59.5001,-478.104"/>
</g>
<!-- l4ppoq -->
<g id="node20" class="node"><title>l4ppoq</title>
<polygon fill="none" stroke="black" points="83,-396 29,-396 29,-360 83,-360 83,-396"/>
<text text-anchor="middle" x="56" y="-372.4" font-family="Times,serif" font-size="14.00">mix</text>
</g>
<!-- sgum0w&#45;&#45;l4ppoq -->
<g id="edge20" class="edge"><title>sgum0w&#45;&#45;l4ppoq</title>
<path fill="none" stroke="white" d="M56,-431.697C56,-423.983 56,-414.712 56,-406.112"/>
<polygon fill="white" stroke="white" points="59.5001,-406.104 56,-396.104 52.5001,-406.104 59.5001,-406.104"/>
</g>
<!-- nwv41j -->
<g id="node22" class="node"><title>nwv41j</title>
<polygon fill="none" stroke="black" points="92.0599,-324 19.9401,-324 19.9401,-288 92.0599,-288 92.0599,-324"/>
<text text-anchor="middle" x="56" y="-300.4" font-family="Times,serif" font-size="14.00">centrifuge</text>
</g>
<!-- l4ppoq&#45;&#45;nwv41j -->
<g id="edge22" class="edge"><title>l4ppoq&#45;&#45;nwv41j</title>
<path fill="none" stroke="white" d="M56,-359.697C56,-351.983 56,-342.712 56,-334.112"/>
<polygon fill="white" stroke="white" points="59.5001,-334.104 56,-324.104 52.5001,-334.104 59.5001,-334.104"/>
</g>
<!-- 5bohex -->
<g id="node24" class="node"><title>5bohex</title>
<polygon fill="none" stroke="black" points="87.5647,-252 24.4353,-252 24.4353,-216 87.5647,-216 87.5647,-252"/>
<text text-anchor="middle" x="56" y="-228.4" font-family="Times,serif" font-size="14.00">incubate</text>
</g>
<!-- nwv41j&#45;&#45;5bohex -->
<g id="edge24" class="edge"><title>nwv41j&#45;&#45;5bohex</title>
<path fill="none" stroke="white" d="M56,-287.697C56,-279.983 56,-270.712 56,-262.112"/>
<polygon fill="white" stroke="white" points="59.5001,-262.104 56,-252.104 52.5001,-262.104 59.5001,-262.104"/>
</g>
<!-- lk1yt0 -->
<g id="node26" class="node"><title>lk1yt0</title>
<polygon fill="none" stroke="black" points="87.5647,-180 24.4353,-180 24.4353,-144 87.5647,-144 87.5647,-180"/>
<text text-anchor="middle" x="56" y="-156.4" font-family="Times,serif" font-size="14.00">incubate</text>
</g>
<!-- 5bohex&#45;&#45;lk1yt0 -->
<g id="edge26" class="edge"><title>5bohex&#45;&#45;lk1yt0</title>
<path fill="none" stroke="white" d="M56,-215.697C56,-207.983 56,-198.712 56,-190.112"/>
<polygon fill="white" stroke="white" points="59.5001,-190.104 56,-180.104 52.5001,-190.104 59.5001,-190.104"/>
</g>
<!-- i7w4wg -->
<g id="node28" class="node"><title>i7w4wg</title>
<polygon fill="none" stroke="black" points="87.5647,-108 24.4353,-108 24.4353,-72 87.5647,-72 87.5647,-108"/>
<text text-anchor="middle" x="56" y="-84.4" font-family="Times,serif" font-size="14.00">incubate</text>
</g>
<!-- lk1yt0&#45;&#45;i7w4wg -->
<g id="edge28" class="edge"><title>lk1yt0&#45;&#45;i7w4wg</title>
<path fill="none" stroke="white" d="M56,-143.697C56,-135.983 56,-126.712 56,-118.112"/>
<polygon fill="white" stroke="white" points="59.5001,-118.104 56,-108.104 52.5001,-118.104 59.5001,-118.104"/>
</g>
<!-- 8v7w7q -->
<g id="node30" class="node"><title>8v7w7q</title>
<polygon fill="none" stroke="black" points="87.5647,-36 24.4353,-36 24.4353,-0 87.5647,-0 87.5647,-36"/>
<text text-anchor="middle" x="56" y="-12.4" font-family="Times,serif" font-size="14.00">incubate</text>
</g>
<!-- i7w4wg&#45;&#45;8v7w7q -->
<g id="edge30" class="edge"><title>i7w4wg&#45;&#45;8v7w7q</title>
<path fill="none" stroke="white" d="M56,-71.6966C56,-63.9827 56,-54.7125 56,-46.1124"/>
<polygon fill="white" stroke="white" points="59.5001,-46.1043 56,-36.1043 52.5001,-46.1044 59.5001,-46.1043"/>
</g>
</g>
</svg>
