<?xml version="1.0" encoding="UTF-8" standalone="no"?>
<!DOCTYPE svg PUBLIC "-//W3C//DTD SVG 1.1//EN"
 "http://www.w3.org/Graphics/SVG/1.1/DTD/svg11.dtd">
<!-- Generated by graphviz version 2.28.0 (20121217.1915)
 -->
<!-- Title: _anonymous_0 Pages: 1 -->
<svg width="551pt" height="1014pt"
 viewBox="0.00 0.00 551.00 1014.00" xmlns="http://www.w3.org/2000/svg" xmlns:xlink="http://www.w3.org/1999/xlink">
<g id="graph1" class="graph" transform="scale(1 1) rotate(0) translate(4 1010)">
<title>_anonymous_0</title>
<polygon fill="white" stroke="white" points="-4,5 -4,-1010 548,-1010 548,5 -4,5"/>
<!-- CreateView -->
<g id="node1" class="node"><title>CreateView</title>
<polygon fill="none" stroke="black" points="358.021,-275.021 275.979,-275.021 275.979,-192.979 358.021,-192.979 358.021,-275.021"/>
<text text-anchor="middle" x="317" y="-228.4" font-family="Times,serif" font-size="14.00">CreateView</text>
</g>
<!-- SingleObjectTemplateResponseMixin -->
<g id="node3" class="node"><title>SingleObjectTemplateResponseMixin</title>
<polygon fill="none" stroke="black" points="228.371,-567.371 -0.37113,-567.371 -0.37113,-338.629 228.371,-338.629 228.371,-567.371"/>
<text text-anchor="middle" x="114" y="-447.4" font-family="Times,serif" font-size="14.00">SingleObjectTemplateResponseMixin</text>
</g>
<!-- CreateView&#45;&#45;SingleObjectTemplateResponseMixin -->
<g id="edge2" class="edge"><title>CreateView&#45;&#45;SingleObjectTemplateResponseMixin</title>
<path fill="none" stroke="black" d="M279.53,-275.054C262.575,-293.179 241.591,-315.61 220.324,-338.344"/>
</g>
<!-- BaseCreateView -->
<g id="node5" class="node"><title>BaseCreateView</title>
<polygon fill="none" stroke="black" points="371.736,-507.736 262.264,-507.736 262.264,-398.264 371.736,-398.264 371.736,-507.736"/>
<text text-anchor="middle" x="317" y="-447.4" font-family="Times,serif" font-size="14.00">BaseCreateView</text>
</g>
<!-- CreateView&#45;&#45;BaseCreateView -->
<g id="edge4" class="edge"><title>CreateView&#45;&#45;BaseCreateView</title>
<path fill="none" stroke="black" d="M317,-275.054C317,-309.711 317,-360.115 317,-398.271"/>
</g>
<!-- TemplateResponseMixin -->
<g id="node7" class="node"><title>TemplateResponseMixin</title>
<polygon fill="none" stroke="black" points="183.775,-759.775 28.2254,-759.775 28.2254,-604.225 183.775,-604.225 183.775,-759.775"/>
<text text-anchor="middle" x="106" y="-676.4" font-family="Times,serif" font-size="14.00">TemplateResponseMixin</text>
</g>
<!-- SingleObjectTemplateResponseMixin&#45;&#45;TemplateResponseMixin -->
<g id="edge6" class="edge"><title>SingleObjectTemplateResponseMixin&#45;&#45;TemplateResponseMixin</title>
<path fill="none" stroke="black" d="M110,-567.5C109.562,-579.914 109.125,-592.328 108.708,-604.148"/>
</g>
<!-- ModelFormMixin -->
<g id="node9" class="node"><title>ModelFormMixin</title>
<polygon fill="none" stroke="black" points="318.617,-740.617 201.383,-740.617 201.383,-623.383 318.617,-623.383 318.617,-740.617"/>
<text text-anchor="middle" x="260" y="-676.4" font-family="Times,serif" font-size="14.00">ModelFormMixin</text>
</g>
<!-- BaseCreateView&#45;&#45;ModelFormMixin -->
<g id="edge8" class="edge"><title>BaseCreateView&#45;&#45;ModelFormMixin</title>
<path fill="none" stroke="black" d="M303.492,-507.796C294.768,-542.539 283.423,-587.717 274.508,-623.221"/>
</g>
<!-- ProcessFormView -->
<g id="node11" class="node"><title>ProcessFormView</title>
<polygon fill="none" stroke="black" points="455.101,-741.101 336.899,-741.101 336.899,-622.899 455.101,-622.899 455.101,-741.101"/>
<text text-anchor="middle" x="396" y="-676.4" font-family="Times,serif" font-size="14.00">ProcessFormView</text>
</g>
<!-- BaseCreateView&#45;&#45;ProcessFormView -->
<g id="edge10" class="edge"><title>BaseCreateView&#45;&#45;ProcessFormView</title>
<path fill="none" stroke="black" d="M335.722,-507.796C347.768,-542.408 363.417,-587.376 375.752,-622.818"/>
</g>
<!-- object -->
<g id="node13" class="node"><title>object</title>
<polygon fill="none" stroke="black" points="341.207,-1006.21 290.793,-1006.21 290.793,-955.793 341.207,-955.793 341.207,-1006.21"/>
<text text-anchor="middle" x="316" y="-975.4" font-family="Times,serif" font-size="14.00">object</text>
</g>
<!-- TemplateResponseMixin&#45;&#45;object -->
<g id="edge12" class="edge"><title>TemplateResponseMixin&#45;&#45;object</title>
<path fill="none" stroke="black" d="M91.6968,-759.808C86.7573,-810.548 89.6121,-875.626 125,-920 165.525,-970.816 248.76,-979.408 290.685,-980.348"/>
</g>
<!-- SingleObjectMixin -->
<g id="node14" class="node"><title>SingleObjectMixin</title>
<polygon fill="none" stroke="black" points="257.825,-919.825 134.175,-919.825 134.175,-796.175 257.825,-796.175 257.825,-919.825"/>
<text text-anchor="middle" x="196" y="-852.4" font-family="Times,serif" font-size="14.00">SingleObjectMixin</text>
</g>
<!-- ModelFormMixin&#45;&#45;SingleObjectMixin -->
<g id="edge24" class="edge"><title>ModelFormMixin&#45;&#45;SingleObjectMixin</title>
<path fill="none" stroke="black" d="M238.689,-740.939C232.144,-758.734 224.924,-778.362 218.314,-796.334"/>
</g>
<!-- FormMixin -->
<g id="node21" class="node"><title>FormMixin</title>
<polygon fill="none" stroke="black" points="356.067,-898.067 275.933,-898.067 275.933,-817.933 356.067,-817.933 356.067,-898.067"/>
<text text-anchor="middle" x="316" y="-852.4" font-family="Times,serif" font-size="14.00">FormMixin</text>
</g>
<!-- ModelFormMixin&#45;&#45;FormMixin -->
<g id="edge26" class="edge"><title>ModelFormMixin&#45;&#45;FormMixin</title>
<path fill="none" stroke="black" d="M278.647,-740.939C286.761,-766.149 296.058,-795.036 303.347,-817.685"/>
</g>
<!-- View -->
<g id="node19" class="node"><title>View</title>
<polygon fill="none" stroke="black" points="419.993,-880.993 374.007,-880.993 374.007,-835.007 419.993,-835.007 419.993,-880.993"/>
<text text-anchor="middle" x="397" y="-852.4" font-family="Times,serif" font-size="14.00">View</text>
</g>
<!-- ProcessFormView&#45;&#45;View -->
<g id="edge18" class="edge"><title>ProcessFormView&#45;&#45;View</title>
<path fill="none" stroke="black" d="M396.336,-741.424C396.521,-773.609 396.739,-811.664 396.874,-835.066"/>
</g>
<!-- SingleObjectMixin&#45;&#45;object -->
<g id="edge14" class="edge"><title>SingleObjectMixin&#45;&#45;object</title>
<path fill="none" stroke="black" d="M256.352,-919.854C268.958,-932.566 281.544,-945.257 291.883,-955.682"/>
</g>
<!-- LoginRequiredMixin -->
<g id="node16" class="node"><title>LoginRequiredMixin</title>
<polygon fill="none" stroke="black" points="542.486,-301.486 407.514,-301.486 407.514,-166.514 542.486,-166.514 542.486,-301.486"/>
<text text-anchor="middle" x="475" y="-228.4" font-family="Times,serif" font-size="14.00">LoginRequiredMixin</text>
</g>
<!-- LoginRequiredMixin&#45;&#45;object -->
<g id="edge16" class="edge"><title>LoginRequiredMixin&#45;&#45;object</title>
<path fill="none" stroke="black" d="M492.232,-301.628C522.323,-434.376 568.701,-734.975 428,-920 406.369,-948.445 367.264,-964.916 341.463,-973.177"/>
</g>
<!-- View&#45;&#45;object -->
<g id="edge20" class="edge"><title>View&#45;&#45;object</title>
<path fill="none" stroke="black" d="M386.912,-880.775C381.064,-892.693 373.242,-907.529 365,-920 356.843,-932.342 346.65,-945.156 337.675,-955.757"/>
</g>
<!-- FormMixin&#45;&#45;object -->
<g id="edge22" class="edge"><title>FormMixin&#45;&#45;object</title>
<path fill="none" stroke="black" d="M316,-898.285C316,-917.193 316,-939.266 316,-955.701"/>
</g>
<!-- ProtocolCreateView -->
<g id="node25" class="node"><title>ProtocolCreateView</title>
<polygon fill="none" stroke="black" points="444.964,-129.964 315.036,-129.964 315.036,-0.0362789 444.964,-0.0362789 444.964,-129.964"/>
<text text-anchor="middle" x="380" y="-59.4" font-family="Times,serif" font-size="14.00">ProtocolCreateView</text>
</g>
<!-- ProtocolCreateView&#45;&#45;CreateView -->
<g id="edge28" class="edge"><title>ProtocolCreateView&#45;&#45;CreateView</title>
<path fill="none" stroke="black" d="M355.823,-130.089C347.842,-151.245 339.197,-174.161 332.095,-192.986"/>
</g>
<!-- ProtocolCreateView&#45;&#45;LoginRequiredMixin -->
<g id="edge30" class="edge"><title>ProtocolCreateView&#45;&#45;LoginRequiredMixin</title>
<path fill="none" stroke="black" d="M416.458,-130.089C423.208,-141.955 430.273,-154.374 437.065,-166.315"/>
</g>
</g>
</svg>
