<?xml version="1.0" encoding="UTF-8" standalone="no"?>
<!DOCTYPE svg PUBLIC "-//W3C//DTD SVG 1.1//EN"
 "http://www.w3.org/Graphics/SVG/1.1/DTD/svg11.dtd">
<!-- Generated by graphviz version 2.28.0 (20121217.1915)
 -->
<!-- Title: _anonymous_0 Pages: 1 -->
<svg width="82pt" height="1124pt"
 viewBox="0.00 0.00 82.00 1124.00" xmlns="http://www.w3.org/2000/svg" xmlns:xlink="http://www.w3.org/1999/xlink">
<g id="graph1" class="graph" transform="scale(1 1) rotate(0) translate(4 1120)">
<title>_anonymous_0</title>
<polygon fill="white" stroke="white" points="-4,5 -4,-1120 79,-1120 79,5 -4,5"/>
<!-- cv6qt3 -->
<g id="node1" class="node"><title>cv6qt3</title>
<polygon fill="none" stroke="black" points="65.4848,-1116 8.5152,-1116 8.5152,-1080 65.4848,-1080 65.4848,-1116"/>
<text text-anchor="middle" x="37" y="-1092.4" font-family="Times,serif" font-size="14.00">remove</text>
</g>
<!-- mi4bl4 -->
<g id="node2" class="node"><title>mi4bl4</title>
<polygon fill="none" stroke="black" points="64,-1044 10,-1044 10,-1008 64,-1008 64,-1044"/>
<text text-anchor="middle" x="37" y="-1020.4" font-family="Times,serif" font-size="14.00">cut</text>
</g>
<!-- cv6qt3&#45;&#45;mi4bl4 -->
<g id="edge2" class="edge"><title>cv6qt3&#45;&#45;mi4bl4</title>
<path fill="none" stroke="black" d="M37,-1079.7C37,-1071.98 37,-1062.71 37,-1054.11"/>
<polygon fill="black" stroke="black" points="40.5001,-1054.1 37,-1044.1 33.5001,-1054.1 40.5001,-1054.1"/>
</g>
<!-- wu00cs -->
<g id="node4" class="node"><title>wu00cs</title>
<polygon fill="none" stroke="black" points="65.4848,-972 8.5152,-972 8.5152,-936 65.4848,-936 65.4848,-972"/>
<text text-anchor="middle" x="37" y="-948.4" font-family="Times,serif" font-size="14.00">remove</text>
</g>
<!-- mi4bl4&#45;&#45;wu00cs -->
<g id="edge4" class="edge"><title>mi4bl4&#45;&#45;wu00cs</title>
<path fill="none" stroke="black" d="M37,-1007.7C37,-999.983 37,-990.712 37,-982.112"/>
<polygon fill="black" stroke="black" points="40.5001,-982.104 37,-972.104 33.5001,-982.104 40.5001,-982.104"/>
</g>
<!-- qf0p9u -->
<g id="node6" class="node"><title>qf0p9u</title>
<polygon fill="none" stroke="black" points="64,-900 10,-900 10,-864 64,-864 64,-900"/>
<text text-anchor="middle" x="37" y="-876.4" font-family="Times,serif" font-size="14.00">treat</text>
</g>
<!-- wu00cs&#45;&#45;qf0p9u -->
<g id="edge6" class="edge"><title>wu00cs&#45;&#45;qf0p9u</title>
<path fill="none" stroke="black" d="M37,-935.697C37,-927.983 37,-918.712 37,-910.112"/>
<polygon fill="black" stroke="black" points="40.5001,-910.104 37,-900.104 33.5001,-910.104 40.5001,-910.104"/>
</g>
<!-- dkbaxy -->
<g id="node8" class="node"><title>dkbaxy</title>
<polygon fill="none" stroke="black" points="64,-828 10,-828 10,-792 64,-792 64,-828"/>
<text text-anchor="middle" x="37" y="-804.4" font-family="Times,serif" font-size="14.00">grind</text>
</g>
<!-- qf0p9u&#45;&#45;dkbaxy -->
<g id="edge8" class="edge"><title>qf0p9u&#45;&#45;dkbaxy</title>
<path fill="none" stroke="black" d="M37,-863.697C37,-855.983 37,-846.712 37,-838.112"/>
<polygon fill="black" stroke="black" points="40.5001,-838.104 37,-828.104 33.5001,-838.104 40.5001,-838.104"/>
</g>
<!-- 426u00 -->
<g id="node10" class="node"><title>426u00</title>
<polygon fill="none" stroke="black" points="67.3324,-756 6.66764,-756 6.66764,-720 67.3324,-720 67.3324,-756"/>
<text text-anchor="middle" x="37" y="-732.4" font-family="Times,serif" font-size="14.00">suspend</text>
</g>
<!-- dkbaxy&#45;&#45;426u00 -->
<g id="edge10" class="edge"><title>dkbaxy&#45;&#45;426u00</title>
<path fill="none" stroke="black" d="M37,-791.697C37,-783.983 37,-774.712 37,-766.112"/>
<polygon fill="black" stroke="black" points="40.5001,-766.104 37,-756.104 33.5001,-766.104 40.5001,-766.104"/>
</g>
<!-- sb1uyt -->
<g id="node12" class="node"><title>sb1uyt</title>
<polygon fill="none" stroke="black" points="64,-684 10,-684 10,-648 64,-648 64,-684"/>
<text text-anchor="middle" x="37" y="-660.4" font-family="Times,serif" font-size="14.00">vortex</text>
</g>
<!-- 426u00&#45;&#45;sb1uyt -->
<g id="edge12" class="edge"><title>426u00&#45;&#45;sb1uyt</title>
<path fill="none" stroke="black" d="M37,-719.697C37,-711.983 37,-702.712 37,-694.112"/>
<polygon fill="black" stroke="black" points="40.5001,-694.104 37,-684.104 33.5001,-694.104 40.5001,-694.104"/>
</g>
<!-- w38scg -->
<g id="node14" class="node"><title>w38scg</title>
<polygon fill="none" stroke="black" points="68.5647,-612 5.43529,-612 5.43529,-576 68.5647,-576 68.5647,-612"/>
<text text-anchor="middle" x="37" y="-588.4" font-family="Times,serif" font-size="14.00">incubate</text>
</g>
<!-- sb1uyt&#45;&#45;w38scg -->
<g id="edge14" class="edge"><title>sb1uyt&#45;&#45;w38scg</title>
<path fill="none" stroke="black" d="M37,-647.697C37,-639.983 37,-630.712 37,-622.112"/>
<polygon fill="black" stroke="black" points="40.5001,-622.104 37,-612.104 33.5001,-622.104 40.5001,-622.104"/>
</g>
<!-- bd4hdg -->
<g id="node16" class="node"><title>bd4hdg</title>
<polygon fill="none" stroke="black" points="73.0599,-540 0.940067,-540 0.940067,-504 73.0599,-504 73.0599,-540"/>
<text text-anchor="middle" x="37" y="-516.4" font-family="Times,serif" font-size="14.00">centrifuge</text>
</g>
<!-- w38scg&#45;&#45;bd4hdg -->
<g id="edge16" class="edge"><title>w38scg&#45;&#45;bd4hdg</title>
<path fill="none" stroke="black" d="M37,-575.697C37,-567.983 37,-558.712 37,-550.112"/>
<polygon fill="black" stroke="black" points="40.5001,-550.104 37,-540.104 33.5001,-550.104 40.5001,-550.104"/>
</g>
<!-- x0bo2k -->
<g id="node18" class="node"><title>x0bo2k</title>
<polygon fill="none" stroke="black" points="66.0653,-468 7.93472,-468 7.93472,-432 66.0653,-432 66.0653,-468"/>
<text text-anchor="middle" x="37" y="-444.4" font-family="Times,serif" font-size="14.00">transfer</text>
</g>
<!-- bd4hdg&#45;&#45;x0bo2k -->
<g id="edge18" class="edge"><title>bd4hdg&#45;&#45;x0bo2k</title>
<path fill="none" stroke="black" d="M37,-503.697C37,-495.983 37,-486.712 37,-478.112"/>
<polygon fill="black" stroke="black" points="40.5001,-478.104 37,-468.104 33.5001,-478.104 40.5001,-478.104"/>
</g>
<!-- dgufbn -->
<g id="node20" class="node"><title>dgufbn</title>
<polygon fill="none" stroke="black" points="64,-396 10,-396 10,-360 64,-360 64,-396"/>
<text text-anchor="middle" x="37" y="-372.4" font-family="Times,serif" font-size="14.00">add</text>
</g>
<!-- x0bo2k&#45;&#45;dgufbn -->
<g id="edge20" class="edge"><title>x0bo2k&#45;&#45;dgufbn</title>
<path fill="none" stroke="black" d="M37,-431.697C37,-423.983 37,-414.712 37,-406.112"/>
<polygon fill="black" stroke="black" points="40.5001,-406.104 37,-396.104 33.5001,-406.104 40.5001,-406.104"/>
</g>
<!-- xujnhz -->
<g id="node22" class="node"><title>xujnhz</title>
<polygon fill="none" stroke="black" points="64,-324 10,-324 10,-288 64,-288 64,-324"/>
<text text-anchor="middle" x="37" y="-300.4" font-family="Times,serif" font-size="14.00">mix</text>
</g>
<!-- dgufbn&#45;&#45;xujnhz -->
<g id="edge22" class="edge"><title>dgufbn&#45;&#45;xujnhz</title>
<path fill="none" stroke="black" d="M37,-359.697C37,-351.983 37,-342.712 37,-334.112"/>
<polygon fill="black" stroke="black" points="40.5001,-334.104 37,-324.104 33.5001,-334.104 40.5001,-334.104"/>
</g>
<!-- xtkh69 -->
<g id="node24" class="node"><title>xtkh69</title>
<polygon fill="none" stroke="black" points="74.3069,-252 -0.306894,-252 -0.306894,-216 74.3069,-216 74.3069,-252"/>
<text text-anchor="middle" x="37" y="-228.4" font-family="Times,serif" font-size="14.00">precipitate</text>
</g>
<!-- xujnhz&#45;&#45;xtkh69 -->
<g id="edge24" class="edge"><title>xujnhz&#45;&#45;xtkh69</title>
<path fill="none" stroke="black" d="M37,-287.697C37,-279.983 37,-270.712 37,-262.112"/>
<polygon fill="black" stroke="black" points="40.5001,-262.104 37,-252.104 33.5001,-262.104 40.5001,-262.104"/>
</g>
<!-- 4dilj3 -->
<g id="node26" class="node"><title>4dilj3</title>
<polygon fill="none" stroke="black" points="73.0599,-180 0.940067,-180 0.940067,-144 73.0599,-144 73.0599,-180"/>
<text text-anchor="middle" x="37" y="-156.4" font-family="Times,serif" font-size="14.00">centrifuge</text>
</g>
<!-- xtkh69&#45;&#45;4dilj3 -->
<g id="edge26" class="edge"><title>xtkh69&#45;&#45;4dilj3</title>
<path fill="none" stroke="black" d="M37,-215.697C37,-207.983 37,-198.712 37,-190.112"/>
<polygon fill="black" stroke="black" points="40.5001,-190.104 37,-180.104 33.5001,-190.104 40.5001,-190.104"/>
</g>
<!-- tn91yk -->
<g id="node28" class="node"><title>tn91yk</title>
<polygon fill="none" stroke="black" points="67.4182,-108 6.58182,-108 6.58182,-72 67.4182,-72 67.4182,-108"/>
<text text-anchor="middle" x="37" y="-84.4" font-family="Times,serif" font-size="14.00">dissolve</text>
</g>
<!-- 4dilj3&#45;&#45;tn91yk -->
<g id="edge28" class="edge"><title>4dilj3&#45;&#45;tn91yk</title>
<path fill="none" stroke="black" d="M37,-143.697C37,-135.983 37,-126.712 37,-118.112"/>
<polygon fill="black" stroke="black" points="40.5001,-118.104 37,-108.104 33.5001,-118.104 40.5001,-118.104"/>
</g>
<!-- 278s80 -->
<g id="node30" class="node"><title>278s80</title>
<polygon fill="none" stroke="black" points="64,-36 10,-36 10,-0 64,-0 64,-36"/>
<text text-anchor="middle" x="37" y="-12.4" font-family="Times,serif" font-size="14.00">store</text>
</g>
<!-- tn91yk&#45;&#45;278s80 -->
<g id="edge30" class="edge"><title>tn91yk&#45;&#45;278s80</title>
<path fill="none" stroke="black" d="M37,-71.6966C37,-63.9827 37,-54.7125 37,-46.1124"/>
<polygon fill="black" stroke="black" points="40.5001,-46.1043 37,-36.1043 33.5001,-46.1044 40.5001,-46.1043"/>
</g>
</g>
</svg>
