<?xml version="1.0" encoding="UTF-8" standalone="no"?>
<!DOCTYPE svg PUBLIC "-//W3C//DTD SVG 1.1//EN"
 "http://www.w3.org/Graphics/SVG/1.1/DTD/svg11.dtd">
<!-- Generated by graphviz version 2.28.0 (20121217.1915)
 -->
<!-- Title: _anonymous_0 Pages: 1 -->
<svg width="1311pt" height="44pt"
 viewBox="0.00 0.00 1311.00 44.00" xmlns="http://www.w3.org/2000/svg" xmlns:xlink="http://www.w3.org/1999/xlink">
<g id="graph1" class="graph" transform="scale(1 1) rotate(0) translate(4 40)">
<title>_anonymous_0</title>
<polygon fill="white" stroke="white" points="-4,5 -4,-40 1308,-40 1308,5 -4,5"/>
<!-- t61jdx -->
<g id="node1" class="node"><title>t61jdx</title>
<polygon fill="none" stroke="black" points="112.39,-36 -0.389557,-36 -0.389557,-0 112.39,-0 112.39,-36"/>
<text text-anchor="middle" x="56" y="-12.4" font-family="Times,serif" font-size="14.00">call_for_protocol</text>
</g>
<!-- 85jao2 -->
<g id="node2" class="node"><title>85jao2</title>
<polygon fill="none" stroke="black" points="195.155,-36 130.845,-36 130.845,-0 195.155,-0 195.155,-36"/>
<text text-anchor="middle" x="163" y="-12.4" font-family="Times,serif" font-size="14.00">combine</text>
</g>
<!-- wfc3i7 -->
<g id="node3" class="node"><title>wfc3i7</title>
<polygon fill="none" stroke="black" points="267,-36 213,-36 213,-0 267,-0 267,-36"/>
<text text-anchor="middle" x="240" y="-12.4" font-family="Times,serif" font-size="14.00">heat</text>
</g>
<!-- ff6p45 -->
<g id="node4" class="node"><title>ff6p45</title>
<polygon fill="none" stroke="black" points="339,-36 285,-36 285,-0 339,-0 339,-36"/>
<text text-anchor="middle" x="312" y="-12.4" font-family="Times,serif" font-size="14.00">chill</text>
</g>
<!-- k0xofh -->
<g id="node5" class="node"><title>k0xofh</title>
<polygon fill="none" stroke="black" points="429.06,-36 356.94,-36 356.94,-0 429.06,-0 429.06,-36"/>
<text text-anchor="middle" x="393" y="-12.4" font-family="Times,serif" font-size="14.00">centrifuge</text>
</g>
<!-- 4tr1s6 -->
<g id="node6" class="node"><title>4tr1s6</title>
<polygon fill="none" stroke="black" points="501,-36 447,-36 447,-0 501,-0 501,-36"/>
<text text-anchor="middle" x="474" y="-12.4" font-family="Times,serif" font-size="14.00">add</text>
</g>
<!-- 0gdlq5 -->
<g id="node7" class="node"><title>0gdlq5</title>
<polygon fill="none" stroke="black" points="573,-36 519,-36 519,-0 573,-0 573,-36"/>
<text text-anchor="middle" x="546" y="-12.4" font-family="Times,serif" font-size="14.00">mix</text>
</g>
<!-- d6m0hh -->
<g id="node8" class="node"><title>d6m0hh</title>
<polygon fill="none" stroke="black" points="663.06,-36 590.94,-36 590.94,-0 663.06,-0 663.06,-36"/>
<text text-anchor="middle" x="627" y="-12.4" font-family="Times,serif" font-size="14.00">centrifuge</text>
</g>
<!-- wht5z6 -->
<g id="node9" class="node"><title>wht5z6</title>
<polygon fill="none" stroke="black" points="744.565,-36 681.435,-36 681.435,-0 744.565,-0 744.565,-36"/>
<text text-anchor="middle" x="713" y="-12.4" font-family="Times,serif" font-size="14.00">incubate</text>
</g>
<!-- sgum0w -->
<g id="node10" class="node"><title>sgum0w</title>
<polygon fill="none" stroke="black" points="817,-36 763,-36 763,-0 817,-0 817,-36"/>
<text text-anchor="middle" x="790" y="-12.4" font-family="Times,serif" font-size="14.00">add</text>
</g>
<!-- l4ppoq -->
<g id="node11" class="node"><title>l4ppoq</title>
<polygon fill="none" stroke="black" points="889,-36 835,-36 835,-0 889,-0 889,-36"/>
<text text-anchor="middle" x="862" y="-12.4" font-family="Times,serif" font-size="14.00">mix</text>
</g>
<!-- nwv41j -->
<g id="node12" class="node"><title>nwv41j</title>
<polygon fill="none" stroke="black" points="979.06,-36 906.94,-36 906.94,-0 979.06,-0 979.06,-36"/>
<text text-anchor="middle" x="943" y="-12.4" font-family="Times,serif" font-size="14.00">centrifuge</text>
</g>
<!-- 5bohex -->
<g id="node13" class="node"><title>5bohex</title>
<polygon fill="none" stroke="black" points="1060.56,-36 997.435,-36 997.435,-0 1060.56,-0 1060.56,-36"/>
<text text-anchor="middle" x="1029" y="-12.4" font-family="Times,serif" font-size="14.00">incubate</text>
</g>
<!-- lk1yt0 -->
<g id="node14" class="node"><title>lk1yt0</title>
<polygon fill="none" stroke="black" points="1141.56,-36 1078.44,-36 1078.44,-0 1141.56,-0 1141.56,-36"/>
<text text-anchor="middle" x="1110" y="-12.4" font-family="Times,serif" font-size="14.00">incubate</text>
</g>
<!-- i7w4wg -->
<g id="node15" class="node"><title>i7w4wg</title>
<polygon fill="none" stroke="black" points="1222.56,-36 1159.44,-36 1159.44,-0 1222.56,-0 1222.56,-36"/>
<text text-anchor="middle" x="1191" y="-12.4" font-family="Times,serif" font-size="14.00">incubate</text>
</g>
<!-- 8v7w7q -->
<g id="node16" class="node"><title>8v7w7q</title>
<polygon fill="none" stroke="black" points="1303.56,-36 1240.44,-36 1240.44,-0 1303.56,-0 1303.56,-36"/>
<text text-anchor="middle" x="1272" y="-12.4" font-family="Times,serif" font-size="14.00">incubate</text>
</g>
</g>
</svg>
