<?xml version="1.0" encoding="UTF-8" standalone="no"?>
<!DOCTYPE svg PUBLIC "-//W3C//DTD SVG 1.1//EN"
 "http://www.w3.org/Graphics/SVG/1.1/DTD/svg11.dtd">
<!-- Generated by graphviz version 2.28.0 (20121217.1915)
 -->
<!-- Title: _anonymous_0 Pages: 1 -->
<svg width="461pt" height="1120pt"
 viewBox="0.00 0.00 461.00 1120.00" xmlns="http://www.w3.org/2000/svg" xmlns:xlink="http://www.w3.org/1999/xlink">
<g id="graph1" class="graph" transform="scale(1 1) rotate(0) translate(4 1116)">
<title>_anonymous_0</title>
<polygon fill="white" stroke="white" points="-4,5 -4,-1116 458,-1116 458,5 -4,5"/>
<!-- 892zia -->
<g id="node3" class="node"><title>892zia</title>
<polygon fill="none" stroke="black" points="83,-686 29,-686 29,-650 83,-650 83,-686"/>
<text text-anchor="middle" x="56" y="-662.4" font-family="Times,serif" font-size="14.00">add</text>
</g>
<!-- new -->
<g id="node5" class="node"><title>new</title>
<polygon fill="none" stroke="black" points="140.492,-687.826 101.508,-687.826 101.508,-648.174 140.492,-648.174 140.492,-687.826"/>
<text text-anchor="middle" x="121" y="-662.4" font-family="Times,serif" font-size="14.00">new</text>
</g>
<!-- 892zia&#45;&#45;new -->
<g id="edge4" class="edge"><title>892zia&#45;&#45;new</title>
<path fill="none" stroke="white" d="M83.168,-668C89.2763,-668 95.3846,-668 101.493,-668"/>
</g>
<!-- pbud57 -->
<g id="node19" class="node"><title>pbud57</title>
<polygon fill="none" stroke="black" points="83,-612 29,-612 29,-576 83,-576 83,-612"/>
<text text-anchor="middle" x="56" y="-588.4" font-family="Times,serif" font-size="14.00">mix</text>
</g>
<!-- 892zia&#45;&#45;pbud57 -->
<g id="edge19" class="edge"><title>892zia&#45;&#45;pbud57</title>
<path fill="none" stroke="white" d="M56,-649.937C56,-641.807 56,-631.876 56,-622.705"/>
<polygon fill="white" stroke="white" points="59.5001,-622.441 56,-612.441 52.5001,-622.441 59.5001,-622.441"/>
</g>
<!-- kttj4d -->
<g id="node7" class="node"><title>kttj4d</title>
<polygon fill="none" stroke="black" points="88.1554,-1008 23.8446,-1008 23.8446,-972 88.1554,-972 88.1554,-1008"/>
<text text-anchor="middle" x="56" y="-984.4" font-family="Times,serif" font-size="14.00">combine</text>
</g>
<!-- nun -->
<g id="node8" class="node"><title>nun</title>
<polygon fill="none" stroke="black" points="106.068,-940.4 106.068,-1039.6 453.932,-1039.6 453.932,-940.4 106.068,-940.4"/>
<text text-anchor="middle" x="280" y="-1021.6" font-family="Times,serif" font-size="14.00">Nucleic Acid, Primer, Oligo(dT)12&#45;18 primers (Invitrogen)</text>
<polyline fill="none" stroke="black" points="106.068,-1014.8 453.932,-1014.8 "/>
<text text-anchor="middle" x="280" y="-996.8" font-family="Times,serif" font-size="14.00">Nucleic Acid, dNTPs (Invitrogen)</text>
<polyline fill="none" stroke="black" points="106.068,-990 453.932,-990 "/>
<text text-anchor="middle" x="280" y="-972" font-family="Times,serif" font-size="14.00">Nucleic Acid, RNA, poly(A)+</text>
<polyline fill="none" stroke="black" points="106.068,-965.2 453.932,-965.2 "/>
<text text-anchor="middle" x="280" y="-947.2" font-family="Times,serif" font-size="14.00">Water, nuclease&#45;free, sterile</text>
</g>
<!-- kttj4d&#45;&#45;nun -->
<g id="edge7" class="edge"><title>kttj4d&#45;&#45;nun</title>
<path fill="none" stroke="black" d="M88.375,-990C94.2385,-990 100.102,-990 105.966,-990"/>
</g>
<!-- oy38e9 -->
<g id="node12" class="node"><title>oy38e9</title>
<polygon fill="none" stroke="black" points="83,-904 29,-904 29,-868 83,-868 83,-904"/>
<text text-anchor="middle" x="56" y="-880.4" font-family="Times,serif" font-size="14.00">heat</text>
</g>
<!-- kttj4d&#45;&#45;oy38e9 -->
<g id="edge11" class="edge"><title>kttj4d&#45;&#45;oy38e9</title>
<path fill="none" stroke="white" d="M56,-971.697C56,-955.923 56,-932.364 56,-914.094"/>
<polygon fill="white" stroke="white" points="59.5001,-914.047 56,-904.047 52.5001,-914.047 59.5001,-914.047"/>
</g>
<!-- ahd90y -->
<g id="node10" class="node"><title>ahd90y</title>
<polygon fill="none" stroke="black" points="112.39,-1112 -0.389557,-1112 -0.389557,-1076 112.39,-1076 112.39,-1112"/>
<text text-anchor="middle" x="56" y="-1088.4" font-family="Times,serif" font-size="14.00">call_for_protocol</text>
</g>
<!-- ahd90y&#45;&#45;kttj4d -->
<g id="edge9" class="edge"><title>ahd90y&#45;&#45;kttj4d</title>
<path fill="none" stroke="white" d="M56,-1075.7C56,-1059.92 56,-1036.36 56,-1018.09"/>
<polygon fill="white" stroke="white" points="59.5001,-1018.05 56,-1008.05 52.5001,-1018.05 59.5001,-1018.05"/>
</g>
<!-- f4hds3 -->
<g id="node14" class="node"><title>f4hds3</title>
<polygon fill="none" stroke="black" points="83,-832 29,-832 29,-796 83,-796 83,-832"/>
<text text-anchor="middle" x="56" y="-808.4" font-family="Times,serif" font-size="14.00">chill</text>
</g>
<!-- oy38e9&#45;&#45;f4hds3 -->
<g id="edge13" class="edge"><title>oy38e9&#45;&#45;f4hds3</title>
<path fill="none" stroke="white" d="M56,-867.697C56,-859.983 56,-850.712 56,-842.112"/>
<polygon fill="white" stroke="white" points="59.5001,-842.104 56,-832.104 52.5001,-842.104 59.5001,-842.104"/>
</g>
<!-- 9b92ym -->
<g id="node16" class="node"><title>9b92ym</title>
<polygon fill="none" stroke="black" points="92.0599,-760 19.9401,-760 19.9401,-724 92.0599,-724 92.0599,-760"/>
<text text-anchor="middle" x="56" y="-736.4" font-family="Times,serif" font-size="14.00">centrifuge</text>
</g>
<!-- f4hds3&#45;&#45;9b92ym -->
<g id="edge15" class="edge"><title>f4hds3&#45;&#45;9b92ym</title>
<path fill="none" stroke="white" d="M56,-795.697C56,-787.983 56,-778.712 56,-770.112"/>
<polygon fill="white" stroke="white" points="59.5001,-770.104 56,-760.104 52.5001,-770.104 59.5001,-770.104"/>
</g>
<!-- 9b92ym&#45;&#45;892zia -->
<g id="edge17" class="edge"><title>9b92ym&#45;&#45;892zia</title>
<path fill="none" stroke="white" d="M56,-723.937C56,-715.807 56,-705.876 56,-696.705"/>
<polygon fill="white" stroke="white" points="59.5001,-696.441 56,-686.441 52.5001,-696.441 59.5001,-696.441"/>
</g>
<!-- kbzqcb -->
<g id="node21" class="node"><title>kbzqcb</title>
<polygon fill="none" stroke="black" points="92.0599,-540 19.9401,-540 19.9401,-504 92.0599,-504 92.0599,-540"/>
<text text-anchor="middle" x="56" y="-516.4" font-family="Times,serif" font-size="14.00">centrifuge</text>
</g>
<!-- pbud57&#45;&#45;kbzqcb -->
<g id="edge21" class="edge"><title>pbud57&#45;&#45;kbzqcb</title>
<path fill="none" stroke="white" d="M56,-575.697C56,-567.983 56,-558.712 56,-550.112"/>
<polygon fill="white" stroke="white" points="59.5001,-550.104 56,-540.104 52.5001,-550.104 59.5001,-550.104"/>
</g>
<!-- j4json -->
<g id="node23" class="node"><title>j4json</title>
<polygon fill="none" stroke="black" points="87.5647,-468 24.4353,-468 24.4353,-432 87.5647,-432 87.5647,-468"/>
<text text-anchor="middle" x="56" y="-444.4" font-family="Times,serif" font-size="14.00">incubate</text>
</g>
<!-- kbzqcb&#45;&#45;j4json -->
<g id="edge23" class="edge"><title>kbzqcb&#45;&#45;j4json</title>
<path fill="none" stroke="white" d="M56,-503.697C56,-495.983 56,-486.712 56,-478.112"/>
<polygon fill="white" stroke="white" points="59.5001,-478.104 56,-468.104 52.5001,-478.104 59.5001,-478.104"/>
</g>
<!-- muwzdb -->
<g id="node25" class="node"><title>muwzdb</title>
<polygon fill="none" stroke="black" points="83,-396 29,-396 29,-360 83,-360 83,-396"/>
<text text-anchor="middle" x="56" y="-372.4" font-family="Times,serif" font-size="14.00">add</text>
</g>
<!-- j4json&#45;&#45;muwzdb -->
<g id="edge25" class="edge"><title>j4json&#45;&#45;muwzdb</title>
<path fill="none" stroke="white" d="M56,-431.697C56,-423.983 56,-414.712 56,-406.112"/>
<polygon fill="white" stroke="white" points="59.5001,-406.104 56,-396.104 52.5001,-406.104 59.5001,-406.104"/>
</g>
<!-- aoymzg -->
<g id="node27" class="node"><title>aoymzg</title>
<polygon fill="none" stroke="black" points="83,-324 29,-324 29,-288 83,-288 83,-324"/>
<text text-anchor="middle" x="56" y="-300.4" font-family="Times,serif" font-size="14.00">mix</text>
</g>
<!-- muwzdb&#45;&#45;aoymzg -->
<g id="edge27" class="edge"><title>muwzdb&#45;&#45;aoymzg</title>
<path fill="none" stroke="white" d="M56,-359.697C56,-351.983 56,-342.712 56,-334.112"/>
<polygon fill="white" stroke="white" points="59.5001,-334.104 56,-324.104 52.5001,-334.104 59.5001,-334.104"/>
</g>
<!-- thfavi -->
<g id="node29" class="node"><title>thfavi</title>
<polygon fill="none" stroke="black" points="92.0599,-252 19.9401,-252 19.9401,-216 92.0599,-216 92.0599,-252"/>
<text text-anchor="middle" x="56" y="-228.4" font-family="Times,serif" font-size="14.00">centrifuge</text>
</g>
<!-- aoymzg&#45;&#45;thfavi -->
<g id="edge29" class="edge"><title>aoymzg&#45;&#45;thfavi</title>
<path fill="none" stroke="white" d="M56,-287.697C56,-279.983 56,-270.712 56,-262.112"/>
<polygon fill="white" stroke="white" points="59.5001,-262.104 56,-252.104 52.5001,-262.104 59.5001,-262.104"/>
</g>
<!-- ya985z -->
<g id="node31" class="node"><title>ya985z</title>
<polygon fill="none" stroke="black" points="87.5647,-180 24.4353,-180 24.4353,-144 87.5647,-144 87.5647,-180"/>
<text text-anchor="middle" x="56" y="-156.4" font-family="Times,serif" font-size="14.00">incubate</text>
</g>
<!-- thfavi&#45;&#45;ya985z -->
<g id="edge31" class="edge"><title>thfavi&#45;&#45;ya985z</title>
<path fill="none" stroke="white" d="M56,-215.697C56,-207.983 56,-198.712 56,-190.112"/>
<polygon fill="white" stroke="white" points="59.5001,-190.104 56,-180.104 52.5001,-190.104 59.5001,-190.104"/>
</g>
<!-- bavsb0 -->
<g id="node33" class="node"><title>bavsb0</title>
<polygon fill="none" stroke="black" points="87.5647,-108 24.4353,-108 24.4353,-72 87.5647,-72 87.5647,-108"/>
<text text-anchor="middle" x="56" y="-84.4" font-family="Times,serif" font-size="14.00">incubate</text>
</g>
<!-- ya985z&#45;&#45;bavsb0 -->
<g id="edge33" class="edge"><title>ya985z&#45;&#45;bavsb0</title>
<path fill="none" stroke="white" d="M56,-143.697C56,-135.983 56,-126.712 56,-118.112"/>
<polygon fill="white" stroke="white" points="59.5001,-118.104 56,-108.104 52.5001,-118.104 59.5001,-118.104"/>
</g>
<!-- adrmwt -->
<g id="node35" class="node"><title>adrmwt</title>
<polygon fill="none" stroke="black" points="87.5647,-36 24.4353,-36 24.4353,-0 87.5647,-0 87.5647,-36"/>
<text text-anchor="middle" x="56" y="-12.4" font-family="Times,serif" font-size="14.00">incubate</text>
</g>
<!-- bavsb0&#45;&#45;adrmwt -->
<g id="edge35" class="edge"><title>bavsb0&#45;&#45;adrmwt</title>
<path fill="none" stroke="white" d="M56,-71.6966C56,-63.9827 56,-54.7125 56,-46.1124"/>
<polygon fill="white" stroke="white" points="59.5001,-46.1043 56,-36.1043 52.5001,-46.1044 59.5001,-46.1043"/>
</g>
</g>
</svg>
