<?xml version="1.0" encoding="UTF-8" standalone="no"?>
<!DOCTYPE svg PUBLIC "-//W3C//DTD SVG 1.1//EN"
 "http://www.w3.org/Graphics/SVG/1.1/DTD/svg11.dtd">
<!-- Generated by graphviz version 2.28.0 (20121217.1915)
 -->
<!-- Title: _anonymous_0 Pages: 1 -->
<svg width="1366pt" height="1200pt"
 viewBox="0.00 0.00 1366.00 1200.00" xmlns="http://www.w3.org/2000/svg" xmlns:xlink="http://www.w3.org/1999/xlink">
<g id="graph1" class="graph" transform="scale(1 1) rotate(0) translate(4 1196)">
<title>_anonymous_0</title>
<polygon fill="white" stroke="white" points="-4,5 -4,-1196 1363,-1196 1363,5 -4,5"/>
<g id="graph2" class="cluster"><title>cluster_a1</title>
<polygon fill="none" stroke="black" points="8,-640 8,-806 817,-806 817,-640 8,-640"/>
<text text-anchor="middle" x="412.5" y="-788" font-family="Times,serif" font-size="14.00">test</text>
</g>
<!-- 892zia -->
<g id="node2" class="node"><title>892zia</title>
<polygon fill="none" stroke="black" points="554,-684 500,-684 500,-648 554,-648 554,-684"/>
<text text-anchor="middle" x="527" y="-660.4" font-family="Times,serif" font-size="14.00">add</text>
</g>
<!-- pbud57 -->
<g id="node20" class="node"><title>pbud57</title>
<polygon fill="none" stroke="black" points="554,-612 500,-612 500,-576 554,-576 554,-612"/>
<text text-anchor="middle" x="527" y="-588.4" font-family="Times,serif" font-size="14.00">mix</text>
</g>
<!-- 892zia&#45;&#45;pbud57 -->
<g id="edge19" class="edge"><title>892zia&#45;&#45;pbud57</title>
<path fill="none" stroke="black" d="M527,-647.697C527,-639.983 527,-630.712 527,-622.112"/>
<polygon fill="black" stroke="black" points="530.5,-622.104 527,-612.104 523.5,-622.104 530.5,-622.104"/>
</g>
<!-- d5fd4e -->
<g id="node3" class="node"><title>d5fd4e</title>
<polygon fill="none" stroke="black" points="808.54,-765 521.46,-765 521.46,-729 808.54,-729 808.54,-765"/>
<text text-anchor="middle" x="665" y="-741.4" font-family="Times,serif" font-size="14.00">Buffer, First strand cDNA synthesis (Invitrogen)</text>
</g>
<!-- d5fd4e&#45;&#45;892zia -->
<g id="edge3" class="edge"><title>d5fd4e&#45;&#45;892zia</title>
<path fill="none" stroke="black" stroke-dasharray="5,2" d="M635.056,-728.858C613.876,-716.733 585.375,-700.417 562.961,-687.587"/>
<polygon fill="none" stroke="black" points="564.497,-684.433 554.079,-682.502 561.019,-690.508 564.497,-684.433"/>
</g>
<!-- 5gw90k -->
<g id="node5" class="node"><title>5gw90k</title>
<polygon fill="none" stroke="black" points="503.044,-765 276.956,-765 276.956,-729 503.044,-729 503.044,-765"/>
<text text-anchor="middle" x="390" y="-741.4" font-family="Times,serif" font-size="14.00">Reducing agent, Dithiothreitol (DTT)</text>
</g>
<!-- 5gw90k&#45;&#45;892zia -->
<g id="edge5" class="edge"><title>5gw90k&#45;&#45;892zia</title>
<path fill="none" stroke="black" stroke-dasharray="5,2" d="M419.727,-728.858C440.615,-716.813 468.676,-700.632 490.859,-687.84"/>
<polygon fill="none" stroke="black" points="492.745,-690.793 499.659,-682.766 489.248,-684.729 492.745,-690.793"/>
</g>
<!-- th2c9d -->
<g id="node7" class="node"><title>th2c9d</title>
<polygon fill="none" stroke="black" points="258.505,-765 87.4954,-765 87.4954,-729 258.505,-729 258.505,-765"/>
<text text-anchor="middle" x="173" y="-741.4" font-family="Times,serif" font-size="14.00">Water, nuclease&#45;free, sterile</text>
</g>
<!-- th2c9d&#45;&#45;892zia -->
<g id="edge7" class="edge"><title>th2c9d&#45;&#45;892zia</title>
<path fill="none" stroke="black" stroke-dasharray="5,2" d="M232.9,-728.968C244.51,-725.848 256.607,-722.722 268,-720 346.352,-701.283 439.011,-683.318 489.53,-673.872"/>
<polygon fill="none" stroke="black" points="490.459,-677.259 499.65,-671.988 489.178,-670.377 490.459,-677.259"/>
</g>
<!-- 4fsep6 -->
<g id="node9" class="node"><title>4fsep6</title>
<polygon fill="none" stroke="black" points="69.4921,-773.825 16.5079,-773.825 16.5079,-720.175 69.4921,-720.175 69.4921,-773.825"/>
<text text-anchor="middle" x="43" y="-741.4" font-family="Times,serif" font-size="14.00">4fsep6</text>
</g>
<!-- ahd90y -->
<g id="node10" class="node"><title>ahd90y</title>
<polygon fill="none" stroke="black" points="375.398,-1119.86 286.602,-1119.86 286.602,-1030.14 375.398,-1030.14 375.398,-1119.86"/>
<text text-anchor="middle" x="331" y="-1069.4" font-family="Times,serif" font-size="14.00">call_protocol</text>
</g>
<!-- kttj4d -->
<g id="node11" class="node"><title>kttj4d</title>
<polygon fill="none" stroke="black" points="895.155,-994 830.845,-994 830.845,-958 895.155,-958 895.155,-994"/>
<text text-anchor="middle" x="863" y="-970.4" font-family="Times,serif" font-size="14.00">combine</text>
</g>
<!-- ahd90y&#45;&#45;kttj4d -->
<g id="edge9" class="edge"><title>ahd90y&#45;&#45;kttj4d</title>
<path fill="none" stroke="black" d="M375.449,-1034.77C378.571,-1032.97 381.766,-1031.36 385,-1030 463.271,-997.178 718.693,-983.061 820.528,-978.64"/>
<polygon fill="black" stroke="black" points="820.906,-982.128 830.748,-978.207 820.609,-975.134 820.906,-982.128"/>
</g>
<!-- oy38e9 -->
<g id="node13" class="node"><title>oy38e9</title>
<polygon fill="none" stroke="black" points="890,-922 836,-922 836,-886 890,-886 890,-922"/>
<text text-anchor="middle" x="863" y="-898.4" font-family="Times,serif" font-size="14.00">heat</text>
</g>
<!-- kttj4d&#45;&#45;oy38e9 -->
<g id="edge11" class="edge"><title>kttj4d&#45;&#45;oy38e9</title>
<path fill="none" stroke="black" d="M863,-957.697C863,-949.983 863,-940.712 863,-932.112"/>
<polygon fill="black" stroke="black" points="866.5,-932.104 863,-922.104 859.5,-932.104 866.5,-932.104"/>
</g>
<!-- f4hds3 -->
<g id="node15" class="node"><title>f4hds3</title>
<polygon fill="none" stroke="black" points="890,-850 836,-850 836,-814 890,-814 890,-850"/>
<text text-anchor="middle" x="863" y="-826.4" font-family="Times,serif" font-size="14.00">chill</text>
</g>
<!-- oy38e9&#45;&#45;f4hds3 -->
<g id="edge13" class="edge"><title>oy38e9&#45;&#45;f4hds3</title>
<path fill="none" stroke="black" d="M863,-885.697C863,-877.983 863,-868.712 863,-860.112"/>
<polygon fill="black" stroke="black" points="866.5,-860.104 863,-850.104 859.5,-860.104 866.5,-860.104"/>
</g>
<!-- 9b92ym -->
<g id="node17" class="node"><title>9b92ym</title>
<polygon fill="none" stroke="black" points="899.06,-765 826.94,-765 826.94,-729 899.06,-729 899.06,-765"/>
<text text-anchor="middle" x="863" y="-741.4" font-family="Times,serif" font-size="14.00">centrifuge</text>
</g>
<!-- f4hds3&#45;&#45;9b92ym -->
<g id="edge15" class="edge"><title>f4hds3&#45;&#45;9b92ym</title>
<path fill="none" stroke="black" d="M863,-813.802C863,-802.674 863,-787.945 863,-775.244"/>
<polygon fill="black" stroke="black" points="866.5,-775.176 863,-765.176 859.5,-775.176 866.5,-775.176"/>
</g>
<!-- 9b92ym&#45;&#45;892zia -->
<g id="edge17" class="edge"><title>9b92ym&#45;&#45;892zia</title>
<path fill="none" stroke="black" d="M838.932,-728.976C833.259,-725.574 827.085,-722.335 821,-720 732.791,-686.159 621.254,-673.643 564.251,-669.238"/>
<polygon fill="black" stroke="black" points="564.489,-665.746 554.26,-668.507 563.978,-672.728 564.489,-665.746"/>
</g>
<!-- kbzqcb -->
<g id="node22" class="node"><title>kbzqcb</title>
<polygon fill="none" stroke="black" points="563.06,-540 490.94,-540 490.94,-504 563.06,-504 563.06,-540"/>
<text text-anchor="middle" x="527" y="-516.4" font-family="Times,serif" font-size="14.00">centrifuge</text>
</g>
<!-- pbud57&#45;&#45;kbzqcb -->
<g id="edge21" class="edge"><title>pbud57&#45;&#45;kbzqcb</title>
<path fill="none" stroke="black" d="M527,-575.697C527,-567.983 527,-558.712 527,-550.112"/>
<polygon fill="black" stroke="black" points="530.5,-550.104 527,-540.104 523.5,-550.104 530.5,-550.104"/>
</g>
<!-- j4json -->
<g id="node24" class="node"><title>j4json</title>
<polygon fill="none" stroke="black" points="558.565,-468 495.435,-468 495.435,-432 558.565,-432 558.565,-468"/>
<text text-anchor="middle" x="527" y="-444.4" font-family="Times,serif" font-size="14.00">incubate</text>
</g>
<!-- kbzqcb&#45;&#45;j4json -->
<g id="edge23" class="edge"><title>kbzqcb&#45;&#45;j4json</title>
<path fill="none" stroke="black" d="M527,-503.697C527,-495.983 527,-486.712 527,-478.112"/>
<polygon fill="black" stroke="black" points="530.5,-478.104 527,-468.104 523.5,-478.104 530.5,-478.104"/>
</g>
<!-- muwzdb -->
<g id="node26" class="node"><title>muwzdb</title>
<polygon fill="none" stroke="black" points="445,-396 391,-396 391,-360 445,-360 445,-396"/>
<text text-anchor="middle" x="418" y="-372.4" font-family="Times,serif" font-size="14.00">add</text>
</g>
<!-- j4json&#45;&#45;muwzdb -->
<g id="edge25" class="edge"><title>j4json&#45;&#45;muwzdb</title>
<path fill="none" stroke="black" d="M500.336,-431.876C486.216,-422.808 468.689,-411.552 453.439,-401.759"/>
<polygon fill="black" stroke="black" points="455.073,-398.648 444.767,-396.19 451.29,-404.538 455.073,-398.648"/>
</g>
<!-- aoymzg -->
<g id="node28" class="node"><title>aoymzg</title>
<polygon fill="none" stroke="black" points="445,-324 391,-324 391,-288 445,-288 445,-324"/>
<text text-anchor="middle" x="418" y="-300.4" font-family="Times,serif" font-size="14.00">mix</text>
</g>
<!-- muwzdb&#45;&#45;aoymzg -->
<g id="edge27" class="edge"><title>muwzdb&#45;&#45;aoymzg</title>
<path fill="none" stroke="black" d="M418,-359.697C418,-351.983 418,-342.712 418,-334.112"/>
<polygon fill="black" stroke="black" points="421.5,-334.104 418,-324.104 414.5,-334.104 421.5,-334.104"/>
</g>
<!-- thfavi -->
<g id="node30" class="node"><title>thfavi</title>
<polygon fill="none" stroke="black" points="454.06,-252 381.94,-252 381.94,-216 454.06,-216 454.06,-252"/>
<text text-anchor="middle" x="418" y="-228.4" font-family="Times,serif" font-size="14.00">centrifuge</text>
</g>
<!-- aoymzg&#45;&#45;thfavi -->
<g id="edge29" class="edge"><title>aoymzg&#45;&#45;thfavi</title>
<path fill="none" stroke="black" d="M418,-287.697C418,-279.983 418,-270.712 418,-262.112"/>
<polygon fill="black" stroke="black" points="421.5,-262.104 418,-252.104 414.5,-262.104 421.5,-262.104"/>
</g>
<!-- ya985z -->
<g id="node32" class="node"><title>ya985z</title>
<polygon fill="none" stroke="black" points="449.565,-180 386.435,-180 386.435,-144 449.565,-144 449.565,-180"/>
<text text-anchor="middle" x="418" y="-156.4" font-family="Times,serif" font-size="14.00">incubate</text>
</g>
<!-- thfavi&#45;&#45;ya985z -->
<g id="edge31" class="edge"><title>thfavi&#45;&#45;ya985z</title>
<path fill="none" stroke="black" d="M418,-215.697C418,-207.983 418,-198.712 418,-190.112"/>
<polygon fill="black" stroke="black" points="421.5,-190.104 418,-180.104 414.5,-190.104 421.5,-190.104"/>
</g>
<!-- bavsb0 -->
<g id="node34" class="node"><title>bavsb0</title>
<polygon fill="none" stroke="black" points="449.565,-108 386.435,-108 386.435,-72 449.565,-72 449.565,-108"/>
<text text-anchor="middle" x="418" y="-84.4" font-family="Times,serif" font-size="14.00">incubate</text>
</g>
<!-- ya985z&#45;&#45;bavsb0 -->
<g id="edge33" class="edge"><title>ya985z&#45;&#45;bavsb0</title>
<path fill="none" stroke="black" d="M418,-143.697C418,-135.983 418,-126.712 418,-118.112"/>
<polygon fill="black" stroke="black" points="421.5,-118.104 418,-108.104 414.5,-118.104 421.5,-118.104"/>
</g>
<!-- adrmwt -->
<g id="node36" class="node"><title>adrmwt</title>
<polygon fill="none" stroke="black" points="449.565,-36 386.435,-36 386.435,-0 449.565,-0 449.565,-36"/>
<text text-anchor="middle" x="418" y="-12.4" font-family="Times,serif" font-size="14.00">incubate</text>
</g>
<!-- bavsb0&#45;&#45;adrmwt -->
<g id="edge35" class="edge"><title>bavsb0&#45;&#45;adrmwt</title>
<path fill="none" stroke="black" d="M418,-71.6966C418,-63.9827 418,-54.7125 418,-46.1124"/>
<polygon fill="black" stroke="black" points="421.5,-46.1043 418,-36.1043 414.5,-46.1044 421.5,-46.1043"/>
</g>
<!-- f7zg5q -->
<g id="node38" class="node"><title>f7zg5q</title>
<polygon fill="none" stroke="black" points="423.443,-1192 238.557,-1192 238.557,-1156 423.443,-1156 423.443,-1192"/>
<text text-anchor="middle" x="331" y="-1168.4" font-family="Times,serif" font-size="14.00">Nucleic Acid, RNA, poly(A)+</text>
</g>
<!-- f7zg5q&#45;&#45;ahd90y -->
<g id="edge37" class="edge"><title>f7zg5q&#45;&#45;ahd90y</title>
<path fill="none" stroke="black" stroke-dasharray="5,2" d="M331,-1155.66C331,-1148.37 331,-1139.47 331,-1130.28"/>
<polygon fill="none" stroke="black" points="334.5,-1130.26 331,-1120.26 327.5,-1130.26 334.5,-1130.26"/>
</g>
<!-- 0tisce -->
<g id="node40" class="node"><title>0tisce</title>
<polygon fill="none" stroke="black" points="741.398,-1093 394.602,-1093 394.602,-1057 741.398,-1057 741.398,-1093"/>
<text text-anchor="middle" x="568" y="-1069.4" font-family="Times,serif" font-size="14.00">Nucleic Acid, Primer, Oligo(dT)12&#45;18 primers (Invitrogen)</text>
</g>
<!-- 0tisce&#45;&#45;kttj4d -->
<g id="edge39" class="edge"><title>0tisce&#45;&#45;kttj4d</title>
<path fill="none" stroke="black" stroke-dasharray="5,2" d="M619.723,-1056.99C677.006,-1038.16 768.243,-1008.16 821.196,-990.746"/>
<polygon fill="none" stroke="black" points="822.532,-993.991 830.938,-987.542 820.345,-987.341 822.532,-993.991"/>
</g>
<!-- qr1vjs -->
<g id="node42" class="node"><title>qr1vjs</title>
<polygon fill="none" stroke="black" points="965.889,-1093 760.111,-1093 760.111,-1057 965.889,-1057 965.889,-1093"/>
<text text-anchor="middle" x="863" y="-1069.4" font-family="Times,serif" font-size="14.00">Nucleic Acid, dNTPs (Invitrogen)</text>
</g>
<!-- qr1vjs&#45;&#45;kttj4d -->
<g id="edge41" class="edge"><title>qr1vjs&#45;&#45;kttj4d</title>
<path fill="none" stroke="black" stroke-dasharray="5,2" d="M863,-1056.66C863,-1042.18 863,-1021.26 863,-1004.5"/>
<polygon fill="none" stroke="black" points="866.5,-1004.19 863,-994.192 859.5,-1004.19 866.5,-1004.19"/>
</g>
<!-- f5fe2d -->
<g id="node44" class="node"><title>f5fe2d</title>
<polygon fill="none" stroke="black" points="1169.44,-1093 984.557,-1093 984.557,-1057 1169.44,-1057 1169.44,-1093"/>
<text text-anchor="middle" x="1077" y="-1069.4" font-family="Times,serif" font-size="14.00">Nucleic Acid, RNA, poly(A)+</text>
</g>
<!-- f5fe2d&#45;&#45;kttj4d -->
<g id="edge43" class="edge"><title>f5fe2d&#45;&#45;kttj4d</title>
<path fill="none" stroke="black" stroke-dasharray="5,2" d="M1039.23,-1056.88C1001.51,-1039.78 943.677,-1013.57 904.645,-995.877"/>
<polygon fill="none" stroke="black" points="905.704,-992.514 895.151,-991.573 902.814,-998.889 905.704,-992.514"/>
</g>
<!-- ddnuty -->
<g id="node46" class="node"><title>ddnuty</title>
<polygon fill="none" stroke="black" points="1358.5,-1093 1187.5,-1093 1187.5,-1057 1358.5,-1057 1358.5,-1093"/>
<text text-anchor="middle" x="1273" y="-1069.4" font-family="Times,serif" font-size="14.00">Water, nuclease&#45;free, sterile</text>
</g>
<!-- ddnuty&#45;&#45;kttj4d -->
<g id="edge45" class="edge"><title>ddnuty&#45;&#45;kttj4d</title>
<path fill="none" stroke="black" stroke-dasharray="5,2" d="M1241.74,-1056.94C1223.6,-1047.71 1200.05,-1036.83 1178,-1030 1083.1,-1000.62 966.773,-986.407 905.473,-980.519"/>
<polygon fill="none" stroke="black" points="905.684,-977.024 895.402,-979.58 905.033,-983.994 905.684,-977.024"/>
</g>
<!-- w3v4gn -->
<g id="node48" class="node"><title>w3v4gn</title>
<polygon fill="none" stroke="black" points="477.323,-468 140.677,-468 140.677,-432 477.323,-432 477.323,-468"/>
<text text-anchor="middle" x="309" y="-444.4" font-family="Times,serif" font-size="14.00">Enzyme, SuperScript II reverse transcriptase (Invitrogen)</text>
</g>
<!-- w3v4gn&#45;&#45;muwzdb -->
<g id="edge47" class="edge"><title>w3v4gn&#45;&#45;muwzdb</title>
<path fill="none" stroke="black" stroke-dasharray="5,2" d="M335.664,-431.876C349.784,-422.808 367.311,-411.552 382.561,-401.759"/>
<polygon fill="none" stroke="black" points="384.71,-404.538 391.233,-396.19 380.927,-398.648 384.71,-404.538"/>
</g>
</g>
</svg>
