<?xml version="1.0" encoding="UTF-8" standalone="no"?>
<!DOCTYPE svg PUBLIC "-//W3C//DTD SVG 1.1//EN"
 "http://www.w3.org/Graphics/SVG/1.1/DTD/svg11.dtd">
<!-- Generated by graphviz version 2.28.0 (20121217.1915)
 -->
<!-- Title: name Pages: 1 -->
<svg width="1940pt" height="801pt"
 viewBox="0.00 0.00 1940.00 801.00" xmlns="http://www.w3.org/2000/svg" xmlns:xlink="http://www.w3.org/1999/xlink">
<g id="graph1" class="graph" transform="scale(1 1) rotate(0) translate(4 797)">
<title>name</title>
<polygon fill="white" stroke="white" points="-4,5 -4,-797 1937,-797 1937,5 -4,5"/>
<g id="graph3" class="cluster"><title>cluster_django_contrib_sessions_models</title>
<polyline fill="none" stroke="#698b22" points="12,-634 151,-634 "/>
<path fill="none" stroke="#698b22" d="M151,-634C157,-634 163,-640 163,-646"/>
<polyline fill="none" stroke="#698b22" points="163,-646 163,-729 "/>
<path fill="none" stroke="#698b22" d="M163,-729C163,-735 157,-741 151,-741"/>
<polyline fill="none" stroke="#698b22" points="151,-741 12,-741 "/>
<path fill="none" stroke="#698b22" d="M12,-741C6,-741 0,-735 0,-729"/>
<polyline fill="none" stroke="#698b22" points="0,-729 0,-646 "/>
<path fill="none" stroke="#698b22" d="M0,-646C0,-640 6,-634 12,-634"/>
<text text-anchor="start" x="13" y="-721" font-family="Helvetica Bold" font-size="12.00">django.contrib.sessions</text>
</g>
<g id="graph5" class="cluster"><title>cluster_protocols_models</title>
<polyline fill="none" stroke="#698b22" points="377,-588 753,-588 "/>
<path fill="none" stroke="#698b22" d="M753,-588C759,-588 765,-594 765,-600"/>
<polyline fill="none" stroke="#698b22" points="765,-600 765,-775 "/>
<path fill="none" stroke="#698b22" d="M765,-775C765,-781 759,-787 753,-787"/>
<polyline fill="none" stroke="#698b22" points="753,-787 377,-787 "/>
<path fill="none" stroke="#698b22" d="M377,-787C371,-787 365,-781 365,-775"/>
<polyline fill="none" stroke="#698b22" points="365,-775 365,-600 "/>
<path fill="none" stroke="#698b22" d="M365,-600C365,-594 371,-588 377,-588"/>
<text text-anchor="start" x="538.5" y="-767" font-family="Helvetica Bold" font-size="12.00">protocols</text>
</g>
<g id="graph6" class="cluster"><title>cluster_profiles_models</title>
<polyline fill="none" stroke="#698b22" points="183,-582 345,-582 "/>
<path fill="none" stroke="#698b22" d="M345,-582C351,-582 357,-588 357,-594"/>
<polyline fill="none" stroke="#698b22" points="357,-594 357,-781 "/>
<path fill="none" stroke="#698b22" d="M357,-781C357,-787 351,-793 345,-793"/>
<polyline fill="none" stroke="#698b22" points="345,-793 183,-793 "/>
<path fill="none" stroke="#698b22" d="M183,-793C177,-793 171,-787 171,-781"/>
<polyline fill="none" stroke="#698b22" points="171,-781 171,-594 "/>
<path fill="none" stroke="#698b22" d="M171,-594C171,-588 177,-582 183,-582"/>
<text text-anchor="start" x="243" y="-773" font-family="Helvetica Bold" font-size="12.00">profiles</text>
</g>
<g id="graph7" class="cluster"><title>cluster_interest_models</title>
<polyline fill="none" stroke="#698b22" points="1611,-624 1773,-624 "/>
<path fill="none" stroke="#698b22" d="M1773,-624C1779,-624 1785,-630 1785,-636"/>
<polyline fill="none" stroke="#698b22" points="1785,-636 1785,-739 "/>
<path fill="none" stroke="#698b22" d="M1785,-739C1785,-745 1779,-751 1773,-751"/>
<polyline fill="none" stroke="#698b22" points="1773,-751 1611,-751 "/>
<path fill="none" stroke="#698b22" d="M1611,-751C1605,-751 1599,-745 1599,-739"/>
<polyline fill="none" stroke="#698b22" points="1599,-739 1599,-636 "/>
<path fill="none" stroke="#698b22" d="M1599,-636C1599,-630 1605,-624 1611,-624"/>
<text text-anchor="start" x="1671" y="-731" font-family="Helvetica Bold" font-size="12.00">interest</text>
</g>
<g id="graph9" class="cluster"><title>cluster_compare_models</title>
<polyline fill="none" stroke="#698b22" points="1513,-647 1579,-647 "/>
<path fill="none" stroke="#698b22" d="M1579,-647C1585,-647 1591,-653 1591,-659"/>
<polyline fill="none" stroke="#698b22" points="1591,-659 1591,-716 "/>
<path fill="none" stroke="#698b22" d="M1591,-716C1591,-722 1585,-728 1579,-728"/>
<polyline fill="none" stroke="#698b22" points="1579,-728 1513,-728 "/>
<path fill="none" stroke="#698b22" d="M1513,-728C1507,-728 1501,-722 1501,-716"/>
<polyline fill="none" stroke="#698b22" points="1501,-716 1501,-659 "/>
<path fill="none" stroke="#698b22" d="M1501,-659C1501,-653 1507,-647 1513,-647"/>
<text text-anchor="start" x="1521.5" y="-708" font-family="Helvetica Bold" font-size="12.00">compare</text>
</g>
<g id="graph10" class="cluster"><title>cluster_organization_models</title>
<polyline fill="none" stroke="#698b22" points="925,-383 1269,-383 "/>
<path fill="none" stroke="#698b22" d="M1269,-383C1275,-383 1281,-389 1281,-395"/>
<polyline fill="none" stroke="#698b22" points="1281,-395 1281,-739 "/>
<path fill="none" stroke="#698b22" d="M1281,-739C1281,-745 1275,-751 1269,-751"/>
<polyline fill="none" stroke="#698b22" points="1269,-751 925,-751 "/>
<path fill="none" stroke="#698b22" d="M925,-751C919,-751 913,-745 913,-739"/>
<polyline fill="none" stroke="#698b22" points="913,-739 913,-395 "/>
<path fill="none" stroke="#698b22" d="M913,-395C913,-389 919,-383 925,-383"/>
<text text-anchor="start" x="1062" y="-731" font-family="Helvetica Bold" font-size="12.00">organization</text>
</g>
<g id="graph11" class="cluster"><title>cluster_django_contrib_admin_models</title>
<polyline fill="none" stroke="#698b22" points="1301,-616 1481,-616 "/>
<path fill="none" stroke="#698b22" d="M1481,-616C1487,-616 1493,-622 1493,-628"/>
<polyline fill="none" stroke="#698b22" points="1493,-628 1493,-747 "/>
<path fill="none" stroke="#698b22" d="M1493,-747C1493,-753 1487,-759 1481,-759"/>
<polyline fill="none" stroke="#698b22" points="1481,-759 1301,-759 "/>
<path fill="none" stroke="#698b22" d="M1301,-759C1295,-759 1289,-753 1289,-747"/>
<polyline fill="none" stroke="#698b22" points="1289,-747 1289,-628 "/>
<path fill="none" stroke="#698b22" d="M1289,-628C1289,-622 1295,-616 1301,-616"/>
<text text-anchor="start" x="1331" y="-739" font-family="Helvetica Bold" font-size="12.00">django.contrib.admin</text>
</g>
<g id="graph12" class="cluster"><title>cluster_django_contrib_sites_models</title>
<polyline fill="none" stroke="#698b22" points="1805,-634 1920,-634 "/>
<path fill="none" stroke="#698b22" d="M1920,-634C1926,-634 1932,-640 1932,-646"/>
<polyline fill="none" stroke="#698b22" points="1932,-646 1932,-729 "/>
<path fill="none" stroke="#698b22" d="M1932,-729C1932,-735 1926,-741 1920,-741"/>
<polyline fill="none" stroke="#698b22" points="1920,-741 1805,-741 "/>
<path fill="none" stroke="#698b22" d="M1805,-741C1799,-741 1793,-735 1793,-729"/>
<polyline fill="none" stroke="#698b22" points="1793,-729 1793,-646 "/>
<path fill="none" stroke="#698b22" d="M1793,-646C1793,-640 1799,-634 1805,-634"/>
<text text-anchor="start" x="1806" y="-721" font-family="Helvetica Bold" font-size="12.00">django.contrib.sites</text>
</g>
<g id="graph13" class="cluster"><title>cluster_registration_models</title>
<polyline fill="none" stroke="#698b22" points="785,-640 893,-640 "/>
<path fill="none" stroke="#698b22" d="M893,-640C899,-640 905,-646 905,-652"/>
<polyline fill="none" stroke="#698b22" points="905,-652 905,-723 "/>
<path fill="none" stroke="#698b22" d="M905,-723C905,-729 899,-735 893,-735"/>
<polyline fill="none" stroke="#698b22" points="893,-735 785,-735 "/>
<path fill="none" stroke="#698b22" d="M785,-735C779,-735 773,-729 773,-723"/>
<polyline fill="none" stroke="#698b22" points="773,-723 773,-652 "/>
<path fill="none" stroke="#698b22" d="M773,-652C773,-646 779,-640 785,-640"/>
<text text-anchor="start" x="806.5" y="-715" font-family="Helvetica Bold" font-size="12.00">registration</text>
</g>
<g id="graph16" class="cluster"><title>cluster_django_contrib_auth_models</title>
<polyline fill="none" stroke="#698b22" points="698,-147 893,-147 "/>
<path fill="none" stroke="#698b22" d="M893,-147C899,-147 905,-153 905,-159"/>
<polyline fill="none" stroke="#698b22" points="905,-159 905,-542 "/>
<path fill="none" stroke="#698b22" d="M905,-542C905,-548 899,-554 893,-554"/>
<polyline fill="none" stroke="#698b22" points="893,-554 698,-554 "/>
<path fill="none" stroke="#698b22" d="M698,-554C692,-554 686,-548 686,-542"/>
<polyline fill="none" stroke="#698b22" points="686,-542 686,-159 "/>
<path fill="none" stroke="#698b22" d="M686,-159C686,-153 692,-147 698,-147"/>
<text text-anchor="start" x="740.5" y="-534" font-family="Helvetica Bold" font-size="12.00">django.contrib.auth</text>
</g>
<g id="graph17" class="cluster"><title>cluster_django_contrib_contenttypes_models</title>
<polyline fill="none" stroke="#698b22" points="1165,-0 1328,-0 "/>
<path fill="none" stroke="#698b22" d="M1328,-0C1334,-0 1340,-6 1340,-12"/>
<polyline fill="none" stroke="#698b22" points="1340,-12 1340,-107 "/>
<path fill="none" stroke="#698b22" d="M1340,-107C1340,-113 1334,-119 1328,-119"/>
<polyline fill="none" stroke="#698b22" points="1328,-119 1165,-119 "/>
<path fill="none" stroke="#698b22" d="M1165,-119C1159,-119 1153,-113 1153,-107"/>
<polyline fill="none" stroke="#698b22" points="1153,-107 1153,-12 "/>
<path fill="none" stroke="#698b22" d="M1153,-12C1153,-6 1159,-0 1165,-0"/>
<text text-anchor="start" x="1166.5" y="-99" font-family="Helvetica Bold" font-size="12.00">django.contrib.contenttypes</text>
</g>
<!-- django_contrib_sessions_models_Session -->
<g id="node3" class="node"><title>django_contrib_sessions_models_Session</title>
<polygon fill="palegoldenrod" stroke="palegoldenrod" points="24.5,-646.5 24.5,-699.5 137.5,-699.5 137.5,-646.5 24.5,-646.5"/>
<polygon fill="#698b22" stroke="#698b22" points="25,-682 25,-699 138,-699 138,-682 25,-682"/>
<text text-anchor="start" x="66.5" y="-687.5" font-family="Helvetica Bold" font-size="8.00" fill="white">Session</text>
<text text-anchor="start" x="27" y="-673" font-family="Helvetica Bold" font-size="8.00">session_key</text>
<text text-anchor="start" x="82" y="-673" font-family="Helvetica Bold" font-size="8.00">CharField</text>
<text text-anchor="start" x="27" y="-661" font-family="Helvetica Bold" font-size="8.00">session_data</text>
<text text-anchor="start" x="82" y="-661" font-family="Helvetica Bold" font-size="8.00">TextField</text>
<text text-anchor="start" x="27" y="-649" font-family="Helvetica Bold" font-size="8.00">expire_date</text>
<text text-anchor="start" x="82" y="-649" font-family="Helvetica Bold" font-size="8.00">DateTimeField</text>
</g>
<!-- protocols_models_Protocol -->
<g id="node6" class="node"><title>protocols_models_Protocol</title>
<polygon fill="palegoldenrod" stroke="palegoldenrod" points="481,-600.5 481,-745.5 673,-745.5 673,-600.5 481,-600.5"/>
<polygon fill="#698b22" stroke="#698b22" points="481,-720 481,-745 673,-745 673,-720 481,-720"/>
<text text-anchor="start" x="561" y="-733.5" font-family="Helvetica Bold" font-size="8.00" fill="white">Protocol</text>
<text text-anchor="start" x="535" y="-725.5" font-family="Helvetica Bold" font-size="8.00" fill="white">&lt;</text>
<text text-anchor="start" x="539.672" y="-725.5" font-family="Helvetica Italic" font-size="8.00" fill="white">TimeStampedModel</text>
<text text-anchor="start" x="616.293" y="-725.5" font-family="Helvetica Bold" font-size="8.00" fill="white">&gt;</text>
<text text-anchor="start" x="483" y="-711" font-family="Helvetica Bold" font-size="8.00" fill="#7b7b7b">id</text>
<text text-anchor="start" x="568" y="-711" font-family="Helvetica Bold" font-size="8.00" fill="#7b7b7b">AutoField</text>
<text text-anchor="start" x="483" y="-699" font-family="Helvetica Italic" font-size="8.00" fill="#7b7b7b">created</text>
<text text-anchor="start" x="568" y="-699" font-family="Helvetica Italic" font-size="8.00" fill="#7b7b7b">CreationDateTimeField</text>
<text text-anchor="start" x="483" y="-687" font-family="Helvetica Italic" font-size="8.00" fill="#7b7b7b">modified</text>
<text text-anchor="start" x="568" y="-687" font-family="Helvetica Italic" font-size="8.00" fill="#7b7b7b">ModificationDateTimeField</text>
<text text-anchor="start" x="483" y="-675" font-family="Helvetica Bold" font-size="8.00">name</text>
<text text-anchor="start" x="568" y="-675" font-family="Helvetica Bold" font-size="8.00">CharField</text>
<text text-anchor="start" x="483" y="-663" font-family="Helvetica Bold" font-size="8.00" fill="#7b7b7b">slug</text>
<text text-anchor="start" x="568" y="-663" font-family="Helvetica Bold" font-size="8.00" fill="#7b7b7b">SlugField</text>
<text text-anchor="start" x="483" y="-651" font-family="Helvetica Bold" font-size="8.00" fill="#7b7b7b">duration_in_seconds</text>
<text text-anchor="start" x="568" y="-651" font-family="Helvetica Bold" font-size="8.00" fill="#7b7b7b">IntegerField</text>
<text text-anchor="start" x="483" y="-639" font-family="Helvetica Bold" font-size="8.00" fill="#7b7b7b">raw</text>
<text text-anchor="start" x="568" y="-639" font-family="Helvetica Bold" font-size="8.00" fill="#7b7b7b">TextField</text>
<text text-anchor="start" x="483" y="-627" font-family="Helvetica Bold" font-size="8.00" fill="#7b7b7b">data</text>
<text text-anchor="start" x="568" y="-627" font-family="Helvetica Bold" font-size="8.00" fill="#7b7b7b">JSONField</text>
<text text-anchor="start" x="483" y="-615" font-family="Helvetica Bold" font-size="8.00" fill="#7b7b7b">description</text>
<text text-anchor="start" x="568" y="-615" font-family="Helvetica Bold" font-size="8.00" fill="#7b7b7b">TextField</text>
<text text-anchor="start" x="483" y="-603" font-family="Helvetica Bold" font-size="8.00" fill="#7b7b7b">note</text>
<text text-anchor="start" x="568" y="-603" font-family="Helvetica Bold" font-size="8.00" fill="#7b7b7b">TextField</text>
</g>
<!-- protocols_models_Protocol&#45;&gt;protocols_models_Protocol -->
<g id="edge6" class="edge"><title>protocols_models_Protocol&#45;&gt;protocols_models_Protocol</title>
<path fill="none" stroke="black" d="M681.13,-689.47C692.02,-686.25 699,-680.76 699,-673 699,-665.24 692.02,-659.75 681.13,-656.53"/>
<text text-anchor="middle" x="728.35" y="-669.8" font-family="Helvetica,sans-Serif" font-size="8.00">parent (protocol)</text>
</g>
<!-- django_contrib_auth_models_User -->
<g id="node33" class="node"><title>django_contrib_auth_models_User</title>
<polygon fill="palegoldenrod" stroke="palegoldenrod" points="759,-363.5 759,-512.5 871,-512.5 871,-363.5 759,-363.5"/>
<polygon fill="#698b22" stroke="#698b22" points="759,-495 759,-512 871,-512 871,-495 759,-495"/>
<text text-anchor="start" x="806.5" y="-500.5" font-family="Helvetica Bold" font-size="8.00" fill="white">User</text>
<text text-anchor="start" x="761" y="-486" font-family="Helvetica Bold" font-size="8.00" fill="#7b7b7b">id</text>
<text text-anchor="start" x="815" y="-486" font-family="Helvetica Bold" font-size="8.00" fill="#7b7b7b">AutoField</text>
<text text-anchor="start" x="761" y="-474" font-family="Helvetica Bold" font-size="8.00">username</text>
<text text-anchor="start" x="815" y="-474" font-family="Helvetica Bold" font-size="8.00">CharField</text>
<text text-anchor="start" x="761" y="-462" font-family="Helvetica Bold" font-size="8.00" fill="#7b7b7b">first_name</text>
<text text-anchor="start" x="815" y="-462" font-family="Helvetica Bold" font-size="8.00" fill="#7b7b7b">CharField</text>
<text text-anchor="start" x="761" y="-450" font-family="Helvetica Bold" font-size="8.00" fill="#7b7b7b">last_name</text>
<text text-anchor="start" x="815" y="-450" font-family="Helvetica Bold" font-size="8.00" fill="#7b7b7b">CharField</text>
<text text-anchor="start" x="761" y="-438" font-family="Helvetica Bold" font-size="8.00" fill="#7b7b7b">email</text>
<text text-anchor="start" x="815" y="-438" font-family="Helvetica Bold" font-size="8.00" fill="#7b7b7b">EmailField</text>
<text text-anchor="start" x="761" y="-426" font-family="Helvetica Bold" font-size="8.00">password</text>
<text text-anchor="start" x="815" y="-426" font-family="Helvetica Bold" font-size="8.00">CharField</text>
<text text-anchor="start" x="761" y="-414" font-family="Helvetica Bold" font-size="8.00" fill="#7b7b7b">is_staff</text>
<text text-anchor="start" x="815" y="-414" font-family="Helvetica Bold" font-size="8.00" fill="#7b7b7b">BooleanField</text>
<text text-anchor="start" x="761" y="-402" font-family="Helvetica Bold" font-size="8.00" fill="#7b7b7b">is_active</text>
<text text-anchor="start" x="815" y="-402" font-family="Helvetica Bold" font-size="8.00" fill="#7b7b7b">BooleanField</text>
<text text-anchor="start" x="761" y="-390" font-family="Helvetica Bold" font-size="8.00" fill="#7b7b7b">is_superuser</text>
<text text-anchor="start" x="815" y="-390" font-family="Helvetica Bold" font-size="8.00" fill="#7b7b7b">BooleanField</text>
<text text-anchor="start" x="761" y="-378" font-family="Helvetica Bold" font-size="8.00">last_login</text>
<text text-anchor="start" x="815" y="-378" font-family="Helvetica Bold" font-size="8.00">DateTimeField</text>
<text text-anchor="start" x="761" y="-366" font-family="Helvetica Bold" font-size="8.00">date_joined</text>
<text text-anchor="start" x="815" y="-366" font-family="Helvetica Bold" font-size="8.00">DateTimeField</text>
</g>
<!-- protocols_models_Protocol&#45;&gt;django_contrib_auth_models_User -->
<g id="edge39" class="edge"><title>protocols_models_Protocol&#45;&gt;django_contrib_auth_models_User</title>
<path fill="none" stroke="black" d="M654.27,-596.35C685.49,-565.79 721.1,-530.93 750.85,-501.81"/>
<text text-anchor="middle" x="717.9" y="-563.8" font-family="Helvetica,sans-Serif" font-size="8.00">owner (protocol)</text>
</g>
<!-- protocols_models_ProtocolIngest -->
<g id="node8" class="node"><title>protocols_models_ProtocolIngest</title>
<polygon fill="palegoldenrod" stroke="palegoldenrod" points="381.5,-664.5 381.5,-681.5 446.5,-681.5 446.5,-664.5 381.5,-664.5"/>
<polygon fill="#698b22" stroke="#698b22" points="382,-664 382,-681 447,-681 447,-664 382,-664"/>
<text text-anchor="start" x="386.5" y="-669.5" font-family="Helvetica Bold" font-size="8.00" fill="white">ProtocolIngest</text>
</g>
<!-- profiles_models_Profile -->
<g id="node10" class="node"><title>profiles_models_Profile</title>
<polygon fill="palegoldenrod" stroke="palegoldenrod" points="187,-594.5 187,-751.5 341,-751.5 341,-594.5 187,-594.5"/>
<polygon fill="#698b22" stroke="#698b22" points="187,-726 187,-751 341,-751 341,-726 187,-726"/>
<text text-anchor="start" x="252" y="-739.5" font-family="Helvetica Bold" font-size="8.00" fill="white">Profile</text>
<text text-anchor="start" x="222" y="-731.5" font-family="Helvetica Bold" font-size="8.00" fill="white">&lt;</text>
<text text-anchor="start" x="226.672" y="-731.5" font-family="Helvetica Italic" font-size="8.00" fill="white">TimeStampedModel</text>
<text text-anchor="start" x="303.293" y="-731.5" font-family="Helvetica Bold" font-size="8.00" fill="white">&gt;</text>
<text text-anchor="start" x="189" y="-717" font-family="Helvetica Bold" font-size="8.00" fill="#7b7b7b">id</text>
<text text-anchor="start" x="236" y="-717" font-family="Helvetica Bold" font-size="8.00" fill="#7b7b7b">AutoField</text>
<text text-anchor="start" x="189" y="-705" font-family="Helvetica Italic" font-size="8.00" fill="#7b7b7b">created</text>
<text text-anchor="start" x="236" y="-705" font-family="Helvetica Italic" font-size="8.00" fill="#7b7b7b">CreationDateTimeField</text>
<text text-anchor="start" x="189" y="-693" font-family="Helvetica Italic" font-size="8.00" fill="#7b7b7b">modified</text>
<text text-anchor="start" x="236" y="-693" font-family="Helvetica Italic" font-size="8.00" fill="#7b7b7b">ModificationDateTimeField</text>
<text text-anchor="start" x="189" y="-681" font-family="Helvetica Bold" font-size="8.00" fill="#7b7b7b">first_name</text>
<text text-anchor="start" x="236" y="-681" font-family="Helvetica Bold" font-size="8.00" fill="#7b7b7b">CharField</text>
<text text-anchor="start" x="189" y="-669" font-family="Helvetica Bold" font-size="8.00" fill="#7b7b7b">last_name</text>
<text text-anchor="start" x="236" y="-669" font-family="Helvetica Bold" font-size="8.00" fill="#7b7b7b">CharField</text>
<text text-anchor="start" x="189" y="-657" font-family="Helvetica Bold" font-size="8.00" fill="#7b7b7b">mobile</text>
<text text-anchor="start" x="236" y="-657" font-family="Helvetica Bold" font-size="8.00" fill="#7b7b7b">CharField</text>
<text text-anchor="start" x="189" y="-645" font-family="Helvetica Bold" font-size="8.00" fill="#7b7b7b">address_1</text>
<text text-anchor="start" x="236" y="-645" font-family="Helvetica Bold" font-size="8.00" fill="#7b7b7b">CharField</text>
<text text-anchor="start" x="189" y="-633" font-family="Helvetica Bold" font-size="8.00" fill="#7b7b7b">address_2</text>
<text text-anchor="start" x="236" y="-633" font-family="Helvetica Bold" font-size="8.00" fill="#7b7b7b">CharField</text>
<text text-anchor="start" x="189" y="-621" font-family="Helvetica Bold" font-size="8.00" fill="#7b7b7b">city</text>
<text text-anchor="start" x="236" y="-621" font-family="Helvetica Bold" font-size="8.00" fill="#7b7b7b">CharField</text>
<text text-anchor="start" x="189" y="-609" font-family="Helvetica Bold" font-size="8.00" fill="#7b7b7b">state</text>
<text text-anchor="start" x="236" y="-609" font-family="Helvetica Bold" font-size="8.00" fill="#7b7b7b">USStateField</text>
<text text-anchor="start" x="189" y="-597" font-family="Helvetica Bold" font-size="8.00" fill="#7b7b7b">zip_code</text>
<text text-anchor="start" x="236" y="-597" font-family="Helvetica Bold" font-size="8.00" fill="#7b7b7b">CharField</text>
</g>
<!-- profiles_models_Profile&#45;&gt;django_contrib_auth_models_User -->
<g id="edge37" class="edge"><title>profiles_models_Profile&#45;&gt;django_contrib_auth_models_User</title>
<path fill="none" stroke="black" d="M347.73,-590.45C352.1,-587.43 356.53,-584.6 361,-582 488.7,-507.76 659.42,-467.48 750.81,-449.93"/>
<text text-anchor="middle" x="417.45" y="-563.8" font-family="Helvetica,sans-Serif" font-size="8.00">user (profile)</text>
</g>
<!-- interest_models_Interest -->
<g id="node12" class="node"><title>interest_models_Interest</title>
<polygon fill="palegoldenrod" stroke="palegoldenrod" points="1615,-636.5 1615,-709.5 1769,-709.5 1769,-636.5 1615,-636.5"/>
<polygon fill="#698b22" stroke="#698b22" points="1615,-684 1615,-709 1769,-709 1769,-684 1615,-684"/>
<text text-anchor="start" x="1678" y="-697.5" font-family="Helvetica Bold" font-size="8.00" fill="white">Interest</text>
<text text-anchor="start" x="1650" y="-689.5" font-family="Helvetica Bold" font-size="8.00" fill="white">&lt;</text>
<text text-anchor="start" x="1654.67" y="-689.5" font-family="Helvetica Italic" font-size="8.00" fill="white">TimeStampedModel</text>
<text text-anchor="start" x="1731.29" y="-689.5" font-family="Helvetica Bold" font-size="8.00" fill="white">&gt;</text>
<text text-anchor="start" x="1617" y="-675" font-family="Helvetica Bold" font-size="8.00" fill="#7b7b7b">id</text>
<text text-anchor="start" x="1664" y="-675" font-family="Helvetica Bold" font-size="8.00" fill="#7b7b7b">AutoField</text>
<text text-anchor="start" x="1617" y="-663" font-family="Helvetica Italic" font-size="8.00" fill="#7b7b7b">created</text>
<text text-anchor="start" x="1664" y="-663" font-family="Helvetica Italic" font-size="8.00" fill="#7b7b7b">CreationDateTimeField</text>
<text text-anchor="start" x="1617" y="-651" font-family="Helvetica Italic" font-size="8.00" fill="#7b7b7b">modified</text>
<text text-anchor="start" x="1664" y="-651" font-family="Helvetica Italic" font-size="8.00" fill="#7b7b7b">ModificationDateTimeField</text>
<text text-anchor="start" x="1617" y="-639" font-family="Helvetica Bold" font-size="8.00">email</text>
<text text-anchor="start" x="1664" y="-639" font-family="Helvetica Bold" font-size="8.00">EmailField</text>
</g>
<!-- compare_models_ProtocolPlot -->
<g id="node15" class="node"><title>compare_models_ProtocolPlot</title>
<polygon fill="palegoldenrod" stroke="palegoldenrod" points="1517.5,-664.5 1517.5,-681.5 1574.5,-681.5 1574.5,-664.5 1517.5,-664.5"/>
<polygon fill="#698b22" stroke="#698b22" points="1518,-664 1518,-681 1575,-681 1575,-664 1518,-664"/>
<text text-anchor="start" x="1523" y="-669.5" font-family="Helvetica Bold" font-size="8.00" fill="white">ProtocolPlot</text>
</g>
<!-- django_extensions_db_models_TimeStampedModel -->
<g id="node17" class="node"><title>django_extensions_db_models_TimeStampedModel</title>
<polygon fill="palegoldenrod" stroke="palegoldenrod" points="1117,-652.5 1117,-693.5 1265,-693.5 1265,-652.5 1117,-652.5"/>
<polygon fill="#698b22" stroke="#698b22" points="1117,-676 1117,-693 1265,-693 1265,-676 1117,-676"/>
<text text-anchor="start" x="1153.5" y="-681.5" font-family="Helvetica Bold" font-size="8.00" fill="white">TimeStampedModel</text>
<text text-anchor="start" x="1119" y="-667" font-family="Helvetica Bold" font-size="8.00" fill="#7b7b7b">created</text>
<text text-anchor="start" x="1162" y="-667" font-family="Helvetica Bold" font-size="8.00" fill="#7b7b7b">CreationDateTimeField</text>
<text text-anchor="start" x="1119" y="-655" font-family="Helvetica Bold" font-size="8.00" fill="#7b7b7b">modified</text>
<text text-anchor="start" x="1162" y="-655" font-family="Helvetica Bold" font-size="8.00" fill="#7b7b7b">ModificationDateTimeField</text>
</g>
<!-- organization_models_Organization -->
<g id="node18" class="node"><title>organization_models_Organization</title>
<polygon fill="palegoldenrod" stroke="palegoldenrod" points="935,-395.5 935,-480.5 1089,-480.5 1089,-395.5 935,-395.5"/>
<polygon fill="#698b22" stroke="#698b22" points="935,-455 935,-480 1089,-480 1089,-455 935,-455"/>
<text text-anchor="start" x="988" y="-468.5" font-family="Helvetica Bold" font-size="8.00" fill="white">Organization</text>
<text text-anchor="start" x="970" y="-460.5" font-family="Helvetica Bold" font-size="8.00" fill="white">&lt;</text>
<text text-anchor="start" x="974.672" y="-460.5" font-family="Helvetica Italic" font-size="8.00" fill="white">TimeStampedModel</text>
<text text-anchor="start" x="1051.29" y="-460.5" font-family="Helvetica Bold" font-size="8.00" fill="white">&gt;</text>
<text text-anchor="start" x="937" y="-446" font-family="Helvetica Bold" font-size="8.00" fill="#7b7b7b">id</text>
<text text-anchor="start" x="984" y="-446" font-family="Helvetica Bold" font-size="8.00" fill="#7b7b7b">AutoField</text>
<text text-anchor="start" x="937" y="-434" font-family="Helvetica Italic" font-size="8.00" fill="#7b7b7b">created</text>
<text text-anchor="start" x="984" y="-434" font-family="Helvetica Italic" font-size="8.00" fill="#7b7b7b">CreationDateTimeField</text>
<text text-anchor="start" x="937" y="-422" font-family="Helvetica Italic" font-size="8.00" fill="#7b7b7b">modified</text>
<text text-anchor="start" x="984" y="-422" font-family="Helvetica Italic" font-size="8.00" fill="#7b7b7b">ModificationDateTimeField</text>
<text text-anchor="start" x="937" y="-410" font-family="Helvetica Bold" font-size="8.00">name</text>
<text text-anchor="start" x="984" y="-410" font-family="Helvetica Bold" font-size="8.00">CharField</text>
<text text-anchor="start" x="937" y="-398" font-family="Helvetica Bold" font-size="8.00" fill="#7b7b7b">slug</text>
<text text-anchor="start" x="984" y="-398" font-family="Helvetica Bold" font-size="8.00" fill="#7b7b7b">SlugField</text>
</g>
<!-- organization_models_Membership -->
<g id="node19" class="node"><title>organization_models_Membership</title>
<polygon fill="palegoldenrod" stroke="palegoldenrod" points="929,-636.5 929,-709.5 1083,-709.5 1083,-636.5 929,-636.5"/>
<polygon fill="#698b22" stroke="#698b22" points="929,-684 929,-709 1083,-709 1083,-684 929,-684"/>
<text text-anchor="start" x="982.5" y="-697.5" font-family="Helvetica Bold" font-size="8.00" fill="white">Membership</text>
<text text-anchor="start" x="964" y="-689.5" font-family="Helvetica Bold" font-size="8.00" fill="white">&lt;</text>
<text text-anchor="start" x="968.672" y="-689.5" font-family="Helvetica Italic" font-size="8.00" fill="white">TimeStampedModel</text>
<text text-anchor="start" x="1045.29" y="-689.5" font-family="Helvetica Bold" font-size="8.00" fill="white">&gt;</text>
<text text-anchor="start" x="931" y="-675" font-family="Helvetica Bold" font-size="8.00" fill="#7b7b7b">id</text>
<text text-anchor="start" x="978" y="-675" font-family="Helvetica Bold" font-size="8.00" fill="#7b7b7b">AutoField</text>
<text text-anchor="start" x="931" y="-663" font-family="Helvetica Italic" font-size="8.00" fill="#7b7b7b">created</text>
<text text-anchor="start" x="978" y="-663" font-family="Helvetica Italic" font-size="8.00" fill="#7b7b7b">CreationDateTimeField</text>
<text text-anchor="start" x="931" y="-651" font-family="Helvetica Italic" font-size="8.00" fill="#7b7b7b">modified</text>
<text text-anchor="start" x="978" y="-651" font-family="Helvetica Italic" font-size="8.00" fill="#7b7b7b">ModificationDateTimeField</text>
<text text-anchor="start" x="931" y="-639" font-family="Helvetica Bold" font-size="8.00">role</text>
<text text-anchor="start" x="978" y="-639" font-family="Helvetica Bold" font-size="8.00">CharField</text>
</g>
<!-- organization_models_Membership&#45;&gt;organization_models_Organization -->
<g id="edge13" class="edge"><title>organization_models_Membership&#45;&gt;organization_models_Organization</title>
<path fill="none" stroke="black" d="M1007,-632.47C1008.1,-591.58 1009.7,-527.77 1010.8,-484.72"/>
<text text-anchor="middle" x="1040.6" y="-563.8" font-family="Helvetica,sans-Serif" font-size="8.00">org (membership)</text>
</g>
<!-- organization_models_Membership&#45;&gt;django_contrib_auth_models_User -->
<g id="edge35" class="edge"><title>organization_models_Membership&#45;&gt;django_contrib_auth_models_User</title>
<path fill="none" stroke="black" d="M973.42,-632.42C954.58,-609.52 930.44,-580.15 909,-554 899.11,-541.93 888.64,-529.15 878.43,-516.66"/>
<text text-anchor="middle" x="956.56" y="-563.8" font-family="Helvetica,sans-Serif" font-size="8.00">user (membership)</text>
</g>
<!-- django_contrib_admin_models_LogEntry -->
<g id="node22" class="node"><title>django_contrib_admin_models_LogEntry</title>
<polygon fill="palegoldenrod" stroke="palegoldenrod" points="1305,-628.5 1305,-717.5 1477,-717.5 1477,-628.5 1305,-628.5"/>
<polygon fill="#698b22" stroke="#698b22" points="1305,-700 1305,-717 1477,-717 1477,-700 1305,-700"/>
<text text-anchor="start" x="1373.5" y="-705.5" font-family="Helvetica Bold" font-size="8.00" fill="white">LogEntry</text>
<text text-anchor="start" x="1307" y="-691" font-family="Helvetica Bold" font-size="8.00" fill="#7b7b7b">id</text>
<text text-anchor="start" x="1378" y="-691" font-family="Helvetica Bold" font-size="8.00" fill="#7b7b7b">AutoField</text>
<text text-anchor="start" x="1307" y="-679" font-family="Helvetica Bold" font-size="8.00" fill="#7b7b7b">action_time</text>
<text text-anchor="start" x="1378" y="-679" font-family="Helvetica Bold" font-size="8.00" fill="#7b7b7b">DateTimeField</text>
<text text-anchor="start" x="1307" y="-667" font-family="Helvetica Bold" font-size="8.00" fill="#7b7b7b">object_id</text>
<text text-anchor="start" x="1378" y="-667" font-family="Helvetica Bold" font-size="8.00" fill="#7b7b7b">TextField</text>
<text text-anchor="start" x="1307" y="-655" font-family="Helvetica Bold" font-size="8.00">object_repr</text>
<text text-anchor="start" x="1378" y="-655" font-family="Helvetica Bold" font-size="8.00">CharField</text>
<text text-anchor="start" x="1307" y="-643" font-family="Helvetica Bold" font-size="8.00">action_flag</text>
<text text-anchor="start" x="1378" y="-643" font-family="Helvetica Bold" font-size="8.00">PositiveSmallIntegerField</text>
<text text-anchor="start" x="1307" y="-631" font-family="Helvetica Bold" font-size="8.00" fill="#7b7b7b">change_message</text>
<text text-anchor="start" x="1378" y="-631" font-family="Helvetica Bold" font-size="8.00" fill="#7b7b7b">TextField</text>
</g>
<!-- django_contrib_admin_models_LogEntry&#45;&gt;django_contrib_auth_models_User -->
<g id="edge43" class="edge"><title>django_contrib_admin_models_LogEntry&#45;&gt;django_contrib_auth_models_User</title>
<path fill="none" stroke="black" d="M1359.1,-624.37C1340.5,-600.99 1314.9,-575.08 1285,-562 1246.7,-545.24 946.57,-572.3 909,-554 891.27,-545.36 875.74,-531.61 862.68,-516.59"/>
<text text-anchor="middle" x="1329.8" y="-563.8" font-family="Helvetica,sans-Serif" font-size="8.00">user (logentry)</text>
</g>
<!-- django_contrib_contenttypes_models_ContentType -->
<g id="node37" class="node"><title>django_contrib_contenttypes_models_ContentType</title>
<polygon fill="palegoldenrod" stroke="palegoldenrod" points="1205.5,-12.5 1205.5,-77.5 1286.5,-77.5 1286.5,-12.5 1205.5,-12.5"/>
<polygon fill="#698b22" stroke="#698b22" points="1206,-60 1206,-77 1287,-77 1287,-60 1206,-60"/>
<text text-anchor="start" x="1222.5" y="-65.5" font-family="Helvetica Bold" font-size="8.00" fill="white">ContentType</text>
<text text-anchor="start" x="1208" y="-51" font-family="Helvetica Bold" font-size="8.00" fill="#7b7b7b">id</text>
<text text-anchor="start" x="1249" y="-51" font-family="Helvetica Bold" font-size="8.00" fill="#7b7b7b">AutoField</text>
<text text-anchor="start" x="1208" y="-39" font-family="Helvetica Bold" font-size="8.00">name</text>
<text text-anchor="start" x="1249" y="-39" font-family="Helvetica Bold" font-size="8.00">CharField</text>
<text text-anchor="start" x="1208" y="-27" font-family="Helvetica Bold" font-size="8.00">app_label</text>
<text text-anchor="start" x="1249" y="-27" font-family="Helvetica Bold" font-size="8.00">CharField</text>
<text text-anchor="start" x="1208" y="-15" font-family="Helvetica Bold" font-size="8.00">model</text>
<text text-anchor="start" x="1249" y="-15" font-family="Helvetica Bold" font-size="8.00">CharField</text>
</g>
<!-- django_contrib_admin_models_LogEntry&#45;&gt;django_contrib_contenttypes_models_ContentType -->
<g id="edge45" class="edge"><title>django_contrib_admin_models_LogEntry&#45;&gt;django_contrib_contenttypes_models_ContentType</title>
<path fill="none" stroke="black" d="M1389.4,-624.26C1387.9,-577.17 1386,-503.13 1386,-439 1386,-439 1386,-439 1386,-185 1386,-132.08 1335,-92.41 1294.6,-69.27"/>
<text text-anchor="middle" x="1426.9" y="-284.8" font-family="Helvetica,sans-Serif" font-size="8.00">content_type (logentry)</text>
</g>
<!-- django_contrib_sites_models_Site -->
<g id="node24" class="node"><title>django_contrib_sites_models_Site</title>
<polygon fill="palegoldenrod" stroke="palegoldenrod" points="1825.5,-646.5 1825.5,-699.5 1898.5,-699.5 1898.5,-646.5 1825.5,-646.5"/>
<polygon fill="#698b22" stroke="#698b22" points="1826,-682 1826,-699 1899,-699 1899,-682 1826,-682"/>
<text text-anchor="start" x="1855.5" y="-687.5" font-family="Helvetica Bold" font-size="8.00" fill="white">Site</text>
<text text-anchor="start" x="1828" y="-673" font-family="Helvetica Bold" font-size="8.00" fill="#7b7b7b">id</text>
<text text-anchor="start" x="1861" y="-673" font-family="Helvetica Bold" font-size="8.00" fill="#7b7b7b">AutoField</text>
<text text-anchor="start" x="1828" y="-661" font-family="Helvetica Bold" font-size="8.00">domain</text>
<text text-anchor="start" x="1861" y="-661" font-family="Helvetica Bold" font-size="8.00">CharField</text>
<text text-anchor="start" x="1828" y="-649" font-family="Helvetica Bold" font-size="8.00">name</text>
<text text-anchor="start" x="1861" y="-649" font-family="Helvetica Bold" font-size="8.00">CharField</text>
</g>
<!-- registration_models_RegistrationProfile -->
<g id="node26" class="node"><title>registration_models_RegistrationProfile</title>
<polygon fill="palegoldenrod" stroke="palegoldenrod" points="789,-652.5 789,-693.5 889,-693.5 889,-652.5 789,-652.5"/>
<polygon fill="#698b22" stroke="#698b22" points="789,-676 789,-693 889,-693 889,-676 789,-676"/>
<text text-anchor="start" x="803.5" y="-681.5" font-family="Helvetica Bold" font-size="8.00" fill="white">RegistrationProfile</text>
<text text-anchor="start" x="791" y="-667" font-family="Helvetica Bold" font-size="8.00" fill="#7b7b7b">id</text>
<text text-anchor="start" x="851" y="-667" font-family="Helvetica Bold" font-size="8.00" fill="#7b7b7b">AutoField</text>
<text text-anchor="start" x="791" y="-655" font-family="Helvetica Bold" font-size="8.00">activation_key</text>
<text text-anchor="start" x="851" y="-655" font-family="Helvetica Bold" font-size="8.00">CharField</text>
</g>
<!-- registration_models_RegistrationProfile&#45;&gt;django_contrib_auth_models_User -->
<g id="edge41" class="edge"><title>registration_models_RegistrationProfile&#45;&gt;django_contrib_auth_models_User</title>
<path fill="none" stroke="black" d="M835.06,-648.22C831.83,-628 827.35,-598.16 824.52,-572 822.6,-554.16 820.96,-534.94 819.62,-516.8"/>
<text text-anchor="middle" x="867.24" y="-563.8" font-family="Helvetica,sans-Serif" font-size="8.00">user (registrationprofile)</text>
</g>
<!-- django_contrib_auth_models_Permission -->
<g id="node30" class="node"><title>django_contrib_auth_models_Permission</title>
<polygon fill="palegoldenrod" stroke="palegoldenrod" points="784,-159.5 784,-212.5 868,-212.5 868,-159.5 784,-159.5"/>
<polygon fill="#698b22" stroke="#698b22" points="784,-195 784,-212 868,-212 868,-195 784,-195"/>
<text text-anchor="start" x="804.5" y="-200.5" font-family="Helvetica Bold" font-size="8.00" fill="white">Permission</text>
<text text-anchor="start" x="786" y="-186" font-family="Helvetica Bold" font-size="8.00" fill="#7b7b7b">id</text>
<text text-anchor="start" x="830" y="-186" font-family="Helvetica Bold" font-size="8.00" fill="#7b7b7b">AutoField</text>
<text text-anchor="start" x="786" y="-174" font-family="Helvetica Bold" font-size="8.00">name</text>
<text text-anchor="start" x="830" y="-174" font-family="Helvetica Bold" font-size="8.00">CharField</text>
<text text-anchor="start" x="786" y="-162" font-family="Helvetica Bold" font-size="8.00">codename</text>
<text text-anchor="start" x="830" y="-162" font-family="Helvetica Bold" font-size="8.00">CharField</text>
</g>
<!-- django_contrib_auth_models_Permission&#45;&gt;django_contrib_contenttypes_models_ContentType -->
<g id="edge33" class="edge"><title>django_contrib_auth_models_Permission&#45;&gt;django_contrib_contenttypes_models_ContentType</title>
<path fill="none" stroke="black" d="M876.24,-168.37C957.68,-141.42 1117.4,-88.548 1197.6,-62.004"/>
<text text-anchor="middle" x="1045" y="-128.8" font-family="Helvetica,sans-Serif" font-size="8.00">content_type (permission)</text>
</g>
<!-- django_contrib_auth_models_Group -->
<g id="node31" class="node"><title>django_contrib_auth_models_Group</title>
<polygon fill="palegoldenrod" stroke="palegoldenrod" points="823.5,-267.5 823.5,-308.5 888.5,-308.5 888.5,-267.5 823.5,-267.5"/>
<polygon fill="#698b22" stroke="#698b22" points="824,-291 824,-308 889,-308 889,-291 824,-291"/>
<text text-anchor="start" x="845" y="-296.5" font-family="Helvetica Bold" font-size="8.00" fill="white">Group</text>
<text text-anchor="start" x="826" y="-282" font-family="Helvetica Bold" font-size="8.00" fill="#7b7b7b">id</text>
<text text-anchor="start" x="851" y="-282" font-family="Helvetica Bold" font-size="8.00" fill="#7b7b7b">AutoField</text>
<text text-anchor="start" x="826" y="-270" font-family="Helvetica Bold" font-size="8.00">name</text>
<text text-anchor="start" x="851" y="-270" font-family="Helvetica Bold" font-size="8.00">CharField</text>
</g>
<!-- django_contrib_auth_models_Group&#45;&gt;django_contrib_auth_models_Permission -->
<g id="edge21" class="edge"><title>django_contrib_auth_models_Group&#45;&gt;django_contrib_auth_models_Permission</title>
<path fill="none" stroke="black" d="M846.53,-255.43C843.59,-245.64 840.32,-234.74 837.27,-224.58"/>
<ellipse fill="black" stroke="black" cx="847.741" cy="-259.469" rx="4.00001" ry="4.00001"/>
<ellipse fill="black" stroke="black" cx="836.03" cy="-220.451" rx="4.00001" ry="4.00001"/>
<text text-anchor="middle" x="878.35" y="-236.8" font-family="Helvetica,sans-Serif" font-size="8.00">permissions (group)</text>
</g>
<!-- django_contrib_auth_models_User&#45;&gt;django_contrib_auth_models_Permission -->
<g id="edge25" class="edge"><title>django_contrib_auth_models_User&#45;&gt;django_contrib_auth_models_Permission</title>
<path fill="none" stroke="black" d="M745.68,-371.03C720.25,-338.68 701.72,-299.01 720.2,-263 730.77,-242.39 749.82,-226.11 768.87,-213.99"/>
<ellipse fill="black" stroke="black" cx="748.329" cy="-374.294" rx="4.00002" ry="4.00002"/>
<ellipse fill="black" stroke="black" cx="772.457" cy="-211.797" rx="4.00002" ry="4.00002"/>
<text text-anchor="middle" x="763.9" y="-284.8" font-family="Helvetica,sans-Serif" font-size="8.00">user_permissions (user)</text>
</g>
<!-- django_contrib_auth_models_User&#45;&gt;django_contrib_auth_models_Group -->
<g id="edge23" class="edge"><title>django_contrib_auth_models_User&#45;&gt;django_contrib_auth_models_Group</title>
<path fill="none" stroke="black" d="M838.78,-351.17C841.82,-340.19 844.76,-329.57 847.33,-320.31"/>
<ellipse fill="black" stroke="black" cx="837.649" cy="-355.246" rx="4.00001" ry="4.00001"/>
<ellipse fill="black" stroke="black" cx="848.412" cy="-316.405" rx="4.00001" ry="4.00001"/>
<text text-anchor="middle" x="867.79" y="-332.8" font-family="Helvetica,sans-Serif" font-size="8.00">groups (user)</text>
</g>
</g>
</svg>
