<?xml version="1.0" encoding="UTF-8" standalone="no"?>
<!DOCTYPE svg PUBLIC "-//W3C//DTD SVG 1.1//EN"
 "http://www.w3.org/Graphics/SVG/1.1/DTD/svg11.dtd">
<!-- Generated by graphviz version 2.28.0 (20121217.1915)
 -->
<!-- Title: _anonymous_0 Pages: 1 -->
<svg width="257pt" height="1132pt"
 viewBox="0.00 0.00 257.00 1132.00" xmlns="http://www.w3.org/2000/svg" xmlns:xlink="http://www.w3.org/1999/xlink">
<g id="graph1" class="graph" transform="scale(1 1) rotate(0) translate(4 1128)">
<title>_anonymous_0</title>
<polygon fill="white" stroke="white" points="-4,5 -4,-1128 254,-1128 254,5 -4,5"/>
<!-- ahd90y -->
<g id="node1" class="node"><title>ahd90y</title>
<polygon fill="none" stroke="black" points="239.39,-1124 126.61,-1124 126.61,-1088 239.39,-1088 239.39,-1124"/>
<text text-anchor="middle" x="183" y="-1100.4" font-family="Times,serif" font-size="14.00">call_for_protocol</text>
</g>
<!-- kttj4d -->
<g id="node2" class="node"><title>kttj4d</title>
<polygon fill="none" stroke="black" points="176.155,-1042 111.845,-1042 111.845,-1006 176.155,-1006 176.155,-1042"/>
<text text-anchor="middle" x="144" y="-1018.4" font-family="Times,serif" font-size="14.00">combine</text>
</g>
<!-- ahd90y&#45;&#45;kttj4d -->
<g id="edge2" class="edge"><title>ahd90y&#45;&#45;kttj4d</title>
<path fill="none" stroke="white" d="M174.538,-1087.64C169.34,-1076.98 162.584,-1063.12 156.748,-1051.15"/>
<polygon fill="white" stroke="white" points="159.84,-1049.51 152.312,-1042.05 153.548,-1052.57 159.84,-1049.51"/>
</g>
<!-- f7zg5q -->
<g id="node5" class="node"><title>f7zg5q</title>
<polygon fill="none" stroke="black" points="249.158,-1051.38 194.842,-1051.38 194.842,-996.624 249.158,-996.624 249.158,-1051.38"/>
<text text-anchor="middle" x="222" y="-1018.4" font-family="Times,serif" font-size="14.00">f7zg5q</text>
</g>
<!-- ahd90y&#45;&#45;f7zg5q -->
<g id="edge4" class="edge"><title>ahd90y&#45;&#45;f7zg5q</title>
<path fill="none" stroke="white" d="M191.462,-1087.64C196.615,-1077.07 203.301,-1063.36 209.102,-1051.46"/>
</g>
<!-- oy38e9 -->
<g id="node6" class="node"><title>oy38e9</title>
<polygon fill="none" stroke="black" points="137,-953 83,-953 83,-917 137,-917 137,-953"/>
<text text-anchor="middle" x="110" y="-929.4" font-family="Times,serif" font-size="14.00">heat</text>
</g>
<!-- kttj4d&#45;&#45;oy38e9 -->
<g id="edge6" class="edge"><title>kttj4d&#45;&#45;oy38e9</title>
<path fill="none" stroke="white" d="M137.283,-1005.81C132.486,-993.538 125.94,-976.789 120.463,-962.773"/>
<polygon fill="white" stroke="white" points="123.603,-961.193 116.703,-953.153 117.083,-963.741 123.603,-961.193"/>
</g>
<!-- 0tisce -->
<g id="node9" class="node"><title>0tisce</title>
<polygon fill="none" stroke="black" points="202.994,-959.156 155.006,-959.156 155.006,-910.844 202.994,-910.844 202.994,-959.156"/>
<text text-anchor="middle" x="179" y="-929.4" font-family="Times,serif" font-size="14.00">0tisce</text>
</g>
<!-- kttj4d&#45;&#45;0tisce -->
<g id="edge8" class="edge"><title>kttj4d&#45;&#45;0tisce</title>
<path fill="none" stroke="white" d="M150.915,-1005.81C156.254,-992.54 163.699,-974.035 169.582,-959.411"/>
</g>
<!-- f4hds3 -->
<g id="node10" class="node"><title>f4hds3</title>
<polygon fill="none" stroke="black" points="137,-874 83,-874 83,-838 137,-838 137,-874"/>
<text text-anchor="middle" x="110" y="-850.4" font-family="Times,serif" font-size="14.00">chill</text>
</g>
<!-- oy38e9&#45;&#45;f4hds3 -->
<g id="edge10" class="edge"><title>oy38e9&#45;&#45;f4hds3</title>
<path fill="none" stroke="white" d="M110,-916.911C110,-907.341 110,-895.183 110,-884.323"/>
<polygon fill="white" stroke="white" points="113.5,-884.041 110,-874.041 106.5,-884.041 113.5,-884.041"/>
</g>
<!-- 9b92ym -->
<g id="node12" class="node"><title>9b92ym</title>
<polygon fill="none" stroke="black" points="146.06,-802 73.9401,-802 73.9401,-766 146.06,-766 146.06,-802"/>
<text text-anchor="middle" x="110" y="-778.4" font-family="Times,serif" font-size="14.00">centrifuge</text>
</g>
<!-- f4hds3&#45;&#45;9b92ym -->
<g id="edge12" class="edge"><title>f4hds3&#45;&#45;9b92ym</title>
<path fill="none" stroke="white" d="M110,-837.697C110,-829.983 110,-820.712 110,-812.112"/>
<polygon fill="white" stroke="white" points="113.5,-812.104 110,-802.104 106.5,-812.104 113.5,-812.104"/>
</g>
<!-- 892zia -->
<g id="node14" class="node"><title>892zia</title>
<polygon fill="none" stroke="black" points="137,-730 83,-730 83,-694 137,-694 137,-730"/>
<text text-anchor="middle" x="110" y="-706.4" font-family="Times,serif" font-size="14.00">add</text>
</g>
<!-- 9b92ym&#45;&#45;892zia -->
<g id="edge14" class="edge"><title>9b92ym&#45;&#45;892zia</title>
<path fill="none" stroke="white" d="M110,-765.697C110,-757.983 110,-748.712 110,-740.112"/>
<polygon fill="white" stroke="white" points="113.5,-740.104 110,-730.104 106.5,-740.104 113.5,-740.104"/>
</g>
<!-- pbud57 -->
<g id="node16" class="node"><title>pbud57</title>
<polygon fill="none" stroke="black" points="101,-648 47,-648 47,-612 101,-612 101,-648"/>
<text text-anchor="middle" x="74" y="-624.4" font-family="Times,serif" font-size="14.00">mix</text>
</g>
<!-- 892zia&#45;&#45;pbud57 -->
<g id="edge16" class="edge"><title>892zia&#45;&#45;pbud57</title>
<path fill="none" stroke="white" d="M102.189,-693.641C97.4387,-683.086 91.2776,-669.395 85.9273,-657.505"/>
<polygon fill="white" stroke="white" points="88.968,-655.733 81.6725,-648.05 82.5845,-658.606 88.968,-655.733"/>
</g>
<!-- d5fd4e -->
<g id="node19" class="node"><title>d5fd4e</title>
<polygon fill="none" stroke="black" points="173.158,-657.376 118.842,-657.376 118.842,-602.624 173.158,-602.624 173.158,-657.376"/>
<text text-anchor="middle" x="146" y="-624.4" font-family="Times,serif" font-size="14.00">d5fd4e</text>
</g>
<!-- 892zia&#45;&#45;d5fd4e -->
<g id="edge18" class="edge"><title>892zia&#45;&#45;d5fd4e</title>
<path fill="none" stroke="white" d="M117.811,-693.641C122.568,-683.072 128.739,-669.357 134.095,-657.457"/>
</g>
<!-- kbzqcb -->
<g id="node20" class="node"><title>kbzqcb</title>
<polygon fill="none" stroke="black" points="110.06,-566 37.9401,-566 37.9401,-530 110.06,-530 110.06,-566"/>
<text text-anchor="middle" x="74" y="-542.4" font-family="Times,serif" font-size="14.00">centrifuge</text>
</g>
<!-- pbud57&#45;&#45;kbzqcb -->
<g id="edge20" class="edge"><title>pbud57&#45;&#45;kbzqcb</title>
<path fill="none" stroke="white" d="M74,-611.641C74,-601.297 74,-587.941 74,-576.221"/>
<polygon fill="white" stroke="white" points="77.5001,-576.05 74,-566.05 70.5001,-576.05 77.5001,-576.05"/>
</g>
<!-- j4json -->
<g id="node22" class="node"><title>j4json</title>
<polygon fill="none" stroke="black" points="105.565,-494 42.4353,-494 42.4353,-458 105.565,-458 105.565,-494"/>
<text text-anchor="middle" x="74" y="-470.4" font-family="Times,serif" font-size="14.00">incubate</text>
</g>
<!-- kbzqcb&#45;&#45;j4json -->
<g id="edge22" class="edge"><title>kbzqcb&#45;&#45;j4json</title>
<path fill="none" stroke="white" d="M74,-529.697C74,-521.983 74,-512.712 74,-504.112"/>
<polygon fill="white" stroke="white" points="77.5001,-504.104 74,-494.104 70.5001,-504.104 77.5001,-504.104"/>
</g>
<!-- muwzdb -->
<g id="node24" class="node"><title>muwzdb</title>
<polygon fill="none" stroke="black" points="101,-422 47,-422 47,-386 101,-386 101,-422"/>
<text text-anchor="middle" x="74" y="-398.4" font-family="Times,serif" font-size="14.00">add</text>
</g>
<!-- j4json&#45;&#45;muwzdb -->
<g id="edge24" class="edge"><title>j4json&#45;&#45;muwzdb</title>
<path fill="none" stroke="white" d="M74,-457.697C74,-449.983 74,-440.712 74,-432.112"/>
<polygon fill="white" stroke="white" points="77.5001,-432.104 74,-422.104 70.5001,-432.104 77.5001,-432.104"/>
</g>
<!-- aoymzg -->
<g id="node26" class="node"><title>aoymzg</title>
<polygon fill="none" stroke="black" points="63,-337 9,-337 9,-301 63,-301 63,-337"/>
<text text-anchor="middle" x="36" y="-313.4" font-family="Times,serif" font-size="14.00">mix</text>
</g>
<!-- muwzdb&#45;&#45;aoymzg -->
<g id="edge26" class="edge"><title>muwzdb&#45;&#45;aoymzg</title>
<path fill="none" stroke="white" d="M66.1264,-385.802C60.9294,-374.451 54.0176,-359.354 48.1253,-346.484"/>
<polygon fill="white" stroke="white" points="51.2087,-344.811 43.8635,-337.176 44.844,-347.725 51.2087,-344.811"/>
</g>
<!-- w3v4gn -->
<g id="node29" class="node"><title>w3v4gn</title>
<polygon fill="none" stroke="black" points="142.332,-349.61 81.6676,-349.61 81.6676,-288.39 142.332,-288.39 142.332,-349.61"/>
<text text-anchor="middle" x="112" y="-313.4" font-family="Times,serif" font-size="14.00">w3v4gn</text>
</g>
<!-- muwzdb&#45;&#45;w3v4gn -->
<g id="edge28" class="edge"><title>muwzdb&#45;&#45;w3v4gn</title>
<path fill="none" stroke="white" d="M81.8736,-385.802C86.6562,-375.356 92.8911,-361.738 98.4471,-349.602"/>
</g>
<!-- thfavi -->
<g id="node30" class="node"><title>thfavi</title>
<polygon fill="none" stroke="black" points="72.0599,-252 -0.0599333,-252 -0.0599333,-216 72.0599,-216 72.0599,-252"/>
<text text-anchor="middle" x="36" y="-228.4" font-family="Times,serif" font-size="14.00">centrifuge</text>
</g>
<!-- aoymzg&#45;&#45;thfavi -->
<g id="edge30" class="edge"><title>aoymzg&#45;&#45;thfavi</title>
<path fill="none" stroke="white" d="M36,-300.802C36,-289.674 36,-274.945 36,-262.244"/>
<polygon fill="white" stroke="white" points="39.5001,-262.176 36,-252.176 32.5001,-262.176 39.5001,-262.176"/>
</g>
<!-- ya985z -->
<g id="node32" class="node"><title>ya985z</title>
<polygon fill="none" stroke="black" points="67.5647,-180 4.43529,-180 4.43529,-144 67.5647,-144 67.5647,-180"/>
<text text-anchor="middle" x="36" y="-156.4" font-family="Times,serif" font-size="14.00">incubate</text>
</g>
<!-- thfavi&#45;&#45;ya985z -->
<g id="edge32" class="edge"><title>thfavi&#45;&#45;ya985z</title>
<path fill="none" stroke="white" d="M36,-215.697C36,-207.983 36,-198.712 36,-190.112"/>
<polygon fill="white" stroke="white" points="39.5001,-190.104 36,-180.104 32.5001,-190.104 39.5001,-190.104"/>
</g>
<!-- bavsb0 -->
<g id="node34" class="node"><title>bavsb0</title>
<polygon fill="none" stroke="black" points="67.5647,-108 4.43529,-108 4.43529,-72 67.5647,-72 67.5647,-108"/>
<text text-anchor="middle" x="36" y="-84.4" font-family="Times,serif" font-size="14.00">incubate</text>
</g>
<!-- ya985z&#45;&#45;bavsb0 -->
<g id="edge34" class="edge"><title>ya985z&#45;&#45;bavsb0</title>
<path fill="none" stroke="white" d="M36,-143.697C36,-135.983 36,-126.712 36,-118.112"/>
<polygon fill="white" stroke="white" points="39.5001,-118.104 36,-108.104 32.5001,-118.104 39.5001,-118.104"/>
</g>
<!-- adrmwt -->
<g id="node36" class="node"><title>adrmwt</title>
<polygon fill="none" stroke="black" points="67.5647,-36 4.43529,-36 4.43529,-0 67.5647,-0 67.5647,-36"/>
<text text-anchor="middle" x="36" y="-12.4" font-family="Times,serif" font-size="14.00">incubate</text>
</g>
<!-- bavsb0&#45;&#45;adrmwt -->
<g id="edge36" class="edge"><title>bavsb0&#45;&#45;adrmwt</title>
<path fill="none" stroke="white" d="M36,-71.6966C36,-63.9827 36,-54.7125 36,-46.1124"/>
<polygon fill="white" stroke="white" points="39.5001,-46.1043 36,-36.1043 32.5001,-46.1044 39.5001,-46.1043"/>
</g>
</g>
</svg>
