<?xml version="1.0" encoding="UTF-8" standalone="no"?>
<!DOCTYPE svg PUBLIC "-//W3C//DTD SVG 1.1//EN"
 "http://www.w3.org/Graphics/SVG/1.1/DTD/svg11.dtd">
<!-- Generated by graphviz version 2.28.0 (20121217.1915)
 -->
<!-- Title: _anonymous_0 Pages: 1 -->
<svg width="1549pt" height="116pt"
 viewBox="0.00 0.00 1549.00 116.00" xmlns="http://www.w3.org/2000/svg" xmlns:xlink="http://www.w3.org/1999/xlink">
<g id="graph1" class="graph" transform="scale(1 1) rotate(0) translate(4 112)">
<title>_anonymous_0</title>
<polygon fill="white" stroke="white" points="-4,5 -4,-112 1546,-112 1546,5 -4,5"/>
<!-- ahd90y -->
<g id="node1" class="node"><title>ahd90y</title>
<ellipse fill="none" stroke="black" cx="39" cy="-90" rx="39.1979" ry="18"/>
<text text-anchor="middle" x="39" y="-84.4" font-family="Times,serif" font-size="14.00">ahd90y</text>
</g>
<!-- t61jdx -->
<g id="node3" class="node"><title>t61jdx</title>
<ellipse fill="none" stroke="black" cx="39" cy="-18" rx="35.5738" ry="18"/>
<text text-anchor="middle" x="39" y="-12.4" font-family="Times,serif" font-size="14.00">t61jdx</text>
</g>
<!-- ahd90y&#45;&#45;t61jdx -->
<g id="edge2" class="edge"><title>ahd90y&#45;&#45;t61jdx</title>
<path fill="none" stroke="black" d="M39,-71.6966C39,-60.8463 39,-46.9167 39,-36.1043"/>
</g>
<!-- kttj4d -->
<g id="node4" class="node"><title>kttj4d</title>
<ellipse fill="none" stroke="black" cx="130" cy="-90" rx="33.356" ry="18"/>
<text text-anchor="middle" x="130" y="-84.4" font-family="Times,serif" font-size="14.00">kttj4d</text>
</g>
<!-- 85jao2 -->
<g id="node6" class="node"><title>85jao2</title>
<ellipse fill="none" stroke="black" cx="130" cy="-18" rx="36.9811" ry="18"/>
<text text-anchor="middle" x="130" y="-12.4" font-family="Times,serif" font-size="14.00">85jao2</text>
</g>
<!-- kttj4d&#45;&#45;85jao2 -->
<g id="edge4" class="edge"><title>kttj4d&#45;&#45;85jao2</title>
<path fill="none" stroke="black" d="M130,-71.6966C130,-60.8463 130,-46.9167 130,-36.1043"/>
</g>
<!-- oy38e9 -->
<g id="node7" class="node"><title>oy38e9</title>
<ellipse fill="none" stroke="black" cx="223" cy="-90" rx="39.1979" ry="18"/>
<text text-anchor="middle" x="223" y="-84.4" font-family="Times,serif" font-size="14.00">oy38e9</text>
</g>
<!-- wfc3i7 -->
<g id="node9" class="node"><title>wfc3i7</title>
<ellipse fill="none" stroke="black" cx="223" cy="-18" rx="37.2809" ry="18"/>
<text text-anchor="middle" x="223" y="-12.4" font-family="Times,serif" font-size="14.00">wfc3i7</text>
</g>
<!-- oy38e9&#45;&#45;wfc3i7 -->
<g id="edge6" class="edge"><title>oy38e9&#45;&#45;wfc3i7</title>
<path fill="none" stroke="black" d="M223,-71.6966C223,-60.8463 223,-46.9167 223,-36.1043"/>
</g>
<!-- f4hds3 -->
<g id="node10" class="node"><title>f4hds3</title>
<ellipse fill="none" stroke="black" cx="318" cy="-90" rx="36.9881" ry="18"/>
<text text-anchor="middle" x="318" y="-84.4" font-family="Times,serif" font-size="14.00">f4hds3</text>
</g>
<!-- ff6p45 -->
<g id="node12" class="node"><title>ff6p45</title>
<ellipse fill="none" stroke="black" cx="318" cy="-18" rx="36.4179" ry="18"/>
<text text-anchor="middle" x="318" y="-12.4" font-family="Times,serif" font-size="14.00">ff6p45</text>
</g>
<!-- f4hds3&#45;&#45;ff6p45 -->
<g id="edge8" class="edge"><title>f4hds3&#45;&#45;ff6p45</title>
<path fill="none" stroke="black" d="M318,-71.6966C318,-60.8463 318,-46.9167 318,-36.1043"/>
</g>
<!-- 9b92ym -->
<g id="node13" class="node"><title>9b92ym</title>
<ellipse fill="none" stroke="black" cx="416" cy="-90" rx="42.5348" ry="18"/>
<text text-anchor="middle" x="416" y="-84.4" font-family="Times,serif" font-size="14.00">9b92ym</text>
</g>
<!-- k0xofh -->
<g id="node15" class="node"><title>k0xofh</title>
<ellipse fill="none" stroke="black" cx="416" cy="-18" rx="38.0929" ry="18"/>
<text text-anchor="middle" x="416" y="-12.4" font-family="Times,serif" font-size="14.00">k0xofh</text>
</g>
<!-- 9b92ym&#45;&#45;k0xofh -->
<g id="edge10" class="edge"><title>9b92ym&#45;&#45;k0xofh</title>
<path fill="none" stroke="black" d="M416,-71.6966C416,-60.8463 416,-46.9167 416,-36.1043"/>
</g>
<!-- 892zia -->
<g id="node16" class="node"><title>892zia</title>
<ellipse fill="none" stroke="black" cx="513" cy="-90" rx="36.1697" ry="18"/>
<text text-anchor="middle" x="513" y="-84.4" font-family="Times,serif" font-size="14.00">892zia</text>
</g>
<!-- 4tr1s6 -->
<g id="node18" class="node"><title>4tr1s6</title>
<ellipse fill="none" stroke="black" cx="513" cy="-18" rx="35.2688" ry="18"/>
<text text-anchor="middle" x="513" y="-12.4" font-family="Times,serif" font-size="14.00">4tr1s6</text>
</g>
<!-- 892zia&#45;&#45;4tr1s6 -->
<g id="edge12" class="edge"><title>892zia&#45;&#45;4tr1s6</title>
<path fill="none" stroke="black" d="M513,-71.6966C513,-60.8463 513,-46.9167 513,-36.1043"/>
</g>
<!-- pbud57 -->
<g id="node19" class="node"><title>pbud57</title>
<ellipse fill="none" stroke="black" cx="608" cy="-90" rx="40.011" ry="18"/>
<text text-anchor="middle" x="608" y="-84.4" font-family="Times,serif" font-size="14.00">pbud57</text>
</g>
<!-- 0gdlq5 -->
<g id="node21" class="node"><title>0gdlq5</title>
<ellipse fill="none" stroke="black" cx="609" cy="-18" rx="37.2949" ry="18"/>
<text text-anchor="middle" x="609" y="-12.4" font-family="Times,serif" font-size="14.00">0gdlq5</text>
</g>
<!-- pbud57&#45;&#45;0gdlq5 -->
<g id="edge14" class="edge"><title>pbud57&#45;&#45;0gdlq5</title>
<path fill="none" stroke="black" d="M608.247,-71.6966C608.402,-60.8463 608.601,-46.9167 608.756,-36.1043"/>
</g>
<!-- l4ppoq -->
<g id="node23" class="node"><title>l4ppoq</title>
<ellipse fill="none" stroke="black" cx="706" cy="-18" rx="37.2949" ry="18"/>
<text text-anchor="middle" x="706" y="-12.4" font-family="Times,serif" font-size="14.00">l4ppoq</text>
</g>
<!-- pbud57&#45;&#45;l4ppoq -->
<g id="edge16" class="edge"><title>pbud57&#45;&#45;l4ppoq</title>
<path fill="none" stroke="black" d="M628.783,-74.1548C645.639,-62.115 669.252,-45.2485 685.917,-33.345"/>
</g>
<!-- kbzqcb -->
<g id="node24" class="node"><title>kbzqcb</title>
<ellipse fill="none" stroke="black" cx="809" cy="-90" rx="38.3853" ry="18"/>
<text text-anchor="middle" x="809" y="-84.4" font-family="Times,serif" font-size="14.00">kbzqcb</text>
</g>
<!-- d6m0hh -->
<g id="node26" class="node"><title>d6m0hh</title>
<ellipse fill="none" stroke="black" cx="807" cy="-18" rx="42.5348" ry="18"/>
<text text-anchor="middle" x="807" y="-12.4" font-family="Times,serif" font-size="14.00">d6m0hh</text>
</g>
<!-- kbzqcb&#45;&#45;d6m0hh -->
<g id="edge18" class="edge"><title>kbzqcb&#45;&#45;d6m0hh</title>
<path fill="none" stroke="black" d="M808.506,-71.6966C808.196,-60.8463 807.798,-46.9167 807.489,-36.1043"/>
</g>
<!-- nwv41j -->
<g id="node28" class="node"><title>nwv41j</title>
<ellipse fill="none" stroke="black" cx="908" cy="-18" rx="40.011" ry="18"/>
<text text-anchor="middle" x="908" y="-12.4" font-family="Times,serif" font-size="14.00">nwv41j</text>
</g>
<!-- kbzqcb&#45;&#45;nwv41j -->
<g id="edge20" class="edge"><title>kbzqcb&#45;&#45;nwv41j</title>
<path fill="none" stroke="black" d="M829.513,-74.496C846.504,-62.4822 870.53,-45.4941 887.513,-33.4855"/>
</g>
<!-- j4json -->
<g id="node29" class="node"><title>j4json</title>
<ellipse fill="none" stroke="black" cx="1005" cy="-90" rx="34.4683" ry="18"/>
<text text-anchor="middle" x="1005" y="-84.4" font-family="Times,serif" font-size="14.00">j4json</text>
</g>
<!-- wht5z6 -->
<g id="node31" class="node"><title>wht5z6</title>
<ellipse fill="none" stroke="black" cx="1005" cy="-18" rx="39.1979" ry="18"/>
<text text-anchor="middle" x="1005" y="-12.4" font-family="Times,serif" font-size="14.00">wht5z6</text>
</g>
<!-- j4json&#45;&#45;wht5z6 -->
<g id="edge22" class="edge"><title>j4json&#45;&#45;wht5z6</title>
<path fill="none" stroke="black" d="M1005,-71.6966C1005,-60.8463 1005,-46.9167 1005,-36.1043"/>
</g>
<!-- muwzdb -->
<g id="node32" class="node"><title>muwzdb</title>
<ellipse fill="none" stroke="black" cx="1106" cy="-90" rx="43.942" ry="18"/>
<text text-anchor="middle" x="1106" y="-84.4" font-family="Times,serif" font-size="14.00">muwzdb</text>
</g>
<!-- sgum0w -->
<g id="node34" class="node"><title>sgum0w</title>
<ellipse fill="none" stroke="black" cx="1106" cy="-18" rx="43.1515" ry="18"/>
<text text-anchor="middle" x="1106" y="-12.4" font-family="Times,serif" font-size="14.00">sgum0w</text>
</g>
<!-- muwzdb&#45;&#45;sgum0w -->
<g id="edge24" class="edge"><title>muwzdb&#45;&#45;sgum0w</title>
<path fill="none" stroke="black" d="M1106,-71.6966C1106,-60.8463 1106,-46.9167 1106,-36.1043"/>
</g>
<!-- aoymzg -->
<g id="node35" class="node"><title>aoymzg</title>
<ellipse fill="none" stroke="black" cx="708" cy="-90" rx="41.4082" ry="18"/>
<text text-anchor="middle" x="708" y="-84.4" font-family="Times,serif" font-size="14.00">aoymzg</text>
</g>
<!-- aoymzg&#45;&#45;0gdlq5 -->
<g id="edge26" class="edge"><title>aoymzg&#45;&#45;0gdlq5</title>
<path fill="none" stroke="black" d="M687.005,-74.1548C669.977,-62.115 646.123,-45.2485 629.288,-33.345"/>
</g>
<!-- aoymzg&#45;&#45;l4ppoq -->
<g id="edge28" class="edge"><title>aoymzg&#45;&#45;l4ppoq</title>
<path fill="none" stroke="black" d="M707.506,-71.6966C707.196,-60.8463 706.798,-46.9167 706.489,-36.1043"/>
</g>
<!-- thfavi -->
<g id="node38" class="node"><title>thfavi</title>
<ellipse fill="none" stroke="black" cx="904" cy="-90" rx="33.3419" ry="18"/>
<text text-anchor="middle" x="904" y="-84.4" font-family="Times,serif" font-size="14.00">thfavi</text>
</g>
<!-- thfavi&#45;&#45;d6m0hh -->
<g id="edge30" class="edge"><title>thfavi&#45;&#45;d6m0hh</title>
<path fill="none" stroke="black" d="M884.836,-75.1703C868.272,-63.217 844.396,-45.987 827.464,-33.7677"/>
</g>
<!-- thfavi&#45;&#45;nwv41j -->
<g id="edge32" class="edge"><title>thfavi&#45;&#45;nwv41j</title>
<path fill="none" stroke="black" d="M904.989,-71.6966C905.609,-60.8463 906.405,-46.9167 907.023,-36.1043"/>
</g>
<!-- ya985z -->
<g id="node41" class="node"><title>ya985z</title>
<ellipse fill="none" stroke="black" cx="1207" cy="-90" rx="38.3853" ry="18"/>
<text text-anchor="middle" x="1207" y="-84.4" font-family="Times,serif" font-size="14.00">ya985z</text>
</g>
<!-- 5bohex -->
<g id="node43" class="node"><title>5bohex</title>
<ellipse fill="none" stroke="black" cx="1207" cy="-18" rx="39.1979" ry="18"/>
<text text-anchor="middle" x="1207" y="-12.4" font-family="Times,serif" font-size="14.00">5bohex</text>
</g>
<!-- ya985z&#45;&#45;5bohex -->
<g id="edge34" class="edge"><title>ya985z&#45;&#45;5bohex</title>
<path fill="none" stroke="black" d="M1207,-71.6966C1207,-60.8463 1207,-46.9167 1207,-36.1043"/>
</g>
<!-- bavsb0 -->
<g id="node44" class="node"><title>bavsb0</title>
<ellipse fill="none" stroke="black" cx="1302" cy="-90" rx="38.0929" ry="18"/>
<text text-anchor="middle" x="1302" y="-84.4" font-family="Times,serif" font-size="14.00">bavsb0</text>
</g>
<!-- lk1yt0 -->
<g id="node46" class="node"><title>lk1yt0</title>
<ellipse fill="none" stroke="black" cx="1301" cy="-18" rx="35.5738" ry="18"/>
<text text-anchor="middle" x="1301" y="-12.4" font-family="Times,serif" font-size="14.00">lk1yt0</text>
</g>
<!-- bavsb0&#45;&#45;lk1yt0 -->
<g id="edge36" class="edge"><title>bavsb0&#45;&#45;lk1yt0</title>
<path fill="none" stroke="black" d="M1301.75,-71.6966C1301.6,-60.8463 1301.4,-46.9167 1301.24,-36.1043"/>
</g>
<!-- i7w4wg -->
<g id="node48" class="node"><title>i7w4wg</title>
<ellipse fill="none" stroke="black" cx="1397" cy="-18" rx="42.2295" ry="18"/>
<text text-anchor="middle" x="1397" y="-12.4" font-family="Times,serif" font-size="14.00">i7w4wg</text>
</g>
<!-- bavsb0&#45;&#45;i7w4wg -->
<g id="edge38" class="edge"><title>bavsb0&#45;&#45;i7w4wg</title>
<path fill="none" stroke="black" d="M1321.68,-74.496C1337.77,-62.6424 1360.43,-45.9462 1376.69,-33.9684"/>
</g>
<!-- 8v7w7q -->
<g id="node50" class="node"><title>8v7w7q</title>
<ellipse fill="none" stroke="black" cx="1499" cy="-18" rx="42.2295" ry="18"/>
<text text-anchor="middle" x="1499" y="-12.4" font-family="Times,serif" font-size="14.00">8v7w7q</text>
</g>
<!-- bavsb0&#45;&#45;8v7w7q -->
<g id="edge40" class="edge"><title>bavsb0&#45;&#45;8v7w7q</title>
<path fill="none" stroke="black" d="M1331.32,-78.3563C1337.17,-76.2424 1343.28,-74.0448 1349,-72 1389.83,-57.4022 1437,-40.7755 1467.37,-30.0989"/>
</g>
<!-- adrmwt -->
<g id="node51" class="node"><title>adrmwt</title>
<ellipse fill="none" stroke="black" cx="1399" cy="-90" rx="40.303" ry="18"/>
<text text-anchor="middle" x="1399" y="-84.4" font-family="Times,serif" font-size="14.00">adrmwt</text>
</g>
<!-- adrmwt&#45;&#45;lk1yt0 -->
<g id="edge42" class="edge"><title>adrmwt&#45;&#45;lk1yt0</title>
<path fill="none" stroke="black" d="M1378.22,-74.1548C1361.25,-62.0348 1337.43,-45.0234 1320.75,-33.1076"/>
</g>
<!-- adrmwt&#45;&#45;i7w4wg -->
<g id="edge44" class="edge"><title>adrmwt&#45;&#45;i7w4wg</title>
<path fill="none" stroke="black" d="M1398.51,-71.6966C1398.2,-60.8463 1397.8,-46.9167 1397.49,-36.1043"/>
</g>
<!-- adrmwt&#45;&#45;8v7w7q -->
<g id="edge46" class="edge"><title>adrmwt&#45;&#45;8v7w7q</title>
<path fill="none" stroke="black" d="M1419.72,-74.496C1436.77,-62.5623 1460.83,-45.7203 1477.96,-33.7263"/>
</g>
</g>
</svg>
