<?xml version="1.0" encoding="UTF-8" standalone="no"?>
<!DOCTYPE svg PUBLIC "-//W3C//DTD SVG 1.1//EN"
 "http://www.w3.org/Graphics/SVG/1.1/DTD/svg11.dtd">
<!-- Generated by graphviz version 2.28.0 (20121217.1915)
 -->
<!-- Title: _anonymous_0 Pages: 1 -->
<svg width="1416pt" height="1408pt"
 viewBox="0.00 0.00 1415.66 1408.00" xmlns="http://www.w3.org/2000/svg" xmlns:xlink="http://www.w3.org/1999/xlink">
<g id="graph1" class="graph" transform="scale(1 1) rotate(0) translate(4 1404)">
<title>_anonymous_0</title>
<polygon fill="white" stroke="white" points="-4,5 -4,-1404 1412.66,-1404 1412.66,5 -4,5"/>
<!-- ahd90y -->
<g id="node10" class="node"><title>ahd90y</title>
<polygon fill="none" stroke="black" points="274.39,-1400 161.61,-1400 161.61,-1364 274.39,-1364 274.39,-1400"/>
<text text-anchor="middle" x="218" y="-1376.4" font-family="Times,serif" font-size="14.00">call_for_protocol</text>
</g>
<!-- f7zg5q -->
<g id="node11" class="node"><title>f7zg5q</title>
<polygon fill="none" stroke="black" points="-0.0996094,-1289 -0.0996094,-1325 320.1,-1325 320.1,-1289 -0.0996094,-1289"/>
<text text-anchor="middle" x="160" y="-1301.5" font-family="Times,serif" font-size="14.00">Nucleic Acid, RNA, poly(A)+ 100 ng/ul, 100&#45;1000 ng</text>
</g>
<!-- ahd90y&#45;&#45;f7zg5q -->
<g id="edge11" class="edge"><title>ahd90y&#45;&#45;f7zg5q</title>
<path fill="none" stroke="black" d="M204.255,-1363.7C197.032,-1354.61 188.043,-1343.3 180.058,-1333.25"/>
<polygon fill="black" stroke="black" points="182.608,-1330.83 173.647,-1325.18 177.127,-1335.18 182.608,-1330.83"/>
</g>
<!-- kttj4d -->
<g id="node13" class="node"><title>kttj4d</title>
<polygon fill="none" stroke="black" points="402.155,-1325 337.845,-1325 337.845,-1289 402.155,-1289 402.155,-1325"/>
<text text-anchor="middle" x="370" y="-1301.4" font-family="Times,serif" font-size="14.00">combine</text>
</g>
<!-- ahd90y&#45;&#45;kttj4d -->
<g id="edge13" class="edge"><title>ahd90y&#45;&#45;kttj4d</title>
<path fill="none" stroke="black" d="M253.637,-1363.88C276.102,-1353.1 305.195,-1339.12 328.67,-1327.85"/>
<polygon fill="black" stroke="black" points="330.194,-1331 337.694,-1323.52 327.164,-1324.69 330.194,-1331"/>
</g>
<!-- 0tisce -->
<g id="node15" class="node"><title>0tisce</title>
<polygon fill="none" stroke="black" points="30.0713,-1150.4 30.0713,-1249.6 545.929,-1249.6 545.929,-1150.4 30.0713,-1150.4"/>
<text text-anchor="middle" x="288" y="-1231.6" font-family="Times,serif" font-size="14.00">Nucleic Acid, Primer, Oligo(dT)12&#45;18 primers (Invitrogen) 50&#45;500 ng/ul, 1&#45;10 ul, 500 ng</text>
<polyline fill="none" stroke="black" points="30.0713,-1224.8 545.929,-1224.8 "/>
<text text-anchor="middle" x="288" y="-1206.8" font-family="Times,serif" font-size="14.00">Nucleic Acid, dNTPs (Invitrogen) 10 mM, 1 ul</text>
<polyline fill="none" stroke="black" points="30.0713,-1200 545.929,-1200 "/>
<text text-anchor="middle" x="288" y="-1182" font-family="Times,serif" font-size="14.00">Nucleic Acid, RNA, poly(A)+ 100&#45;1000 ng/ul, 1&#45;10 ul, 100&#45;1000 ng</text>
<polyline fill="none" stroke="black" points="30.0713,-1175.2 545.929,-1175.2 "/>
<text text-anchor="middle" x="288" y="-1157.2" font-family="Times,serif" font-size="14.00">Water, nuclease&#45;free, sterile , 0&#45;9 ul</text>
</g>
<!-- kttj4d&#45;&#45;0tisce -->
<g id="edge15" class="edge"><title>kttj4d&#45;&#45;0tisce</title>
<path fill="none" stroke="black" d="M356.459,-1288.66C349.724,-1280.04 341.159,-1269.07 332.386,-1257.84"/>
<polygon fill="black" stroke="black" points="334.898,-1255.37 325.984,-1249.64 329.381,-1259.67 334.898,-1255.37"/>
</g>
<!-- oy38e9 -->
<g id="node17" class="node"><title>oy38e9</title>
<polygon fill="none" stroke="black" points="618,-1218 564,-1218 564,-1182 618,-1182 618,-1218"/>
<text text-anchor="middle" x="591" y="-1194.4" font-family="Times,serif" font-size="14.00">heat</text>
</g>
<!-- kttj4d&#45;&#45;oy38e9 -->
<g id="edge17" class="edge"><title>kttj4d&#45;&#45;oy38e9</title>
<path fill="none" stroke="black" d="M402.245,-1302.34C441.206,-1296.62 507.327,-1282.6 554,-1250 562.691,-1243.93 570.214,-1235.18 576.164,-1226.75"/>
<polygon fill="black" stroke="black" points="579.212,-1228.48 581.778,-1218.21 573.362,-1224.64 579.212,-1228.48"/>
</g>
<!-- L_oy38e9 -->
<g id="node19" class="node"><title>L_oy38e9</title>
<polygon fill="none" stroke="black" points="520.617,-1059 520.617,-1095 593.383,-1095 593.383,-1059 520.617,-1059"/>
<text text-anchor="middle" x="557" y="-1071.4" font-family="Times,serif" font-size="14.00">L_oy38e9</text>
</g>
<!-- oy38e9&#45;&#45;L_oy38e9 -->
<g id="edge19" class="edge"><title>oy38e9&#45;&#45;L_oy38e9</title>
<path fill="none" stroke="black" d="M585.87,-1181.96C581.831,-1168.44 576.108,-1149.05 571.345,-1132 568.895,-1123.23 566.313,-1113.64 564.026,-1105"/>
<polygon fill="black" stroke="black" points="567.339,-1103.84 561.411,-1095.06 560.57,-1105.62 567.339,-1103.84"/>
<text text-anchor="middle" x="590.828" y="-1117.4" font-family="Times,serif" font-size="14.00">sample</text>
</g>
<!-- f4hds3 -->
<g id="node21" class="node"><title>f4hds3</title>
<polygon fill="none" stroke="black" points="665,-1095 611,-1095 611,-1059 665,-1059 665,-1095"/>
<text text-anchor="middle" x="638" y="-1071.4" font-family="Times,serif" font-size="14.00">chill</text>
</g>
<!-- oy38e9&#45;&#45;f4hds3 -->
<g id="edge21" class="edge"><title>oy38e9&#45;&#45;f4hds3</title>
<path fill="none" stroke="black" d="M597.634,-1181.92C605.428,-1161.86 618.452,-1128.33 627.594,-1104.79"/>
<polygon fill="black" stroke="black" points="630.889,-1105.97 631.247,-1095.38 624.364,-1103.44 630.889,-1105.97"/>
</g>
<!-- L_f4hds3 -->
<g id="node23" class="node"><title>L_f4hds3</title>
<polygon fill="none" stroke="black" points="574.169,-983 574.169,-1019 643.831,-1019 643.831,-983 574.169,-983"/>
<text text-anchor="middle" x="609" y="-995.4" font-family="Times,serif" font-size="14.00">L_f4hds3</text>
</g>
<!-- f4hds3&#45;&#45;L_f4hds3 -->
<g id="edge23" class="edge"><title>f4hds3&#45;&#45;L_f4hds3</title>
<path fill="none" stroke="black" d="M631.274,-1058.84C627.76,-1049.87 623.382,-1038.7 619.439,-1028.64"/>
<polygon fill="black" stroke="black" points="622.597,-1027.1 615.69,-1019.07 616.08,-1029.66 622.597,-1027.1"/>
</g>
<!-- 9b92ym -->
<g id="node25" class="node"><title>9b92ym</title>
<polygon fill="none" stroke="black" points="734.06,-1019 661.94,-1019 661.94,-983 734.06,-983 734.06,-1019"/>
<text text-anchor="middle" x="698" y="-995.4" font-family="Times,serif" font-size="14.00">centrifuge</text>
</g>
<!-- f4hds3&#45;&#45;9b92ym -->
<g id="edge25" class="edge"><title>f4hds3&#45;&#45;9b92ym</title>
<path fill="none" stroke="black" d="M651.916,-1058.84C659.565,-1049.4 669.193,-1037.53 677.669,-1027.07"/>
<polygon fill="black" stroke="black" points="680.58,-1029.04 684.159,-1019.07 675.143,-1024.63 680.58,-1029.04"/>
</g>
<!-- L_9b92ym -->
<g id="node27" class="node"><title>L_9b92ym</title>
<polygon fill="none" stroke="black" points="628.279,-891 628.279,-927 705.721,-927 705.721,-891 628.279,-891"/>
<text text-anchor="middle" x="667" y="-903.4" font-family="Times,serif" font-size="14.00">L_9b92ym</text>
</g>
<!-- 9b92ym&#45;&#45;L_9b92ym -->
<g id="edge27" class="edge"><title>9b92ym&#45;&#45;L_9b92ym</title>
<path fill="none" stroke="black" d="M692.023,-982.647C687.563,-969.698 681.385,-951.763 676.284,-936.953"/>
<polygon fill="black" stroke="black" points="679.525,-935.615 672.959,-927.3 672.906,-937.894 679.525,-935.615"/>
<text text-anchor="middle" x="697.052" y="-949.4" font-family="Times,serif" font-size="14.00">tube</text>
</g>
<!-- 892zia -->
<g id="node29" class="node"><title>892zia</title>
<polygon fill="none" stroke="black" points="778,-927 724,-927 724,-891 778,-891 778,-927"/>
<text text-anchor="middle" x="751" y="-903.4" font-family="Times,serif" font-size="14.00">add</text>
</g>
<!-- 9b92ym&#45;&#45;892zia -->
<g id="edge29" class="edge"><title>9b92ym&#45;&#45;892zia</title>
<path fill="none" stroke="black" d="M708.219,-982.647C715.991,-969.449 726.813,-951.071 735.628,-936.103"/>
<polygon fill="black" stroke="black" points="738.754,-937.693 740.812,-927.3 732.722,-934.14 738.754,-937.693"/>
</g>
<!-- d5fd4e -->
<g id="node31" class="node"><title>d5fd4e</title>
<polygon fill="none" stroke="black" points="521.057,-776.8 521.057,-851.2 860.943,-851.2 860.943,-776.8 521.057,-776.8"/>
<text text-anchor="middle" x="691" y="-833.2" font-family="Times,serif" font-size="14.00">Buffer, First strand cDNA synthesis (Invitrogen) 5 X, 4 ul</text>
<polyline fill="none" stroke="black" points="521.057,-826.4 860.943,-826.4 "/>
<text text-anchor="middle" x="691" y="-808.4" font-family="Times,serif" font-size="14.00">Reducing agent, Dithiothreitol (DTT) 100 mM, 2 ul</text>
<polyline fill="none" stroke="black" points="521.057,-801.6 860.943,-801.6 "/>
<text text-anchor="middle" x="691" y="-783.6" font-family="Times,serif" font-size="14.00">Water, nuclease&#45;free, sterile , 1 ul</text>
</g>
<!-- 892zia&#45;&#45;d5fd4e -->
<g id="edge31" class="edge"><title>892zia&#45;&#45;d5fd4e</title>
<path fill="none" stroke="black" d="M739.995,-890.942C734.28,-882.084 727.002,-870.803 719.815,-859.663"/>
<polygon fill="black" stroke="black" points="722.726,-857.72 714.364,-851.214 716.844,-861.515 722.726,-857.72"/>
</g>
<!-- pbud57 -->
<g id="node33" class="node"><title>pbud57</title>
<polygon fill="none" stroke="black" points="933,-832 879,-832 879,-796 933,-796 933,-832"/>
<text text-anchor="middle" x="906" y="-808.4" font-family="Times,serif" font-size="14.00">mix</text>
</g>
<!-- 892zia&#45;&#45;pbud57 -->
<g id="edge33" class="edge"><title>892zia&#45;&#45;pbud57</title>
<path fill="none" stroke="black" d="M778.196,-898.187C803.078,-888.513 840.277,-872.257 869,-852 874.262,-848.289 879.446,-843.797 884.192,-839.241"/>
<polygon fill="black" stroke="black" points="886.685,-841.697 891.239,-832.131 881.713,-836.77 886.685,-841.697"/>
</g>
<!-- kbzqcb -->
<g id="node35" class="node"><title>kbzqcb</title>
<polygon fill="none" stroke="black" points="942.06,-738 869.94,-738 869.94,-702 942.06,-702 942.06,-738"/>
<text text-anchor="middle" x="906" y="-714.4" font-family="Times,serif" font-size="14.00">centrifuge</text>
</g>
<!-- pbud57&#45;&#45;kbzqcb -->
<g id="edge35" class="edge"><title>pbud57&#45;&#45;kbzqcb</title>
<path fill="none" stroke="black" d="M906,-795.696C906,-782.46 906,-763.947 906,-748.663"/>
<polygon fill="black" stroke="black" points="909.5,-748.227 906,-738.227 902.5,-748.227 909.5,-748.227"/>
</g>
<!-- L_kbzqcb -->
<g id="node37" class="node"><title>L_kbzqcb</title>
<polygon fill="none" stroke="black" points="839.01,-611 839.01,-647 910.99,-647 910.99,-611 839.01,-611"/>
<text text-anchor="middle" x="875" y="-623.4" font-family="Times,serif" font-size="14.00">L_kbzqcb</text>
</g>
<!-- kbzqcb&#45;&#45;L_kbzqcb -->
<g id="edge37" class="edge"><title>kbzqcb&#45;&#45;L_kbzqcb</title>
<path fill="none" stroke="black" d="M900.023,-701.84C895.563,-689.035 889.385,-671.299 884.284,-656.654"/>
<polygon fill="black" stroke="black" points="887.553,-655.4 880.959,-647.107 880.943,-657.702 887.553,-655.4"/>
<text text-anchor="middle" x="905.052" y="-669.4" font-family="Times,serif" font-size="14.00">tube</text>
</g>
<!-- j4json -->
<g id="node39" class="node"><title>j4json</title>
<polygon fill="none" stroke="black" points="992.565,-647 929.435,-647 929.435,-611 992.565,-611 992.565,-647"/>
<text text-anchor="middle" x="961" y="-623.4" font-family="Times,serif" font-size="14.00">incubate</text>
</g>
<!-- kbzqcb&#45;&#45;j4json -->
<g id="edge39" class="edge"><title>kbzqcb&#45;&#45;j4json</title>
<path fill="none" stroke="black" d="M916.605,-701.84C924.67,-688.789 935.901,-670.615 945.048,-655.813"/>
<polygon fill="black" stroke="black" points="948.148,-657.454 950.428,-647.107 942.194,-653.774 948.148,-657.454"/>
</g>
<!-- L_j4json -->
<g id="node41" class="node"><title>L_j4json</title>
<polygon fill="none" stroke="black" points="893.11,-519 893.11,-555 958.89,-555 958.89,-519 893.11,-519"/>
<text text-anchor="middle" x="926" y="-531.4" font-family="Times,serif" font-size="14.00">L_j4json</text>
</g>
<!-- j4json&#45;&#45;L_j4json -->
<g id="edge41" class="edge"><title>j4json&#45;&#45;L_j4json</title>
<path fill="none" stroke="black" d="M946.877,-610.938C942.77,-605.22 938.653,-598.611 935.896,-592 932.402,-583.62 930.137,-573.998 928.672,-565.22"/>
<polygon fill="black" stroke="black" points="932.104,-564.49 927.251,-555.071 925.171,-565.46 932.104,-564.49"/>
<text text-anchor="middle" x="957.552" y="-577.4" font-family="Times,serif" font-size="14.00">samples</text>
</g>
<!-- muwzdb -->
<g id="node43" class="node"><title>muwzdb</title>
<polygon fill="none" stroke="black" points="1031,-555 977,-555 977,-519 1031,-519 1031,-555"/>
<text text-anchor="middle" x="1004" y="-531.4" font-family="Times,serif" font-size="14.00">add</text>
</g>
<!-- j4json&#45;&#45;muwzdb -->
<g id="edge43" class="edge"><title>j4json&#45;&#45;muwzdb</title>
<path fill="none" stroke="black" d="M970.933,-610.981C974.269,-605.045 977.922,-598.294 981,-592 985.294,-583.221 989.598,-573.441 993.303,-564.642"/>
<polygon fill="black" stroke="black" points="996.608,-565.808 997.198,-555.23 990.14,-563.131 996.608,-565.808"/>
</g>
<!-- w3v4gn -->
<g id="node45" class="node"><title>w3v4gn</title>
<polygon fill="none" stroke="black" points="673.779,-443 673.779,-479 1174.22,-479 1174.22,-443 673.779,-443"/>
<text text-anchor="middle" x="924" y="-455.5" font-family="Times,serif" font-size="14.00">Enzyme, SuperScript II reverse transcriptase (Invitrogen) 200 Units/ul, 1 ul, 200 Units</text>
</g>
<!-- muwzdb&#45;&#45;w3v4gn -->
<g id="edge45" class="edge"><title>muwzdb&#45;&#45;w3v4gn</title>
<path fill="none" stroke="black" d="M985.445,-518.837C974.944,-509.124 961.644,-496.821 950.105,-486.147"/>
<polygon fill="black" stroke="black" points="952.172,-483.291 942.454,-479.07 947.418,-488.43 952.172,-483.291"/>
</g>
<!-- aoymzg -->
<g id="node47" class="node"><title>aoymzg</title>
<polygon fill="none" stroke="black" points="1246,-479 1192,-479 1192,-443 1246,-443 1246,-479"/>
<text text-anchor="middle" x="1219" y="-455.4" font-family="Times,serif" font-size="14.00">mix</text>
</g>
<!-- muwzdb&#45;&#45;aoymzg -->
<g id="edge47" class="edge"><title>muwzdb&#45;&#45;aoymzg</title>
<path fill="none" stroke="black" d="M1031.16,-528.968C1064.84,-519.932 1124.05,-503.027 1182.35,-479.974"/>
<polygon fill="black" stroke="black" points="1183.72,-483.196 1191.69,-476.221 1181.11,-476.7 1183.72,-483.196"/>
</g>
<!-- thfavi -->
<g id="node49" class="node"><title>thfavi</title>
<polygon fill="none" stroke="black" points="1255.06,-404 1182.94,-404 1182.94,-368 1255.06,-368 1255.06,-404"/>
<text text-anchor="middle" x="1219" y="-380.4" font-family="Times,serif" font-size="14.00">centrifuge</text>
</g>
<!-- aoymzg&#45;&#45;thfavi -->
<g id="edge49" class="edge"><title>aoymzg&#45;&#45;thfavi</title>
<path fill="none" stroke="black" d="M1219,-442.7C1219,-434.245 1219,-423.869 1219,-414.373"/>
<polygon fill="black" stroke="black" points="1222.5,-414.176 1219,-404.176 1215.5,-414.176 1222.5,-414.176"/>
</g>
<!-- L_thfavi -->
<g id="node51" class="node"><title>L_thfavi</title>
<polygon fill="none" stroke="black" points="1152.9,-277 1152.9,-313 1217.1,-313 1217.1,-277 1152.9,-277"/>
<text text-anchor="middle" x="1185" y="-289.4" font-family="Times,serif" font-size="14.00">L_thfavi</text>
</g>
<!-- thfavi&#45;&#45;L_thfavi -->
<g id="edge51" class="edge"><title>thfavi&#45;&#45;L_thfavi</title>
<path fill="none" stroke="black" d="M1208.31,-367.983C1205.11,-362.401 1201.81,-356.07 1199.34,-350 1195.88,-341.473 1193.02,-331.849 1190.78,-323.113"/>
<polygon fill="black" stroke="black" points="1194.18,-322.292 1188.45,-313.384 1187.38,-323.925 1194.18,-322.292"/>
<text text-anchor="middle" x="1218.83" y="-335.4" font-family="Times,serif" font-size="14.00">sample</text>
</g>
<!-- ya985z -->
<g id="node53" class="node"><title>ya985z</title>
<polygon fill="none" stroke="black" points="1298.56,-313 1235.44,-313 1235.44,-277 1298.56,-277 1298.56,-313"/>
<text text-anchor="middle" x="1267" y="-289.4" font-family="Times,serif" font-size="14.00">incubate</text>
</g>
<!-- thfavi&#45;&#45;ya985z -->
<g id="edge53" class="edge"><title>thfavi&#45;&#45;ya985z</title>
<path fill="none" stroke="black" d="M1228.91,-367.988C1232.17,-362.297 1235.79,-355.9 1239,-350 1243.9,-341.01 1249.1,-331.086 1253.68,-322.223"/>
<polygon fill="black" stroke="black" points="1256.9,-323.613 1258.35,-313.118 1250.67,-320.416 1256.9,-323.613"/>
</g>
<!-- L_ya985z -->
<g id="node55" class="node"><title>L_ya985z</title>
<polygon fill="none" stroke="black" points="1196.01,-185 1196.01,-221 1267.99,-221 1267.99,-185 1196.01,-185"/>
<text text-anchor="middle" x="1232" y="-197.4" font-family="Times,serif" font-size="14.00">L_ya985z</text>
</g>
<!-- ya985z&#45;&#45;L_ya985z -->
<g id="edge55" class="edge"><title>ya985z&#45;&#45;L_ya985z</title>
<path fill="none" stroke="black" d="M1257.23,-276.727C1254.15,-270.888 1250.89,-264.261 1248.34,-258 1244.85,-249.391 1241.7,-239.746 1239.12,-231.016"/>
<polygon fill="black" stroke="black" points="1242.46,-229.97 1236.36,-221.304 1235.72,-231.879 1242.46,-229.97"/>
<text text-anchor="middle" x="1267.83" y="-243.4" font-family="Times,serif" font-size="14.00">sample</text>
</g>
<!-- bavsb0 -->
<g id="node57" class="node"><title>bavsb0</title>
<polygon fill="none" stroke="black" points="1349.56,-221 1286.44,-221 1286.44,-185 1349.56,-185 1349.56,-221"/>
<text text-anchor="middle" x="1318" y="-197.4" font-family="Times,serif" font-size="14.00">incubate</text>
</g>
<!-- ya985z&#45;&#45;bavsb0 -->
<g id="edge57" class="edge"><title>ya985z&#45;&#45;bavsb0</title>
<path fill="none" stroke="black" d="M1277.11,-276.83C1280.59,-270.882 1284.49,-264.162 1288,-258 1293.2,-248.869 1298.81,-238.819 1303.76,-229.89"/>
<polygon fill="black" stroke="black" points="1306.86,-231.521 1308.63,-221.076 1300.73,-228.134 1306.86,-231.521"/>
</g>
<!-- L_bavsb0 -->
<g id="node59" class="node"><title>L_bavsb0</title>
<polygon fill="none" stroke="black" points="1247.39,-93 1247.39,-129 1318.61,-129 1318.61,-93 1247.39,-93"/>
<text text-anchor="middle" x="1283" y="-105.4" font-family="Times,serif" font-size="14.00">L_bavsb0</text>
</g>
<!-- bavsb0&#45;&#45;L_bavsb0 -->
<g id="edge59" class="edge"><title>bavsb0&#45;&#45;L_bavsb0</title>
<path fill="none" stroke="black" d="M1308.23,-184.727C1305.15,-178.888 1301.89,-172.261 1299.34,-166 1295.85,-157.391 1292.7,-147.746 1290.12,-139.016"/>
<polygon fill="black" stroke="black" points="1293.46,-137.97 1287.36,-129.304 1286.72,-139.879 1293.46,-137.97"/>
<text text-anchor="middle" x="1318.83" y="-151.4" font-family="Times,serif" font-size="14.00">sample</text>
</g>
<!-- adrmwt -->
<g id="node61" class="node"><title>adrmwt</title>
<polygon fill="none" stroke="black" points="1399.56,-129 1336.44,-129 1336.44,-93 1399.56,-93 1399.56,-129"/>
<text text-anchor="middle" x="1368" y="-105.4" font-family="Times,serif" font-size="14.00">incubate</text>
</g>
<!-- bavsb0&#45;&#45;adrmwt -->
<g id="edge61" class="edge"><title>bavsb0&#45;&#45;adrmwt</title>
<path fill="none" stroke="black" d="M1328.16,-184.858C1331.65,-178.913 1335.54,-172.187 1339,-166 1344.04,-157 1349.42,-147.073 1354.16,-138.211"/>
<polygon fill="black" stroke="black" points="1357.4,-139.58 1359.01,-129.108 1351.22,-136.29 1357.4,-139.58"/>
</g>
<!-- L_adrmwt -->
<g id="node63" class="node"><title>L_adrmwt</title>
<polygon fill="none" stroke="black" points="1330.84,-1 1330.84,-37 1405.16,-37 1405.16,-1 1330.84,-1"/>
<text text-anchor="middle" x="1368" y="-13.4" font-family="Times,serif" font-size="14.00">L_adrmwt</text>
</g>
<!-- adrmwt&#45;&#45;L_adrmwt -->
<g id="edge63" class="edge"><title>adrmwt&#45;&#45;L_adrmwt</title>
<path fill="none" stroke="black" d="M1368,-92.6471C1368,-79.8228 1368,-62.1075 1368,-47.3815"/>
<polygon fill="black" stroke="black" points="1371.5,-47.2996 1368,-37.2996 1364.5,-47.2997 1371.5,-47.2996"/>
<text text-anchor="middle" x="1387.83" y="-59.4" font-family="Times,serif" font-size="14.00">sample</text>
</g>
</g>
</svg>
