<?xml version="1.0" encoding="UTF-8" standalone="no"?>
<!DOCTYPE svg PUBLIC "-//W3C//DTD SVG 1.1//EN"
 "http://www.w3.org/Graphics/SVG/1.1/DTD/svg11.dtd">
<!-- Generated by graphviz version 2.28.0 (20121217.1915)
 -->
<!-- Title: _anonymous_0 Pages: 1 -->
<svg width="552pt" height="404pt"
 viewBox="0.00 0.00 552.00 404.00" xmlns="http://www.w3.org/2000/svg" xmlns:xlink="http://www.w3.org/1999/xlink">
<g id="graph1" class="graph" transform="scale(1 1) rotate(0) translate(4 400)">
<title>_anonymous_0</title>
<polygon fill="white" stroke="white" points="-4,5 -4,-400 549,-400 549,5 -4,5"/>
<!-- CreateView -->
<g id="node1" class="node"><title>CreateView</title>
<polygon fill="none" stroke="black" points="358.021,-108 275.979,-108 275.979,-72 358.021,-72 358.021,-108"/>
<text text-anchor="middle" x="317" y="-84.4" font-family="Times,serif" font-size="14.00">CreateView</text>
</g>
<!-- SingleObjectTemplateResponseMixin -->
<g id="node3" class="node"><title>SingleObjectTemplateResponseMixin</title>
<polygon fill="none" stroke="black" points="228.371,-180 -0.37113,-180 -0.37113,-144 228.371,-144 228.371,-180"/>
<text text-anchor="middle" x="114" y="-156.4" font-family="Times,serif" font-size="14.00">SingleObjectTemplateResponseMixin</text>
</g>
<!-- CreateView&#45;&#45;SingleObjectTemplateResponseMixin -->
<g id="edge2" class="edge"><title>CreateView&#45;&#45;SingleObjectTemplateResponseMixin</title>
<path fill="none" stroke="black" d="M275.92,-105.166C243.481,-116.351 198.096,-132.001 163.627,-143.887"/>
</g>
<!-- BaseCreateView -->
<g id="node5" class="node"><title>BaseCreateView</title>
<polygon fill="none" stroke="black" points="371.736,-180 262.264,-180 262.264,-144 371.736,-144 371.736,-180"/>
<text text-anchor="middle" x="317" y="-156.4" font-family="Times,serif" font-size="14.00">BaseCreateView</text>
</g>
<!-- CreateView&#45;&#45;BaseCreateView -->
<g id="edge4" class="edge"><title>CreateView&#45;&#45;BaseCreateView</title>
<path fill="none" stroke="black" d="M317,-108.303C317,-119.154 317,-133.083 317,-143.896"/>
</g>
<!-- TemplateResponseMixin -->
<g id="node7" class="node"><title>TemplateResponseMixin</title>
<polygon fill="none" stroke="black" points="183.775,-252 28.2254,-252 28.2254,-216 183.775,-216 183.775,-252"/>
<text text-anchor="middle" x="106" y="-228.4" font-family="Times,serif" font-size="14.00">TemplateResponseMixin</text>
</g>
<!-- SingleObjectTemplateResponseMixin&#45;&#45;TemplateResponseMixin -->
<g id="edge6" class="edge"><title>SingleObjectTemplateResponseMixin&#45;&#45;TemplateResponseMixin</title>
<path fill="none" stroke="black" d="M112.022,-180.303C110.782,-191.154 109.19,-205.083 107.955,-215.896"/>
</g>
<!-- ProcessFormView -->
<g id="node9" class="node"><title>ProcessFormView</title>
<polygon fill="none" stroke="black" points="320.101,-252 201.899,-252 201.899,-216 320.101,-216 320.101,-252"/>
<text text-anchor="middle" x="261" y="-228.4" font-family="Times,serif" font-size="14.00">ProcessFormView</text>
</g>
<!-- BaseCreateView&#45;&#45;ProcessFormView -->
<g id="edge8" class="edge"><title>BaseCreateView&#45;&#45;ProcessFormView</title>
<path fill="none" stroke="black" d="M303.157,-180.303C294.477,-191.154 283.333,-205.083 274.683,-215.896"/>
</g>
<!-- ModelFormMixin -->
<g id="node11" class="node"><title>ModelFormMixin</title>
<polygon fill="none" stroke="black" points="455.617,-252 338.383,-252 338.383,-216 455.617,-216 455.617,-252"/>
<text text-anchor="middle" x="397" y="-228.4" font-family="Times,serif" font-size="14.00">ModelFormMixin</text>
</g>
<!-- BaseCreateView&#45;&#45;ModelFormMixin -->
<g id="edge10" class="edge"><title>BaseCreateView&#45;&#45;ModelFormMixin</title>
<path fill="none" stroke="black" d="M336.775,-180.303C349.176,-191.154 365.095,-205.083 377.452,-215.896"/>
</g>
<!-- object -->
<g id="node13" class="node"><title>object</title>
<polygon fill="none" stroke="black" points="323,-396 269,-396 269,-360 323,-360 323,-396"/>
<text text-anchor="middle" x="296" y="-372.4" font-family="Times,serif" font-size="14.00">object</text>
</g>
<!-- TemplateResponseMixin&#45;&#45;object -->
<g id="edge12" class="edge"><title>TemplateResponseMixin&#45;&#45;object</title>
<path fill="none" stroke="black" d="M110.902,-252.104C117.426,-271.979 130.798,-304.53 153,-324 186.443,-353.328 237.577,-366.988 268.78,-372.914"/>
</g>
<!-- View -->
<g id="node19" class="node"><title>View</title>
<polygon fill="none" stroke="black" points="216,-324 162,-324 162,-288 216,-288 216,-324"/>
<text text-anchor="middle" x="189" y="-300.4" font-family="Times,serif" font-size="14.00">View</text>
</g>
<!-- ProcessFormView&#45;&#45;View -->
<g id="edge18" class="edge"><title>ProcessFormView&#45;&#45;View</title>
<path fill="none" stroke="black" d="M243.202,-252.303C232.042,-263.154 217.714,-277.083 206.593,-287.896"/>
</g>
<!-- SingleObjectMixin -->
<g id="node14" class="node"><title>SingleObjectMixin</title>
<polygon fill="none" stroke="black" points="357.825,-324 234.175,-324 234.175,-288 357.825,-288 357.825,-324"/>
<text text-anchor="middle" x="296" y="-300.4" font-family="Times,serif" font-size="14.00">SingleObjectMixin</text>
</g>
<!-- ModelFormMixin&#45;&#45;SingleObjectMixin -->
<g id="edge24" class="edge"><title>ModelFormMixin&#45;&#45;SingleObjectMixin</title>
<path fill="none" stroke="black" d="M372.293,-252.124C356.641,-262.971 336.472,-276.95 320.802,-287.81"/>
</g>
<!-- FormMixin -->
<g id="node21" class="node"><title>FormMixin</title>
<polygon fill="none" stroke="black" points="456.067,-324 375.933,-324 375.933,-288 456.067,-288 456.067,-324"/>
<text text-anchor="middle" x="416" y="-300.4" font-family="Times,serif" font-size="14.00">FormMixin</text>
</g>
<!-- ModelFormMixin&#45;&#45;FormMixin -->
<g id="edge26" class="edge"><title>ModelFormMixin&#45;&#45;FormMixin</title>
<path fill="none" stroke="black" d="M401.697,-252.303C404.642,-263.154 408.423,-277.083 411.357,-287.896"/>
</g>
<!-- SingleObjectMixin&#45;&#45;object -->
<g id="edge14" class="edge"><title>SingleObjectMixin&#45;&#45;object</title>
<path fill="none" stroke="black" d="M296,-324.303C296,-335.154 296,-349.083 296,-359.896"/>
</g>
<!-- LoginRequiredMixin -->
<g id="node16" class="node"><title>LoginRequiredMixin</title>
<polygon fill="none" stroke="black" points="543.486,-108 408.514,-108 408.514,-72 543.486,-72 543.486,-108"/>
<text text-anchor="middle" x="476" y="-84.4" font-family="Times,serif" font-size="14.00">LoginRequiredMixin</text>
</g>
<!-- LoginRequiredMixin&#45;&#45;object -->
<g id="edge16" class="edge"><title>LoginRequiredMixin&#45;&#45;object</title>
<path fill="none" stroke="black" d="M481.153,-108.146C492.596,-150.003 515.334,-258.747 465,-324 431.288,-367.704 361.765,-376.177 323.224,-377.338"/>
</g>
<!-- View&#45;&#45;object -->
<g id="edge20" class="edge"><title>View&#45;&#45;object</title>
<path fill="none" stroke="black" d="M215.175,-324.124C231.756,-334.971 253.124,-348.95 269.724,-359.81"/>
</g>
<!-- FormMixin&#45;&#45;object -->
<g id="edge22" class="edge"><title>FormMixin&#45;&#45;object</title>
<path fill="none" stroke="black" d="M386.645,-324.124C367.217,-335.457 341.929,-350.208 323,-361.25"/>
</g>
<!-- ProtocolCreateView -->
<g id="node25" class="node"><title>ProtocolCreateView</title>
<polygon fill="none" stroke="black" points="444.964,-36 315.036,-36 315.036,-0 444.964,-0 444.964,-36"/>
<text text-anchor="middle" x="380" y="-12.4" font-family="Times,serif" font-size="14.00">ProtocolCreateView</text>
</g>
<!-- ProtocolCreateView&#45;&#45;CreateView -->
<g id="edge28" class="edge"><title>ProtocolCreateView&#45;&#45;CreateView</title>
<path fill="none" stroke="black" d="M364.427,-36.3034C354.662,-47.1537 342.125,-61.0833 332.394,-71.8957"/>
</g>
<!-- ProtocolCreateView&#45;&#45;LoginRequiredMixin -->
<g id="edge30" class="edge"><title>ProtocolCreateView&#45;&#45;LoginRequiredMixin</title>
<path fill="none" stroke="black" d="M403.73,-36.3034C418.611,-47.1537 437.714,-61.0833 452.543,-71.8957"/>
</g>
</g>
</svg>
