<?xml version="1.0" encoding="UTF-8" standalone="no"?>
<!DOCTYPE svg PUBLIC "-//W3C//DTD SVG 1.1//EN"
 "http://www.w3.org/Graphics/SVG/1.1/DTD/svg11.dtd">
<!-- Generated by graphviz version 2.28.0 (20121217.1915)
 -->
<!-- Title: _anonymous_0 Pages: 1 -->
<svg width="120pt" height="1052pt"
 viewBox="0.00 0.00 120.00 1052.00" xmlns="http://www.w3.org/2000/svg" xmlns:xlink="http://www.w3.org/1999/xlink">
<g id="graph1" class="graph" transform="scale(1 1) rotate(0) translate(4 1048)">
<title>_anonymous_0</title>
<polygon fill="white" stroke="white" points="-4,5 -4,-1048 117,-1048 117,5 -4,5"/>
<!-- ahd90y -->
<g id="node1" class="node"><title>ahd90y</title>
<polygon fill="none" stroke="black" points="112.39,-1044 -0.389557,-1044 -0.389557,-1008 112.39,-1008 112.39,-1044"/>
<text text-anchor="middle" x="56" y="-1020.4" font-family="Times,serif" font-size="14.00">call_for_protocol</text>
</g>
<!-- kttj4d -->
<g id="node2" class="node"><title>kttj4d</title>
<polygon fill="none" stroke="black" points="88.1554,-972 23.8446,-972 23.8446,-936 88.1554,-936 88.1554,-972"/>
<text text-anchor="middle" x="56" y="-948.4" font-family="Times,serif" font-size="14.00">combine</text>
</g>
<!-- ahd90y&#45;&#45;kttj4d -->
<g id="edge2" class="edge"><title>ahd90y&#45;&#45;kttj4d</title>
<path fill="none" stroke="black" d="M56,-1007.7C56,-999.983 56,-990.712 56,-982.112"/>
<polygon fill="black" stroke="black" points="59.5001,-982.104 56,-972.104 52.5001,-982.104 59.5001,-982.104"/>
</g>
<!-- oy38e9 -->
<g id="node4" class="node"><title>oy38e9</title>
<polygon fill="none" stroke="black" points="83,-900 29,-900 29,-864 83,-864 83,-900"/>
<text text-anchor="middle" x="56" y="-876.4" font-family="Times,serif" font-size="14.00">heat</text>
</g>
<!-- kttj4d&#45;&#45;oy38e9 -->
<g id="edge4" class="edge"><title>kttj4d&#45;&#45;oy38e9</title>
<path fill="none" stroke="black" d="M56,-935.697C56,-927.983 56,-918.712 56,-910.112"/>
<polygon fill="black" stroke="black" points="59.5001,-910.104 56,-900.104 52.5001,-910.104 59.5001,-910.104"/>
</g>
<!-- f4hds3 -->
<g id="node6" class="node"><title>f4hds3</title>
<polygon fill="none" stroke="black" points="83,-828 29,-828 29,-792 83,-792 83,-828"/>
<text text-anchor="middle" x="56" y="-804.4" font-family="Times,serif" font-size="14.00">chill</text>
</g>
<!-- oy38e9&#45;&#45;f4hds3 -->
<g id="edge6" class="edge"><title>oy38e9&#45;&#45;f4hds3</title>
<path fill="none" stroke="black" d="M56,-863.697C56,-855.983 56,-846.712 56,-838.112"/>
<polygon fill="black" stroke="black" points="59.5001,-838.104 56,-828.104 52.5001,-838.104 59.5001,-838.104"/>
</g>
<!-- 9b92ym -->
<g id="node8" class="node"><title>9b92ym</title>
<polygon fill="none" stroke="black" points="92.0599,-756 19.9401,-756 19.9401,-720 92.0599,-720 92.0599,-756"/>
<text text-anchor="middle" x="56" y="-732.4" font-family="Times,serif" font-size="14.00">centrifuge</text>
</g>
<!-- f4hds3&#45;&#45;9b92ym -->
<g id="edge8" class="edge"><title>f4hds3&#45;&#45;9b92ym</title>
<path fill="none" stroke="black" d="M56,-791.697C56,-783.983 56,-774.712 56,-766.112"/>
<polygon fill="black" stroke="black" points="59.5001,-766.104 56,-756.104 52.5001,-766.104 59.5001,-766.104"/>
</g>
<!-- 892zia -->
<g id="node10" class="node"><title>892zia</title>
<polygon fill="none" stroke="black" points="83,-684 29,-684 29,-648 83,-648 83,-684"/>
<text text-anchor="middle" x="56" y="-660.4" font-family="Times,serif" font-size="14.00">add</text>
</g>
<!-- 9b92ym&#45;&#45;892zia -->
<g id="edge10" class="edge"><title>9b92ym&#45;&#45;892zia</title>
<path fill="none" stroke="black" d="M56,-719.697C56,-711.983 56,-702.712 56,-694.112"/>
<polygon fill="black" stroke="black" points="59.5001,-694.104 56,-684.104 52.5001,-694.104 59.5001,-694.104"/>
</g>
<!-- pbud57 -->
<g id="node12" class="node"><title>pbud57</title>
<polygon fill="none" stroke="black" points="83,-612 29,-612 29,-576 83,-576 83,-612"/>
<text text-anchor="middle" x="56" y="-588.4" font-family="Times,serif" font-size="14.00">mix</text>
</g>
<!-- 892zia&#45;&#45;pbud57 -->
<g id="edge12" class="edge"><title>892zia&#45;&#45;pbud57</title>
<path fill="none" stroke="black" d="M56,-647.697C56,-639.983 56,-630.712 56,-622.112"/>
<polygon fill="black" stroke="black" points="59.5001,-622.104 56,-612.104 52.5001,-622.104 59.5001,-622.104"/>
</g>
<!-- kbzqcb -->
<g id="node14" class="node"><title>kbzqcb</title>
<polygon fill="none" stroke="black" points="92.0599,-540 19.9401,-540 19.9401,-504 92.0599,-504 92.0599,-540"/>
<text text-anchor="middle" x="56" y="-516.4" font-family="Times,serif" font-size="14.00">centrifuge</text>
</g>
<!-- pbud57&#45;&#45;kbzqcb -->
<g id="edge14" class="edge"><title>pbud57&#45;&#45;kbzqcb</title>
<path fill="none" stroke="black" d="M56,-575.697C56,-567.983 56,-558.712 56,-550.112"/>
<polygon fill="black" stroke="black" points="59.5001,-550.104 56,-540.104 52.5001,-550.104 59.5001,-550.104"/>
</g>
<!-- j4json -->
<g id="node16" class="node"><title>j4json</title>
<polygon fill="none" stroke="black" points="87.5647,-468 24.4353,-468 24.4353,-432 87.5647,-432 87.5647,-468"/>
<text text-anchor="middle" x="56" y="-444.4" font-family="Times,serif" font-size="14.00">incubate</text>
</g>
<!-- kbzqcb&#45;&#45;j4json -->
<g id="edge16" class="edge"><title>kbzqcb&#45;&#45;j4json</title>
<path fill="none" stroke="black" d="M56,-503.697C56,-495.983 56,-486.712 56,-478.112"/>
<polygon fill="black" stroke="black" points="59.5001,-478.104 56,-468.104 52.5001,-478.104 59.5001,-478.104"/>
</g>
<!-- muwzdb -->
<g id="node18" class="node"><title>muwzdb</title>
<polygon fill="none" stroke="black" points="83,-396 29,-396 29,-360 83,-360 83,-396"/>
<text text-anchor="middle" x="56" y="-372.4" font-family="Times,serif" font-size="14.00">add</text>
</g>
<!-- j4json&#45;&#45;muwzdb -->
<g id="edge18" class="edge"><title>j4json&#45;&#45;muwzdb</title>
<path fill="none" stroke="black" d="M56,-431.697C56,-423.983 56,-414.712 56,-406.112"/>
<polygon fill="black" stroke="black" points="59.5001,-406.104 56,-396.104 52.5001,-406.104 59.5001,-406.104"/>
</g>
<!-- aoymzg -->
<g id="node20" class="node"><title>aoymzg</title>
<polygon fill="none" stroke="black" points="83,-324 29,-324 29,-288 83,-288 83,-324"/>
<text text-anchor="middle" x="56" y="-300.4" font-family="Times,serif" font-size="14.00">mix</text>
</g>
<!-- muwzdb&#45;&#45;aoymzg -->
<g id="edge20" class="edge"><title>muwzdb&#45;&#45;aoymzg</title>
<path fill="none" stroke="black" d="M56,-359.697C56,-351.983 56,-342.712 56,-334.112"/>
<polygon fill="black" stroke="black" points="59.5001,-334.104 56,-324.104 52.5001,-334.104 59.5001,-334.104"/>
</g>
<!-- thfavi -->
<g id="node22" class="node"><title>thfavi</title>
<polygon fill="none" stroke="black" points="92.0599,-252 19.9401,-252 19.9401,-216 92.0599,-216 92.0599,-252"/>
<text text-anchor="middle" x="56" y="-228.4" font-family="Times,serif" font-size="14.00">centrifuge</text>
</g>
<!-- aoymzg&#45;&#45;thfavi -->
<g id="edge22" class="edge"><title>aoymzg&#45;&#45;thfavi</title>
<path fill="none" stroke="black" d="M56,-287.697C56,-279.983 56,-270.712 56,-262.112"/>
<polygon fill="black" stroke="black" points="59.5001,-262.104 56,-252.104 52.5001,-262.104 59.5001,-262.104"/>
</g>
<!-- ya985z -->
<g id="node24" class="node"><title>ya985z</title>
<polygon fill="none" stroke="black" points="87.5647,-180 24.4353,-180 24.4353,-144 87.5647,-144 87.5647,-180"/>
<text text-anchor="middle" x="56" y="-156.4" font-family="Times,serif" font-size="14.00">incubate</text>
</g>
<!-- thfavi&#45;&#45;ya985z -->
<g id="edge24" class="edge"><title>thfavi&#45;&#45;ya985z</title>
<path fill="none" stroke="black" d="M56,-215.697C56,-207.983 56,-198.712 56,-190.112"/>
<polygon fill="black" stroke="black" points="59.5001,-190.104 56,-180.104 52.5001,-190.104 59.5001,-190.104"/>
</g>
<!-- bavsb0 -->
<g id="node26" class="node"><title>bavsb0</title>
<polygon fill="none" stroke="black" points="87.5647,-108 24.4353,-108 24.4353,-72 87.5647,-72 87.5647,-108"/>
<text text-anchor="middle" x="56" y="-84.4" font-family="Times,serif" font-size="14.00">incubate</text>
</g>
<!-- ya985z&#45;&#45;bavsb0 -->
<g id="edge26" class="edge"><title>ya985z&#45;&#45;bavsb0</title>
<path fill="none" stroke="black" d="M56,-143.697C56,-135.983 56,-126.712 56,-118.112"/>
<polygon fill="black" stroke="black" points="59.5001,-118.104 56,-108.104 52.5001,-118.104 59.5001,-118.104"/>
</g>
<!-- adrmwt -->
<g id="node28" class="node"><title>adrmwt</title>
<polygon fill="none" stroke="black" points="87.5647,-36 24.4353,-36 24.4353,-0 87.5647,-0 87.5647,-36"/>
<text text-anchor="middle" x="56" y="-12.4" font-family="Times,serif" font-size="14.00">incubate</text>
</g>
<!-- bavsb0&#45;&#45;adrmwt -->
<g id="edge28" class="edge"><title>bavsb0&#45;&#45;adrmwt</title>
<path fill="none" stroke="black" d="M56,-71.6966C56,-63.9827 56,-54.7125 56,-46.1124"/>
<polygon fill="black" stroke="black" points="59.5001,-46.1043 56,-36.1043 52.5001,-46.1044 59.5001,-46.1043"/>
</g>
</g>
</svg>
