<?xml version="1.0" encoding="UTF-8" standalone="no"?>
<!DOCTYPE svg PUBLIC "-//W3C//DTD SVG 1.1//EN"
 "http://www.w3.org/Graphics/SVG/1.1/DTD/svg11.dtd">
<!-- Generated by graphviz version 2.28.0 (20121217.1915)
 -->
<!-- Title: _anonymous_0 Pages: 1 -->
<svg width="737pt" height="1174pt"
 viewBox="0.00 0.00 737.00 1174.00" xmlns="http://www.w3.org/2000/svg" xmlns:xlink="http://www.w3.org/1999/xlink">
<g id="graph1" class="graph" transform="scale(1 1) rotate(0) translate(4 1170)">
<title>_anonymous_0</title>
<polygon fill="white" stroke="white" points="-4,5 -4,-1170 734,-1170 734,5 -4,5"/>
<!-- 9b92ym -->
<g id="node2" class="node"><title>9b92ym</title>
<polygon fill="none" stroke="black" points="92.0599,-865 19.9401,-865 19.9401,-829 92.0599,-829 92.0599,-865"/>
<text text-anchor="middle" x="56" y="-841.4" font-family="Times,serif" font-size="14.00">centrifuge</text>
</g>
<!-- 892zia -->
<g id="node74" class="node"><title>892zia</title>
<polygon fill="none" stroke="black" points="83,-790 29,-790 29,-754 83,-754 83,-790"/>
<text text-anchor="middle" x="56" y="-766.4" font-family="Times,serif" font-size="14.00">add</text>
</g>
<!-- 9b92ym&#45;&#45;892zia -->
<g id="edge59" class="edge"><title>9b92ym&#45;&#45;892zia</title>
<path fill="none" stroke="black" d="M56,-828.7C56,-817.063 56,-801.787 56,-790.176"/>
</g>
<!-- ya985z -->
<g id="node4" class="node"><title>ya985z</title>
<polygon fill="none" stroke="black" points="87.5647,-189 24.4353,-189 24.4353,-153 87.5647,-153 87.5647,-189"/>
<text text-anchor="middle" x="56" y="-165.4" font-family="Times,serif" font-size="14.00">incubate</text>
</g>
<!-- bavsb0 -->
<g id="node6" class="node"><title>bavsb0</title>
<polygon fill="none" stroke="black" points="87.5647,-113 24.4353,-113 24.4353,-77 87.5647,-77 87.5647,-113"/>
<text text-anchor="middle" x="56" y="-89.4" font-family="Times,serif" font-size="14.00">incubate</text>
</g>
<!-- ya985z&#45;&#45;bavsb0 -->
<g id="edge75" class="edge"><title>ya985z&#45;&#45;bavsb0</title>
<path fill="none" stroke="black" d="M56,-152.837C56,-140.882 56,-125.004 56,-113.07"/>
</g>
<!-- lk1yt0 -->
<g id="node40" class="node"><title>lk1yt0</title>
<polygon fill="none" stroke="black" points="236.565,-189 173.435,-189 173.435,-153 236.565,-153 236.565,-189"/>
<text text-anchor="middle" x="205" y="-165.4" font-family="Times,serif" font-size="14.00">incubate</text>
</g>
<!-- ya985z&#45;&#45;lk1yt0 -->
<g id="edge43" class="edge"><title>ya985z&#45;&#45;lk1yt0</title>
<path fill="none" stroke="black" d="M87.4297,-171C116.057,-171 144.684,-171 173.311,-171"/>
</g>
<!-- adrmwt -->
<g id="node10" class="node"><title>adrmwt</title>
<polygon fill="none" stroke="black" points="87.5647,-37 24.4353,-37 24.4353,-1 87.5647,-1 87.5647,-37"/>
<text text-anchor="middle" x="56" y="-13.4" font-family="Times,serif" font-size="14.00">incubate</text>
</g>
<!-- bavsb0&#45;&#45;adrmwt -->
<g id="edge77" class="edge"><title>bavsb0&#45;&#45;adrmwt</title>
<path fill="none" stroke="black" d="M56,-76.8369C56,-64.882 56,-49.0045 56,-37.07"/>
</g>
<!-- j4json -->
<g id="node8" class="node"><title>j4json</title>
<polygon fill="none" stroke="black" points="87.5647,-565 24.4353,-565 24.4353,-529 87.5647,-529 87.5647,-565"/>
<text text-anchor="middle" x="56" y="-541.4" font-family="Times,serif" font-size="14.00">incubate</text>
</g>
<!-- muwzdb -->
<g id="node80" class="node"><title>muwzdb</title>
<polygon fill="none" stroke="black" points="83,-490 29,-490 29,-454 83,-454 83,-490"/>
<text text-anchor="middle" x="56" y="-466.4" font-family="Times,serif" font-size="14.00">add</text>
</g>
<!-- j4json&#45;&#45;muwzdb -->
<g id="edge67" class="edge"><title>j4json&#45;&#45;muwzdb</title>
<path fill="none" stroke="black" d="M56,-528.7C56,-517.063 56,-501.787 56,-490.176"/>
</g>
<!-- oy38e9 -->
<g id="node12" class="node"><title>oy38e9</title>
<polygon fill="none" stroke="black" points="83,-1017 29,-1017 29,-981 83,-981 83,-1017"/>
<text text-anchor="middle" x="56" y="-993.4" font-family="Times,serif" font-size="14.00">heat</text>
</g>
<!-- f4hds3 -->
<g id="node14" class="node"><title>f4hds3</title>
<polygon fill="none" stroke="black" points="83,-941 29,-941 29,-905 83,-905 83,-941"/>
<text text-anchor="middle" x="56" y="-917.4" font-family="Times,serif" font-size="14.00">chill</text>
</g>
<!-- oy38e9&#45;&#45;f4hds3 -->
<g id="edge55" class="edge"><title>oy38e9&#45;&#45;f4hds3</title>
<path fill="none" stroke="black" d="M56,-980.837C56,-968.882 56,-953.004 56,-941.07"/>
</g>
<!-- f4hds3&#45;&#45;9b92ym -->
<g id="edge57" class="edge"><title>f4hds3&#45;&#45;9b92ym</title>
<path fill="none" stroke="black" d="M56,-904.837C56,-892.882 56,-877.004 56,-865.07"/>
</g>
<!-- kbzqcb -->
<g id="node16" class="node"><title>kbzqcb</title>
<polygon fill="none" stroke="black" points="92.0599,-641 19.9401,-641 19.9401,-605 92.0599,-605 92.0599,-641"/>
<text text-anchor="middle" x="56" y="-617.4" font-family="Times,serif" font-size="14.00">centrifuge</text>
</g>
<!-- kbzqcb&#45;&#45;j4json -->
<g id="edge65" class="edge"><title>kbzqcb&#45;&#45;j4json</title>
<path fill="none" stroke="black" d="M56,-604.837C56,-592.882 56,-577.004 56,-565.07"/>
</g>
<!-- thfavi -->
<g id="node18" class="node"><title>thfavi</title>
<polygon fill="none" stroke="black" points="92.0599,-341 19.9401,-341 19.9401,-305 92.0599,-305 92.0599,-341"/>
<text text-anchor="middle" x="56" y="-317.4" font-family="Times,serif" font-size="14.00">centrifuge</text>
</g>
<!-- thfavi&#45;&#45;ya985z -->
<g id="edge73" class="edge"><title>thfavi&#45;&#45;ya985z</title>
<path fill="none" stroke="black" d="M56,-304.793C56,-275.859 56,-217.805 56,-189.006"/>
</g>
<!-- nwv41j -->
<g id="node44" class="node"><title>nwv41j</title>
<polygon fill="none" stroke="black" points="241.06,-341 168.94,-341 168.94,-305 241.06,-305 241.06,-341"/>
<text text-anchor="middle" x="205" y="-317.4" font-family="Times,serif" font-size="14.00">centrifuge</text>
</g>
<!-- thfavi&#45;&#45;nwv41j -->
<g id="edge49" class="edge"><title>thfavi&#45;&#45;nwv41j</title>
<path fill="none" stroke="black" d="M92.0859,-323C117.668,-323 143.25,-323 168.832,-323"/>
</g>
<!-- 8v7w7q -->
<g id="node20" class="node"><title>8v7w7q</title>
<polygon fill="none" stroke="black" points="236.565,-37 173.435,-37 173.435,-1 236.565,-1 236.565,-37"/>
<text text-anchor="middle" x="205" y="-13.4" font-family="Times,serif" font-size="14.00">incubate</text>
</g>
<!-- axc076 -->
<g id="node21" class="node"><title>axc076</title>
<polygon fill="none" stroke="black" points="284.57,-1 284.57,-37 589.43,-37 589.43,-1 284.57,-1"/>
<text text-anchor="middle" x="437" y="-13.4" font-family="Times,serif" font-size="14.00">[u&#39;0 degrees Celsius, Remark: On ice&#39;, u&#39;2 minutes&#39;]</text>
</g>
<!-- 8v7w7q&#45;&#45;axc076 -->
<g id="edge12" class="edge"><title>8v7w7q&#45;&#45;axc076</title>
<path fill="none" stroke="black" d="M236.772,-19C250.051,-19 266.524,-19 284.277,-19"/>
<text text-anchor="middle" x="260.285" y="-24.8" font-family="Times,serif" font-size="14.00">tubes</text>
</g>
<!-- d6m0hh -->
<g id="node24" class="node"><title>d6m0hh</title>
<polygon fill="none" stroke="black" points="241.06,-641 168.94,-641 168.94,-605 241.06,-605 241.06,-641"/>
<text text-anchor="middle" x="205" y="-617.4" font-family="Times,serif" font-size="14.00">centrifuge</text>
</g>
<!-- vokgwa -->
<g id="node25" class="node"><title>vokgwa</title>
<polygon fill="none" stroke="black" points="282.967,-605 282.967,-641 713.033,-641 713.033,-605 282.967,-605"/>
<text text-anchor="middle" x="498" y="-617.4" font-family="Times,serif" font-size="14.00">[u&#39;1 minutes, Remark: Brief&#39;, u&#39;1 minutes, Remark: Brief, Remark: Pulse&#39;]</text>
</g>
<!-- d6m0hh&#45;&#45;vokgwa -->
<g id="edge15" class="edge"><title>d6m0hh&#45;&#45;vokgwa</title>
<path fill="none" stroke="black" d="M241.221,-623C253.087,-623 267.245,-623 282.727,-623"/>
<text text-anchor="middle" x="261.983" y="-628.8" font-family="Times,serif" font-size="14.00">tube</text>
</g>
<!-- wht5z6 -->
<g id="node56" class="node"><title>wht5z6</title>
<polygon fill="none" stroke="black" points="236.565,-565 173.435,-565 173.435,-529 236.565,-529 236.565,-565"/>
<text text-anchor="middle" x="205" y="-541.4" font-family="Times,serif" font-size="14.00">incubate</text>
</g>
<!-- d6m0hh&#45;&#45;wht5z6 -->
<g id="edge93" class="edge"><title>d6m0hh&#45;&#45;wht5z6</title>
<path fill="none" stroke="black" d="M205,-604.837C205,-592.882 205,-577.004 205,-565.07"/>
</g>
<!-- ff6p45 -->
<g id="node28" class="node"><title>ff6p45</title>
<polygon fill="none" stroke="black" points="232,-941 178,-941 178,-905 232,-905 232,-941"/>
<text text-anchor="middle" x="205" y="-917.4" font-family="Times,serif" font-size="14.00">chill</text>
</g>
<!-- o4n9zn -->
<g id="node29" class="node"><title>o4n9zn</title>
<polygon fill="none" stroke="black" points="267.834,-905 267.834,-941 660.166,-941 660.166,-905 267.834,-905"/>
<text text-anchor="middle" x="464" y="-917.4" font-family="Times,serif" font-size="14.00">[u&#39;0 degrees Celsius, Remark: On ice&#39;, u&#39;1 minutes, Remark: Brief&#39;]</text>
</g>
<!-- ff6p45&#45;&#45;o4n9zn -->
<g id="edge18" class="edge"><title>ff6p45&#45;&#45;o4n9zn</title>
<path fill="none" stroke="black" d="M232.063,-923C243.842,-923 255.62,-923 267.398,-923"/>
</g>
<!-- k0xofh -->
<g id="node32" class="node"><title>k0xofh</title>
<polygon fill="none" stroke="black" points="241.06,-865 168.94,-865 168.94,-829 241.06,-829 241.06,-865"/>
<text text-anchor="middle" x="205" y="-841.4" font-family="Times,serif" font-size="14.00">centrifuge</text>
</g>
<!-- ff6p45&#45;&#45;k0xofh -->
<g id="edge85" class="edge"><title>ff6p45&#45;&#45;k0xofh</title>
<path fill="none" stroke="black" d="M205,-904.837C205,-892.882 205,-877.004 205,-865.07"/>
</g>
<!-- iciju8 -->
<g id="node33" class="node"><title>iciju8</title>
<polygon fill="none" stroke="black" points="298.967,-829 298.967,-865 729.033,-865 729.033,-829 298.967,-829"/>
<text text-anchor="middle" x="514" y="-841.4" font-family="Times,serif" font-size="14.00">[u&#39;1 minutes, Remark: Brief&#39;, u&#39;1 minutes, Remark: Brief, Remark: Pulse&#39;]</text>
</g>
<!-- k0xofh&#45;&#45;iciju8 -->
<g id="edge21" class="edge"><title>k0xofh&#45;&#45;iciju8</title>
<path fill="none" stroke="black" d="M241.355,-847C257.149,-847 277.029,-847 298.823,-847"/>
<text text-anchor="middle" x="269.983" y="-852.8" font-family="Times,serif" font-size="14.00">sample</text>
</g>
<!-- 4tr1s6 -->
<g id="node93" class="node"><title>4tr1s6</title>
<polygon fill="none" stroke="black" points="232,-790 178,-790 178,-754 232,-754 232,-790"/>
<text text-anchor="middle" x="205" y="-766.4" font-family="Times,serif" font-size="14.00">add</text>
</g>
<!-- k0xofh&#45;&#45;4tr1s6 -->
<g id="edge87" class="edge"><title>k0xofh&#45;&#45;4tr1s6</title>
<path fill="none" stroke="black" d="M205,-828.7C205,-817.063 205,-801.787 205,-790.176"/>
</g>
<!-- i7w4wg -->
<g id="node36" class="node"><title>i7w4wg</title>
<polygon fill="none" stroke="black" points="236.565,-113 173.435,-113 173.435,-77 236.565,-77 236.565,-113"/>
<text text-anchor="middle" x="205" y="-89.4" font-family="Times,serif" font-size="14.00">incubate</text>
</g>
<!-- i7w4wg&#45;&#45;8v7w7q -->
<g id="edge107" class="edge"><title>i7w4wg&#45;&#45;8v7w7q</title>
<path fill="none" stroke="black" d="M205,-76.8369C205,-64.882 205,-49.0045 205,-37.07"/>
</g>
<!-- 53ady9 -->
<g id="node37" class="node"><title>53ady9</title>
<polygon fill="none" stroke="black" points="284.388,-77 284.388,-113 507.612,-113 507.612,-77 284.388,-77"/>
<text text-anchor="middle" x="396" y="-89.4" font-family="Times,serif" font-size="14.00">[u&#39;70 degrees Celsius&#39;, u&#39;15 minutes&#39;]</text>
</g>
<!-- i7w4wg&#45;&#45;53ady9 -->
<g id="edge24" class="edge"><title>i7w4wg&#45;&#45;53ady9</title>
<path fill="none" stroke="black" d="M236.54,-95C250.102,-95 266.85,-95 284.342,-95"/>
<text text-anchor="middle" x="260.194" y="-100.8" font-family="Times,serif" font-size="14.00">tubes</text>
</g>
<!-- lk1yt0&#45;&#45;i7w4wg -->
<g id="edge105" class="edge"><title>lk1yt0&#45;&#45;i7w4wg</title>
<path fill="none" stroke="black" d="M205,-152.837C205,-140.882 205,-125.004 205,-113.07"/>
</g>
<!-- ijupup -->
<g id="node41" class="node"><title>ijupup</title>
<polygon fill="none" stroke="black" points="272.388,-153 272.388,-189 495.612,-189 495.612,-153 272.388,-153"/>
<text text-anchor="middle" x="384" y="-165.4" font-family="Times,serif" font-size="14.00">[u&#39;42 degrees Celsius&#39;, u&#39;50 minutes&#39;]</text>
</g>
<!-- lk1yt0&#45;&#45;ijupup -->
<g id="edge27" class="edge"><title>lk1yt0&#45;&#45;ijupup</title>
<path fill="none" stroke="black" d="M236.465,-171C248.375,-171 260.286,-171 272.196,-171"/>
</g>
<!-- at71cx -->
<g id="node45" class="node"><title>at71cx</title>
<polygon fill="none" stroke="black" points="282.967,-305 282.967,-341 713.033,-341 713.033,-305 282.967,-305"/>
<text text-anchor="middle" x="498" y="-317.4" font-family="Times,serif" font-size="14.00">[u&#39;1 minutes, Remark: Brief&#39;, u&#39;1 minutes, Remark: Brief, Remark: Pulse&#39;]</text>
</g>
<!-- nwv41j&#45;&#45;at71cx -->
<g id="edge30" class="edge"><title>nwv41j&#45;&#45;at71cx</title>
<path fill="none" stroke="black" d="M241.221,-323C253.087,-323 267.245,-323 282.727,-323"/>
<text text-anchor="middle" x="261.983" y="-328.8" font-family="Times,serif" font-size="14.00">tube</text>
</g>
<!-- 5bohex -->
<g id="node48" class="node"><title>5bohex</title>
<polygon fill="none" stroke="black" points="236.565,-265 173.435,-265 173.435,-229 236.565,-229 236.565,-265"/>
<text text-anchor="middle" x="205" y="-241.4" font-family="Times,serif" font-size="14.00">incubate</text>
</g>
<!-- nwv41j&#45;&#45;5bohex -->
<g id="edge101" class="edge"><title>nwv41j&#45;&#45;5bohex</title>
<path fill="none" stroke="black" d="M205,-304.837C205,-292.882 205,-277.004 205,-265.07"/>
</g>
<!-- 5bohex&#45;&#45;lk1yt0 -->
<g id="edge103" class="edge"><title>5bohex&#45;&#45;lk1yt0</title>
<path fill="none" stroke="black" d="M205,-228.837C205,-216.882 205,-201.004 205,-189.07"/>
</g>
<!-- 8fhazg -->
<g id="node49" class="node"><title>8fhazg</title>
<polygon fill="none" stroke="black" points="299.388,-229 299.388,-265 522.612,-265 522.612,-229 299.388,-229"/>
<text text-anchor="middle" x="411" y="-241.4" font-family="Times,serif" font-size="14.00">[u&#39;25 degrees Celsius&#39;, u&#39;10 minutes&#39;]</text>
</g>
<!-- 5bohex&#45;&#45;8fhazg -->
<g id="edge33" class="edge"><title>5bohex&#45;&#45;8fhazg</title>
<path fill="none" stroke="black" d="M236.736,-247C253.891,-247 276.219,-247 299.136,-247"/>
<text text-anchor="middle" x="267.694" y="-252.8" font-family="Times,serif" font-size="14.00">samples</text>
</g>
<!-- wfc3i7 -->
<g id="node52" class="node"><title>wfc3i7</title>
<polygon fill="none" stroke="black" points="232,-1017 178,-1017 178,-981 232,-981 232,-1017"/>
<text text-anchor="middle" x="205" y="-993.4" font-family="Times,serif" font-size="14.00">heat</text>
</g>
<!-- wfc3i7&#45;&#45;ff6p45 -->
<g id="edge83" class="edge"><title>wfc3i7&#45;&#45;ff6p45</title>
<path fill="none" stroke="black" d="M205,-980.837C205,-968.882 205,-953.004 205,-941.07"/>
</g>
<!-- 69bzhe -->
<g id="node53" class="node"><title>69bzhe</title>
<polygon fill="none" stroke="black" points="289.522,-981 289.522,-1017 646.478,-1017 646.478,-981 289.522,-981"/>
<text text-anchor="middle" x="468" y="-993.4" font-family="Times,serif" font-size="14.00">[u&#39;65 degrees Celsius, Remark: in a heat block&#39;, u&#39;5 minutes&#39;]</text>
</g>
<!-- wfc3i7&#45;&#45;69bzhe -->
<g id="edge36" class="edge"><title>wfc3i7&#45;&#45;69bzhe</title>
<path fill="none" stroke="black" d="M232.155,-999C247.182,-999 267.283,-999 289.437,-999"/>
<text text-anchor="middle" x="260.761" y="-1004.8" font-family="Times,serif" font-size="14.00">sample</text>
</g>
<!-- 9fn3sg -->
<g id="node57" class="node"><title>9fn3sg</title>
<polygon fill="none" stroke="black" points="298.888,-529 298.888,-565 515.112,-565 515.112,-529 298.888,-529"/>
<text text-anchor="middle" x="407" y="-541.4" font-family="Times,serif" font-size="14.00">[u&#39;25 degrees Celsius&#39;, u&#39;2 minutes&#39;]</text>
</g>
<!-- wht5z6&#45;&#45;9fn3sg -->
<g id="edge39" class="edge"><title>wht5z6&#45;&#45;9fn3sg</title>
<path fill="none" stroke="black" d="M236.562,-547C253.651,-547 275.879,-547 298.608,-547"/>
<text text-anchor="middle" x="267.444" y="-552.8" font-family="Times,serif" font-size="14.00">samples</text>
</g>
<!-- sgum0w -->
<g id="node99" class="node"><title>sgum0w</title>
<polygon fill="none" stroke="black" points="232,-490 178,-490 178,-454 232,-454 232,-490"/>
<text text-anchor="middle" x="205" y="-466.4" font-family="Times,serif" font-size="14.00">add</text>
</g>
<!-- wht5z6&#45;&#45;sgum0w -->
<g id="edge95" class="edge"><title>wht5z6&#45;&#45;sgum0w</title>
<path fill="none" stroke="black" d="M205,-528.7C205,-517.063 205,-501.787 205,-490.176"/>
</g>
<!-- lk1yto -->
<g id="node60" class="node"><title>lk1yto</title>
<ellipse fill="none" stroke="black" cx="549" cy="-171" rx="35.5738" ry="18"/>
<text text-anchor="middle" x="549" y="-165.4" font-family="Times,serif" font-size="14.00">lk1yto</text>
</g>
<!-- ahd90y -->
<g id="node64" class="node"><title>ahd90y</title>
<polygon fill="none" stroke="black" points="112.39,-1166 -0.389557,-1166 -0.389557,-1130 112.39,-1130 112.39,-1166"/>
<text text-anchor="middle" x="56" y="-1142.4" font-family="Times,serif" font-size="14.00">call_for_protocol</text>
</g>
<!-- t61jdx -->
<g id="node65" class="node"><title>t61jdx</title>
<polygon fill="none" stroke="black" points="261.39,-1166 148.61,-1166 148.61,-1130 261.39,-1130 261.39,-1166"/>
<text text-anchor="middle" x="205" y="-1142.4" font-family="Times,serif" font-size="14.00">call_for_protocol</text>
</g>
<!-- ahd90y&#45;&#45;t61jdx -->
<g id="edge46" class="edge"><title>ahd90y&#45;&#45;t61jdx</title>
<path fill="none" stroke="black" d="M112.457,-1148C124.507,-1148 136.557,-1148 148.607,-1148"/>
</g>
<!-- kttj4d -->
<g id="node69" class="node"><title>kttj4d</title>
<polygon fill="none" stroke="black" points="88.1554,-1092 23.8446,-1092 23.8446,-1056 88.1554,-1056 88.1554,-1092"/>
<text text-anchor="middle" x="56" y="-1068.4" font-family="Times,serif" font-size="14.00">combine</text>
</g>
<!-- ahd90y&#45;&#45;kttj4d -->
<g id="edge51" class="edge"><title>ahd90y&#45;&#45;kttj4d</title>
<path fill="none" stroke="black" d="M56,-1129.94C56,-1118.63 56,-1103.83 56,-1092.44"/>
</g>
<!-- 85jao2 -->
<g id="node88" class="node"><title>85jao2</title>
<polygon fill="none" stroke="black" points="237.155,-1092 172.845,-1092 172.845,-1056 237.155,-1056 237.155,-1092"/>
<text text-anchor="middle" x="205" y="-1068.4" font-family="Times,serif" font-size="14.00">combine</text>
</g>
<!-- t61jdx&#45;&#45;85jao2 -->
<g id="edge79" class="edge"><title>t61jdx&#45;&#45;85jao2</title>
<path fill="none" stroke="black" d="M205,-1129.94C205,-1118.63 205,-1103.83 205,-1092.44"/>
</g>
<!-- kttj4d&#45;&#45;oy38e9 -->
<g id="edge53" class="edge"><title>kttj4d&#45;&#45;oy38e9</title>
<path fill="none" stroke="black" d="M56,-1055.7C56,-1044.06 56,-1028.79 56,-1017.18"/>
</g>
<!-- pbud57 -->
<g id="node76" class="node"><title>pbud57</title>
<polygon fill="none" stroke="black" points="83,-716 29,-716 29,-680 83,-680 83,-716"/>
<text text-anchor="middle" x="56" y="-692.4" font-family="Times,serif" font-size="14.00">mix</text>
</g>
<!-- 892zia&#45;&#45;pbud57 -->
<g id="edge61" class="edge"><title>892zia&#45;&#45;pbud57</title>
<path fill="none" stroke="black" d="M56,-753.937C56,-742.626 56,-727.828 56,-716.441"/>
</g>
<!-- pbud57&#45;&#45;kbzqcb -->
<g id="edge63" class="edge"><title>pbud57&#45;&#45;kbzqcb</title>
<path fill="none" stroke="black" d="M56,-679.7C56,-668.063 56,-652.787 56,-641.176"/>
</g>
<!-- aoymzg -->
<g id="node82" class="node"><title>aoymzg</title>
<polygon fill="none" stroke="black" points="83,-416 29,-416 29,-380 83,-380 83,-416"/>
<text text-anchor="middle" x="56" y="-392.4" font-family="Times,serif" font-size="14.00">mix</text>
</g>
<!-- muwzdb&#45;&#45;aoymzg -->
<g id="edge69" class="edge"><title>muwzdb&#45;&#45;aoymzg</title>
<path fill="none" stroke="black" d="M56,-453.937C56,-442.626 56,-427.828 56,-416.441"/>
</g>
<!-- aoymzg&#45;&#45;thfavi -->
<g id="edge71" class="edge"><title>aoymzg&#45;&#45;thfavi</title>
<path fill="none" stroke="black" d="M56,-379.7C56,-368.063 56,-352.787 56,-341.176"/>
</g>
<!-- 85jao2&#45;&#45;wfc3i7 -->
<g id="edge81" class="edge"><title>85jao2&#45;&#45;wfc3i7</title>
<path fill="none" stroke="black" d="M205,-1055.7C205,-1044.06 205,-1028.79 205,-1017.18"/>
</g>
<!-- 0gdlq5 -->
<g id="node95" class="node"><title>0gdlq5</title>
<polygon fill="none" stroke="black" points="232,-716 178,-716 178,-680 232,-680 232,-716"/>
<text text-anchor="middle" x="205" y="-692.4" font-family="Times,serif" font-size="14.00">mix</text>
</g>
<!-- 4tr1s6&#45;&#45;0gdlq5 -->
<g id="edge89" class="edge"><title>4tr1s6&#45;&#45;0gdlq5</title>
<path fill="none" stroke="black" d="M205,-753.937C205,-742.626 205,-727.828 205,-716.441"/>
</g>
<!-- 0gdlq5&#45;&#45;d6m0hh -->
<g id="edge91" class="edge"><title>0gdlq5&#45;&#45;d6m0hh</title>
<path fill="none" stroke="black" d="M205,-679.7C205,-668.063 205,-652.787 205,-641.176"/>
</g>
<!-- l4ppoq -->
<g id="node101" class="node"><title>l4ppoq</title>
<polygon fill="none" stroke="black" points="232,-416 178,-416 178,-380 232,-380 232,-416"/>
<text text-anchor="middle" x="205" y="-392.4" font-family="Times,serif" font-size="14.00">mix</text>
</g>
<!-- sgum0w&#45;&#45;l4ppoq -->
<g id="edge97" class="edge"><title>sgum0w&#45;&#45;l4ppoq</title>
<path fill="none" stroke="black" d="M205,-453.937C205,-442.626 205,-427.828 205,-416.441"/>
</g>
<!-- l4ppoq&#45;&#45;nwv41j -->
<g id="edge99" class="edge"><title>l4ppoq&#45;&#45;nwv41j</title>
<path fill="none" stroke="black" d="M205,-379.7C205,-368.063 205,-352.787 205,-341.176"/>
</g>
</g>
</svg>
