<?xml version="1.0" encoding="UTF-8" standalone="no"?>
<!DOCTYPE svg PUBLIC "-//W3C//DTD SVG 1.1//EN"
 "http://www.w3.org/Graphics/SVG/1.1/DTD/svg11.dtd">
<!-- Generated by graphviz version 2.28.0 (20121217.1915)
 -->
<!-- Title: _anonymous_0 Pages: 1 -->
<svg width="1053pt" height="1080pt"
 viewBox="0.00 0.00 1053.00 1080.00" xmlns="http://www.w3.org/2000/svg" xmlns:xlink="http://www.w3.org/1999/xlink">
<g id="graph1" class="graph" transform="scale(1 1) rotate(0) translate(4 1076)">
<title>_anonymous_0</title>
<polygon fill="white" stroke="white" points="-4,5 -4,-1076 1050,-1076 1050,5 -4,5"/>
<!-- 892zia -->
<g id="node2" class="node"><title>892zia</title>
<polygon fill="none" stroke="black" points="424,-684 370,-684 370,-648 424,-648 424,-684"/>
<text text-anchor="middle" x="397" y="-660.4" font-family="Times,serif" font-size="14.00">add</text>
</g>
<!-- pbud57 -->
<g id="node35" class="node"><title>pbud57</title>
<polygon fill="none" stroke="black" points="424,-612 370,-612 370,-576 424,-576 424,-612"/>
<text text-anchor="middle" x="397" y="-588.4" font-family="Times,serif" font-size="14.00">mix</text>
</g>
<!-- 892zia&#45;&#45;pbud57 -->
<g id="edge34" class="edge"><title>892zia&#45;&#45;pbud57</title>
<path fill="none" stroke="white" d="M397,-647.697C397,-639.983 397,-630.712 397,-622.112"/>
<polygon fill="white" stroke="white" points="400.5,-622.104 397,-612.104 393.5,-622.104 400.5,-622.104"/>
</g>
<!-- d5fd4e -->
<g id="node3" class="node"><title>d5fd4e</title>
<polygon fill="none" stroke="black" points="351.54,-684 64.4602,-684 64.4602,-648 351.54,-648 351.54,-684"/>
<text text-anchor="middle" x="208" y="-660.4" font-family="Times,serif" font-size="14.00">Buffer, First strand cDNA synthesis (Invitrogen)</text>
</g>
<!-- d5fd4e&#45;&#45;892zia -->
<g id="edge3" class="edge"><title>d5fd4e&#45;&#45;892zia</title>
<path fill="none" stroke="white" stroke-dasharray="5,2" d="M351.596,-666C354.234,-666 356.872,-666 359.51,-666"/>
<polygon fill="none" stroke="white" points="359.687,-669.5 369.686,-666 359.686,-662.5 359.687,-669.5"/>
</g>
<!-- 5gw90k -->
<g id="node5" class="node"><title>5gw90k</title>
<polygon fill="none" stroke="black" points="668.044,-684 441.956,-684 441.956,-648 668.044,-648 668.044,-684"/>
<text text-anchor="middle" x="555" y="-660.4" font-family="Times,serif" font-size="14.00">Reducing agent, Dithiothreitol (DTT)</text>
</g>
<!-- 5gw90k&#45;&#45;892zia -->
<g id="edge5" class="edge"><title>5gw90k&#45;&#45;892zia</title>
<path fill="none" stroke="white" stroke-dasharray="5,2" d="M441.789,-666C439.31,-666 436.83,-666 434.35,-666"/>
<polygon fill="none" stroke="white" points="434.156,-662.5 424.156,-666 434.156,-669.5 434.156,-662.5"/>
</g>
<!-- th2c9d -->
<g id="node7" class="node"><title>th2c9d</title>
<polygon fill="none" stroke="black" points="857.505,-684 686.495,-684 686.495,-648 857.505,-648 857.505,-684"/>
<text text-anchor="middle" x="772" y="-660.4" font-family="Times,serif" font-size="14.00">Water, nuclease&#45;free, sterile</text>
</g>
<!-- th2c9d&#45;&#45;892zia -->
<g id="edge7" class="edge"><title>th2c9d&#45;&#45;892zia</title>
<path fill="none" stroke="white" stroke-dasharray="5,2" d="M730.082,-684.084C711.446,-691.182 689.009,-698.467 668,-702 618.473,-710.329 489.391,-718.624 442,-702 434.86,-699.496 428.012,-695.329 421.906,-690.701"/>
<polygon fill="none" stroke="white" points="424.014,-687.903 414.081,-684.217 419.548,-693.293 424.014,-687.903"/>
</g>
<!-- muwzdb -->
<g id="node10" class="node"><title>muwzdb</title>
<polygon fill="none" stroke="black" points="424,-396 370,-396 370,-360 424,-360 424,-396"/>
<text text-anchor="middle" x="397" y="-372.4" font-family="Times,serif" font-size="14.00">add</text>
</g>
<!-- aoymzg -->
<g id="node42" class="node"><title>aoymzg</title>
<polygon fill="none" stroke="black" points="424,-324 370,-324 370,-288 424,-288 424,-324"/>
<text text-anchor="middle" x="397" y="-300.4" font-family="Times,serif" font-size="14.00">mix</text>
</g>
<!-- muwzdb&#45;&#45;aoymzg -->
<g id="edge42" class="edge"><title>muwzdb&#45;&#45;aoymzg</title>
<path fill="none" stroke="white" d="M397,-359.697C397,-351.983 397,-342.712 397,-334.112"/>
<polygon fill="white" stroke="white" points="400.5,-334.104 397,-324.104 393.5,-334.104 400.5,-334.104"/>
</g>
<!-- w3v4gn -->
<g id="node11" class="node"><title>w3v4gn</title>
<polygon fill="none" stroke="black" points="351.323,-396 14.6768,-396 14.6768,-360 351.323,-360 351.323,-396"/>
<text text-anchor="middle" x="183" y="-372.4" font-family="Times,serif" font-size="14.00">Enzyme, SuperScript II reverse transcriptase (Invitrogen)</text>
</g>
<!-- w3v4gn&#45;&#45;muwzdb -->
<g id="edge10" class="edge"><title>w3v4gn&#45;&#45;muwzdb</title>
<path fill="none" stroke="white" stroke-dasharray="5,2" d="M351.441,-378C354.237,-378 357.032,-378 359.828,-378"/>
<polygon fill="none" stroke="white" points="359.95,-381.5 369.95,-378 359.95,-374.5 359.95,-381.5"/>
</g>
<!-- kttj4d -->
<g id="node14" class="node"><title>kttj4d</title>
<polygon fill="none" stroke="black" points="429.155,-972 364.845,-972 364.845,-936 429.155,-936 429.155,-972"/>
<text text-anchor="middle" x="397" y="-948.4" font-family="Times,serif" font-size="14.00">combine</text>
</g>
<!-- oy38e9 -->
<g id="node28" class="node"><title>oy38e9</title>
<polygon fill="none" stroke="black" points="424,-900 370,-900 370,-864 424,-864 424,-900"/>
<text text-anchor="middle" x="397" y="-876.4" font-family="Times,serif" font-size="14.00">heat</text>
</g>
<!-- kttj4d&#45;&#45;oy38e9 -->
<g id="edge26" class="edge"><title>kttj4d&#45;&#45;oy38e9</title>
<path fill="none" stroke="white" d="M397,-935.697C397,-927.983 397,-918.712 397,-910.112"/>
<polygon fill="white" stroke="white" points="400.5,-910.104 397,-900.104 393.5,-910.104 400.5,-910.104"/>
</g>
<!-- 0tisce -->
<g id="node15" class="node"><title>0tisce</title>
<polygon fill="none" stroke="black" points="346.398,-972 -0.398402,-972 -0.398402,-936 346.398,-936 346.398,-972"/>
<text text-anchor="middle" x="173" y="-948.4" font-family="Times,serif" font-size="14.00">Nucleic Acid, Primer, Oligo(dT)12&#45;18 primers (Invitrogen)</text>
</g>
<!-- 0tisce&#45;&#45;kttj4d -->
<g id="edge13" class="edge"><title>0tisce&#45;&#45;kttj4d</title>
<path fill="none" stroke="white" stroke-dasharray="5,2" d="M346.688,-954C349.324,-954 351.961,-954 354.598,-954"/>
<polygon fill="none" stroke="white" points="354.769,-957.5 364.769,-954 354.769,-950.5 354.769,-957.5"/>
</g>
<!-- qr1vjs -->
<g id="node17" class="node"><title>qr1vjs</title>
<polygon fill="none" stroke="black" points="652.889,-972 447.111,-972 447.111,-936 652.889,-936 652.889,-972"/>
<text text-anchor="middle" x="550" y="-948.4" font-family="Times,serif" font-size="14.00">Nucleic Acid, dNTPs (Invitrogen)</text>
</g>
<!-- qr1vjs&#45;&#45;kttj4d -->
<g id="edge15" class="edge"><title>qr1vjs&#45;&#45;kttj4d</title>
<path fill="none" stroke="white" stroke-dasharray="5,2" d="M446.722,-954C444.268,-954 441.815,-954 439.361,-954"/>
<polygon fill="none" stroke="white" points="439.273,-950.5 429.273,-954 439.273,-957.5 439.273,-950.5"/>
</g>
<!-- f5fe2d -->
<g id="node19" class="node"><title>f5fe2d</title>
<polygon fill="none" stroke="black" points="856.443,-972 671.557,-972 671.557,-936 856.443,-936 856.443,-972"/>
<text text-anchor="middle" x="764" y="-948.4" font-family="Times,serif" font-size="14.00">Nucleic Acid, RNA, poly(A)+</text>
</g>
<!-- f5fe2d&#45;&#45;kttj4d -->
<g id="edge17" class="edge"><title>f5fe2d&#45;&#45;kttj4d</title>
<path fill="none" stroke="white" stroke-dasharray="5,2" d="M719.154,-972.089C699.245,-979.188 675.312,-986.472 653,-990 562.568,-1004.3 534.135,-1018.11 447,-990 439.126,-987.46 431.446,-983.169 424.562,-978.417"/>
<polygon fill="none" stroke="white" points="426.416,-975.433 416.312,-972.247 422.224,-981.039 426.416,-975.433"/>
</g>
<!-- ddnuty -->
<g id="node21" class="node"><title>ddnuty</title>
<polygon fill="none" stroke="black" points="1045.5,-972 874.495,-972 874.495,-936 1045.5,-936 1045.5,-972"/>
<text text-anchor="middle" x="960" y="-948.4" font-family="Times,serif" font-size="14.00">Water, nuclease&#45;free, sterile</text>
</g>
<!-- ddnuty&#45;&#45;kttj4d -->
<g id="edge19" class="edge"><title>ddnuty&#45;&#45;kttj4d</title>
<path fill="none" stroke="white" stroke-dasharray="5,2" d="M918.082,-972.084C899.446,-979.182 877.009,-986.467 856,-990 766.37,-1005.07 533.501,-1017.9 447,-990 439.126,-987.46 431.446,-983.169 424.562,-978.417"/>
<polygon fill="none" stroke="white" points="426.416,-975.433 416.312,-972.247 422.224,-981.039 426.416,-975.433"/>
</g>
<!-- ahd90y -->
<g id="node24" class="node"><title>ahd90y</title>
<polygon fill="none" stroke="black" points="453.39,-1058 340.61,-1058 340.61,-1022 453.39,-1022 453.39,-1058"/>
<text text-anchor="middle" x="397" y="-1034.4" font-family="Times,serif" font-size="14.00">call_for_protocol</text>
</g>
<!-- ahd90y&#45;&#45;kttj4d -->
<g id="edge24" class="edge"><title>ahd90y&#45;&#45;kttj4d</title>
<path fill="none" stroke="white" d="M397,-1021.6C397,-1010.26 397,-995.227 397,-982.315"/>
<polygon fill="white" stroke="white" points="400.5,-982.095 397,-972.095 393.5,-982.095 400.5,-982.095"/>
</g>
<!-- f7zg5q -->
<g id="node25" class="node"><title>f7zg5q</title>
<polygon fill="none" stroke="black" points="322.443,-1058 137.557,-1058 137.557,-1022 322.443,-1022 322.443,-1058"/>
<text text-anchor="middle" x="230" y="-1034.4" font-family="Times,serif" font-size="14.00">Nucleic Acid, RNA, poly(A)+</text>
</g>
<!-- f7zg5q&#45;&#45;ahd90y -->
<g id="edge22" class="edge"><title>f7zg5q&#45;&#45;ahd90y</title>
<path fill="none" stroke="white" stroke-dasharray="5,2" d="M322.633,-1040C325.259,-1040 327.886,-1040 330.513,-1040"/>
<polygon fill="none" stroke="white" points="330.644,-1043.5 340.644,-1040 330.644,-1036.5 330.644,-1043.5"/>
</g>
<!-- f4hds3 -->
<g id="node30" class="node"><title>f4hds3</title>
<polygon fill="none" stroke="black" points="424,-828 370,-828 370,-792 424,-792 424,-828"/>
<text text-anchor="middle" x="397" y="-804.4" font-family="Times,serif" font-size="14.00">chill</text>
</g>
<!-- oy38e9&#45;&#45;f4hds3 -->
<g id="edge28" class="edge"><title>oy38e9&#45;&#45;f4hds3</title>
<path fill="none" stroke="white" d="M397,-863.697C397,-855.983 397,-846.712 397,-838.112"/>
<polygon fill="white" stroke="white" points="400.5,-838.104 397,-828.104 393.5,-838.104 400.5,-838.104"/>
</g>
<!-- 9b92ym -->
<g id="node32" class="node"><title>9b92ym</title>
<polygon fill="none" stroke="black" points="433.06,-756 360.94,-756 360.94,-720 433.06,-720 433.06,-756"/>
<text text-anchor="middle" x="397" y="-732.4" font-family="Times,serif" font-size="14.00">centrifuge</text>
</g>
<!-- f4hds3&#45;&#45;9b92ym -->
<g id="edge30" class="edge"><title>f4hds3&#45;&#45;9b92ym</title>
<path fill="none" stroke="white" d="M397,-791.697C397,-783.983 397,-774.712 397,-766.112"/>
<polygon fill="white" stroke="white" points="400.5,-766.104 397,-756.104 393.5,-766.104 400.5,-766.104"/>
</g>
<!-- 9b92ym&#45;&#45;892zia -->
<g id="edge32" class="edge"><title>9b92ym&#45;&#45;892zia</title>
<path fill="none" stroke="white" d="M397,-719.697C397,-711.983 397,-702.712 397,-694.112"/>
<polygon fill="white" stroke="white" points="400.5,-694.104 397,-684.104 393.5,-694.104 400.5,-694.104"/>
</g>
<!-- kbzqcb -->
<g id="node37" class="node"><title>kbzqcb</title>
<polygon fill="none" stroke="black" points="433.06,-540 360.94,-540 360.94,-504 433.06,-504 433.06,-540"/>
<text text-anchor="middle" x="397" y="-516.4" font-family="Times,serif" font-size="14.00">centrifuge</text>
</g>
<!-- pbud57&#45;&#45;kbzqcb -->
<g id="edge36" class="edge"><title>pbud57&#45;&#45;kbzqcb</title>
<path fill="none" stroke="white" d="M397,-575.697C397,-567.983 397,-558.712 397,-550.112"/>
<polygon fill="white" stroke="white" points="400.5,-550.104 397,-540.104 393.5,-550.104 400.5,-550.104"/>
</g>
<!-- j4json -->
<g id="node39" class="node"><title>j4json</title>
<polygon fill="none" stroke="black" points="428.565,-468 365.435,-468 365.435,-432 428.565,-432 428.565,-468"/>
<text text-anchor="middle" x="397" y="-444.4" font-family="Times,serif" font-size="14.00">incubate</text>
</g>
<!-- kbzqcb&#45;&#45;j4json -->
<g id="edge38" class="edge"><title>kbzqcb&#45;&#45;j4json</title>
<path fill="none" stroke="white" d="M397,-503.697C397,-495.983 397,-486.712 397,-478.112"/>
<polygon fill="white" stroke="white" points="400.5,-478.104 397,-468.104 393.5,-478.104 400.5,-478.104"/>
</g>
<!-- j4json&#45;&#45;muwzdb -->
<g id="edge40" class="edge"><title>j4json&#45;&#45;muwzdb</title>
<path fill="none" stroke="white" d="M397,-431.697C397,-423.983 397,-414.712 397,-406.112"/>
<polygon fill="white" stroke="white" points="400.5,-406.104 397,-396.104 393.5,-406.104 400.5,-406.104"/>
</g>
<!-- thfavi -->
<g id="node44" class="node"><title>thfavi</title>
<polygon fill="none" stroke="black" points="433.06,-252 360.94,-252 360.94,-216 433.06,-216 433.06,-252"/>
<text text-anchor="middle" x="397" y="-228.4" font-family="Times,serif" font-size="14.00">centrifuge</text>
</g>
<!-- aoymzg&#45;&#45;thfavi -->
<g id="edge44" class="edge"><title>aoymzg&#45;&#45;thfavi</title>
<path fill="none" stroke="white" d="M397,-287.697C397,-279.983 397,-270.712 397,-262.112"/>
<polygon fill="white" stroke="white" points="400.5,-262.104 397,-252.104 393.5,-262.104 400.5,-262.104"/>
</g>
<!-- ya985z -->
<g id="node46" class="node"><title>ya985z</title>
<polygon fill="none" stroke="black" points="428.565,-180 365.435,-180 365.435,-144 428.565,-144 428.565,-180"/>
<text text-anchor="middle" x="397" y="-156.4" font-family="Times,serif" font-size="14.00">incubate</text>
</g>
<!-- thfavi&#45;&#45;ya985z -->
<g id="edge46" class="edge"><title>thfavi&#45;&#45;ya985z</title>
<path fill="none" stroke="white" d="M397,-215.697C397,-207.983 397,-198.712 397,-190.112"/>
<polygon fill="white" stroke="white" points="400.5,-190.104 397,-180.104 393.5,-190.104 400.5,-190.104"/>
</g>
<!-- bavsb0 -->
<g id="node48" class="node"><title>bavsb0</title>
<polygon fill="none" stroke="black" points="428.565,-108 365.435,-108 365.435,-72 428.565,-72 428.565,-108"/>
<text text-anchor="middle" x="397" y="-84.4" font-family="Times,serif" font-size="14.00">incubate</text>
</g>
<!-- ya985z&#45;&#45;bavsb0 -->
<g id="edge48" class="edge"><title>ya985z&#45;&#45;bavsb0</title>
<path fill="none" stroke="white" d="M397,-143.697C397,-135.983 397,-126.712 397,-118.112"/>
<polygon fill="white" stroke="white" points="400.5,-118.104 397,-108.104 393.5,-118.104 400.5,-118.104"/>
</g>
<!-- adrmwt -->
<g id="node50" class="node"><title>adrmwt</title>
<polygon fill="none" stroke="black" points="428.565,-36 365.435,-36 365.435,-0 428.565,-0 428.565,-36"/>
<text text-anchor="middle" x="397" y="-12.4" font-family="Times,serif" font-size="14.00">incubate</text>
</g>
<!-- bavsb0&#45;&#45;adrmwt -->
<g id="edge50" class="edge"><title>bavsb0&#45;&#45;adrmwt</title>
<path fill="none" stroke="white" d="M397,-71.6966C397,-63.9827 397,-54.7125 397,-46.1124"/>
<polygon fill="white" stroke="white" points="400.5,-46.1043 397,-36.1043 393.5,-46.1044 400.5,-46.1043"/>
</g>
<!-- sgum0w -->
<g id="node52" class="node"><title>sgum0w</title>
<polygon fill="none" stroke="black" points="534.585,-1071.95 471.415,-1071.95 471.415,-1008.05 534.585,-1008.05 534.585,-1071.95"/>
<text text-anchor="middle" x="503" y="-1034.4" font-family="Times,serif" font-size="14.00">sgum0w</text>
</g>
<!-- xou0ap -->
<g id="node53" class="node"><title>xou0ap</title>
<polygon fill="none" stroke="black" points="609.41,-1068.71 552.59,-1068.71 552.59,-1011.29 609.41,-1011.29 609.41,-1068.71"/>
<text text-anchor="middle" x="581" y="-1034.4" font-family="Times,serif" font-size="14.00">xou0ap</text>
</g>
<!-- 4tr1s6 -->
<g id="node54" class="node"><title>4tr1s6</title>
<polygon fill="none" stroke="black" points="678.25,-1065.5 627.75,-1065.5 627.75,-1014.5 678.25,-1014.5 678.25,-1065.5"/>
<text text-anchor="middle" x="653" y="-1034.4" font-family="Times,serif" font-size="14.00">4tr1s6</text>
</g>
<!-- 7hf624 -->
<g id="node55" class="node"><title>7hf624</title>
<polygon fill="none" stroke="black" points="751.25,-1067.66 696.75,-1067.66 696.75,-1012.34 751.25,-1012.34 751.25,-1067.66"/>
<text text-anchor="middle" x="724" y="-1034.4" font-family="Times,serif" font-size="14.00">7hf624</text>
</g>
<!-- 85jao2 -->
<g id="node56" class="node"><title>85jao2</title>
<polygon fill="none" stroke="black" points="824.078,-1067.1 769.922,-1067.1 769.922,-1012.9 824.078,-1012.9 824.078,-1067.1"/>
<text text-anchor="middle" x="797" y="-1034.4" font-family="Times,serif" font-size="14.00">85jao2</text>
</g>
<!-- zhidn9 -->
<g id="node57" class="node"><title>zhidn9</title>
<polygon fill="none" stroke="black" points="896.078,-1067.1 841.922,-1067.1 841.922,-1012.9 896.078,-1012.9 896.078,-1067.1"/>
<text text-anchor="middle" x="869" y="-1034.4" font-family="Times,serif" font-size="14.00">zhidn9</text>
</g>
<!-- t61jdx -->
<g id="node58" class="node"><title>t61jdx</title>
<polygon fill="none" stroke="black" points="965.337,-1065.78 914.663,-1065.78 914.663,-1014.22 965.337,-1014.22 965.337,-1065.78"/>
<text text-anchor="middle" x="940" y="-1034.4" font-family="Times,serif" font-size="14.00">t61jdx</text>
</g>
<!-- 2dnl3u -->
<g id="node59" class="node"><title>2dnl3u</title>
<polygon fill="none" stroke="black" points="1038.17,-1067.39 983.832,-1067.39 983.832,-1012.61 1038.17,-1012.61 1038.17,-1067.39"/>
<text text-anchor="middle" x="1011" y="-1034.4" font-family="Times,serif" font-size="14.00">2dnl3u</text>
</g>
</g>
</svg>
